<?xml version="1.0" encoding="UTF-8"?>
<svg id="Layer_2" data-name="Layer 2" xmlns="http://www.w3.org/2000/svg" viewBox="0 0 199.95 199.95">
  <defs>
    <style>
      .cls-1 {
        fill: #fff;
      }

      .cls-2 {
        fill: #ed1c24;
      }
    </style>
  </defs>
  <g id="Layer_1-2" data-name="Layer 1">
    <rect class="cls-2" width="199.95" height="199.95"/>
    <g>
      <g>
        <path class="cls-1" d="M57.53,58.86h-.73c0,7.89-8.58,16.47-16.47,16.47v.73c7.89,0,16.47,8.58,16.47,16.47h.73c0-7.89,8.58-16.47,16.47-16.47v-.73c-7.89,0-16.47-8.58-16.47-16.47Z"/>
        <rect class="cls-1" x="14.79" y="75.33" width="84.76" height=".73" transform="translate(132.86 18.53) rotate(90)"/>
        <rect class="cls-1" x="14.79" y="75.33" width="84.76" height=".73" transform="translate(114.33 151.39) rotate(180)"/>
        <rect class="cls-1" x="99.55" y="75.33" width="42.38" height=".73" transform="translate(241.48 151.39) rotate(180)"/>
      </g>
      <g>
        <g>
          <rect class="cls-1" x="131.48" y="148.9" width="4.92" height="9.76"/>
          <path class="cls-1" d="M140.27,141.16v2.24l.17.03c.82.16,1.4.35,1.72.56.31.2.54.47.69.79.16.34.26.8.3,1.36.04.59.07,1.51.07,2.73v10.32c0,1.57-.06,2.66-.17,3.25-.11.56-.31,1.01-.61,1.33-.3.32-.86.59-1.66.79l-.15.04v2.02h13.1v-2.03l-.16-.04c-.75-.17-1.27-.43-1.56-.75-.29-.33-.48-.79-.57-1.38-.1-.62-.14-1.72-.14-3.27v-9.72c0-.74.23-1.44.69-2.09.46-.66,1.05-1.18,1.73-1.55.68-.37,1.34-.55,1.96-.55.47,0,.86.06,1.16.16.3.11.56.26.78.46.22.2.42.47.59.8.18.33.32.73.42,1.18.1.46.18,1.07.22,1.81.04.76.07,1.7.07,2.79v6.73c0,1.59-.05,2.7-.16,3.29-.1.57-.29,1.02-.57,1.34-.28.32-.81.56-1.57.74l-.16.04v2.03h13.02v-2.02l-.15-.04c-.62-.16-1.08-.35-1.37-.58-.28-.22-.48-.5-.61-.83-.13-.35-.22-.82-.27-1.4-.04-.59-.07-1.47-.07-2.6v-8.18c0-.97.03-1.68.09-2.1.06-.41.17-.79.33-1.12.16-.33.37-.63.64-.9.27-.27.61-.55.99-.82.38-.26.76-.46,1.13-.59.37-.13.77-.19,1.2-.19.63,0,1.15.11,1.53.33.38.22.71.58.99,1.08.29.51.48,1.23.58,2.14.1.93.16,2.16.16,3.65v6.73c0,1.57-.06,2.67-.17,3.28-.11.58-.3,1.04-.58,1.36-.27.32-.79.56-1.53.74l-.16.04v2.03h13.18v-2.02l-.16-.04c-.46-.11-.85-.25-1.18-.41-.3-.15-.54-.34-.71-.56-.17-.22-.3-.51-.4-.87-.1-.37-.17-.87-.19-1.5-.03-.64-.04-1.33-.04-2.06v-9.16c0-1.55-.14-2.9-.42-4.02-.28-1.13-.74-2.09-1.35-2.84-.62-.76-1.42-1.33-2.38-1.69-.95-.36-2.15-.54-3.58-.54s-2.87.33-4.21.97c-1.27.62-2.78,1.68-4.48,3.15-.37-.89-.83-1.62-1.39-2.2-.62-.63-1.38-1.11-2.28-1.44-.89-.33-2.01-.49-3.33-.49s-2.72.3-4.03.9c-1.28.58-2.11,1.53-3.69,2.92l-.28.02.02-3.61"/>
        </g>
        <path class="cls-1" d="M43.57,130.98v2.17l.26.05c1.02.19,1.47.39,1.67.52.28.18.48.43.62.75.15.35.25.88.3,1.56.05.71.08,1.95.08,3.68v1.82c-.84-.21-1.59-.35-2.24-.43-.75-.09-1.51-.14-2.27-.14-2.67,0-4.99.51-6.9,1.5-1.92,1.01-3.38,2.51-4.36,4.46-.96,1.93-1.45,4.34-1.45,7.15,0,4.14.81,7.3,2.4,9.39,1.61,2.11,4.06,3.18,7.28,3.18,1.3,0,3.51-.47,4.92-1.13,1.33-.62,1.77-.9,2.98-2.03l.05,3.15h10.51v-2.19h0c-.76-.15-1.55-.7-1.86-.94-.28-.21-.51-.48-.64-.77-.14-.31-.23-.73-.27-1.26-.04-.56-.06-1.46-.06-2.69v-27.8M37.75,152.92c0-1.84.19-3.44.57-4.78.37-1.31.92-2.32,1.64-3,.71-.67,1.54-1,2.53-1,1.37,0,2.35.43,3,1.31.66.9,1,2.33,1,4.24v8.14c0,.88-.23,1.66-.69,2.33-.47.68-1.04,1.18-1.72,1.51-.69.33-1.38.49-2.07.49-1.44,0-2.48-.72-3.17-2.19-.72-1.53-1.08-3.9-1.08-7.05Z"/>
        <path class="cls-1" d="M70.84,166.64c2.27,0,4.31-.38,6.06-1.13,1.75-.75,3.54-2.03,5.31-3.81l.22-.22-2.53-2.6-.23.22c-1.19,1.15-2.31,1.95-3.31,2.4-1,.44-2.15.67-3.41.67-2.12,0-3.72-.66-4.74-1.97-1-1.28-1.54-3.3-1.59-6h16.36v-.32c-.02-1.94-.21-3.62-.55-4.99-.33-1.35-.84-2.57-1.51-3.62-.57-.89-1.3-1.67-2.17-2.3-.87-.63-1.92-1.13-3.13-1.48-1.2-.35-2.62-.53-4.2-.53-2.57,0-4.86.51-6.8,1.52-1.96,1.01-3.49,2.52-4.56,4.48-1.06,1.95-1.6,4.3-1.6,6.99,0,4.16,1.05,7.35,3.12,9.48,2.07,2.13,5.19,3.22,9.27,3.22ZM66.77,150.91c.17-2.17.62-3.86,1.34-5.02.73-1.18,1.67-1.76,2.89-1.76s2.14.54,2.71,1.66c.57,1.12.9,2.84.99,5.11h-7.92Z"/>
        <path class="cls-1" d="M89.02,165.83c1.13.53,2.47.8,3.99.8s3.69-.29,5.06-.89c1.31-.57,1.97-1.02,3.35-2.26v3.16s10.02,0,10.02,0v-2.19h0c-.63-.09-1.41-.55-1.64-.72-.19-.13-.35-.33-.49-.47-.14-.14-.26-.33-.35-.58-.1-.25-.18-.66-.22-1.22-.05-.57-.08-1.4-.08-2.46v-9.54c0-2.11-.32-3.8-.97-5.01-.65-1.24-1.65-2.14-2.96-2.69-1.28-.54-3-.81-5.12-.81-.81,0-1.64.05-2.46.15-.81.1-1.74.27-2.78.51-1.02.23-2.08.54-3.14.9-1.05.36-2.38.88-3.97,1.55l-.19.08v4.98h5.46l.05-.26c.22-1.24.55-2.22.99-2.9.43-.67.91-1.13,1.42-1.36.53-.24,1.18-.36,1.92-.36s1.36.15,1.88.46c.51.3.93.83,1.26,1.59.34.78.51,1.92.51,3.38v2.03c-4.93.37-8.69,1.25-11.15,2.62-2.58,1.43-3.89,3.43-3.89,5.94,0,1.24.3,2.36.89,3.32.59.96,1.47,1.72,2.61,2.26ZM95.16,156.06c1.17-.81,2.99-1.26,5.42-1.35v3.73c0,.69-.19,1.35-.57,1.96-.38.62-.91,1.12-1.56,1.49-.65.37-1.36.56-2.09.56-.95,0-1.69-.24-2.21-.71-.52-.47-.77-1.15-.77-2.07,0-1.6.58-2.78,1.78-3.6Z"/>
        <path class="cls-1" d="M113.61,130.98v2.18h0c.68.09,1.45.48,1.77.74.24.19.47.4.62.63.15.23.27.55.34.95.07.43.13.98.15,1.62.03.65.04,1.69.04,3.08v19.07c0,1.03-.02,1.83-.05,2.39-.03.53-.1.94-.21,1.23-.11.29-.23.52-.38.7-.14.17-.33.32-.59.46-.27.14-.65.27-1.13.37l-.25.05v2.19h13.28v-2.18l-.24-.06c-.81-.2-1.36-.45-1.63-.75-.28-.3-.46-.72-.55-1.25-.1-.57-.15-1.63-.15-3.15v-28.27"/>
        <g>
          <rect class="cls-1" x="17.87" y="130.98" width="7.78" height="4.88"/>
          <path class="cls-1" d="M28.04,164.38c-.46-.11-.83-.23-1.1-.37-.26-.13-.45-.27-.58-.42h0c-.14-.16-.25-.33-.33-.51-.09-.19-.15-.41-.2-.66-.05-.25-.09-.63-.11-1.12-.03-.5-.04-1.21-.04-2.12l-.03-15.9v-6.24h-11.07v2.46l.26.05c.57.11,1.04.24,1.39.39.32.14.57.32.75.57.19.25.32.61.39,1.05.07.44.1,1.02.11,1.72l.03,15.92c0,1.54-.05,2.61-.16,3.18-.1.53-.29.95-.57,1.25-.28.3-.82.55-1.61.75l-.24.06v2.2h13.36v-2.2l-.25-.06Z"/>
        </g>
      </g>
    </g>
  </g>
</svg>
