<?xml version="1.0" encoding="UTF-8"?>
<svg id="Layer_2" data-name="Layer 2" xmlns="http://www.w3.org/2000/svg" viewBox="0 0 110.95 50.11">
  <defs>
    <style>
      .cls-1 {
        fill: #fff;
      }
    </style>
  </defs>
  <g id="Layer_1-2" data-name="Layer 1">
    <g>
      <g>
        <path class="cls-1" d="M10.51,16.26v.79l.09.02c.37.07.53.14.61.19.1.07.17.15.22.27.05.13.09.32.11.57.02.26.03.71.03,1.34v.66c-.31-.08-.58-.13-.81-.16-.27-.03-.55-.05-.82-.05-.97,0-1.81.18-2.5.55-.7.37-1.23.91-1.58,1.62-.35.7-.53,1.57-.53,2.59,0,1.5.29,2.65.87,3.41.59.77,1.47,1.16,2.64,1.16.47,0,1.28-.17,1.78-.41.48-.23.64-.33,1.08-.74l.02,1.14h3.81v-.79h0c-.28-.06-.56-.25-.68-.34-.1-.08-.19-.17-.23-.28-.05-.11-.08-.27-.1-.46-.02-.2-.02-.53-.02-.98v-10.09M8.4,24.22c0-.67.07-1.25.21-1.73.13-.47.33-.84.6-1.09.26-.24.56-.36.92-.36.5,0,.85.16,1.09.48.24.33.36.84.36,1.54v2.96c0,.32-.08.6-.25.84-.17.25-.38.43-.62.55-.25.12-.5.18-.75.18-.52,0-.9-.26-1.15-.79-.26-.55-.39-1.42-.39-2.56Z"/>
        <path class="cls-1" d="M20.4,29.2c.82,0,1.56-.14,2.2-.41.64-.27,1.28-.74,1.93-1.38l.08-.08-.92-.94-.08.08c-.43.42-.84.71-1.2.87-.36.16-.78.24-1.24.24-.77,0-1.35-.24-1.72-.71-.36-.46-.56-1.2-.58-2.18h5.94v-.12c0-.7-.07-1.31-.2-1.81-.12-.49-.31-.93-.55-1.31-.21-.32-.47-.61-.79-.83-.32-.23-.7-.41-1.14-.54-.44-.13-.95-.19-1.53-.19-.93,0-1.76.18-2.47.55-.71.37-1.27.91-1.65,1.63-.39.71-.58,1.56-.58,2.54,0,1.51.38,2.67,1.13,3.44.75.77,1.88,1.17,3.36,1.17ZM18.93,23.5c.06-.79.23-1.4.48-1.82.26-.43.61-.64,1.05-.64s.78.2.98.6c.21.41.33,1.03.36,1.86h-2.87Z"/>
        <path class="cls-1" d="M27,28.91c.41.19.9.29,1.45.29s1.34-.1,1.84-.32c.47-.21.72-.37,1.21-.82v1.15s3.64,0,3.64,0v-.79h0c-.23-.03-.51-.2-.59-.26-.07-.05-.13-.12-.18-.17-.05-.05-.09-.12-.13-.21-.04-.09-.06-.24-.08-.44-.02-.21-.03-.51-.03-.89v-3.46c0-.77-.12-1.38-.35-1.82-.24-.45-.6-.78-1.07-.98-.47-.19-1.09-.29-1.86-.29-.3,0-.6.02-.89.05-.29.04-.63.1-1.01.18-.37.09-.75.2-1.14.33-.38.13-.86.32-1.44.56l-.07.03v1.81h1.98l.02-.1c.08-.45.2-.8.36-1.05.16-.24.33-.41.52-.49.19-.09.43-.13.7-.13s.49.06.68.17c.18.11.34.3.46.58.12.28.19.7.19,1.23v.74c-1.79.14-3.15.46-4.05.95-.94.52-1.41,1.24-1.41,2.15,0,.45.11.86.32,1.21.21.35.53.63.95.82ZM29.23,25.36c.42-.29,1.09-.46,1.97-.49v1.35c0,.25-.07.49-.21.71-.14.22-.33.41-.57.54-.24.13-.49.2-.76.2-.34,0-.61-.09-.8-.26-.19-.17-.28-.42-.28-.75,0-.58.21-1.01.65-1.31Z"/>
        <path class="cls-1" d="M35.93,16.26v.79h0c.25.03.53.18.64.27.09.07.17.15.23.23.06.08.1.2.12.35.03.16.05.36.05.59,0,.24.01.61.01,1.12v6.92c0,.37,0,.66-.02.87-.01.19-.04.34-.08.45-.04.1-.09.19-.14.25-.05.06-.12.12-.21.17-.1.05-.23.1-.41.14l-.09.02v.79h4.82v-.79l-.09-.02c-.29-.07-.49-.16-.59-.27-.1-.11-.17-.26-.2-.45-.04-.21-.05-.59-.05-1.14v-10.26"/>
        <g>
          <path class="cls-1" d="M0,20v.89l.09.02c.21.04.38.09.5.14.12.05.21.12.27.21.07.09.11.22.14.38.03.17.04.4.04.69v4.17c0,.56-.02.95-.06,1.15-.04.19-.11.35-.21.45-.1.11-.3.2-.58.27l-.09.02v.8h4.85v-.8l-.09-.02c-.17-.04-.3-.08-.4-.13-.09-.05-.16-.1-.21-.15h0c-.05-.06-.09-.12-.12-.19-.03-.07-.06-.15-.07-.24-.02-.09-.03-.23-.04-.41,0-.18-.01-.44-.01-.77v-6.49"/>
          <rect class="cls-1" x="1.18" y="17.8" width="2.82" height="1.77"/>
        </g>
      </g>
      <g>
        <path class="cls-1" d="M81.22,9h-.26c0,2.78-3.02,5.8-5.8,5.8v.26c2.78,0,5.8,3.02,5.8,5.8h.26c0-2.78,3.02-5.8,5.8-5.8v-.26c-2.78,0-5.8-3.02-5.8-5.8Z"/>
        <rect class="cls-1" x="66.17" y="14.8" width="29.85" height=".26" transform="translate(96.02 -66.17) rotate(90)"/>
        <rect class="cls-1" x="66.17" y="14.8" width="29.85" height=".26" transform="translate(162.19 29.85) rotate(180)"/>
        <rect class="cls-1" x="96.02" y="14.8" width="14.93" height=".26" transform="translate(206.97 29.85) rotate(180)"/>
      </g>
      <g>
        <path class="cls-1" d="M0,35.53v1.17l.09.02c.46.09.78.2.96.32.17.12.31.27.39.45.09.19.14.45.17.78.02.33.04.86.04,1.56v5.88c0,.9-.03,1.52-.09,1.85-.06.32-.18.57-.34.76-.17.18-.48.34-.93.45l-.09.02v1.15h7.35v-1.16l-.09-.02c-.42-.1-.71-.24-.88-.43-.16-.19-.27-.45-.32-.78-.05-.35-.08-.98-.08-1.86v-5.54c0-.42.13-.82.39-1.19.26-.37.59-.67.97-.88.38-.21.75-.32,1.1-.32.26,0,.48.03.65.09.17.06.31.15.44.26.12.11.24.27.33.45.1.19.18.42.23.67.06.26.1.61.12,1.03.02.43.04.97.04,1.59v3.84c0,.91-.03,1.54-.09,1.88-.06.32-.16.58-.32.77-.16.18-.45.32-.88.42l-.09.02v1.16h7.31v-1.15l-.09-.02c-.35-.09-.61-.2-.77-.33-.16-.12-.27-.28-.34-.47-.08-.2-.13-.47-.15-.8-.02-.34-.04-.84-.04-1.48v-4.67c0-.56.02-.96.05-1.2.03-.24.09-.45.18-.64.09-.19.21-.36.36-.51.15-.16.34-.31.56-.47.21-.15.42-.26.63-.34.21-.07.43-.11.68-.11.35,0,.64.06.86.19.21.12.4.33.56.61.16.29.27.7.33,1.22.06.53.09,1.23.09,2.08v3.84c0,.89-.03,1.52-.09,1.87-.06.33-.17.59-.32.78-.15.18-.44.32-.86.42l-.09.02v1.15h7.4v-1.15l-.09-.02c-.26-.06-.48-.14-.66-.23-.17-.09-.3-.19-.4-.32-.09-.13-.17-.29-.23-.5-.06-.21-.09-.5-.11-.85-.01-.36-.02-.76-.02-1.18v-5.22c0-.88-.08-1.65-.23-2.29-.16-.64-.41-1.19-.76-1.62-.35-.43-.8-.76-1.33-.97-.53-.2-1.21-.31-2.01-.31s-1.61.19-2.36.56c-.72.35-1.56.96-2.51,1.8-.21-.51-.47-.93-.78-1.25-.35-.36-.78-.64-1.28-.82-.5-.19-1.13-.28-1.87-.28s-1.53.17-2.26.51c-.72.33-1.18.45-2.07,1.25h-.16v-1.52"/>
        <path class="cls-1" d="M39.55,42.74c0-1.12-.12-2.1-.32-2.89-.19-.78-.48-1.48-.86-2.09-.32-.51-.74-.96-1.23-1.32-.49-.36-1.09-.65-1.78-.85-.69-.2-1.5-.3-2.4-.3-1.47,0-2.78.29-3.89.88-1.12.58-1.99,1.45-2.6,2.58-.61,1.13-.91,2.49-.91,4.04,0,2.4.6,4.25,1.78,5.47,1.18,1.23,2.96,1.85,5.3,1.85,1.3,0,2.47-.22,3.47-.65,1-.43,2.02-1.17,3.04-2.2l.08-.08-1.36-1.42-.08.08c-.69.67-1.34,1.15-1.93,1.41-.59.26-1.26.4-1.99.4-1.25,0-2.18-.39-2.79-1.17-.6-.77-.91-1.98-.93-3.61h9.43v-.12ZM30.99,38.11c.43-.71,1-1.05,1.72-1.05s1.28.33,1.62,1c.34.67.53,1.7.58,3.06h-4.71c.1-1.31.36-2.32.79-3.01Z"/>
        <g>
          <path class="cls-1" d="M66.28,35.51v1.39l.09.02c.33.06.6.14.8.23.19.08.35.2.46.35.11.15.19.36.23.63.04.28.07.64.07,1.1v6.55c0,.88-.03,1.5-.09,1.82-.06.32-.18.57-.34.75-.17.18-.49.33-.95.45l-.09.02v1.14h7.49v-1.14l-.09-.02c-.27-.06-.48-.14-.64-.22-.15-.08-.27-.16-.35-.25h0c-.08-.09-.15-.2-.2-.31-.05-.11-.09-.24-.12-.39-.03-.15-.05-.37-.06-.65-.01-.29-.02-.69-.02-1.21v-10.25"/>
          <rect class="cls-1" x="68.15" y="32.22" width="4.31" height="2.65"/>
        </g>
        <path class="cls-1" d="M85.39,46.03c-.68.61-1.28,1.03-1.78,1.26-.49.23-1.03.35-1.58.35-.76,0-1.38-.2-1.84-.59-.47-.4-.81-.97-1.02-1.71-.21-.75-.32-1.69-.32-2.78s.07-2.02.22-2.73c.15-.71.34-1.28.59-1.7.24-.41.52-.7.83-.87.31-.17.65-.25,1-.25.52,0,.91.18,1.19.57.28.39.5,1.03.65,1.9l.02.1h3.16v-3.64l-.08-.02c-.66-.19-1.39-.34-2.2-.45-.8-.11-1.62-.16-2.42-.16-1.51,0-2.87.3-4.04.89-1.18.59-2.09,1.48-2.72,2.63-.63,1.15-.94,2.52-.94,4.09,0,2.33.58,4.13,1.73,5.36,1.15,1.23,2.83,1.85,5.01,1.85,1.08,0,2.1-.2,3.01-.6.91-.4,1.87-1.06,2.85-1.98l.08-.08-1.29-1.5-.09.08Z"/>
        <path class="cls-1" d="M99.2,43.66c-.31-.54-.78-1.02-1.37-1.43-.59-.41-1.36-.8-2.3-1.17-1.01-.4-1.7-.73-2.05-.96-.34-.23-.58-.47-.71-.71-.13-.24-.19-.53-.19-.87,0-.48.17-.84.53-1.1.37-.27.87-.41,1.49-.41.44,0,.82.06,1.13.18.31.12.59.34.85.66.26.32.51.78.73,1.38l.03.08h2.16v-3.53l-.1-.02c-1.1-.19-2.01-.31-2.7-.37-.7-.06-1.41-.09-2.14-.09-1.24,0-2.35.17-3.32.51-.97.34-1.73.83-2.26,1.47-.53.64-.8,1.42-.8,2.3,0,.54.11,1.04.32,1.48.21.44.51.84.87,1.19.36.35.79.67,1.28.95.48.28,1,.53,1.55.76.96.41,1.65.74,2.04.98.39.24.66.49.83.75.16.26.24.57.24.93,0,.59-.17,1.02-.53,1.32-.36.3-.9.46-1.61.46-.83,0-1.5-.21-1.99-.62-.49-.41-.86-1.05-1.09-1.89l-.02-.09h-2.2v3.61l.09.02c2,.45,3.85.67,5.48.67.91,0,1.75-.09,2.5-.27.76-.18,1.42-.45,1.96-.82.55-.37.98-.85,1.29-1.42.31-.57.46-1.26.46-2.04,0-.72-.16-1.36-.48-1.9Z"/>
        <path class="cls-1" d="M58.29,37.23v-1.71h-11.96s0-3.3,0-3.3h-3.79c-.05.75-.11,1.27-.21,1.77-.09.49-.22.9-.37,1.2-.15.3-.36.53-.63.71-.27.18-.71.31-1.29.41l-.1.02v1.19h1.86v7.76c0,1.56.38,2.74,1.13,3.51.75.78,1.89,1.17,3.39,1.17.8,0,1.58-.15,2.3-.44.72-.29,1.53-.8,2.41-1.5l.09-.07-1.08-1.37-.09.08c-.26.22-.51.39-.74.51-.23.12-.46.2-.66.24-.21.04-.45.07-.72.07-.34,0-.61-.11-.84-.33-.23-.22-.4-.58-.5-1.06-.1-.5-.15-1.28-.15-2.33v-4.88c0-.72.54-1.4,1.2-1.4h4.47s.38,0,.38,0c.51,0,.72.2.83.32.14.15.25.33.33.52.05.12.09.29.12.47.01.31.02.72.02,1.22v5.79c0,.88-.03,1.49-.09,1.82-.06.32-.18.57-.34.75-.17.18-.48.33-.93.45l-.09.02v1.14h7.56v-1.14l-.1-.02c-.47-.08-.8-.21-.99-.4s-.32-.45-.38-.78c-.07-.35-.1-.97-.1-1.85v-4.5c0-.48.01-.85.04-1.09.03-.23.09-.47.18-.7.09-.22.24-.45.45-.67.21-.22.45-.39.7-.51.25-.12.47-.18.67-.18.43,0,.76.13,1.01.4.26.28.47.68.64,1.21l.03.08h2.89v-4.1l-.09-.02c-.67-.12-1.32-.19-1.92-.19-.9,0-1.76.18-2.56.49-.63.24-.91.46-1.43.81"/>
      </g>
    </g>
  </g>
</svg>
