<?xml version="1.0" encoding="UTF-8"?>
<svg id="Layer_2" data-name="Layer 2" xmlns="http://www.w3.org/2000/svg" viewBox="0 0 1263.55 1219.56">
  <defs>
    <style>
      .cls-1 {
        stroke: #51697c;
        stroke-miterlimit: 10;
        stroke-width: .75px;
      }

      .cls-1, .cls-2, .cls-3, .cls-4 {
        fill: #010101;
      }

      .cls-2 {
        opacity: .5;
      }

      .cls-3 {
        fill-rule: evenodd;
      }
    </style>
  </defs>
  <g id="Layer_1-2" data-name="Layer 1">
    <g>
      <path class="cls-4" d="M992.64,587.96c-2.81,0-6.88-.73-9.85-1.95v6.32c2.77,1.41,5.95,1.74,9.95,1.74,3.19,0,6.12-.56,8.6-2.57,2.52-2.06,3.48-4.68,3.48-7.69,0-4.5-3.54-7.39-7.42-8.48l-2.1-.61c-1.7-.53-4.86-1.11-4.86-3.48s3.18-2.54,5.23-2.54,5.52.02,7.07.96v-5.75c-2.35-1.23-5.55-1.24-8.75-1.24-6.35,0-11.44,3.07-11.44,9.99,0,5.55,4.28,7.15,9.18,8.48,1.77.49,4.91,1.54,4.91,3.75s-2.06,3.06-4,3.06Z"/>
      <path class="cls-4" d="M971.24,568.93c2.79,0,5.45.5,7.91,1.6v-5.95c-1.87-1.22-6.77-1.7-9.39-1.7-4.41,0-8.87,1.83-11.95,4.86-3,2.95-4.33,6.94-4.33,11.04s1.62,7.91,4.62,10.85c2.82,2.77,7.66,4.58,12.35,4.58,2.89,0,7.23-.29,9.09-1.51v-6.23c-2.46,1.1-5.52,1.5-8.31,1.5-5.79,0-9.46-4.81-9.46-9.46,0-4.92,3.41-9.57,9.46-9.57Z"/>
      <path class="cls-4" d="M1017.6,587.96c-2.82,0-6.88-.73-9.85-1.95v6.32c2.77,1.41,5.94,1.74,9.94,1.74,3.2,0,6.12-.56,8.6-2.57,2.53-2.06,3.49-4.68,3.49-7.69,0-4.5-3.55-7.39-7.42-8.48l-2.1-.61c-1.7-.53-4.86-1.11-4.86-3.48s3.18-2.54,5.23-2.54,5.52.02,7.07.96v-5.75c-2.36-1.23-5.55-1.24-8.75-1.24-6.35,0-11.44,3.07-11.44,9.99,0,5.55,4.28,7.15,9.18,8.48,1.77.49,4.91,1.54,4.91,3.75s-2.06,3.06-4,3.06Z"/>
      <polygon class="cls-4" points="1085.61 582.24 1085.53 582.24 1074.93 563.66 1065.33 563.66 1065.33 593.12 1072.86 593.12 1072.86 574.61 1072.93 574.61 1083.54 593.12 1093.14 593.12 1093.14 563.66 1085.61 563.66 1085.61 582.24"/>
      <rect class="cls-4" x="941.14" y="563.66" width="8" height="29.46"/>
      <polygon class="cls-4" points="882.83 593.12 905.6 593.12 905.6 586.63 890.84 586.63 890.84 581.56 905.1 581.56 905.1 575.06 890.84 575.06 890.84 570.14 905.6 570.14 905.6 563.66 882.83 563.66 882.83 593.12"/>
      <path class="cls-4" d="M925.64,584.16c1.01,2.39,2.92,8.96,2.92,8.96h8.56s-4.37-11.46-4.43-11.61c-.7-1.66-1.51-2.22-2.33-2.98,1.37-.25,5.4-2.83,5.41-6.84,0-6.3-3.58-8.03-10.7-8.03h-13.32v29.46h8v-11.33h2.93c1.16,0,2.1.8,2.97,2.37ZM919.6,569.52h3.69c2.03,0,4,.41,4,3.26s-1.97,3.26-4,3.26h-3.69v-6.52Z"/>
      <path class="cls-4" d="M1046.68,594.41c8.88,0,15.07-6.86,15.07-16.58,0-9.09-7.11-15.47-15.07-15.47s-15.18,6.38-15.18,15.47c0,9.72,6.31,16.58,15.18,16.58ZM1046.66,568.9c4.74,0,6.64,4.27,6.64,8.95,0,5.84-1.91,10.11-6.64,10.11s-6.65-4.27-6.65-10.11c0-4.67,1.91-8.95,6.65-8.95Z"/>
      <path class="cls-4" d="M1158.48,546.44l-31.49,11.54c-2.9,1.06-4.37,4.22-3.29,7.07,1.08,2.85,4.31,4.28,7.21,3.22l31.49-11.54c2.9-1.06,4.37-4.23,3.29-7.07-1.08-2.85-4.31-4.28-7.21-3.22Z"/>
      <path class="cls-4" d="M1158.48,563.5l-31.49,11.54c-2.9,1.07-4.37,4.23-3.29,7.08,1.08,2.83,4.31,4.28,7.21,3.22l31.49-11.55c2.9-1.06,4.37-4.23,3.29-7.06-1.08-2.85-4.31-4.29-7.21-3.23Z"/>
      <path class="cls-4" d="M1158.48,580.55l-31.49,11.54c-2.9,1.06-4.37,4.23-3.29,7.07,1.08,2.84,4.31,4.28,7.21,3.22l31.49-11.54c2.9-1.07,4.37-4.23,3.29-7.08-1.08-2.83-4.31-4.28-7.21-3.22Z"/>
    </g>
    <g>
      <path class="cls-4" d="M299.56,410.58c0,.35.2.6.55.6h3.13c.25,0,.55-.2.7-.4l6.97-9.6,6.97,9.6c.15.2.45.4.71.4h3.13c.35,0,.55-.25.55-.6l-.15-.4-18-24.75c-.2-.3-.46-.65-.91-.65h-3.2c-.25,0-.45.3-.45.6l.15.35,8.88,12.24-8.88,12.2-.15.4Z"/>
      <path class="cls-4" d="M318.62,384.78c-.45,0-.7.35-.9.65l-4.97,6.82s-.41.44-.08.87c.1.12,1.26,1.72,1.78,2.44.33.32.63-.12.63-.12l7.05-9.71.15-.35c0-.3-.2-.6-.45-.6h-3.2Z"/>
      <g>
        <path class="cls-4" d="M184.62,384.12h-.15l-2.72.65c-.4.1-.65.25-.65.65v16c0,6.64,2.21,10.41,11.07,10.41,10.36,0,11.07-5.53,11.07-10.51v-16.55c0-.3-.15-.65-.5-.65h-.15l-2.72.65c-.35.1-.65.25-.65.65v16.25c0,3.78-.5,6.99-7.05,6.99-5.43,0-7.09-2.11-7.09-6.84v-17.05c0-.3-.1-.65-.45-.65Z"/>
        <path class="cls-4" d="M258.56,375.87h-.15l-2.72.71c-.35.05-.6.2-.6.6v27.66c0,4.83,2.36,6.99,7.34,6.99,2.87,0,5.03-.6,6.14-.95.2-.05.4-.3.4-.5v-.1l-.46-1.86c-.1-.3-.3-.45-.55-.45h-.15c-1.06.25-3.07.65-4.63.65-2.61,0-4.12-.6-4.12-3.37v-17.25h8.45c.45,0,.75-.3.75-.75v-1.71c0-.45-.3-.75-.75-.75h-8.45v-8.25c0-.3-.15-.65-.5-.65Z"/>
        <path class="cls-4" d="M224.08,385.19c-1.64-.51-7.24-1.4-11.15-.83h0s-.27.04-.27.04c-1.05.18-1.85.61-2.18.95-.56.56-.72,1.37-.72,2.75v22.33c0,.45.25.75.7.75h2.57c.45,0,.7-.3.7-.75v-22.65c.17,0,.32-.02.5-.03,3.87-.22,7.21.34,9.3.72l.31.03c.2,0,.39-.12.48-.43l.32-2.22v-.1c-.03-.4-.39-.53-.54-.57Z"/>
        <path class="cls-4" d="M244.28,411.13c3.47-.85,4.17-1.66,4.17-5.18v-14.44c0-2.36-.05-4.72-2.62-6.08-1.46-.81-3.97-1.26-7.34-1.31-2.5-.05-7.14.41-8.75,1.01-.15.05-.5.2-.5.6v.1l.45,2.26c.1.3.3.4.5.4l.3-.05c2.06-.51,4.45-.97,7.55-.91,2.21,0,3.62.2,4.58.61,1.76.65,1.81,1.96,1.81,3.57v15.99c-2.11.7-4.39.97-6.6.97-3.32,0-7.65-.32-7.65-5.34,0-3.97,2.91-4.7,5.05-4.7h6.26c.31,0,.52-.2.52-.51v-2.21c0-.31-.21-.51-.52-.51h-6.57c-3.92,0-8.6,1.51-8.6,8.03,0,8.15,7.1,8.39,11.42,8.39,2.67,0,5.08-.4,6.54-.7Z"/>
        <path class="cls-4" d="M279.02,397.3v2.27c0,.31.2.51.51.51h15.31c.36,0,.76-.38.76-.84v-2.21c0-3.47-.3-6.17-1.61-8.44-1.66-2.87-4.63-4.48-9.92-4.48-9.96,0-11.67,5.38-11.67,13.88,0,9.25,2.92,13.83,12.78,13.83,3.32,0,6.64-.65,8.65-1.45.3-.15.6-.38.5-.76-.1-.38-.55-1.91-.55-1.91-.16-.51-.58-.43-.67-.4l-.41.12c-1.42.4-2.57.74-4.11.95-.85.12-1.94.23-3.01.23-3.52,0-5.99-.55-7.44-2.41-.72-.89-1.18-1.89-1.4-3.3-.04-.29-.16-1.93-.18-2.4-.09-2.36-.02-3.8-.01-4.01.05-1.63.14-3.32.58-4.93.85-3.22,2.82-4.28,6.84-4.28s6.03,1.06,6.94,4.28c.45,1.86.55,3.3.6,5.22h-12c-.31,0-.51.21-.51.51Z"/>
        <path class="cls-4" d="M149.28,375.63c-.45,0-.81.35-.81.81v34.47c0,.45.35.8.81.8,0,0,3.56.13,5.67.13,3.43,0,7.07-.17,7.98-.31,8.02-.75,12.55-4.08,12.56-17.86,0-13.78-4.54-17.12-12.56-17.86-.91-.14-4.55-.31-7.98-.31-2.11,0-5.67.13-5.67.13ZM157.58,379.3c1.18.02,2.28.06,2.78.09,7.09.36,10.72,2.47,10.75,14.28-.03,11.81-3.65,13.92-10.75,14.27-.5.03-1.6.07-2.78.09-.95.02-1.8,0-2.4,0-.79,0-1.66-.02-2.43-.06v-28.63c.76-.04,1.63-.06,2.43-.06.61,0,1.46,0,2.4,0Z"/>
        <path class="cls-4" d="M232.13,252.06l-.04-.03h-.1s0,0,0,0v.16c34.18,51.79,4.03,99.31-20.5,88.01,7.95,15.38,21.85,19.69,33.33,16.43,27.34-7.75,46.8-58.37-12.69-104.58Z"/>
        <path class="cls-4" d="M202.07,313.64c-7.27,11.27,1.2,21.68,9.41,26.57-7.9-20.99,33.67-28.24,25.61-52.31l-.15-.02c-2.59,9.01-27.82,14.83-34.87,25.76Z"/>
      </g>
    </g>
    <g>
      <path class="cls-4" d="M594.36,1073.01c-3.82-6.58-7.65-13.15-11.47-19.72-2.79-4.81-5.57-9.63-8.36-14.44-2.63-4.54-5.27-9.07-7.9-13.6-2.71-4.67-5.41-9.34-8.12-14-.32-.55-.57-.56-.9,0-1.82,3.1-3.64,6.2-5.46,9.31-2.59,4.43-5.18,8.87-7.77,13.3-3.14,5.37-6.3,10.72-9.44,16.09-3.35,5.72-6.69,11.45-10.04,17.17-2.75,4.71-5.51,9.42-8.27,14.12-.62,1.06-1.19,2.16-1.9,3.17.1.19.28.09.41.09,28.62,0,57.23,0,85.85,0-.08-.15-.15-.3-.23-.45-2.13-3.68-4.26-7.36-6.4-11.04ZM570.24,1072.84c-1.75.98-3.65,1.33-5.64,1.19-.91-.07-1.81-.23-2.67-.56-.27-.1-.44-.06-.66.12-2.63,2.07-5.42,3.88-8.45,5.31-2.38,1.12-4.85,2-7.44,2.44-2.29.39-4.6.55-6.88-.14-3-.89-5.55-2.43-7.23-5.16-1.06-1.72-1.61-3.61-1.7-5.63-.17-3.59.89-6.89,2.45-10.06,1.51-3.07,3.49-5.82,5.76-8.37,2.18-2.45,4.56-4.69,7.13-6.73,3.7-2.94,7.82-5.09,12.32-6.53,1.98-.63,4.44-1.02,6.65-1.03,1.95-.04,4.03.35,5.93,1.44,2.62,1.5,4.34,3.73,5.18,6.63.66,2.29.62,4.6.24,6.93-.26,1.55-.67,3.06-1.26,4.52-.09.21-.05.36.07.55,1.17,1.82,1.9,3.81,1.84,5.99-.11,4.09-2.07,7.11-5.62,9.1Z"/>
      <path class="cls-4" d="M631.91,1065.84c-3.1-4.58-6.19-9.17-9.32-13.73-.84-1.23-1.57-2.53-2.64-3.6-2.3-2.3-6.21-3.02-9.14-1.57-3.15,1.55-4.81,4.13-4.83,7.63-.04,9.81-.01,19.62-.02,29.43,0,.17-.02.33-.02.5h10.81c0-1.78-.01-3.57-.01-5.35,0-5.47,0-10.95,0-16.43,0-.13-.04-.27.08-.46,3.16,4.66,6.29,9.28,9.5,14.02h-7.01c0,.18-.01.37-.02.55,0,2.43,0,4.85,0,7.28,0,.04,0,.36,0,.41.06,0,8.62,0,12.81,0,1.63-.22,3.22-1.05,4.36-2.23,2.2-2.31,2.55-5.9.78-8.56-1.76-2.64-3.55-5.25-5.33-7.88Z"/>
      <path class="cls-4" d="M743.26,1046.21c-3.04-.12-5.47,1.08-7.21,3.53-1.78,2.51-3.46,5.09-5.19,7.64-3.62,5.35-7.25,10.7-10.87,16.05-.96,1.42-1.44,2.97-1.25,4.71.26,2.42,1.48,4.2,3.54,5.44.81.49,1.71.69,2.61.91h12.91c0-2.59-.01-5.19,0-7.78,0-.39-.11-.47-.49-.47-2.15.02-4.3,0-6.57,0,3.19-4.7,6.33-9.34,9.47-13.97.04.01.09.03.13.04v1.08c0,6.91,0,13.82,0,20.73,0,.09,0,.18.01.27,3.34,0,6.81,0,10.15,0q.6,0,.6-.58c0-9.6,0-19.2,0-28.8,0-.19,0-.71-.11-1.6-.5-4.1-3.87-7.07-7.74-7.21Z"/>
      <path class="cls-4" d="M725.53,1054.64c-.03-2.29-.01-4.58-.01-6.87,0-.77.12-.72-.7-.72-10.25,0-20.51,0-30.76-.01-.39,0-.49.13-.48.5.01,2.36.02,4.73,0,7.09,0,.43.12.54.54.53,3.17-.02,6.35,0,9.52-.02.44,0,.56.11.56.55-.01,9.06-.01,18.13,0,27.19,0,.53,0,1.07.01,1.6.06,0,5.8.01,8.47.02,1.38-.26,2.23-1.71,2.23-2.93-.02-8.64,0-17.27-.02-25.91,0-.39.08-.52.5-.52,3.2.02,6.41,0,9.61.02.4,0,.55-.08.54-.53Z"/>
      <path class="cls-4" d="M670.44,1076.24c-6.27.01-12.55,0-18.82.02-.4,0-.55-.07-.54-.51.02-2.24.02-4.49,0-6.73,0-.41.09-.54.53-.54,5.37.02,10.74,0,16.12.02.4,0,.51-.09.51-.51-.02-2.33-.01-4.67-.01-7.01q0-.64-.63-.64c-5.34,0-10.68,0-16.03,0-.38,0-.49-.1-.49-.48.02-1.56,0-3.11,0-4.67.07-.24.27-.1.39-.1,4.89,0,9.79,0,14.68,0,1.4,0,2.81-.01,4.21,0,.37,0,.49-.09.49-.48-.01-2.5-.02-7.63-.02-7.63,0,0-29.82.05-29.96,0-.42-.03-.54.25-.54.61,0,.03,0,.06,0,.09,0,10.62,0,21.24,0,31.86,0,2.4,1.8,4.55,4.19,4.94,7.64,0,15.28,0,22.92,0,.49,0,.98,0,1.46.01,1.14-.23,2.02-1.35,2.02-2.55,0-1.74-.01-3.48.01-5.22,0-.42-.12-.5-.51-.49Z"/>
      <path class="cls-4" d="M701.14,1076.24c-5.43.01-10.87,0-16.3.02-.41,0-.53-.1-.53-.53.01-9.4,0-18.8.02-28.2,0-.38-.1-.48-.48-.48-3.2.02-6.41.02-9.61,0-.44,0-.55.12-.55.55.01,10.56,0,21.12.01,31.68,0,2.62,1.71,4.66,4.3,5.13.09,0,.45.1.84.1h20.79c1.25-.37,2.01-1.35,2.02-2.64,0-1.71-.02-3.42.01-5.13,0-.42-.12-.5-.51-.49Z"/>
      <path class="cls-4" d="M557.64,1070.45c-1.59-1.85-2.52-3.99-2.6-6.44-.09-2.75.86-5.15,2.65-7.2,2.06-2.35,4.67-3.63,7.83-3.6,2.16.02,4.11.77,5.89,1.97.31.21.42.21.55-.17.77-2.39,1.07-4.82.6-7.3-.33-1.75-1-3.36-2.2-4.7-1.56-1.74-3.62-2.41-5.87-2.56-2.4-.15-4.72.33-7.01,1.06-4.69,1.48-8.75,4.02-12.47,7.16-1.94,1.64-3.75,3.43-5.41,5.36-2.34,2.71-4.5,5.53-5.96,8.83-.93,2.11-1.53,4.3-1.53,6.4.01.74.01,1.24.08,1.74.22,1.56.66,3.03,1.71,4.26,2.16,2.51,4.92,3.71,8.21,3.74,2.58.02,5.03-.65,7.41-1.59,2.1-.83,4.08-1.9,6-3.08,1.09-.67,2.15-1.38,3.16-2.18.27-.21.25-.33.02-.55-.38-.35-.73-.74-1.06-1.13Z"/>
      <path class="cls-4" d="M572.03,1055.65c-.23-.18-.28,0-.35.15-.63,1.42-1.48,2.73-2.25,4.08-1.84,3.2-3.95,6.19-6.63,8.75-1.07,1.02-2.17,2.01-3.34,2.91-.41.32-.42.36.01.63.46.29.94.56,1.42.83.65.36.68.34,1.24-.12,2.05-1.69,3.92-3.56,5.6-5.63,2.35-2.9,4.35-6.03,5.9-9.43.04-.1.09-.19.12-.28-.03-.07-.04-.14-.07-.19-.48-.63-1.02-1.21-1.65-1.7Z"/>
    </g>
    <g>
      <path class="cls-4" d="M181.77,170.61c1.82.16,3.64.12,5.46-.1,3.17-.38,6.14-1.32,8.88-2.93,4.53-2.65,7.71-6.5,9.96-11.17.04-.08.05-.17.09-.33-.14-.02-.21-.04-.28-.04-3.63,0-7.26,0-10.88-.01-.37,0-.55.17-.75.42-1.31,1.71-2.97,2.97-4.99,3.73-2.59.97-5.25,1.15-7.96.67-5.12-.91-8.67-3.77-10.6-8.6-.3-.74-.55-1.51-.63-2.31.28-.1.55-.05.8-.05,11.95,0,23.9,0,35.85,0,.17,0,.33-.01.5,0,.29.02.41-.08.44-.39.29-2.95.13-5.86-.55-8.75-2.24-9.6-10.07-17.04-20.88-17.97-2.87-.25-5.73-.06-8.53.68-6.51,1.73-11.58,5.39-14.9,11.29-3.17,5.64-3.85,11.68-2.35,17.93,2.42,10.1,10.94,17.05,21.31,17.94ZM171.18,140.11c2.02-4.15,5.29-6.72,9.82-7.6,4.29-.83,8.23-.03,11.71,2.69,1.89,1.48,3.21,3.39,3.95,5.69.02.07.03.14.05.2,0,.02,0,.05-.02.11h-25.91c.04-.43.24-.76.4-1.09Z"/>
      <path class="cls-4" d="M108.87,169.94c6.99,0,13.98,0,20.98,0,1.93,0,3.83-.17,5.7-.6,5.12-1.19,9.43-3.74,12.78-7.81,3.89-4.73,5.5-10.22,5.18-16.31-.17-3.33-.96-6.51-2.57-9.43-4.41-8.01-11.32-12.09-20.38-12.33-7.22-.19-14.46-.04-21.69-.04-.91,0-.77-.12-.77.8,0,7.49,0,14.97,0,22.46s0,14.97,0,22.46c0,.9-.14.8.78.8ZM118.3,132.78c4.08.01,8.16-.11,12.23.05,6.66.26,11.98,4.89,12.87,11.66.43,3.33,0,6.51-1.7,9.46-1.97,3.41-4.97,5.42-8.77,6.31-1.2.28-2.43.36-3.66.36-3.58.01-7.16,0-10.73,0-.12,0-.24,0-.36,0-.28.02-.39-.11-.37-.38.01-.16,0-.33,0-.5v-26.07c0-.14.02-.29,0-.43-.06-.4.14-.47.49-.47Z"/>
      <path class="cls-4" d="M320.76,163.81c4.85,4.68,10.74,6.82,17.28,6.91,2.3-.03,4.44-.25,6.53-.8,6.01-1.58,10.85-4.86,14.25-10.09,3.38-5.18,4.42-10.9,3.52-16.98-.7-4.74-2.68-8.9-5.95-12.41-4.32-4.63-9.72-7.1-15.99-7.66-3.08-.28-6.15-.04-9.15.82-6.36,1.83-11.32,5.51-14.57,11.3-2.84,5.06-3.62,10.51-2.63,16.2.86,4.96,3.09,9.22,6.7,12.72ZM326.02,138.61c2.26-3.45,5.51-5.44,9.57-6.1,3.55-.57,6.94-.09,10.06,1.73,4.01,2.34,6.23,5.89,6.86,10.46.05.33.09.66.11.99.02.35,0,.71,0,1.07-.18,5.6-2.49,9.96-7.52,12.69-1.74.95-3.64,1.41-5.62,1.58-3.03.25-5.9-.25-8.55-1.72-3.96-2.19-6.29-5.58-7.04-10.02-.65-3.81,0-7.41,2.12-10.66Z"/>
      <path class="cls-4" d="M269.35,165.55c6.14,4.74,13.14,6.16,20.65,4.57,8.2-1.74,13.8-6.74,16.9-14.52.4-1.01.72-2.05.95-3.12.09-.42.08-.43-.35-.44-.05,0-.09,0-.14,0-3.11,0-6.21,0-9.32,0-.38,0-.62.07-.73.47-.1.34-.27.66-.42.97-1.55,3.14-3.84,5.5-7.16,6.73-2.51.94-5.11,1.11-7.76.64-4.26-.76-7.57-2.94-9.68-6.72-2.39-4.29-2.57-8.8-.75-13.34,1.32-3.31,3.67-5.71,6.92-7.19,2.42-1.1,4.97-1.46,7.61-1.23,2.64.23,5.02,1.09,7.1,2.75,1.82,1.45,3.14,3.28,4.02,5.41.23.55.52.7,1.09.7,2.96-.03,5.93-.01,8.89-.01h.77c-.04-.24-.06-.41-.1-.56-.95-3.8-2.65-7.23-5.28-10.16-4.19-4.68-9.49-7.18-15.71-7.72-3.23-.28-6.44,0-9.55.96-6.7,2.09-11.68,6.22-14.68,12.59-2.21,4.7-2.77,9.65-1.87,14.76,1.04,5.91,3.87,10.8,8.62,14.47Z"/>
      <path class="cls-4" d="M208.14,169.93c4.03,0,8.06,0,12.09.01.35,0,.55-.15.76-.4,3.72-4.46,7.45-8.9,11.17-13.35.61-.72,1.22-1.44,1.86-2.21,4.24,5.17,8.42,10.26,12.59,15.36.27.33.5.61,1.02.61,3.94-.03,7.87-.01,11.81-.02.15,0,.33.09.46-.14-6.43-7.88-12.87-15.76-19.33-23.67,6.31-7.55,12.61-15.07,18.99-22.7h-.86c-3.72,0-7.44.01-11.17-.01-.54,0-.85.18-1.19.57-5.34,6.38-10.69,12.74-16.04,19.1-6.84,8.14-13.69,16.28-20.53,24.43-.65.77-1.29,1.55-1.93,2.31.1.15.2.11.28.11Z"/>
      <path class="cls-4" d="M230.98,135.44c-.18-.23-.35-.45-.53-.67-2.87-3.46-5.77-6.9-8.6-10.4-.58-.72-1.16-.98-2.07-.97-3.77.05-7.53.02-11.47.02,5.52,6.49,10.94,12.86,16.42,19.3,2.11-2.46,4.18-4.86,6.26-7.28Z"/>
    </g>
    <g>
      <path class="cls-4" d="M1048.95,835.98c.9,0,1.63-.75,1.63-1.67v-20.54c0-.92-.73-1.67-1.63-1.67h-.55c-.89,0-1.62.75-1.62,1.67v20.54c0,.93.73,1.67,1.62,1.67h.55Z"/>
      <path class="cls-4" d="M1094.58,834.18v-.48c0-.82-.64-1.48-1.42-1.48h-8.61v-6.66h7.56c.78,0,1.42-.67,1.42-1.49v-.49c0-.82-.64-1.48-1.42-1.48h-7.56v-6.54h8.12c.78,0,1.41-.66,1.41-1.49v-.48c0-.82-.63-1.49-1.41-1.49h-10.34c-.89,0-1.62.76-1.62,1.69v20.19c0,.93.73,1.67,1.62,1.67h10.83c.79,0,1.42-.66,1.42-1.48Z"/>
      <path class="cls-4" d="M1056.92,813.61v.49c0,.82.63,1.5,1.42,1.5h5.78v18.68c0,.94.72,1.7,1.62,1.7h.56c.9,0,1.62-.76,1.62-1.7v-18.68h5.77c.78,0,1.43-.68,1.43-1.5v-.49c0-.83-.64-1.51-1.43-1.51h-15.35c-.79,0-1.42.68-1.42,1.51Z"/>
      <path class="cls-4" d="M1031.14,827.2l-.4.4c-.64.64-.63,1.7.03,2.37l5.69,5.58c.67.66,1.72.67,2.37.04l.41-.42c.64-.64.62-1.7-.04-2.36l-5.69-5.57c-.66-.67-1.72-.68-2.36-.03Z"/>
      <path class="cls-4" d="M1119.3,833.37v-19.6c0-.92-.7-1.67-1.57-1.67h-.51c-.86,0-1.5.75-1.5,1.67,0,0-.09,14.14,0,15.71-.87-1.55-9.81-15.94-9.81-15.94-1.38-2.06-4.87-2.13-4.87,1.66v19.11c0,.92.7,1.67,1.56,1.67h.52c.87,0,1.52-.75,1.52-1.67,0,0,.04-15.14,0-16.25,1.03,1.77,10.2,16.67,10.2,16.67,1.13,1.72,4.46,1.96,4.46-1.36Z"/>
      <path class="cls-4" d="M1011.81,824.02c0-6.91-5.62-12.52-12.53-12.52s-12.52,5.61-12.52,12.52c0,6.92,5.6,12.53,12.53,12.53s12.53-5.61,12.53-12.53ZM999.28,832.66c-4.78,0-8.64-3.86-8.64-8.64s3.87-8.64,8.64-8.64,8.64,3.86,8.64,8.64-3.86,8.64-8.64,8.64Z"/>
      <path class="cls-4" d="M1028.78,822.43l-9.97-9.94c-.66-.67-1.73-.68-2.36-.03l-.4.4c-.64.65-.63,1.71.03,2.37l8.79,8.8-8.79,8.79c-.66.66-.67,1.72-.03,2.36l.4.4c.64.64,1.71.63,2.36-.03l9.97-9.91c.84-.84.84-2.36,0-3.2Z"/>
      <path class="cls-4" d="M1038.59,812.45c-.63-.65-1.7-.63-2.36.03l-5.57,5.69c-.67.66-.68,1.72-.04,2.36l.41.41c.63.64,1.7.62,2.36-.04l5.57-5.69c.68-.66.68-1.72.03-2.37l-.41-.4Z"/>
      <path class="cls-4" d="M1137.06,811.51c-6.91,0-12.52,5.61-12.52,12.52,0,6.92,5.6,12.53,12.52,12.53s12.53-5.61,12.53-12.53-5.61-12.52-12.53-12.52ZM1137.06,832.66c-4.77,0-8.64-3.86-8.64-8.64s3.87-8.64,8.64-8.64,8.64,3.86,8.64,8.64-3.87,8.64-8.64,8.64Z"/>
      <path class="cls-4" d="M927.94,866.64c1.63,1.64,4.29,1.64,5.93,0l39.72-39.72c1.63-1.64,1.63-4.3,0-5.94l-39.72-39.72c-1.64-1.64-4.3-1.64-5.93,0l-39.72,39.72c-1.64,1.64-1.64,4.29,0,5.94l39.72,39.72ZM961.08,823.77l-11.12-11.12c-.88-.88-.88-2.31,0-3.19l.46-.46c.88-.88,2.31-.88,3.19,0l12.67,12.68c1.26,1.26,1.26,3.3,0,4.56l-12.67,12.67c-.87.88-2.31.88-3.19,0l-.46-.45c-.88-.88-.88-2.32,0-3.2l11.12-11.12c.11-.1.11-.27,0-.36ZM919.49,812.55c6.31-6.31,16.52-6.31,22.82,0,6.31,6.3,6.31,16.51,0,22.82-6.3,6.3-16.51,6.3-22.82,0-6.3-6.31-6.3-16.52,0-22.82Z"/>
      <path class="cls-4" d="M938.67,831.72c4.28-4.28,4.28-11.23,0-15.52-4.29-4.29-11.24-4.29-15.52,0-4.29,4.29-4.29,11.23,0,15.52,4.28,4.28,11.24,4.28,15.52,0Z"/>
      <polygon class="cls-4" points="1046.78 865.52 1050.79 865.52 1050.79 864.75 1047.7 864.75 1047.7 862.18 1050.48 862.18 1050.48 861.41 1047.7 861.41 1047.7 859.16 1050.64 859.16 1050.64 858.38 1046.78 858.38 1046.78 865.52"/>
      <path class="cls-4" d="M1054.25,863.28c-.17.46-.32.89-.43,1.31h-.03c-.11-.43-.24-.85-.41-1.31l-1.01-2.88h-1l1.95,5.13h.89l2.01-5.13h-.98l-1,2.88Z"/>
      <path class="cls-4" d="M1056.76,863c0,1.62,1.07,2.64,2.46,2.64,1.24,0,2.55-.83,2.55-2.72,0-1.57-.99-2.64-2.47-2.64s-2.55,1.01-2.55,2.72ZM1060.82,862.95c0,1.16-.67,1.99-1.56,1.99s-1.56-.85-1.56-1.97c0-.98.48-1.99,1.58-1.99s1.54,1.1,1.54,1.97Z"/>
      <rect class="cls-4" x="1063.12" y="858" width=".93" height="7.52"/>
      <path class="cls-4" d="M1065.69,860.39v3c0,1.8.96,2.25,1.77,2.25.91,0,1.45-.54,1.69-.96h.02l.05.84h.83c-.03-.4-.04-.87-.04-1.4v-3.73h-.93v3.15c0,.17-.03.34-.09.48-.17.41-.61.84-1.23.84-.85,0-1.14-.66-1.14-1.63v-2.84h-.93Z"/>
      <path class="cls-4" d="M1071.91,859.17v1.23h-.8v.71h.8v2.8c0,.6.09,1.06.36,1.33.22.25.57.39,1,.39.36,0,.65-.06.83-.13l-.04-.7c-.12.03-.29.06-.54.06-.52,0-.7-.36-.7-.99v-2.76h1.34v-.71h-1.34v-1.47l-.91.24Z"/>
      <path class="cls-4" d="M1075.77,858.37c-.34,0-.58.25-.58.58s.23.57.56.57c.37,0,.6-.25.59-.57,0-.33-.22-.58-.57-.58Z"/>
      <rect class="cls-4" x="1075.3" y="860.4" width=".93" height="5.13"/>
      <path class="cls-4" d="M1080.1,860.28c-1.42,0-2.54,1.01-2.54,2.72,0,1.62,1.07,2.64,2.46,2.64,1.24,0,2.55-.83,2.55-2.72,0-1.57-1-2.64-2.47-2.64ZM1080.06,864.94c-.91,0-1.56-.85-1.56-1.97,0-.98.48-1.99,1.58-1.99s1.54,1.1,1.54,1.97c0,1.16-.66,1.99-1.56,1.99Z"/>
      <path class="cls-4" d="M1088.27,865.52v-3.06c0-1.75-1.11-2.18-1.81-2.18-.84,0-1.44.48-1.7.97h-.02l-.05-.85h-.83c.03.43.04.86.04,1.39v3.74h.93v-3.08c0-.16.02-.32.07-.44.16-.52.63-.96,1.25-.96.88,0,1.19.69,1.19,1.52v2.95h.93Z"/>
      <path class="cls-4" d="M1092.83,864.68h.03c.38.68.97.96,1.72.96,1.15,0,2.3-.91,2.3-2.74.01-1.56-.89-2.62-2.16-2.62-.82,0-1.42.37-1.74.94h-.02v-3.22h-.92v6.2c0,.45-.02.97-.04,1.32h.8l.04-.85ZM1092.94,862.55c0-.15.03-.27.05-.38.19-.71.79-1.14,1.42-1.14,1,0,1.53.88,1.53,1.91,0,1.18-.58,1.97-1.56,1.97-.68,0-1.22-.44-1.4-1.09-.02-.11-.04-.22-.04-.34v-.92Z"/>
      <path class="cls-4" d="M1098.53,866.63c-.27.23-.58.38-.81.46l.23.78c.24-.04.69-.2,1.15-.61.64-.55,1.09-1.45,1.76-3.21l1.4-3.65h-.99l-1.02,3.01c-.13.37-.23.76-.33,1.07h-.02c-.09-.31-.21-.71-.33-1.05l-1.12-3.03h-1.02l1.89,4.72c.04.12.06.19.06.24,0,.06-.03.13-.07.22-.21.48-.53.84-.79,1.04Z"/>
      <path class="cls-4" d="M1107.73,861.03c.51,0,.86.12,1.08.25l.21-.72c-.26-.13-.74-.26-1.29-.26-1.67,0-2.75,1.14-2.75,2.72s1.01,2.62,2.55,2.62c.69,0,1.23-.17,1.47-.3l-.16-.7c-.26.11-.62.25-1.14.25-1.02,0-1.78-.73-1.78-1.91,0-1.07.64-1.94,1.81-1.94Z"/>
      <path class="cls-4" d="M1114.54,865.52v-3.05c0-1.77-1.11-2.19-1.79-2.19-.35,0-.68.11-.95.26-.28.16-.52.4-.67.66h-.02v-3.2h-.93v7.52h.93v-3.09c0-.18.01-.32.07-.45.17-.51.64-.94,1.25-.94.88,0,1.19.7,1.19,1.53v2.95h.93Z"/>
      <path class="cls-4" d="M1120.38,862.7c0-.95-.44-2.42-2.12-2.42-1.5,0-2.41,1.22-2.41,2.77s.94,2.58,2.52,2.58c.81,0,1.37-.17,1.71-.32l-.16-.67c-.35.15-.75.27-1.43.27-.93,0-1.73-.52-1.76-1.78h3.6c.01-.09.03-.24.03-.43ZM1116.75,862.46c.07-.64.49-1.51,1.43-1.51,1.05,0,1.3.92,1.29,1.51h-2.72Z"/>
      <path class="cls-4" d="M1129,865.52v-3.02c0-1.78-1-2.23-1.68-2.23-.49,0-.82.13-1.13.36-.21.16-.41.38-.57.67h-.02c-.22-.6-.75-1.03-1.45-1.03-.85,0-1.33.46-1.61.94h-.03l-.04-.83h-.82c.03.43.04.86.04,1.39v3.74h.91v-3.09c0-.16.02-.32.08-.46.15-.46.57-.93,1.15-.93.71,0,1.07.6,1.07,1.41v3.07h.91v-3.17c0-.17.03-.34.07-.47.16-.46.57-.85,1.1-.85.76,0,1.12.6,1.12,1.58v2.9h.91Z"/>
      <path class="cls-4" d="M1131.1,858.37c-.34,0-.58.25-.58.58s.23.57.56.57c.37,0,.6-.25.59-.57,0-.33-.22-.58-.57-.58Z"/>
      <rect class="cls-4" x="1130.63" y="860.4" width=".93" height="5.13"/>
      <path class="cls-4" d="M1134.29,864.94c-.47,0-.95-.19-1.23-.37l-.23.71c.36.21.88.35,1.44.35,1.22,0,1.92-.64,1.92-1.54,0-.76-.46-1.21-1.35-1.55-.67-.25-.97-.45-.97-.87,0-.38.3-.7.85-.7.48,0,.85.17,1.05.29l.23-.68c-.28-.17-.74-.32-1.26-.32-1.1,0-1.77.68-1.77,1.5,0,.61.43,1.12,1.35,1.45.69.26.96.5.96.94s-.32.76-.99.76Z"/>
      <path class="cls-4" d="M1140.06,861.11v-.71h-1.34v-1.47l-.91.24v1.23h-.79v.71h.79v2.8c0,.6.1,1.06.36,1.33.22.25.57.39,1,.39.36,0,.65-.06.83-.13l-.04-.7c-.12.03-.3.06-.54.06-.52,0-.7-.36-.7-.99v-2.76h1.34Z"/>
      <path class="cls-4" d="M1142.14,865.52v-2.73c0-.16.02-.31.04-.44.13-.7.59-1.2,1.25-1.2.13,0,.23,0,.32.03v-.88c-.09-.02-.16-.03-.27-.03-.62,0-1.19.43-1.42,1.12h-.04l-.03-1.01h-.81c.03.48.04,1,.04,1.6v3.53h.92Z"/>
      <path class="cls-4" d="M1145.57,866.63c-.27.23-.58.38-.81.46l.23.78c.23-.04.69-.2,1.14-.61.64-.55,1.09-1.45,1.76-3.21l1.4-3.65h-.99l-1.02,3.01c-.13.37-.23.76-.33,1.07h-.02c-.09-.31-.21-.71-.33-1.05l-1.12-3.03h-1.02l1.89,4.72c.04.12.07.19.07.24,0,.06-.03.13-.08.22-.21.48-.53.84-.79,1.04Z"/>
    </g>
    <g>
      <path class="cls-4" d="M163.43,821.47c-5.76,8.04-3.91,21.84,7.82,26.93,2.66,1.15,5.43,1.89,8.33,2.13.24.02.47.14.7.21h6.41c.23-.07.46-.19.71-.22,3.63-.44,7.02-1.55,10.15-3.45,9.73-5.91,11.2-17.49,5.85-25.54-3.61-5.42-9.13-7.71-15.34-8.66-1.14-.17-2.29-.29-3.44-.43h-2.83c-1.76.27-3.55.43-5.28.82-5.3,1.21-9.86,3.7-13.09,8.21ZM176.1,824c.98-2.36,2.35-4.38,4.95-5.19,2.87-.88,5.72.06,7.54,2.43,1.71,2.23,2.45,4.84,2.85,7.56.16,1.11.19,2.25.29,3.37,0,2.96-.52,5.81-1.81,8.48-1.01,2.07-2.48,3.7-4.77,4.4-2.83.87-5.8-.19-7.64-2.7-1.7-2.32-2.44-5.01-2.67-7.81-.29-3.58-.14-7.15,1.27-10.54Z"/>
      <path class="cls-4" d="M127.26,847.87c0-3.46,0-6.92.02-10.38,0-1.42.3-1.72,1.7-1.72,4.53,0,9.05,0,13.58,0,1.35,0,1.58.23,1.58,1.6,0,3.46,0,6.92.02,10.38,0,.37.03.74.05,1.14.17.04.29.09.41.09,3.74,0,7.48,0,11.22.02.52,0,.76-.16.75-.69-.01-.53.03-1.07.03-1.6,0-10.44,0-20.88.03-31.31,0-.95-.25-1.23-1.21-1.21-3.36.06-6.73.06-10.09,0-.94-.02-1.16.29-1.15,1.18.03,3.84-.02,7.67-.04,11.51,0,1.25-.36,1.62-1.63,1.62-4.53,0-9.05,0-13.58,0-1.26,0-1.67-.43-1.67-1.73,0-3.77-.03-7.55.03-11.32.01-.93-.3-1.17-1.17-1.17-3.46,0-6.92-.04-10.37-.07-.37,0-.75-.05-1.12-.07v34.9h12.56c.02-.44.06-.8.06-1.16Z"/>
      <path class="cls-4" d="M324.41,815.1c-3.91,10.97-7.85,21.92-11.79,32.87-.11.31-.18.63-.29,1.04,4.2,0,8.28.01,12.37-.03.27,0,.66-.42.79-.73.64-1.6,1.25-3.21,1.81-4.84.28-.8.8-1.18,1.6-1.18,3.49,0,6.98-.01,10.46,0,.87,0,1.44.4,1.72,1.3.46,1.49,1.07,2.94,1.53,4.44.24.77.58,1.06,1.44,1.05,4.02-.04,8.04,0,12.06.02v-.19c-.14-.26-.33-.51-.42-.78-3.97-11.04-7.94-22.09-11.88-33.14-.25-.69-.54-.96-1.32-.95-5.5.04-11,.04-16.5,0-.91,0-1.28.28-1.59,1.12ZM329.86,836.25c1.14-3.27,2.29-6.55,3.47-9.81.14-.37.5-.67.76-1,.29.34.7.63.84,1.02,1.19,3.19,2.33,6.4,3.47,9.61.29.82,0,1.27-.88,1.29-1.19.04-2.38,0-3.58,0-1.1,0-2.2.02-3.29,0-.84-.02-1.07-.33-.8-1.12Z"/>
      <path class="cls-4" d="M307.92,829.74c1.08-.95,1.95-2.03,2.42-3.41,2.03-5.94-2.47-12.31-8.76-12.32-9.37-.02-18.73,0-28.1,0-.27,0-.55.03-.88.05v34.95h1.02c9.49,0,18.99.01,28.48-.02.99,0,2.02-.15,2.95-.46,3.82-1.26,6.22-3.9,6.78-7.89.51-3.65-.67-6.74-3.8-8.93-.94-.66-.98-1.19-.12-1.95ZM287.59,820.32c2.16-.07,4.33-.14,6.48,0,2.52.17,4.35,2.15,4.3,4.37-.06,2.34-2.03,4.21-4.6,4.33-.97.04-1.95,0-2.92,0,0,.02,0,.04,0,.06-1.19-.06-2.39-.04-3.56-.18-2.43-.3-3.97-2.23-3.85-4.72.09-1.97,1.98-3.79,4.16-3.86ZM295.46,842.87c-2.66.14-5.34.11-8-.04-2.15-.12-4.04-2.41-4.01-4.54.03-2.21,2.04-4.43,4.23-4.57,1.19-.08,2.39-.01,3.58-.01,0,0,0,0,0-.01,1.35,0,2.71-.08,4.05.02,2.4.17,4.26,2.2,4.3,4.55.04,2.43-1.67,4.48-4.15,4.61Z"/>
      <path class="cls-4" d="M246.03,831.97c3.47-3.77,3.93-8.71,1.14-12.77-2.42-3.53-5.92-4.99-10.11-4.99-8.8,0-17.6,0-26.41-.01-.27,0-.55.04-.85.06v34.66h12.31c0-.46,0-.83,0-1.21,0-2.52-.01-5.03,0-7.54.01-1.84,1.14-3.31,2.89-3.85,2.1-.64,4.29.14,5.61,2.04,2.3,3.3,4.58,6.61,6.9,9.89.23.33.7.7,1.07.71,4.68.05,9.37.03,14.29.03-.35-.51-.59-.87-.84-1.21-2.75-3.83-5.5-7.65-8.25-11.48-.76-1.06-.73-1.36.16-2.27.68-.7,1.41-1.35,2.07-2.06ZM236.37,825.95c-.17,1.99-2.35,3.86-4.53,3.89-1,.01-2.01,0-3.01,0,0,.02,0,.04,0,.07-1.31-.07-2.66.03-3.93-.24-2.42-.52-3.85-2.52-3.72-4.84.12-2.02,2.03-4,4.31-4.13,2.4-.14,4.84-.2,7.22.05,2.41.25,3.88,2.59,3.66,5.21Z"/>
      <path class="cls-4" d="M267.51,848.12c0-11,0-22,.02-33.01,0-.69-.22-.93-.93-.92-2.67.03-5.34,0-8.02.02-1.15.01-2.3.11-3.5.17v34.53c.18.04.27.07.36.07,3.77,0,7.54,0,11.32.02.7,0,.75-.36.75-.89Z"/>
    </g>
    <g>
      <path class="cls-4" d="M997.18,166.31c13.23,0,18.99-6.89,21.05-16.61l6.12-32.12-8.33.53-2.64,13.4c-3.19-.12-4.19-.22-7.94-.22-11.72,0-21.96,4.92-24.66,16.5-2.44,10.43,3.49,18.51,16.41,18.51ZM989.7,148.39c2.43-9.7,10.36-12.59,22.32-11.23l-2.74,13.69c-1.21,5.56-4.56,9.25-11.38,9.25-7.85,0-9.91-4.86-8.19-11.71Z"/>
      <path class="cls-4" d="M930.78,154.05c.39-11.47-20.01-6.03-19.75-12.26.17-4.14,10.69-5.16,22.91-4.05l1.72-4.76c-20.96-3.08-33.76,1.54-34.12,10.09-.49,11.49,20.01,5.12,19.71,12.21-.28,6.68-13.06,6.52-25.17,4.6l-1.27,5c7.03,2.15,35.4,6.02,35.97-10.82Z"/>
      <path class="cls-4" d="M951.78,166.7c12.15,0,21.93-7.01,24.33-17.51,2.4-10.47-4.14-17.51-16.29-17.51s-21.93,7.04-24.32,17.51c-2.42,10.49,4.13,17.51,16.28,17.51ZM944.7,149.19c1.77-7.03,7.41-11.74,14.04-11.74s9.9,4.71,8.14,11.74c-1.76,7.04-7.33,11.45-13.97,11.45s-10.07-4.03-8.21-11.45Z"/>
      <path class="cls-4" d="M1089.67,166.53h10.57s-7.28-7.53-15.09-16.17c7.81-7.12,14.4-17.04,18.4-29.61-6.49,7.78-14.4,16.2-23.35,24.05-4.06-4.63-7.87-9.2-10.46-12.77h-7.75c3.81,6.19,8.2,12.22,12.48,17.6-6.41,5.17-13.27,9.95-20.49,13.95,8.4-.12,17.14-2.97,25.08-8.39,4.12,4.83,7.89,8.79,10.61,11.34Z"/>
      <polygon class="cls-4" points="1106.77 109.87 1103.7 120.51 1111.89 112.96 1117.47 120.86 1118.02 110.16 1128.04 109.39 1120.53 103.57 1127.46 94.69 1117.55 98.16 1116.16 87.85 1111.31 97.98 1102.66 94.03 1106.52 103.2 1097.11 108.55 1106.77 109.87"/>
      <path class="cls-4" d="M1100.01,149.3c-2.44,10.65,4.2,17.8,16.55,17.8s22.27-7.15,24.72-17.8c2.44-10.64-4.21-17.77-16.56-17.77s-22.27,7.14-24.71,17.77ZM1131.91,149.3c-1.8,7.15-7.45,11.64-14.2,11.64s-10.23-4.1-8.33-11.64c1.78-7.13,7.52-11.93,14.26-11.93s10.06,4.8,8.26,11.93Z"/>
      <path class="cls-4" d="M1040.45,167.58c8.11,0,13.53-4,13.53-4-10.32,1.11-23,0-23-11.03,0-.44.03-.89.06-1.32,14.08,2.92,29.16-.62,29.16-10.74,0-5.1-4.06-8.84-13.28-8.84-14.96,0-24.68,9.7-24.68,21.73,0,7.77,6.45,14.21,18.22,14.21ZM1046.09,136.83c3.82,0,5.9,1.38,5.9,4.04,0,7.04-13.71,6.58-19.77,5.34,2.13-5.27,6.93-9.38,13.86-9.38Z"/>
    </g>
    <g>
      <path class="cls-4" d="M170.14,1054.24c-.33-3.54-2.21-6.04-5.6-7.29-.75-.28-1.54-.46-2.42-.71.66-.39,1.25-.71,1.83-1.07,4.76-3.01,8.2-6.91,8.58-12.83.17-2.59-.48-4.9-2.38-6.79-1.4-1.39-3.05-2.31-4.92-2.89-2.3-.72-4.68-.92-7.07-1.09-4.09-.28-8.05.12-11.84,1.82-6.95,3.12-12.6,7.83-17.17,13.88-2.89,3.84-4.92,8.05-5.7,12.86-1.25,7.76-2.64,15.49-4,23.23-.08.47.12.43.42.43,2.83,0,5.65.02,8.48,0,6.76-.06,13.53.18,20.29-.13,3.43-.15,6.78-.77,10.03-1.93,9.21-3.29,12.04-11.38,11.47-17.49ZM155.32,1056.65c-.49,3.76-2.86,5.31-6.07,5.83-.32.05-.63.1-.95.12-1.94.17-3.89.07-5.55.1-1.76,0-3.24-.01-4.71,0-.45,0-.52-.1-.43-.54.63-3.44,1.24-6.89,1.82-10.35.07-.44.25-.5.62-.49,3.14.05,6.29-.1,9.43.12,1.09.08,2.16.24,3.19.63,2,.77,2.94,2.44,2.66,4.58ZM156.73,1037.74c-.56,2.72-2.68,4.62-5.66,5.09-1.75.28-3.5.09-4.96.15-1.75,0-3.2,0-4.66,0-.35,0-.47-.05-.4-.46.56-3.09,1.1-6.18,1.62-9.27.09-.52.28-.68.82-.67,2.52.03,5.05,0,7.57.02.85,0,1.71.07,2.55.24,2.53.52,3.65,2.28,3.11,4.89Z"/>
      <path class="cls-4" d="M230.34,1039.91c-2.94-.88-5.97-.98-9.01-.97-.88,0-1.75-.03-2.63,0-3.35.14-6.64.57-9.77,1.84-3.99,1.63-6.62,4.43-7.47,8.76-.07.38-.02.47.37.46,3.9-.01,7.79-.01,11.69,0,.36,0,.52-.11.64-.45.41-1.15,1.2-1.96,2.36-2.37,1.6-.56,3.24-.56,4.85-.09.77.22,1.42.68,1.56,1.54.15.91-.15,1.68-.88,2.28-.64.53-1.4.81-2.19,1.02-2.2.59-4.46.75-6.71,1.03-2.63.33-5.25.7-7.77,1.55-4.13,1.39-7.11,3.9-8.19,8.31-1.27,5.2,1.12,9.25,6.26,10.53,2.54.63,5.1.52,7.65.12,3.21-.49,6.12-1.69,8.6-3.84.15-.13.27-.35.47,0,.66,1.19,1.73,1.94,2.92,2.51,2.68,1.3,5.56,1.57,8.49,1.63.27,0,.36-.1.39-.36.1-.72.25-1.43.37-2.15,1.01-5.7,2.01-11.4,3.02-17.09.39-2.23.84-4.46.82-6.73-.01-2.14-.5-4.11-2.18-5.62-1.06-.95-2.31-1.53-3.65-1.93ZM215.94,1066.14c-1.12.26-2.24.3-3.36-.04-1.02-.31-1.75-.95-1.93-2.02-.19-1.14.1-2.18,1.06-2.92,1.05-.82,2.34-1,3.59-1.24,1.03-.19,2.07-.34,3.09-.54,1-.2,1.98-.49,2.99-.95-.14,2.99-1.8,6.87-5.44,7.71Z"/>
      <path class="cls-4" d="M290.64,1059.29c7.86,0,15.71,0,23.57,0,.36,0,.64.02.72-.48.35-2.45.52-4.89.12-7.34-.96-5.92-4.18-9.94-9.98-11.74-3.37-1.04-6.82-1.12-10.27-.5-5.5.98-10.08,3.57-13.54,7.99-2.73,3.48-4.15,7.47-4.4,11.89-.16,2.75.26,5.37,1.63,7.79,1.88,3.3,4.85,5.15,8.42,6.13,3.65,1.01,7.36.97,11.07.37,4.05-.66,7.79-2.08,10.96-4.78,1.83-1.56,3.22-3.45,4.22-5.73h-.63c-3.85,0-7.71,0-11.56,0-.3,0-.45.13-.62.34-.97,1.26-2.23,2.08-3.8,2.43-3.82.84-7.02-1.74-6.81-5.51.05-.91-.1-.84.91-.84ZM291.07,1052.02c.77-3.22,3.35-5.12,6.98-5.11,2.74.01,4.87,2.16,4.88,4.88,0,.62-.14.84-.82.82-1.73-.06-3.46-.02-5.2-.02-1.8,0-3.59-.02-5.39.01-.49,0-.56-.14-.46-.58Z"/>
      <path class="cls-4" d="M265.04,1039.75c-3.43-1.13-6.94-1.11-10.46-.52-4.85.82-9.04,2.94-12.41,6.55-3.73,4-5.51,8.79-5.52,14.23-.01,6.35,3.25,10.85,9.31,12.75,4.91,1.54,9.89,1.39,14.79-.03,6.68-1.93,11.34-6.1,13.58-12.8.17-.52.08-.64-.46-.63-3.94.02-7.88.02-11.81,0-.41,0-.58.12-.72.51-.81,2.25-3.56,4.99-6.95,4.74-2.35-.18-3.8-1.29-4.1-3.63-.39-3.01.23-5.92,1.4-8.69,1.24-2.92,3.49-4.31,6.65-4.09,2.43.17,3.7,1.23,3.51,3.73,0,.09.01.17,0,.26-.08.41.09.5.48.49,2.01-.02,4.02,0,6.04,0h5.46c1.17,0,1.21,0,1.01-1.16-.98-5.81-4.12-9.84-9.79-11.7Z"/>
      <path class="cls-4" d="M335.8,1025.75c.08-.45-.05-.5-.44-.49-2.79.06-5.48.57-7.99,1.81-3.23,1.59-5.38,4.11-6.22,7.63-.41,1.72-.66,3.48-.96,5.23-.93,5.28-1.85,10.55-2.77,15.83-.96,5.51-1.93,11.02-2.89,16.53-.08.47-.42,1.08-.15,1.4.28.32.93.08,1.44.12,1.83-.02,3.65-.24,5.42-.78,4.11-1.25,6.86-3.81,7.67-8.16.51-2.77.97-5.55,1.45-8.33,1.81-10.26,3.61-20.51,5.44-30.77Z"/>
      <path class="cls-4" d="M350.77,1025.26c-1.91.07-3.79.32-5.61.9-4.77,1.52-7.87,4.58-8.76,9.63-.61,3.45-1.21,6.9-1.81,10.35-1.51,8.69-3.02,17.37-4.54,26.06-.28,1.6-.28,1.6,1.84,1.6,1.46-.02,3.41-.28,5.28-.91,3.75-1.27,6.35-3.67,7.14-7.66.77-3.87,1.39-7.77,2.07-11.66.93-5.26,1.86-10.51,2.78-15.77.7-3.97,1.39-7.95,2.1-11.92.08-.46.02-.63-.51-.61Z"/>
      <path class="cls-4" d="M198.11,1052.15c.63-3.73,1.32-7.44,1.97-11.16.3-1.72.27-1.74-1.5-1.74-4.27,0-7.62,1.78-10.1,5.24-.56.78-1.04,1.6-1.63,2.39.34-2.02.67-4.04,1.04-6.06.09-.49-.02-.61-.52-.61-3.66.02-7.32.02-10.98,0-.53,0-.73.13-.82.66-.46,2.78-.95,5.56-1.44,8.33-.92,5.26-1.85,10.51-2.78,15.77-.49,2.75-.97,5.51-1.45,8.27-.04.26-.2.57.34.56,4.22-.02,8.43-.01,12.65,0,.32,0,.44-.1.5-.42.42-2.46.84-4.93,1.29-7.38.45-2.41.71-4.86,1.53-7.19.89-2.53,2.26-4.66,4.89-5.68,2-.78,4.07-.92,6.17-.43.49.12.73.05.83-.54Z"/>
      <path class="cls-4" d="M127.75,1022.06c-.79,4.52-1.59,9.04-2.39,13.57-.2,1.12-.38,2.24-.58,3.36,4.88-8.1,11.64-13.92,20.54-17.44-.21-.02-.28-.03-.36-.03-5.54,0-11.09,0-16.63-.01-.43,0-.52.18-.59.55Z"/>
    </g>
    <g>
      <path class="cls-4" d="M511.45,840.17c.07-1.96.03-3.93.03-5.89,0-1.77,0-3.54,0-5.25h-12.66v5.15h5.68c.47,3.03.3,3.33-2.38,3.76-.99.16-2.02.16-3.02.07-3.46-.3-5.67-3.09-5.57-6.94.1-3.77,2.41-6.31,5.85-6.53,2.78-.17,5.3.55,7.71,2.16,1.16-1.94,2.26-3.78,3.37-5.63-3.1-2.3-6.47-3.47-10.13-3.49-5.41-.03-10.13,1.68-12.85,6.71-1.03,1.91-1.33,4.21-1.96,6.34v1.35c.1.43.24.85.29,1.29.49,4.35,2.54,7.65,6.35,9.92,5.63,3.36,13.78,1.78,18.66-1.47.39-.26.62-1.01.64-1.55Z"/>
      <path class="cls-4" d="M774.41,818.5c-7.21-2.62-17.7.13-18.97,11.09-.85,7.29,3.25,13.62,9.9,15.07,5.61,1.22,10.63-.2,14.99-3.92v-.34c-1.15-1.69-2.31-3.38-3.53-5.18-2.26,1.68-4.7,2.94-7.64,2.85-2.98-.09-5.04-1.77-5.71-4.69-.5-2.17-.34-4.24.78-6.17,1.27-2.19,3.98-3.23,6.41-2.53,2.08.6,2.52,2.33,2.76,4.36,2.38-.49,4.65-.97,6.93-1.44v-1.01c-.12-.42-.25-.84-.34-1.26-.7-3.23-2.42-5.68-5.57-6.83Z"/>
      <path class="cls-4" d="M614.46,844.68c1.94.14,3.89.05,5.95.05v-26.74h-7.58v14.12c-.49-.09-.63-.33-.81-.54-3.42-4.16-6.83-8.32-10.28-12.45-.41-.49-.97-1.15-1.49-1.19-1.94-.14-3.89-.06-5.9-.06v26.77h7.42v-14.13c.14-.08.28-.17.42-.25.24.36.45.73.72,1.06,3.34,4.08,6.68,8.16,10.05,12.21.4.48.98,1.11,1.51,1.15Z"/>
      <path class="cls-4" d="M537.36,829.53c1.82-5.18-1.33-10.63-7.06-11.26-5.15-.56-10.4-.26-15.6-.33-.08,0-.17.12-.29.21v26.49h7.43v-9.3c.14-.08.28-.16.41-.24.66.57,1.32,1.13,1.97,1.71,2.36,2.15,4.6,4.44,7.1,6.41,2.59,2.05,5.63,2.36,8.75,1.25.45-.16,1.05-.78,1.04-1.17-.05-1.66-.31-3.31-.51-5.14-4.03,1.27-6.58-.94-9.21-3.42,2.83-.95,5-2.46,5.97-5.22ZM527.56,829.88c-1.82.17-3.67.04-5.59.04v-5.31c1.99,0,4-.16,5.97.05,1.35.14,2.1,1.21,2.05,2.66-.06,1.56-1.03,2.42-2.42,2.55Z"/>
      <path class="cls-4" d="M675,829.76c-3.15-3.68-6.11-7.1-9.02-10.56-.63-.75-1.19-.5-1.89-.21-6.46,2.69-12.06,6.6-16.77,11.76-.43.47-.77,1.31-.69,1.91.54,3.98.99,7.99,1.91,11.89.72,3.04,2.08,5.94,3.16,8.9,4.95-10.72,12.63-18.3,23.3-23.69Z"/>
      <path class="cls-4" d="M565.29,824.45v-6.46h-21.43v26.64h21.45v-6.61h-14.29v-3.81h11.55v-6.3h-11.56v-3.47h14.28Z"/>
      <path class="cls-4" d="M590.55,824.46v-6.47h-21.43v26.64h21.46v-6.6h-14.29v-3.81h11.49v-6.24h-11.5v-3.53h14.28Z"/>
      <path class="cls-4" d="M675.11,828.29c-4.13-17.12-14.78-30.26-25.91-43.2-3.74,6.22-7.33,12.2-10.98,18.26,15.79,2.98,27.7,11.92,36.89,24.94Z"/>
      <path class="cls-4" d="M681.14,817.87c-.37,0-.75.08-1.17.14v26.63h7.49v-6.93c2.72,0,5.24.19,7.73-.04,4.88-.46,8.26-4.35,8.38-9.32.13-5.69-2.62-9.61-7.84-10.14-4.83-.48-9.73-.26-14.6-.33ZM692.93,831.24c-1.76.15-3.54.03-5.39.03v-6.72c1.77,0,3.44-.05,5.1.01,1.93.07,3.08,1.29,3.14,3.19.06,1.92-.98,3.33-2.85,3.48Z"/>
      <path class="cls-4" d="M634.66,852.18c1.8-6.29,4.36-12.04,7.97-17.31.6-.88,1.03-2.02,1.12-3.07.65-7.61,3.08-14.63,6.85-21.23.25-.44.47-.9.78-1.5-.43.08-.55.07-.64.12-12.47,6.23-20.71,15.96-24.37,29.46-.18.65-.15,1.46.06,2.1,1.52,4.59,4.23,8.35,8.23,11.44Z"/>
      <path class="cls-4" d="M747.08,818.85c-.17-.45-.93-.91-1.44-.94-2.07-.11-4.15.04-6.22-.08-1.25-.07-1.74.43-2.15,1.53-2.9,7.86-5.86,15.7-8.8,23.55-.2.54-.32,1.12-.51,1.83,2.33,0,4.46.04,6.58-.04.42-.02,1.13-.5,1.17-.82.38-3.79,2.83-4.22,5.89-3.79.66.09,1.34.01,2.02.01,3.69,0,3.66,0,5.07,3.5.19.46.75,1.06,1.17,1.08,2.18.11,4.36.05,6.63.05-.05-.39-.03-.67-.12-.92-3.08-8.33-6.15-16.67-9.29-24.98ZM738.97,834.56c1.07-2.95,2.1-5.79,3.31-9.13,1.21,3.3,2.25,6.15,3.34,9.13h-6.65Z"/>
      <path class="cls-4" d="M655.05,858.64c14.36-5.52,22.13-16.03,20.31-27.69-.16.03-.34.02-.48.08-10.12,4.96-17.54,12.49-21.82,22.98-.17.41-.2,1.04,0,1.41.59,1.12,1.33,2.17,1.99,3.21Z"/>
      <path class="cls-4" d="M706.33,818.01v26.69h20.19v-6.64h-12.88v-20.05h-7.31Z"/>
      <path class="cls-4" d="M636.57,805.15c-4.92,6.94-9.13,14.24-10.71,22.73-.52,2.79-.47,5.68-.69,8.53.21.05.43.1.64.15,4.14-12.88,12.41-22.19,24.41-28.54-3.94-1.37-7.89-2.55-11.87-3.59-.51-.13-1.46.28-1.78.73Z"/>
      <path class="cls-4" d="M664.85,817.55c-4.42-3.08-8.44-5.89-12.57-8.77-3.4,6.76-5.32,13.46-5.66,21.12,5.24-5.56,11.13-9.36,18.24-12.35Z"/>
      <path class="cls-4" d="M636.63,853.66c2.23,1.39,4.49,2.74,6.83,3.93,1.91.97,3.95,1.68,5.93,2.5-3.77-7.71-5.69-15.67-5.88-24.55-3.77,5.3-6.06,10.77-7.66,16.55-.12.43.34,1.29.77,1.57Z"/>
    </g>
    <g>
      <path class="cls-4" d="M609.22,170.5c6.5-.78,11.9-3.71,15.78-9.13,1.13-1.58,2.03-3.3,2.52-5.34-2.3,0-4.45-.03-6.59.03-.3,0-.64.38-.87.65-1.09,1.31-1.96,2.85-3.24,3.92-5.02,4.17-13.45,4.65-19.1,1.2-4.51-2.76-6.83-6.88-7.46-12.29h37.84c.06-.3.11-.47.13-.65.43-6.71-1.65-12.51-6.53-17.15-7.46-7.09-18.39-8.26-27.37-3.05-11.49,6.67-14.64,22.55-6.47,33.04,5.42,6.96,12.68,9.8,21.37,8.76ZM592.5,139.6c5.27-8.39,15.79-9.36,22.69-4.7,2.9,1.96,4.59,4.79,5.5,8.29h-29.91c.61-1.29,1.05-2.52,1.72-3.59Z"/>
      <path class="cls-4" d="M701.32,170.28c8.24,1.5,15.35-.72,21.19-7.32v6.74h6.5v-43.1h-6.56v6.61c-9.1-10.88-24.36-8.91-31.81-1.74-8.48,8.17-9.72,21.19-2.67,30.37,3.41,4.43,7.83,7.43,13.35,8.44ZM706.14,132.05c9.29-.01,16.12,6.67,16.27,15.69.15,9.05-6.7,16.4-16.05,16.45-9.05.04-16.05-6.98-16.09-16.06-.03-8.88,7.06-16.07,15.87-16.08Z"/>
      <path class="cls-4" d="M537.91,132.95c4.66-.05,9.32-.1,13.98,0,2.28.05,4.59.25,6.82.69,3.61.72,6.7,2.44,8.85,5.54,1.85,2.67,2.38,5.71,2.46,8.91.18,7.62-4.22,13.19-11.62,14.65-4.88.97-9.8.45-14.71.53-.06,0-.11-.08-.31-.23v-23.54h-6.49v30.28h1.35c4.7,0,9.41.03,14.11-.01,1.82-.02,3.65-.07,5.44-.32,4.83-.67,9.23-2.4,12.85-5.75,4.1-3.79,5.97-8.62,6.25-14.1.23-4.64-.5-9.11-3.05-13.08-4.19-6.52-10.56-9.36-17.97-9.82-6.07-.38-12.17-.14-18.25-.18-.21,0-.42.04-.8.08,0,1.82.04,3.53-.02,5.23-.03.84.21,1.13,1.1,1.12Z"/>
      <path class="cls-4" d="M655.15,170.7c12.17.71,20.29-6.94,22.56-14.66-2.1,0-4.17.02-6.24-.01-.63-.01-.93.25-1.29.75-1.02,1.41-1.98,2.91-3.26,4.05-2.8,2.5-6.31,3.21-9.96,3.25-6.02.07-10.82-2.23-14-7.47-5.53-9.11-1-22.47,10.97-24.26,6.39-.95,13.11,1.12,16.4,7.39.13.25.45.55.68.55,2.24.04,4.48.03,6.76.03-2.74-8.89-12.04-16.03-24.26-14.64-10.97,1.25-19.87,11.26-19.72,22.33.17,12.32,9.13,21.96,21.38,22.68Z"/>
    </g>
    <g>
      <path class="cls-4" d="M105.76,611.31h5.21c1.35-.84,2.95-.75,4.41-1.22,3.34-1.06,6.72-2.02,9.43-4.87-.73-.28-1.15-.51-1.6-.61-18.21-4.04-29.47-15.19-34.09-33.15-.16-.61,0-1.5-.87-1.64-.81-.13-1.07.68-1.46,1.2-2.05,2.73-2.54,6.18-4.16,9.11v8.66c.89,3.42.44,7.18,2.57,10.28,4.41,6.39,9.67,11.46,18.1,11.71.79.02,1.72.02,2.47.53Z"/>
      <path class="cls-4" d="M95.04,562.19c10.13,6.49,16.54,15.6,19.13,27.33.53,2.42.61,4.94.93,7.41.31,2.38,2.37,2.66,4.07,2.95,1.78.3,1.47-1.51,1.55-2.45,1.31-14.7-3.05-27.23-14.26-37.19-4.16-3.69-9.19-5.86-14.01-8.41h-.58c-.13.76-.26,1.51-.39,2.27-.89,5.05-.76,5.34,3.55,8.1Z"/>
      <path class="cls-4" d="M387.14,596.27c-2.24-5.33-7.8-7.97-13.29-6.25-4.17,1.31-7.02,4.96-7.35,9.41-.32,4.31,2.13,8.39,6.13,10.23,3.97,1.83,8.78,1.08,11.83-1.86.82-.79,1.98-1.68.91-2.89-1.06-1.2-2.07-.19-2.99.53-.45.36-.9.73-1.4,1.03-3.25,1.95-7.57,1.11-9.85-1.91-.52-.69-1.21-1.45-.91-2.33.37-1.07,1.48-.67,2.28-.68,5.21-.05,10.41-.05,15.62-.06v-2.89c-.78-.58-.67-1.55-.99-2.33ZM382.35,598.56c-1.73-.03-3.46,0-5.19,0-1.64,0-3.27-.05-4.9.01-2.15.08-2.64-.69-1.49-2.53,2.83-4.57,10.28-4.45,12.86.2.83,1.5.67,2.36-1.27,2.32Z"/>
      <path class="cls-4" d="M110.94,560.67c11.16,10.44,15.6,23.25,13.42,38.33-.29,2.03.47,2.77,2.35,3.06,1.88.29,2.82-.78,3.76-2.07,9.62-13.24,4.36-32.43-10.71-38.84-3.07-1.31-6.24-2.3-9.89-2.04.2.55.21.66.27.73.26.29.51.57.79.84Z"/>
      <path class="cls-4" d="M182.72,611.31c.02-.15.04-.3.05-.46,7.64-.92,13.36-6.35,14.36-13.64,1.11-8.06-2.67-15.31-9.5-18.37-3.51-1.58-7.19-1.01-10.82-1.13-2.12-.07-2.91.95-2.89,2.98.08,10,.1,20,.15,30-.01.21-.02.41-.03.62h8.68ZM177.4,594.07c0-3.27.06-6.54-.02-9.81-.06-2.26.95-2.98,3.14-3,7.61-.07,13.2,5.36,13.19,12.99,0,7.55-5.76,13.13-13.24,13-2.22-.04-3.15-.87-3.09-3.08.08-3.36.02-6.73.02-10.1Z"/>
      <path class="cls-4" d="M91.53,565.02c.26,11.49,10.03,27.04,20.45,31.2.74-10.43-10.78-28-20.45-31.2Z"/>
      <path class="cls-4" d="M218.72,582.65c5.12-2.78,10.18-2.31,14.91,1.15.95.7,1.93,2.17,3.13.72,1.2-1.46-.18-2.47-1.24-3.28-3-2.28-6.39-3.48-10.18-3.48-7.34,0-13.83,4.67-15.97,11.5-2.1,6.72.37,14.15,6.04,18.19,6.1,4.34,14.11,4.3,19.93-.13,1.14-.87,2.68-1.86,1.42-3.46-1.18-1.49-2.19.08-3.11.77-4.03,3.01-8.5,3.66-13.11,1.95-5.38-1.99-8.4-6.13-8.68-11.82-.26-5.32,2.17-9.55,6.88-12.11Z"/>
      <path class="cls-4" d="M261.43,607.5c.65-.7,1.51-1.46.7-2.48-.88-1.1-1.86-.62-2.76.11-.6.48-1.18,1-1.85,1.38-3.46,2-8.19.82-10.16-2.49-.89-1.5-1.02-2.53,1.23-2.48,2.22.05,4.43,0,6.65,0h0c1.83-.01,3.66,0,5.49-.01,3.56-.03,4.29-.99,3.32-4.36-1.64-5.71-7.68-8.92-13.5-7.18-5.72,1.72-8.89,7.94-6.92,13.59,2.55,7.32,12.59,9.53,17.8,3.91ZM247.22,596.33c1.48-2.36,3.6-3.61,6.46-3.64,2.84-.02,5.01,1.14,6.52,3.51.9,1.41.71,2.37-1.24,2.35-1.82-.01-3.65,0-5.47,0-1.63,0-3.27-.03-4.9.01-1.8.04-2.35-.67-1.37-2.23Z"/>
      <path class="cls-4" d="M333.11,610.71c5.9-.05,10.6-4.82,10.56-10.71-.04-5.86-4.88-10.62-10.74-10.55-5.79.07-10.73,5.03-10.66,10.72.06,5.71,5.08,10.59,10.84,10.54ZM333.29,592.71c4.08.11,7.33,3.38,7.33,7.4,0,4.04-3.56,7.47-7.68,7.42-4.2-.06-7.47-3.43-7.39-7.62.07-4.19,3.43-7.31,7.74-7.2Z"/>
      <path class="cls-4" d="M362.66,607.46c1.39-1.59,2.21-3.38,1.32-5.56-.91-2.23-2.61-3.25-4.94-3.31-2.31-.05-4.62-.05-6.94-.04-1.15,0-2.17-.32-2.56-1.47-.41-1.2.45-1.99,1.24-2.7,2.43-2.16,5.62-2.18,9.63-.02.92.5,1.81.94,2.52-.11.69-1.02.01-1.78-.76-2.46-4.05-3.58-11.6-2.8-14.78,1.54-2.51,3.42-.71,7.7,3.49,8.17,1.33.15,2.69.02,4.04.02v.02c.77,0,1.54-.02,2.31,0,1.43.05,3.15-.19,3.62,1.61.53,2.03-1.13,2.91-2.61,3.62-3.26,1.55-6.17.79-8.78-1.53-.85-.76-1.84-1.37-2.72-.23-.71.92-.08,1.78.63,2.53,3.89,4.14,11.62,4.14,15.31-.07Z"/>
      <path class="cls-4" d="M166.11,607.22c-.96.04-1.93,0-2.89,0-8.47-.1-13.93-5.47-14.04-13.89-.06-4.32-.01-8.65-.04-12.98,0-1.25.08-2.71-1.74-2.73-1.86-.02-1.73,1.48-1.73,2.71-.03,4.81-.08,9.61,0,14.42.13,8.38,6.07,14.94,14.44,16.08h0c.01.16.03.32.04.48h8.68c0-.2-.01-.4-.02-.6.95-2.6-.13-3.6-2.71-3.48Z"/>
      <path class="cls-4" d="M282.77,600.65c.4,5.61,4.55,9.71,10.08,10.04,5.19.31,9.94-3.38,11.04-8.68.69-3.33.27-6.71.31-10.08.02-1.13-.33-2.27-1.7-2.21-1.37.06-1.54,1.29-1.56,2.37-.05,2.4,0,4.81-.05,7.22-.09,4.94-2.98,8.16-7.38,8.25-4.42.09-7.64-3.35-7.73-8.28-.05-2.6-.03-5.2-.05-7.79,0-.99-.45-1.77-1.47-1.81-1.05-.03-1.5.77-1.52,1.74-.03,1.63,0,3.27,0,4.9,0,0,.02,0,.03,0,0,1.44-.09,2.89.02,4.33Z"/>
      <path class="cls-4" d="M308.29,581.04c-.04,4.62-.04,9.24-.01,13.86.01,2.59-.18,5.19.49,7.75,1.19,4.55,5.48,8.01,10.12,8.05,1.06,0,2.31.09,2.54-1.29.26-1.52-.99-1.61-2.06-1.76-.29-.04-.57-.09-.86-.14-4.66-.85-6.8-3.34-6.89-8.13-.05-2.89,0-5.77,0-8.66h-.02c0-3.27.03-6.54-.02-9.81-.02-1.21.12-2.88-1.58-2.91-1.94-.03-1.71,1.74-1.72,3.04Z"/>
      <path class="cls-4" d="M279.45,607.62c-5.46-.96-7.55-3.45-7.57-9.07-.02-5.77.02-11.54-.03-17.31-.01-1.24.51-3.18-1.42-3.22-2.16-.04-1.58,2.03-1.62,3.33-.1,3.07-.03,6.15-.03,9.23.04,0,.08,0,.12,0,0,3.46-.17,6.93.04,10.38.33,5.35,4.7,9.46,10.05,9.72,1.15.05,2.55.22,2.8-1.31.29-1.76-1.25-1.56-2.34-1.76Z"/>
    </g>
    <g>
      <path class="cls-4" d="M730.7,571.55v-20.68c0-3.26-3.26-6.37-8.5-6.37h-36.9v21.46h-7.04v-21.46h-20.26v21.46h-26.56v-4.72h20.41v-16.74h-39.48v21.46h-7.45v-21.46h-19.78v41.09c0,3.22-4.94,3.22-4.94,0v-41.09h-20.68v40.87c0,3.07-4.46,3.07-4.46,0v-40.87h-19.93v50.57c0,5.24,4.49,10.04,10.04,10.04h15.77c3.48,0,7.38-2.62,9.4-4.68,1.61,2.47,5.06,4.68,8.24,4.68h16.33c6.67,0,10-4.2,10-9.63v-11.84h7.45v21.46h39.48v-16.74h-20.41v-4.72h26.56v21.46h20.26v-21.46h7.04v21.46h18.5v-16.14c0-2.4,7.12-2.4,7.12,0v16.14h19.78v-19.97c0-2.66-1.31-5.21-4.16-6.74,2.85-1.39,4.16-4.16,4.16-6.85ZM709.73,566h-5.84v-4.76h5.84c3,0,3,4.76,0,4.76Z"/>
      <path class="cls-4" d="M648.35,616.05h-.07c-.32,1.28-.66,2.59-1.03,3.82l-.41,1.41h2.96l-.4-1.41c-.37-1.23-.71-2.55-1.05-3.82Z"/>
      <path class="cls-4" d="M638.2,616.1h-1.64v3.77h1.64c1.59,0,2.45-.66,2.45-1.98s-.86-1.79-2.45-1.79Z"/>
      <path class="cls-4" d="M730.7,610.1h-195.57v20.28h195.57v-20.28ZM605.43,626.03h-1.88v-5.3c0-1.07.16-2.61.26-3.68h-.07l-.93,2.69-1.91,5.2h-1.22l-1.91-5.2-.92-2.69h-.07c.1,1.07.26,2.61.26,3.68v5.3h-1.85v-11.58h2.32l2.05,5.66c.26.74.49,1.52.74,2.27h.07c.25-.76.47-1.54.73-2.27l2-5.66h2.32v11.58ZM610.44,626.03h-2.05v-11.58h2.05v11.58ZM622.04,626.03h-2.11l-3.6-6.52-1.2-2.46h-.07c.1,1.23.26,2.62.26,3.91v5.07h-1.96v-11.58h2.11l3.6,6.51,1.2,2.47h.07c-.1-1.2-.26-2.66-.26-3.95v-5.03h1.96v11.58ZM632.14,626.03h-7.15v-11.58h6.97v1.73h-4.92v2.97h4.16v1.73h-4.16v3.43h5.09v1.73ZM640.83,626.03l-2.49-4.53h-1.76v4.53h-2.05v-11.58h3.9c2.41,0,4.26.85,4.26,3.44,0,1.76-.93,2.83-2.32,3.32l2.77,4.83h-2.31ZM651.16,626.03l-.9-3.14h-3.88l-.91,3.14h-2.1l3.78-11.58h2.41l3.78,11.58h-2.17ZM661.53,626.03h-6.86v-11.58h2.05v9.85h4.81v1.73ZM666.49,626.25c-1.57,0-3.07-.62-4.17-1.7l1.2-1.41c.83.79,1.94,1.32,3.02,1.32,1.3,0,2.02-.59,2.02-1.49,0-.95-.75-1.26-1.8-1.7l-1.58-.69c-1.14-.47-2.34-1.38-2.34-3.07,0-1.85,1.63-3.27,3.89-3.27,1.35,0,2.66.56,3.57,1.48l-1.06,1.3c-.74-.63-1.52-1-2.51-1-1.1,0-1.81.51-1.81,1.36,0,.91.88,1.25,1.84,1.64l1.56.65c1.38.57,2.34,1.45,2.34,3.12,0,1.88-1.56,3.44-4.16,3.44Z"/>
    </g>
    <g>
      <path class="cls-4" d="M939,1076.12c0,2.55-.05,5.11.02,7.66.03,1.33-.41,1.97-1.81,1.88-1.1-.07-2.2,0-3.31-.01-2.01-.02-2.17-.17-2.17-2.13,0-4.41,0-8.82-.02-13.23,0-.75,0-1.51-.12-2.25-.33-2-1.65-3.08-3.64-3.06-1.93.02-3.28,1.05-3.48,3.03-.23,2.23-.21,4.5-.23,6.75-.03,3.01-.04,6.01,0,9.02.02,1.34-.49,1.94-1.86,1.88-1.2-.06-2.41-.06-3.61,0-1.36.07-1.89-.52-1.88-1.86.03-4.41.02-8.82,0-13.22,0-.9-.05-1.81-.2-2.69-.29-1.69-1.39-2.65-3.06-2.8-1.8-.15-3.26.7-3.75,2.34-.26.9-.39,1.87-.4,2.81-.04,4.41-.02,8.82-.02,13.22,0,2.08-.1,2.18-2.24,2.19-1.15,0-2.3,0-3.46,0-1.02,0-1.58-.39-1.57-1.52.04-5.06-.08-10.12.07-15.18.16-5.42,3.08-9.31,7.69-10.42,3.32-.8,6.54-.42,9.19,1.92,1.1.97,1.78.83,2.76-.03,3.65-3.2,9.45-2.43,12.39-.48,3,1.99,4.36,4.92,4.57,8.38.16,2.59.03,5.21.03,7.81h.1Z"/>
      <path class="cls-4" d="M987.43,1058.9c.7-.2,1.16-.32,1.62-.45,5.53-1.66,11.55.32,14.87,4.9,3.65,5.04,3.76,11.38.27,16.44-3.22,4.68-9.03,6.84-14.54,5.41-5.16-1.34-9.4-6.58-9.49-12.05-.11-6.56-.02-13.13-.06-19.69,0-1.24.58-1.72,1.74-1.71,1.3,0,2.61.02,3.91,0,1.18-.02,1.74.47,1.7,1.71-.06,1.73-.01,3.47-.01,5.44ZM999.73,1071.76c0-3.77-3.01-6.81-6.73-6.8-3.74.01-6.76,3.09-6.71,6.85.04,3.71,3.02,6.69,6.69,6.71,3.76.02,6.75-2.98,6.76-6.76Z"/>
      <path class="cls-4" d="M1035.16,1058.92c.75-.22,1.21-.35,1.67-.49,5.58-1.65,11.54.37,14.94,5.08,3.47,4.79,3.54,11.3.19,16.22-3.24,4.76-9.04,6.91-14.65,5.45-5.13-1.34-9.33-6.6-9.42-12.11-.11-6.51,0-13.02-.05-19.54,0-1.31.58-1.81,1.81-1.79,1.25.02,2.51.03,3.76,0,1.25-.04,1.83.44,1.77,1.77-.08,1.69-.02,3.38-.02,5.4ZM1047.47,1071.8c.02-3.75-3.01-6.83-6.72-6.84-3.63,0-6.72,3.04-6.77,6.66-.05,3.73,2.98,6.86,6.67,6.9,3.75.04,6.8-2.97,6.82-6.72Z"/>
      <path class="cls-4" d="M1107.9,1076.49c0,2.5-.04,5.01.02,7.51.03,1.25-.48,1.69-1.69,1.67-3.96-.04-7.91.06-11.87-.04-8.51-.21-14.63-8.5-12.8-17.24,1.22-5.81,5.64-10.02,11.3-10.75,6.02-.78,11.33,1.98,13.93,7.46.64,1.36.94,2.95,1.06,4.47.17,2.29.05,4.6.05,6.91h0ZM1101,1071.28c-.02-3.82-2.55-6.44-6.23-6.44-3.64,0-6.29,2.7-6.31,6.41-.02,3.94,2.89,7.22,6.37,7.19,3.5-.03,6.18-3.15,6.16-7.17Z"/>
      <path class="cls-4" d="M1122.18,1086.02c-2.28-.7-4.57-1.35-6.83-2.11-1.07-.36-1.43-1.14-.95-2.26.43-1.01.77-2.06,1.15-3.1.35-.94.89-1.14,1.87-.74,1.47.6,2.99,1.12,4.54,1.47,1.18.27,2.4.01,2.83-1.34.42-1.29-.41-2.08-1.45-2.64-1.58-.86-3.23-1.62-4.76-2.55-3.18-1.94-4.25-4.36-3.59-7.86.6-3.2,3.03-5.63,6.34-6.23,3.19-.58,6.16.15,9,1.62.86.44,1.14,1.05.74,1.97-.43,1.01-.82,2.04-1.23,3.06-.39.98-.98,1.01-1.91.61-1.21-.53-2.51-1.04-3.8-1.13-.67-.05-1.73.68-2.01,1.31-.19.44.51,1.57,1.09,1.97,1.35.93,2.89,1.59,4.33,2.41,3.9,2.22,4.99,4.21,4.44,7.97-.49,3.36-3.07,6.02-6.72,6.86-.97.22-1.97.31-2.96.46-.04.09-.08.18-.13.26Z"/>
      <path class="cls-4" d="M1061.51,1076.88c0-2.65-.2-5.32.04-7.95.48-5.17,4.4-9.04,9.55-9.7,1.14-.15,2.29-.22,3.44-.27.92-.04,1.38.39,1.35,1.36-.04,1.35-.05,2.7,0,4.05.04,1.06-.44,1.45-1.44,1.4-.4-.02-.8.02-1.2.06-2.77.29-4.33,1.74-4.45,4.54-.16,3.6-.09,7.21-.13,10.81,0,.9-.05,1.8-.01,2.7.05,1.3-.57,1.81-1.82,1.76-1.2-.05-2.4-.05-3.6,0-1.35.06-1.91-.52-1.88-1.87.05-2.3.01-4.61.01-6.91.05,0,.11,0,.16,0Z"/>
      <path class="cls-4" d="M1153.23,1068.27c0-2.4.03-4.8-.01-7.2-.02-1.25.46-1.87,1.75-1.84,1.3.03,2.6.03,3.9,0,1.23-.03,1.68.56,1.67,1.75-.03,4.15-.02,8.31,0,12.46,0,3.96,1.15,5.15,5.14,5.4q2.07.13,2.08,2.14c0,.95-.07,1.91.01,2.85.14,1.5-.56,1.91-1.95,1.85-2.93-.13-5.8-.48-8.3-2.18-2.89-1.95-4.18-4.77-4.26-8.17-.06-2.35-.01-4.7-.01-7.05h-.01Z"/>
      <path class="cls-4" d="M1013.64,1072.48c0-3.81.04-7.61-.02-11.42-.03-1.45.53-1.99,1.95-1.9,1.25.08,2.5.04,3.75.01,1.12-.03,1.64.43,1.64,1.6-.02,7.76-.02,15.52,0,23.28,0,1.17-.55,1.62-1.65,1.6-1.3-.02-2.61-.05-3.9,0-1.29.06-1.79-.49-1.77-1.78.04-3.8.02-7.61.02-11.42Z"/>
      <path class="cls-4" d="M1146.28,1072.62c0,3.71-.04,7.41.02,11.12.02,1.42-.48,2.03-1.93,1.93-1.15-.08-2.31-.08-3.45,0-1.48.1-1.92-.61-1.91-1.98.03-6.86.02-13.72.01-20.58,0-4.25-.26-3.91,3.9-3.87,3.22.03,3.38-.68,3.35,3.32-.03,3.35,0,6.71,0,10.06h.02Z"/>
      <path class="cls-2" d="M959.65,1065.59c3.77,0,6.82,3.05,6.82,6.82s-3.05,6.82-6.82,6.82-6.82-3.05-6.82-6.82,3.05-6.82,6.82-6.82M959.65,1058.68c-7.57,0-13.74,6.16-13.74,13.74s6.16,13.74,13.74,13.74,13.74-6.16,13.74-13.74-6.16-13.74-13.74-13.74h0Z"/>
    </g>
    <g>
      <path class="cls-4" d="M932.81,351.55v-.03c0-.18-.03-.36-.05-.54h-.02v-.13c-.02-.13-.04-.26-.06-.39h0c-.02-.1-.04-.19-.06-.29h0v-.02c-.02-.07-.03-.14-.05-.21h-.01v-.05c-.02-.06-.03-.12-.05-.18h-.01v-.05c-.02-.06-.04-.12-.06-.18h0v-.02c-.05-.17-.11-.33-.18-.5h0v-.02s-.04-.1-.06-.15h0s-.03-.08-.05-.11h-.01v-.03c-.04-.09-.08-.17-.12-.25h0c-.07-.16-.15-.31-.24-.46h-.01v-.02l-.06-.09h0s-.06-.11-.06-.11h0s-.04-.06-.04-.06h-.03v-.04l-.05-.07h-.02v-.02l-.06-.09h0c-.04-.06-.08-.12-.12-.17h0c-.03-.06-.07-.1-.1-.15-.15-.21-.3-.38-.46-.58l-.06-.07h0c-.15-.17-.31-.33-.46-.49-.05-.06-.08-.07-.14-.13-.16-.15-.37-.35-.59-.53h0c-.17-.14-.33-.27-.46-.35l-.64-.44c-.2-.13-.39-.25-.59-.36h0c-.14-.08-.29-.16-.43-.23h0c-.39-.19-.79-.36-1.24-.54-.64-.26-1.69-.56-2.64-.72h0c-.12-.02-.24-.04-.36-.06h-.01c-.2-.03-.39-.05-.57-.06h-.06c-.07,0-.13,0-.2,0,.1-.11-.01-.02.43-.1.68-.12,1.26-.27,1.83-.46h0s0,0,0,0c.33-.11.65-.23,1-.38.42-.17.98-.47,1.35-.7.07-.04.13-.08.2-.12h0s0,0,0,0c.15-.09.29-.19.43-.29h0s0,0,0,0c.13-.09.25-.18.38-.28h0s0,0,0,0c.51-.4.94-.83,1.37-1.32h0s0,0,0,0c.09-.1.17-.2.26-.31.04-.05.08-.1.11-.15h0s0,0,0,0c.03-.04.06-.09.09-.13.12-.19.24-.37.34-.55h0s0,0,0,0c.11-.19.22-.37.31-.56v-.02h0s.04-.07.05-.11h0s0,0,0,0c.04-.09.08-.18.12-.27v-.02h0s.04-.09.06-.14v-.03h.01c.09-.23.17-.48.24-.76v-.04h.01c.04-.15.07-.32.1-.49v-.07s.01-.01.01-.01h0c.03-.15.05-.31.06-.46v-.05h0c.04-.44.04-.88,0-1.32h0v-.03c-.04-.4-.1-.79-.19-1.17h0c-.08-.38-.19-.75-.31-1.09h0c-.02-.06-.04-.12-.06-.17h0c-.06-.16-.12-.31-.18-.46h0c-.18-.42-.38-.8-.58-1.13-.05-.09-.11-.17-.16-.25h0c-.06-.11-.12-.2-.18-.29h0c-.12-.18-.24-.35-.37-.52h0c-.2-.27-.4-.51-.62-.75h0s-.05-.06-.05-.06h-.01c-.32-.35-.68-.68-1.11-1.03l-.08-.06h0c-.12-.1-.24-.19-.36-.29h-.01s-.06-.06-.06-.06h0c-.1-.08-.21-.15-.31-.23h0c-.08-.06-.16-.12-.25-.17h0c-.14-.1-.29-.19-.43-.29h0c-.06-.04-.12-.08-.18-.11h0c-.06-.04-.12-.08-.18-.11h0c-.16-.1-.33-.2-.5-.29h0s-.11-.06-.11-.06h-.02c-.19-.11-.37-.2-.56-.29h0c-.17-.08-.35-.16-.53-.23h-.03s-.11-.06-.11-.06h-.01c-.1-.04-.2-.08-.29-.11h-.02c-.05-.03-.11-.04-.16-.06-.42-.14-.81-.28-1.24-.4h-.03c-.11-.04-.22-.07-.34-.09-.23-.05-.45-.1-.66-.14h-.01c-1.2-.24-1.96-.32-2.89-.34h-24.86v41.5h24.3c.08,0,.17,0,.26,0h0s.29,0,.29,0c.45-.02.93-.05,1.4-.11h0s.05,0,.05,0c.28-.03.55-.07.83-.11h0s.01,0,.01,0c.1-.02.2-.03.3-.05h0s.04,0,.04,0c.09-.02.18-.03.27-.05h0s.04,0,.04,0c.09-.02.18-.04.27-.05h0s.01,0,.01,0c.17-.03.33-.07.49-.11h0s.02,0,.02,0c.08-.02.15-.04.23-.06h0s0,0,0,0c.06-.02.12-.03.19-.05h0s.03,0,.03,0c.13-.04.26-.07.37-.11.75-.24.97-.3,1.7-.6.35-.14.77-.33,1.21-.55h0s0,0,0,0c.18-.09.37-.19.55-.29h0s0,0,0,0c.1-.06.21-.11.31-.17h0s0,0,0,0c.34-.19.67-.39.93-.57h0s0,0,0,0c.08-.06.16-.11.23-.17.29-.21.86-.64,1.2-.92h0s0,0,0,0c.07-.06.12-.11.17-.15l.71-.68c.08-.08.17-.17.25-.25h0s0,0,0,0c.1-.11.21-.22.31-.34h0s0,0,0,0c.13-.15.25-.3.37-.45h0s0,0,0,0c.17-.22.34-.45.5-.68h0s0-.01,0-.01c.31-.45.58-.91.79-1.33.03-.05.05-.1.08-.16h0s0,0,0,0c.04-.09.08-.18.12-.27v-.02h0c.04-.09.08-.18.12-.27v-.02h0c.06-.15.12-.3.18-.46h0s0,0,0,0c.07-.18.13-.37.19-.55v-.02h0c.07-.22.13-.44.18-.67v-.02h0c.02-.09.04-.17.06-.26v-.03h0c.05-.24.09-.48.12-.72v-.09h.01c.02-.2.04-.4.05-.6v-.03h0v-.05s0-.77,0-.77v-.04h0ZM911.75,335.21c.36-1.33,1.19-2.38,2.04-3.12.4-.35,1.18-.8,1.72-1,.62-.23,1.51-.46,2.2-.61,1.74-.39,3.38-.52,5.28-.34.03.17-.52,1.55-.62,1.85-.21.67-.24,1.36-.43,2.03-.55,1.94-1.99,3.56-3.75,4.73-.8.53-2.93,1.06-3.9,1.05-1.16-.02-2.21-.6-2.61-1.46-.43-.92-.18-2.21.06-3.13ZM899.4,332.28c2.05-.29,5.85.25,7.51,1.24,1.26.75,2.2,2.04,2.54,3.27.33,1.19.53,2.68-.44,3.46-1.13.91-2.41.72-4.01.26-1.56-.45-2.62-1.43-3.46-2.52-.17-.22-.33-.45-.47-.69-.99-1.63-.68-1.98-1.09-3.35-.16-.54-.45-1.12-.57-1.65ZM922.59,357.4c-.38-.23-.98-.37-1.48-.45-.94-.15-2.08-.15-3.06-.11-1.97.08-3.92.29-5.83.53-1.88.24-3.71.49-5.58.73-1.99.25-3.88.48-5.96.38l.13-.86c.51-.02,1.07.04,1.64,0,.52-.03,1.04-.06,1.56-.11,2.88-.28,5.89-.75,8.8-1.1,2.43-.29,6.82-.79,9.24-.18.42.11,1.01.32,1.29.52.16.11.02.01.01.21,0,.02.01.12.02.15.02.2.04.4.06.59-.47.03-.63-.18-.83-.31ZM923.37,355.2c.02.15.03.31.05.46-.54.03-.58-.21-1.09-.43-1.07-.48-3.08-.48-4.29-.43-1.97.08-3.91.29-5.82.53-3.33.42-8.34,1.26-11.54,1.11l.13-.86c.48-.02,1.04.04,1.58,0,2.74-.13,7.11-.8,9.87-1.15,2.57-.33,7.62-.94,10.17-.14.65.2.8.38,1.01.47l-.08.07c-.03.06.01.3.02.37ZM923.33,352.47l.09.85c-.72,0-.56-.29-1.31-.53-.49-.16-.99-.24-1.55-.3-2.07-.2-5.05.1-7.14.34-1.1.13-2.23.31-3.3.42-.17.51-.68,1.63-1.31.84-.18-.22-.18-.33-.16-.64-.63.06-1.29.17-1.93.25-2,.25-4,.49-6.03.39l.14-.86c.33,0,.7.03,1.06.03,1.05-.02,1.99-.11,3.02-.22.66-.07,1.3-.15,1.94-.23.35-.05,1.64-.18,1.86-.26.08-.15.34-2.11.39-2.45.31-1.92.53-3.02.59-5,.03-.86.12-1.73.19-2.58.23-2.43.17-2.89.1-5.27-.06-1.94-.13-3.82-.14-5.77,0-.29,0-.58.02-.86,0-.17-.03-.63.17-.71.11.03.09.01.14.13.09.22.23,1.17.27,1.39.08.55.16,1.12.23,1.67.51,4.11.95,11.09.45,15.35-.08.65-.57,3.22-.73,3.89.25,0,2.75-.34,3.3-.4,1.14-.12,2.25-.23,3.4-.31,1.17-.08,2.46-.1,3.62,0,1.04.1,1.97.29,2.75.83l-.12.02Z"/>
      <path class="cls-4" d="M913.62,336.48l3.83-.27-.02-.3-3.68.26c.08-.34.44-.85.71-1.11.05-.05.1-.09.16-.14.07-.06.09-.1.17-.16.73-.57,1.01-.82,1.83-1.29l1.26-.69c.33-.18.33-.12,1.04,0,.32.05.88.18,1.17.19l.08-.26-1.57-.28s.02-.03.02-.02l1.69-.88c.56-.27,1.2-.6,1.84-.81-.04-.2.01-.32-.22-.25-.16.05-.31.11-.45.18l-1.68.79c-.19.1-.68.37-.87.42l-.43-.98-.34.1.47,1.07c-.39.17-.77.39-1.12.58l-1.08.59c-.18.09-.34.21-.51.3-.48.27-1.34,1.03-1.45,1.07l-.17-2.32h-.37c.04.63.1,1.26.14,1.89.02.25.14.69,0,.87-.7.87-.68,1.08-1.03,2.15-.21.64-.33,1.01-.35,1.73h.37c.02-.98.34-1.56.58-2.43Z"/>
      <path class="cls-4" d="M903.28,334.29l-.12.05c-.19.05-1.07.15-1.23.23l.07.27,1.53-.26c.27-.05.27-.02.46.09.5.28.97.52,1.44.81.25.15.47.27.67.45.55.49,1.31.94,1.53,1.73l-3.17-.23c-.14.02-.12.19-.08.29l3.35.24s.01.01.01.03l.29.85c.09.29.23.61.2.94.05.07.06.22.05.32h.34s-.03-.31-.03-.31c.05-.5-.6-2.27-.85-2.69-.09-.15-.36-.45-.39-.52-.05-.13.03-.61.04-.78.04-.52.09-1.06.12-1.58-.16-.02-.27-.04-.35,0l-.17,2c-.12-.06-.6-.49-.8-.62-.62-.42-1.2-.74-1.89-1.11-.21-.11-.85-.42-.97-.53l.41-.93-.34-.09-.4.85c-.35-.11-2.22-1.18-2.8-1.25l-.07.28c.77.19,2.89,1.4,3.14,1.46,0,0-.02,0-.03.02Z"/>
      <path class="cls-4" d="M908.3,340.08c.01-.1,0-.24-.05-.32,0,.11.02.26.04.35h.37c.03-.11.03-.27-.04-.35l.03.32h-.34Z"/>
      <path class="cls-4" d="M947.7,342.27c.09.03.16.05.22.05h.15c1.59.04,2.91-.47,3.97-1.51,1.05-1.04,1.69-2.18,1.91-3.42.05-.25.08-.49.1-.74.01-.25,0-.49-.03-.74-.12-.99-.58-1.84-1.4-2.54-.81-.71-2.05-1.06-3.72-1.06h-.49l-.72,9.96ZM933.88,363.58l2.98-40.07h13.89c5.53.04,9.49,1.1,11.88,3.18,2.4,2.08,3.77,4.47,4.13,7.16.03.25.05.49.06.74,0,.25,0,.49,0,.74.01,2.51-.63,4.86-1.91,7.05-1.29,2.19-2.78,3.6-4.5,4.24-.27.11-.54.19-.79.24-.26.05-.53.08-.81.08l8.16,16.64h-13.89l-5.69-15.85-1.01,15.85h-12.49ZM969.39,363.58l2-40.07h12.49l-2,40.07h-12.49ZM1016.23,350.22c.38.46.76.87,1.15,1.22.39.35.78.67,1.18.95,1.03.81,2.01,1.4,2.95,1.78.94.37,1.81.56,2.62.56.97,0,1.8-.24,2.47-.72.67-.48,1.12-1.16,1.34-2.04.03-.11.05-.21.05-.32.01-.11,0-.21,0-.32-.04-.35-.18-.68-.42-.98-.24-.3-.56-.61-.96-.93-.49-.39-1.07-.79-1.72-1.19-.66-.41-1.34-.86-2.05-1.35-1.24-.85-2.41-1.9-3.54-3.15-1.12-1.26-1.8-2.89-2.04-4.9-.01-.11-.02-.21-.04-.32-.01-.11-.02-.21-.04-.32-.34-4.28.82-7.68,3.46-10.2,2.65-2.53,5.7-4.07,9.17-4.64.48-.11.95-.18,1.44-.21.48-.04.97-.05,1.46-.05,1.46,0,2.87.18,4.23.53,1.36.35,2.59.9,3.69,1.64l-.59,11.61c-.46-.46-.93-.89-1.4-1.3-.47-.41-.93-.77-1.38-1.09-.83-.53-1.63-.92-2.39-1.17-.76-.25-1.46-.37-2.11-.37-.89,0-1.65.21-2.27.64-.62.42-1.01.99-1.17,1.7,0,.04,0,.07-.02.11-.02.04-.02.07-.02.11,0,.04,0,.07.01.11,0,.04,0,.07.01.11.04.35.18.69.42,1.01.24.32.56.62.96.9.5.42,1.07.84,1.73,1.25.66.41,1.34.84,2.04,1.3,1.28.88,2.47,1.92,3.56,3.1,1.09,1.18,1.75,2.71,1.97,4.58.03.25.05.5.06.77,0,.26.01.54,0,.82-.18,4.7-1.52,8.3-4.03,10.79-2.51,2.49-6.24,3.74-11.2,3.74-1.38,0-2.87-.09-4.48-.27-1.6-.18-3.3-.48-5.1-.9l.96-12.56ZM988.05,350.22c.38.46.76.87,1.15,1.22.39.35.78.67,1.18.95,1.03.81,2.01,1.4,2.95,1.78.94.37,1.81.56,2.62.56.97,0,1.8-.24,2.47-.72.67-.48,1.12-1.16,1.34-2.04.03-.11.05-.21.05-.32.01-.11,0-.21,0-.32-.04-.35-.18-.68-.42-.98-.24-.3-.56-.61-.96-.93-.49-.39-1.07-.79-1.72-1.19-.66-.41-1.34-.86-2.05-1.35-1.24-.85-2.41-1.9-3.54-3.15-1.12-1.26-1.8-2.89-2.04-4.9-.01-.11-.02-.21-.04-.32-.01-.11-.03-.21-.04-.32-.34-4.28.82-7.68,3.46-10.2,2.65-2.53,5.7-4.07,9.17-4.64.48-.11.95-.18,1.44-.21.48-.04.97-.05,1.46-.05,1.46,0,2.87.18,4.23.53,1.36.35,2.59.9,3.69,1.64l-.59,11.61c-.46-.46-.93-.89-1.4-1.3-.47-.41-.93-.77-1.38-1.09-.83-.53-1.63-.92-2.39-1.17-.76-.25-1.46-.37-2.11-.37-.89,0-1.65.21-2.27.64-.62.42-1.01.99-1.17,1.7,0,.04,0,.07-.02.11-.02.04-.02.07-.02.11,0,.04,0,.07.01.11,0,.04,0,.07.01.11.04.35.18.69.42,1.01.24.32.56.62.96.9.5.42,1.07.84,1.73,1.25.66.41,1.34.84,2.04,1.3,1.28.88,2.47,1.92,3.56,3.1,1.09,1.18,1.75,2.71,1.97,4.58.03.25.05.5.06.77,0,.26.01.54,0,.82-.18,4.7-1.52,8.3-4.03,10.79-2.51,2.49-6.24,3.74-11.2,3.74-1.38,0-2.87-.09-4.48-.27-1.6-.18-3.3-.48-5.1-.9l.96-12.56ZM1057.55,347.73c.02.14.02.27.02.4,0,.12,0,.24.01.34.02.14.02.26.01.37,0,.11,0,.21,0,.32.18,1.52.67,2.78,1.48,3.79.81,1.01,1.84,1.51,3.1,1.51,1.91,0,3.31-1.4,4.2-4.19.89-2.79,1.36-5.85,1.42-9.17,0-.28,0-.56,0-.82-.01-.26-.03-.52-.06-.77-.21-1.77-.72-3.27-1.53-4.5-.82-1.24-1.87-1.86-3.17-1.86-1.5,0-2.71.97-3.62,2.92-.91,1.94-1.51,4.06-1.81,6.36-.09.95-.15,1.89-.16,2.81-.01.92.03,1.77.12,2.54v-.05ZM1045.32,349.37c-.06-.49-.11-1.01-.15-1.54-.04-.53-.05-1.06-.03-1.59-.07-5.8,1.46-11.1,4.59-15.9,3.13-4.81,7.66-7.21,13.59-7.21,4.1,0,7.54,1.08,10.31,3.23,2.77,2.16,4.7,5.95,5.78,11.4,0,.07.02.15.03.24.01.09.02.17.03.24.01.11.02.2.03.29.01.09.02.17.03.24.12,1.02.18,2.08.19,3.15,0,1.08-.05,2.16-.17,3.26-.49,4.81-2.21,9.21-5.15,13.22-2.94,4.01-7.21,6.03-12.81,6.07h-.55c-.09-.03-.18-.05-.28-.05h-.28c-4.53-.18-7.91-1.49-10.15-3.95-2.24-2.46-3.73-5.15-4.48-8.08-.1-.5-.2-.99-.3-1.48-.1-.5-.18-.99-.24-1.48v-.05ZM1082.98,363.58l2.49-40.07h13.46l-2.21,30.48h9.14l-.83,9.59h-22.05ZM1121.45,347.73c.02.14.02.27.02.4,0,.12,0,.24.01.34.02.14.02.26.01.37,0,.11,0,.21,0,.32.18,1.52.67,2.78,1.48,3.79.81,1.01,1.84,1.51,3.1,1.51,1.91,0,3.31-1.4,4.2-4.19.89-2.79,1.36-5.85,1.42-9.17,0-.28,0-.56,0-.82,0-.26-.03-.52-.06-.77-.21-1.77-.72-3.27-1.53-4.5-.82-1.24-1.87-1.86-3.17-1.86-1.5,0-2.71.97-3.62,2.92-.91,1.94-1.51,4.06-1.81,6.36-.09.95-.14,1.89-.16,2.81-.01.92.02,1.77.12,2.54v-.05ZM1109.22,349.37c-.06-.49-.11-1.01-.15-1.54-.04-.53-.05-1.06-.03-1.59-.07-5.8,1.46-11.1,4.59-15.9,3.13-4.81,7.66-7.21,13.59-7.21,4.1,0,7.54,1.08,10.3,3.23,2.77,2.16,4.7,5.95,5.78,11.4,0,.07.02.15.03.24.01.09.02.17.03.24.01.11.02.2.03.29.01.09.02.17.03.24.12,1.02.18,2.08.19,3.15,0,1.08-.05,2.16-.17,3.26-.49,4.81-2.21,9.21-5.15,13.22-2.94,4.01-7.21,6.03-12.81,6.07h-.55c-.09-.03-.18-.05-.28-.05h-.27c-4.53-.18-7.91-1.49-10.15-3.95-2.24-2.46-3.73-5.15-4.48-8.08-.1-.5-.2-.99-.29-1.48-.1-.5-.18-.99-.24-1.48v-.05Z"/>
    </g>
  </g>
  <g id="Layer_3" data-name="Layer 3">
    <g>
      <g>
        <line class="cls-1" x1="444.8" x2="444.8" y2="1219.56"/>
        <line class="cls-1" x1="818.75" x2="818.75" y2="1219.56"/>
      </g>
      <line class="cls-1" x1="1263.55" y1="217.39" y2="217.39"/>
      <line class="cls-1" x1="1263.55" y1="456.4" y2="456.4"/>
      <line class="cls-1" x1="1263.55" y1="695.4" y2="695.4"/>
      <line class="cls-1" x1="1263.55" y1="934.41" y2="934.41"/>
    </g>
    <g>
      <path class="cls-4" d="M530.69,358.65h71.61v-8.38h-71.61v8.38Z"/>
      <path class="cls-4" d="M563.34,312.98s.17,1.04.17,1.53c.99,4.85,2.32,12.32,2.49,13.6h-5.3c.33-1.29,1.66-8.76,2.65-13.6v-1.53h0ZM567.65,302.78h-7.96l-9.45,41.9h7.46s1.66-9.11,1.99-10.27h7.46c.17,1.16,1.82,10.27,1.82,10.27h7.46l-8.79-41.9ZM595.34,328.81v1.32s-.17-1.04-.17-1.53c-1.82-9.2-5.14-25.81-5.14-25.81h-9.45v41.9h6.63v-28.04s.17,1.04.17,1.54c1.82,9.44,5.14,26.5,5.14,26.5h9.78v-41.9h-6.96v26.03ZM530.69,302.78v41.9h16.91v-6.3h-9.61v-35.6h-7.29ZM612.24,372.04v-1.06h-4.64v-2.9h5.3v-1.06h-6.46v9.22h6.63v-1.04h-5.47v-3.16h4.64ZM614.4,370.1v6.15h.99v-3.51c0-.46,0-.93.5-1.38.33-.33.66-.47,1.16-.47s1.16.26,1.33.85v4.52h1.16v-3.67c0-.52,0-.9-.17-1.27-.33-1.02-1.16-1.41-1.99-1.41-.81,0-1.55.42-1.99,1.1v-.9h-.99Z"/>
      <path class="cls-3" d="M622.19,372.59c.17-1.24.83-1.89,1.82-1.89.5,0,1.66.27,1.66,1.89h-3.48ZM625.84,374.21c-.17.82-.83,1.44-1.66,1.44-1.49,0-1.99-1.28-1.99-2.31h4.64c0-.26,0-.73-.17-1.25-.33-1.55-1.49-2.18-2.65-2.18-1.33,0-2.98.89-2.98,3.21,0,2.08,1.16,3.32,2.98,3.32,2.15,0,2.65-1.66,2.82-2.08l-.99-.14Z"/>
      <path class="cls-4" d="M628.32,370.1v6.15h1.16v-2.85c0-.56-.17-1.1.17-1.55.33-.5.83-.73,1.49-.73.17,0,.17.02.33.03v-1.12c-.33.01-1.49.04-1.99,1.2v-1.12h-1.16Z"/>
      <path class="cls-3" d="M635.29,370.84c.33,0,1.99.14,1.99,2.23,0,.37,0,1.1-.5,1.65-.33.54-.83.78-1.49.78-.5,0-.99-.16-1.49-.73-.33-.55-.33-1.25-.33-1.61,0-1.42.66-2.31,1.82-2.33h0ZM637.11,370.1v.82c-.66-.84-1.33-1.02-1.99-1.02-1.16,0-2.82.82-2.82,3.3,0,2.14,1.33,3.23,2.82,3.23,1.16,0,1.82-.77,1.99-1.08v.72c0,1.02,0,1.48-.33,1.88-.17.21-.66.44-1.33.44-1.33,0-1.66-.74-1.66-1.45h-1.16c0,.37.17,1.22.83,1.78.66.37,1.33.52,1.99.52.99,0,1.99-.34,2.49-1.19.33-.65.33-1.42.33-2.14v-5.81h-1.16ZM640.92,370.1h-.99v6.15h.99v-6.15ZM640.92,367.03h-.99v1.2h.99v-1.2Z"/>
      <path class="cls-4" d="M642.75,370.1v.9h3.15l-3.48,4.39v.86h4.81v-.86h-3.65l3.65-4.45v-.84h-4.48Z"/>
      <path class="cls-3" d="M649.71,370.1h-.99v6.15h.99v-6.15ZM649.71,367.03h-.99v1.2h.99v-1.2Z"/>
      <path class="cls-4" d="M651.53,370.1v6.15h.99v-3.51c0-.46,0-.93.5-1.38.33-.33.83-.47,1.16-.47.66,0,1.16.26,1.33.85.17.21.17.39.17,1.02v3.5h.99v-3.67c0-.52,0-.9-.17-1.27-.33-1.02-1.16-1.41-1.99-1.41-.81,0-1.55.42-1.99,1.1v-.9h-.99Z"/>
      <path class="cls-3" d="M661.15,370.84c.5,0,1.99.14,1.99,2.23,0,.37,0,1.1-.33,1.65-.33.54-.99.78-1.49.78s-1.16-.16-1.66-.73c-.33-.55-.33-1.25-.33-1.61,0-1.42.66-2.31,1.82-2.33h0ZM663.13,370.1v.82c-.66-.84-1.49-1.02-1.99-1.02-1.33,0-2.98.82-2.98,3.3,0,2.14,1.49,3.23,2.98,3.23,1.16,0,1.66-.77,1.99-1.08v.72c0,1.02,0,1.48-.5,1.88-.17.21-.5.44-1.16.44-1.33,0-1.82-.74-1.82-1.45h-1.16c0,.37.17,1.22.99,1.78.5.37,1.16.52,1.82.52.99,0,1.99-.34,2.49-1.19.33-.65.33-1.42.33-2.14v-5.81h-.99Z"/>
      <path class="cls-4" d="M643.91,302.78v55.87h22.38v-8.4h-12.76v-16h12.1v-8.4h-12.1v-14.67h12.76v-8.4h-22.38ZM671.26,315.98c0,7.51,3.98,12.02,9.12,17.13,7.63,7.57,7.63,8.81,7.63,12.93s-1.49,5.1-3.81,5.1c-.83,0-3.32,0-3.32-4.73v-5.46h-9.61v7.47c0,6.78,4.64,10.67,12.6,10.67,8.95,0,13.26-4.69,13.26-14.32,0-6.82-1.49-9.59-8.95-17.41-6.63-6.92-7.29-8.96-7.29-12.28,0-4,1.33-4.8,3.48-4.8,1.49,0,2.98.45,2.98,3.76v5.32h9.12v-6.13c0-3.65-.66-6-2.49-7.63-2.32-2.11-5.64-3.27-9.45-3.27-8.79,0-13.26,4.46-13.26,13.65M702.09,315.98c0,7.51,3.98,12.02,9.12,17.13,7.63,7.57,7.63,8.81,7.63,12.93s-1.49,5.1-3.81,5.1c-.83,0-3.32,0-3.32-4.73v-5.46h-9.61v7.47c0,6.78,4.64,10.67,12.6,10.67,8.95,0,13.26-4.69,13.26-14.32,0-6.82-1.33-9.59-8.95-17.41-6.63-6.92-7.29-8.96-7.29-12.28,0-4,1.33-4.8,3.48-4.8,1.49,0,2.98.45,2.98,3.76v5.32h9.12v-6.13c0-3.65-.66-6-2.49-7.63-2.16-2.11-5.64-3.27-9.45-3.27-8.79,0-13.26,4.46-13.26,13.65M639.76,302.78h-9.78l-6.8,16.42-6.96-16.42h-9.78l11.77,27.94-11.77,27.93h9.78l6.96-16.42,6.8,16.42h9.78l-11.77-27.93,11.77-27.94ZM680.04,376.25h1.16v-4.11c.17-.95.99-1.32,1.66-1.32.33,0,.83.14.99.52.33.38.33.85.33,1.66v3.25h.99v-3.58c0-.61,0-1.02-.17-1.41-.17-.6-.66-1.36-1.99-1.36-.66,0-1.16.12-1.82.81v-3.7h-1.16v9.23Z"/>
      <path class="cls-3" d="M687.83,372.59c.17-1.24.83-1.89,1.82-1.89.5,0,1.66.27,1.66,1.89h-3.48ZM691.48,374.21c-.17.82-.66,1.44-1.66,1.44-1.49,0-1.99-1.28-1.99-2.31h4.64v-1.25c-.5-1.55-1.66-2.18-2.82-2.18-1.33,0-2.98.89-2.98,3.21,0,2.08,1.16,3.32,2.98,3.32,2.15,0,2.65-1.66,2.82-2.08l-.99-.14ZM693.97,370.1v6.15h.99v-3.65c0-.55,0-.89.5-1.26.33-.29.66-.46,1.16-.46.33,0,.66.22.83.42.33.31.33.74.33.98v3.96h.99v-3.45c0-.74,0-1.03.33-1.38.33-.31.66-.52,1.16-.52.17,0,.83.06,1.16.77v4.59h.99v-3.85c0-.61,0-1.03-.17-1.41-.33-.6-.99-1.07-1.66-1.07-.99,0-1.49.6-2.16,1.14-.17-.48-.66-1.14-1.66-1.14-.33,0-.99.14-1.82,1.02v-.82h-.99ZM705.24,370.1h-.99v6.15h.99v-6.15ZM705.24,367.03h-.99v1.2h.99v-1.2Z"/>
      <path class="cls-4" d="M709.71,373.65c.83.14,1.33.27,1.33.98,0,.66-.5,1.02-1.49,1.02-.33,0-.83-.04-1.16-.35-.5-.4-.5-.92-.5-1.2l-1.16.18c.17,1.03.66,1.53.99,1.67.5.35,1.16.5,1.82.5,1.66,0,2.65-.94,2.65-1.95,0-1.29-1.33-1.61-2.16-1.78l-.5-.14c-.83-.2-1.49-.38-1.49-.97,0-.42.33-.9,1.16-.9.33,0,.83.05,1.16.37.5.31.5.61.5.99l1.16-.14c-.17-1.45-1.49-2.01-2.65-2.01-1.49,0-2.32.7-2.32,1.83,0,1.28,1.16,1.55,2.16,1.79l.5.12ZM715.02,368.15h-.99v1.94h-.99v.86h.99v3.99c0,.81,0,1.4,1.16,1.4.33,0,.83-.08.99-.11v-.86c-.17.06-.5.14-.66.14-.5,0-.5-.31-.5-1.04v-3.53h1.16v-.86h-1.16v-1.94ZM717.67,370.1v6.15h.99v-2.85c0-.56,0-1.1.33-1.55.17-.5.66-.73,1.33-.73.17,0,.33.02.5.03v-1.12c-.5.01-1.49.04-2.16,1.2v-1.12h-.99ZM725.46,370.1l-1.66,4.88-1.49-4.88h-1.16l2.16,6.19-.33.74c-.17.85-.33,1.29-1.16,1.29-.33,0-.5-.06-.66-.1v.93c.17.07.5.14.99.14,1.16,0,1.33-.68,1.82-1.92l2.65-7.27h-1.16ZM677.72,372.76c-.33,1.97-1.82,2.78-3.15,2.78-2.15,0-3.32-1.64-3.32-3.97,0-.96.17-1.95.66-2.69.66-.79,1.66-1.19,2.65-1.19,1.16,0,1.99.53,2.49,1.09.33.39.33.73.5,1.07l1.16-.25c-.17-.61-.99-2.82-4.14-2.82s-4.64,2.23-4.64,4.84,1.49,4.85,4.48,4.85c2.65,0,4.14-1.83,4.48-3.58l-1.16-.15Z"/>
    </g>
  </g>
</svg>