<?xml version="1.0" encoding="UTF-8"?>
<svg id="Layer_2" data-name="Layer 2" xmlns="http://www.w3.org/2000/svg" viewBox="0 0 287.97 165.68">
  <g id="Layer_1-2" data-name="Layer 1">
    <path d="M279.01,17.93c-1.55-.08-2.62-.3-3.45-.69h-.05l-.13-.08-.02-.02c-1.59-.78-2.79-2.12-3.5-3.88-.29-.73-.44-1.51-.44-2.31,0-.48.05-.97.16-1.44l2.13-9.5h-36.59c-1.87,5.69-3.98,9.28-7.04,11.97-3.61,3.17-8.62,5.05-15.77,5.91l-.58.04h-43.55s-1.66,5.56-1.66,5.56l-.1.32-.3-.15-.79-.4c-.08-.06-.19-.13-.35-.24-.21-.14-.52-.35-.92-.58-.71-.42-1.84-1.03-3.15-1.51-2.6-.96-12.07-2.94-24.71-2.94h-1.01c-12.27,0-23.08,4.56-29.67,12.5-.11.19-.29.43-.49.66l-1.35,1.58-.23.27-.21-.29-1.22-1.69c-5.81-8.07-20.43-13.08-38.17-13.08-9.26,0-17,1.01-23.68,3.07-6.8,2.11-12.49,5.31-17.39,9.79-4.91,4.5-9.01,10.27-12.53,17.64-3.45,7.24-6.33,15.99-8.8,26.75-2.3,10.22-3.47,19.95-3.47,28.91,0,2.63.1,5.19.31,7.61.88,10.39,3.62,18.67,7.93,23.93,6.45,7.9,15.86,11.28,33.57,12.05,1.04.05,2.12.07,3.2.07,7.39,0,15.16-1.05,21.89-2.95,6.69-1.89,12.06-4.54,15.12-7.45l1.57-1.49.27-.25.17.33,1.73,3.3c.08.15.94,1.17,2.29,2.38,1.19,1.07,3.11,2.59,5.45,3.78,4.7,2.4,12.13,2.46,17.56,2.5h1.03c.61.01,1.26.02,1.93.03.54,0,1.09.01,1.66.01.79,0,1.6,0,2.43.03,5.52,0,12.43-.29,16.92-2.53,2.86-1.43,5.1-1.64,6.19-1.64.33,0,.53.02.57.03l.32.04.24.03v.24s.01.34.01.34c0,.28-.02,1.33-.37,3.06-.76,3.79-1.81,8.07-3.82,11.09l-.67,1.03-.8,6.04h35.68c1.55-.21,2.05-.76,2.05-.77q.64-.98.99-2.36l.31-1.16,1.76-6.25,24.83-107.85c.7-3.06,3.39-5.22,6.54-5.25h9.41c1.52,0,2.92.13,4.59,1.78,1.02,1.01,1.54,2.19,1.54,3.53,0,.63-.12,1.13-.19,1.43l-.06.31-16.82,73.43-.14,1.05-2.96,13.05c-.35,1.87-1.17,7.27-1.37,9.01-.03.28-.05.55-.05.8,0,.49.07.91.19,1.17.09.02.19.03.32.05h45.72s1.67-10.26,1.67-10.26c-2.25-3.36-3.34-7.68-3.34-13.19,0-7.4,2.02-15.55,3.64-22.11l12.04-54.92c.67-3.01,3.3-5.12,6.37-5.12h13.02l5.53-24.1h-8.96ZM90.2,61.42l-.11.48-.04.19c-.12.51-.38,1.56-.45,1.83-.07.24-.12.41-.17.52-1.43,6.71-4.81,23.01-5.4,30.29l-.02.15c-.03.18-.06.32-.08.44.06.23.09.47.09.7,0,.14-.01.28-.03.43-.05.32-.07.66-.08,1.04l-.04,1.6v.27h-18.09c-1.4,4.83-1.92,6.53-2.16,7.36q-.29.95-.78,2.81c-.03.11-.05.19-.08.26v.13c0,.65-.06,1.92-.49,3.15-1.57,4.51-3.1,7.1-5.43,9.26-.96.89-2,1.58-3.16,2.11-1.67.77-3.49,1.14-5.56,1.14-3.37,0-6.03-1.18-7.92-3.52-.91-1.13-1.56-2.43-1.96-3.97-.41-1.11-.68-2.4-.8-3.93-.03-.2-.05-.46-.07-.86h0v-.27s-.01-.39-.01-.39v-.6c0-5.65,1.5-14.45,5.33-31.4,1.18-5.18,2.2-9.54,3.14-13.32,2.42-9.71,4.59-17.11,7.33-21.68,2.76-4.62,6.09-6.6,11.13-6.6,4.02,0,6.93.71,8.89,2.16,1.12.83,1.53,1.22,1.81,1.77.41.56.93,1.7,1.08,3.12.06.59.09,1.18.09,1.76,0,1.12-.11,1.9-.17,2.18-.19.83-.54,1.72-.74,2.17l-1.82,8.89h6.41s7.25,0,7.25,0h2.86s.35,0,.35,0l-.08.34ZM152.8,85.94l-.03.1c-3.02,13.08-5.01,21.71-7.22,27.78-2.3,6.3-4.78,9.58-8.54,11.3-1.67.77-3.49,1.14-5.56,1.14h-.02s0,0,0,0c-3.36,0-6.02-1.18-7.91-3.52-.91-1.13-1.55-2.43-1.96-3.97-.61-1.62-.89-3.55-.89-6.04,0-5.64,1.5-14.45,5.33-31.43,1.18-5.2,2.21-9.56,3.14-13.32,2.42-9.71,4.59-17.11,7.33-21.68,2.76-4.62,6.09-6.6,11.13-6.6,3.49,0,6.19,1.18,8.08,3.51.94,1.16,1.56,2.41,1.96,3.93.57,1.51.84,3.3.84,5.63,0,5.5-1.54,14.48-5.68,33.16Z"/>
  </g>
</svg>