<?xml version="1.0" encoding="UTF-8"?>
<svg id="Layer_2" data-name="Layer 2" xmlns="http://www.w3.org/2000/svg" viewBox="0 0 164.65 221.7">
  <defs>
    <style>
      .cls-1 {
        fill: #fff;
      }

      .cls-2 {
        fill: #ef4545;
      }
    </style>
  </defs>
  <g id="Layer_1-2" data-name="Layer 1">
    <g>
      <rect class="cls-2" width="164.65" height="221.7"/>
      <path class="cls-1" d="M143.1,129.95c-.7-.04-1.18-.13-1.55-.31h-.02l-.06-.04h0c-.71-.36-1.26-.96-1.57-1.76-.13-.33-.2-.68-.2-1.04,0-.22.02-.43.07-.65l.96-4.28h-16.47c-.84,2.56-1.79,4.17-3.17,5.39-1.63,1.43-3.88,2.27-7.1,2.66l-.26.02h-19.6s-.75,2.5-.75,2.5l-.04.14-.13-.07-.36-.18s-.08-.06-.16-.11c-.1-.07-.24-.16-.41-.26-.32-.19-.83-.46-1.42-.68-1.17-.43-5.43-1.32-11.12-1.32h-.45c-5.52,0-10.39,2.05-13.35,5.63-.05.08-.13.19-.22.3l-.61.71-.1.12-.09-.13-.55-.76c-2.61-3.63-9.2-5.89-17.18-5.89-4.17,0-7.65.45-10.66,1.38-3.06.95-5.62,2.39-7.83,4.41-2.21,2.02-4.06,4.62-5.64,7.94-1.55,3.26-2.85,7.19-3.96,12.04-1.04,4.6-1.56,8.98-1.56,13.01,0,1.18.05,2.34.14,3.43.4,4.68,1.63,8.4,3.57,10.77,2.9,3.56,7.14,5.08,15.11,5.43.47.02.96.03,1.44.03,3.33,0,6.82-.47,9.85-1.33,3.01-.85,5.43-2.04,6.81-3.35l.71-.67.12-.11.08.15.78,1.49c.04.07.42.53,1.03,1.07.54.48,1.4,1.16,2.45,1.7,2.11,1.08,5.46,1.11,7.9,1.12h.46c.28,0,.57.01.87.01.24,0,.49,0,.75,0,.35,0,.72,0,1.09.01,2.48,0,5.6-.13,7.62-1.14,1.29-.64,2.3-.74,2.78-.74.15,0,.24,0,.26.01l.15.02h.11s0,.12,0,.12v.15c0,.13,0,.6-.16,1.38-.34,1.71-.82,3.63-1.72,4.99l-.3.46-.36,2.72h16.06c.7-.09.92-.34.92-.34q.29-.44.45-1.06l.14-.52.79-2.81,11.18-48.54c.32-1.38,1.53-2.35,2.94-2.36h4.24c.69,0,1.31.06,2.06.8.46.45.7.99.69,1.59,0,.28-.05.51-.08.64l-.03.14-7.57,33.05-.06.47-1.33,5.87c-.16.84-.53,3.27-.62,4.06-.01.13-.02.25-.02.36,0,.22.03.41.08.53.04,0,.09.01.14.02h20.58s.75-4.62.75-4.62c-1.01-1.51-1.51-3.46-1.51-5.94,0-3.33.91-7,1.64-9.95l5.42-24.72c.3-1.36,1.48-2.3,2.87-2.3h5.86l2.49-10.85h-4.03ZM58.12,149.53l-.05.21-.02.09c-.05.23-.17.7-.2.82-.03.11-.05.18-.08.23-.64,3.02-2.17,10.36-2.43,13.63v.07c-.02.08-.03.14-.04.2.03.1.04.21.04.32,0,.06,0,.13-.01.19-.02.14-.03.3-.04.47l-.02.72v.12h-8.14c-.63,2.17-.86,2.94-.97,3.31q-.13.43-.35,1.27c-.01.05-.02.09-.03.12v.06c0,.29-.03.86-.22,1.42-.71,2.03-1.39,3.2-2.44,4.17-.43.4-.9.71-1.42.95-.75.35-1.57.51-2.5.51-1.52,0-2.71-.53-3.57-1.59-.41-.51-.7-1.09-.88-1.79-.19-.5-.31-1.08-.36-1.77-.01-.09-.02-.21-.03-.39h0v-.12s0-.18,0-.18v-.27c0-2.54.67-6.51,2.4-14.13.53-2.33.99-4.29,1.42-6,1.09-4.37,2.07-7.7,3.3-9.76,1.24-2.08,2.74-2.97,5.01-2.97,1.81,0,3.12.32,4,.97.51.37.69.55.82.8.19.25.42.76.48,1.41.03.26.04.53.04.79,0,.5-.05.85-.08.98-.09.37-.24.77-.33.98l-.82,4h2.89s3.26,0,3.26,0h1.29s.16,0,.16,0l-.04.15ZM86.29,160.57v.05c-1.37,5.89-2.27,9.77-3.26,12.5-1.04,2.84-2.15,4.31-3.85,5.09-.75.35-1.57.51-2.5.51h0s0,0,0,0c-1.51,0-2.71-.53-3.56-1.59-.41-.51-.7-1.09-.88-1.79-.27-.73-.4-1.6-.4-2.72,0-2.54.67-6.5,2.4-14.14.53-2.34.99-4.3,1.42-6,1.09-4.37,2.07-7.7,3.3-9.76,1.24-2.08,2.74-2.97,5.01-2.97,1.57,0,2.79.53,3.64,1.58.42.52.7,1.08.88,1.77.26.68.38,1.49.38,2.53,0,2.47-.69,6.52-2.56,14.92Z"/>
    </g>
  </g>
</svg>