<?xml version="1.0" encoding="UTF-8"?>
<svg id="Layer_2" data-name="Layer 2" xmlns="http://www.w3.org/2000/svg" xmlns:xlink="http://www.w3.org/1999/xlink" viewBox="0 0 284.92 378.49">
  <defs>
    <style>
      .cls-1 {
        fill: url(#linear-gradient-2);
      }

      .cls-2 {
        mask: url(#mask-1);
      }

      .cls-3 {
        fill: #fff;
      }

      .cls-4 {
        mask: url(#mask);
      }

      .cls-5 {
        fill: url(#linear-gradient);
      }
    </style>
    <linearGradient id="linear-gradient" x1="4608.69" y1="-2666.43" x2="5037.59" y2="-2666.43" gradientTransform="translate(-2298.76 -1076.74) scale(.5 -.5)" gradientUnits="userSpaceOnUse">
      <stop offset="0" stop-color="#fff" stop-opacity=".2"/>
      <stop offset=".25" stop-color="#fff"/>
      <stop offset=".5" stop-color="#fff"/>
      <stop offset="1" stop-color="#fff" stop-opacity=".2"/>
    </linearGradient>
    <mask id="mask" x="16.71" y="149.25" width="192.21" height="214.45" maskUnits="userSpaceOnUse">
      <g id="mh">
        <rect class="cls-5" x="5.59" y="160.37" width="214.45" height="192.21" transform="translate(369.29 143.66) rotate(90)"/>
      </g>
    </mask>
    <linearGradient id="linear-gradient-2" x1="4823.14" y1="-2474.22" x2="4823.14" y2="-2858.64" gradientTransform="translate(-2298.76 -1076.74) scale(.5 -.5)" gradientUnits="userSpaceOnUse">
      <stop offset="0" stop-color="#fff" stop-opacity=".2"/>
      <stop offset=".36" stop-color="#fff"/>
      <stop offset=".61" stop-color="#fff"/>
      <stop offset="1" stop-color="#fff" stop-opacity=".2"/>
    </linearGradient>
    <mask id="mask-1" x="16.71" y="149.25" width="192.21" height="214.45" maskUnits="userSpaceOnUse">
      <g id="mv">
        <rect class="cls-1" x="5.59" y="160.37" width="214.45" height="192.21" transform="translate(369.29 143.66) rotate(90)"/>
      </g>
    </mask>
  </defs>
  <g id="Layer_1-2" data-name="Layer 1">
    <rect class="cls-3" width="284.92" height="378.49"/>
    <g>
      <g>
        <rect x="188.08" y="328.38" width="7.13" height="14.13"/>
        <path d="M200.81,317.17v3.25l.24.05c1.18.24,2.02.51,2.48.81.45.29.79.68,1.01,1.15.23.49.37,1.15.43,1.97.06.85.1,2.18.1,3.96v14.95c0,2.27-.08,3.86-.24,4.71-.15.81-.45,1.46-.89,1.93-.43.46-1.24.85-2.41,1.15l-.22.06v2.93h18.98v-2.94l-.23-.05c-1.08-.25-1.84-.62-2.26-1.09-.42-.48-.7-1.15-.83-1.99-.14-.89-.21-2.49-.21-4.74v-14.07c0-1.07.34-2.09,1-3.03.67-.95,1.52-1.7,2.51-2.24.99-.53,1.94-.8,2.83-.8.68,0,1.24.08,1.68.24.43.15.81.38,1.13.67.32.29.61.68.86,1.16.25.49.46,1.06.61,1.71.15.66.26,1.54.32,2.62.06,1.1.1,2.46.1,4.04v9.75c0,2.3-.08,3.9-.23,4.77-.14.82-.42,1.48-.83,1.95-.4.46-1.17.82-2.28,1.07l-.23.05v2.94h18.86v-2.93l-.22-.06c-.9-.23-1.57-.51-1.98-.84-.4-.32-.7-.72-.88-1.2-.19-.5-.32-1.18-.38-2.02-.06-.86-.1-2.13-.1-3.76v-11.86c0-1.41.04-2.44.13-3.05.08-.6.24-1.14.47-1.62.23-.48.54-.91.92-1.3.39-.4.88-.79,1.44-1.18.55-.38,1.1-.67,1.63-.85.53-.18,1.12-.27,1.75-.27.92,0,1.66.16,2.21.47.55.31,1.04.84,1.44,1.56.41.74.7,1.78.85,3.11.15,1.35.23,3.13.23,5.29v9.75c0,2.27-.08,3.87-.24,4.75-.16.84-.44,1.5-.84,1.97-.39.46-1.14.82-2.22,1.07l-.23.05v2.93h19.09v-2.93l-.23-.06c-.66-.16-1.23-.36-1.7-.59-.44-.22-.79-.49-1.03-.81-.24-.32-.44-.74-.58-1.26-.15-.53-.24-1.26-.28-2.17-.04-.92-.06-1.93-.06-2.99v-13.27c0-2.24-.2-4.2-.6-5.82-.41-1.64-1.07-3.02-1.96-4.12-.9-1.1-2.06-1.93-3.44-2.45-1.37-.52-3.12-.78-5.19-.78s-4.16.47-6.1,1.41c-1.85.89-4.02,2.43-6.48,4.57-.53-1.28-1.21-2.35-2.02-3.18-.9-.91-2.01-1.61-3.3-2.09-1.28-.47-2.91-.71-4.82-.71s-3.94.44-5.84,1.3c-1.85.84-3.05,2.22-5.35,4.24l-.4.03.03-5.23"/>
      </g>
      <g>
        <path d="M60.72,302.42v3.14l.37.07c1.47.28,2.13.56,2.42.75.4.26.69.62.89,1.09.22.51.36,1.27.43,2.26.07,1.03.11,2.83.11,5.33v2.63c-1.22-.3-2.31-.51-3.24-.63-1.08-.13-2.19-.2-3.29-.2-3.87,0-7.23.73-9.99,2.18-2.78,1.46-4.9,3.63-6.31,6.46-1.4,2.8-2.1,6.29-2.1,10.36,0,6,1.17,10.58,3.48,13.6,2.34,3.06,5.89,4.61,10.55,4.61,1.88,0,5.09-.67,7.13-1.63,1.92-.91,2.57-1.3,4.31-2.94l.07,4.57h15.23v-3.17h0c-1.11-.22-2.24-1.01-2.7-1.37-.4-.31-.74-.7-.93-1.11-.2-.44-.33-1.06-.39-1.83-.06-.8-.09-2.11-.09-3.9v-40.28M52.3,334.2c0-2.66.28-4.99.82-6.92.53-1.9,1.33-3.36,2.38-4.34,1.03-.98,2.23-1.45,3.66-1.45,1.98,0,3.4.62,4.34,1.9.96,1.31,1.44,3.37,1.44,6.14v11.8c0,1.27-.34,2.4-1,3.37-.67.98-1.51,1.71-2.49,2.18-.99.48-2,.72-3,.72-2.09,0-3.59-1.04-4.59-3.17-1.04-2.22-1.56-5.65-1.56-10.22Z"/>
        <path d="M100.23,354.08c3.28,0,6.24-.55,8.78-1.63,2.54-1.08,5.13-2.94,7.7-5.52l.32-.32-3.66-3.77-.33.32c-1.73,1.66-3.34,2.83-4.8,3.47-1.46.64-3.12.97-4.94.97-3.07,0-5.39-.96-6.87-2.85-1.45-1.85-2.23-4.78-2.31-8.69h23.7v-.46c-.03-2.81-.3-5.25-.8-7.23-.48-1.95-1.22-3.72-2.19-5.24-.83-1.29-1.88-2.42-3.15-3.33-1.26-.91-2.79-1.63-4.53-2.14-1.74-.51-3.79-.76-6.09-.76-3.72,0-7.03.74-9.86,2.2-2.84,1.47-5.06,3.65-6.61,6.5-1.54,2.83-2.32,6.23-2.32,10.12,0,6.03,1.52,10.64,4.52,13.73,3,3.09,7.53,4.66,13.43,4.66ZM94.33,331.3c.25-3.14.9-5.59,1.93-7.27,1.05-1.71,2.42-2.54,4.19-2.54s3.1.79,3.92,2.41c.82,1.62,1.3,4.11,1.43,7.41h-11.48Z"/>
        <path d="M126.56,352.91c1.64.77,3.58,1.16,5.78,1.16s5.35-.42,7.33-1.29c1.89-.83,2.86-1.47,4.85-3.28v4.57s14.52,0,14.52,0v-3.17h0c-.91-.13-2.04-.8-2.37-1.04-.27-.19-.51-.48-.72-.68-.2-.2-.38-.48-.51-.84-.14-.37-.25-.96-.32-1.77-.07-.83-.11-2.03-.11-3.57v-13.82c0-3.06-.47-5.51-1.4-7.26-.94-1.79-2.39-3.1-4.29-3.89-1.86-.78-4.35-1.17-7.41-1.17-1.18,0-2.38.07-3.57.22-1.17.14-2.53.39-4.03.73-1.48.34-3.01.78-4.55,1.3-1.52.52-3.45,1.27-5.75,2.24l-.28.12v7.21h7.91l.07-.38c.31-1.8.79-3.21,1.43-4.21.62-.97,1.31-1.63,2.06-1.97.77-.35,1.71-.53,2.78-.53s1.97.22,2.72.66c.73.43,1.35,1.21,1.83,2.3.49,1.13.75,2.78.75,4.9v2.94c-7.15.54-12.58,1.82-16.15,3.8-3.74,2.07-5.64,4.97-5.64,8.6,0,1.8.43,3.42,1.28,4.81.85,1.39,2.13,2.5,3.79,3.28ZM135.47,338.75c1.7-1.17,4.34-1.83,7.86-1.96v5.41c0,.99-.28,1.95-.83,2.84-.55.9-1.31,1.62-2.27,2.16-.95.54-1.96.81-3.02.81-1.37,0-2.45-.35-3.21-1.03-.75-.68-1.12-1.66-1.12-3.01,0-2.32.85-4.02,2.58-5.22Z"/>
        <path d="M162.2,302.42v3.16h0c.99.13,2.1.7,2.56,1.07.35.28.68.58.9.91.22.33.39.8.49,1.38.11.63.18,1.42.22,2.35.04.94.06,2.45.06,4.46v27.63c0,1.49-.03,2.65-.07,3.46-.05.77-.15,1.37-.31,1.78-.16.41-.34.75-.54,1.01-.2.24-.48.47-.85.66-.38.2-.94.39-1.64.54l-.36.08v3.17h19.24v-3.16l-.35-.09c-1.17-.28-1.97-.65-2.37-1.08-.4-.44-.67-1.05-.8-1.81-.14-.82-.22-2.36-.22-4.56v-40.95"/>
        <g>
          <path d="M18.77,317.35v3.56l.37.07c.82.16,1.5.35,2.01.56.47.2.82.47,1.09.83.27.37.46.88.56,1.52.11.69.16,1.62.16,2.76v16.65c0,2.23-.08,3.77-.24,4.6-.15.77-.43,1.38-.83,1.81-.4.43-1.19.8-2.33,1.09l-.35.09v3.18h19.36v-3.19l-.36-.08c-.66-.15-1.2-.34-1.6-.54-.37-.19-.65-.39-.84-.6h0c-.2-.23-.36-.48-.48-.75-.12-.28-.22-.6-.29-.96-.07-.36-.13-.91-.16-1.62-.04-.72-.06-1.75-.06-3.07v-25.92"/>
          <rect x="23.49" y="308.57" width="11.28" height="7.07"/>
        </g>
      </g>
    </g>
    <g class="cls-4">
      <g class="cls-2">
        <g>
          <rect x="205.97" y="219.74" width="1.64" height="1.95" transform="translate(427.5 13.92) rotate(90)"/>
          <rect x="202.04" y="219.74" width="1.64" height="1.95" transform="translate(423.57 17.86) rotate(90)"/>
          <rect x="198.13" y="219.74" width="1.64" height="1.95" transform="translate(419.66 21.77) rotate(90)"/>
          <rect x="194.19" y="219.74" width="1.64" height="1.95" transform="translate(415.72 25.7) rotate(90)"/>
          <rect x="190.28" y="219.74" width="1.64" height="1.95" transform="translate(411.82 29.61) rotate(90)"/>
          <rect x="186.35" y="219.74" width="1.64" height="1.95" transform="translate(407.88 33.54) rotate(90)"/>
          <rect x="182.44" y="219.74" width="1.64" height="1.95" transform="translate(403.97 37.45) rotate(90)"/>
          <rect x="177.67" y="219.74" width="3.31" height="1.95" transform="translate(400.04 41.39) rotate(90)"/>
          <rect x="172.5" y="219.74" width="5.83" height="1.95" transform="translate(396.13 45.3) rotate(90)"/>
          <rect x="166.96" y="219.74" width="9.04" height="1.95" transform="translate(392.19 49.23) rotate(90)"/>
          <rect x="161.12" y="219.74" width="12.9" height="1.95" transform="translate(388.28 53.14) rotate(90)"/>
          <rect x="154.95" y="219.74" width="17.37" height="1.95" transform="translate(384.35 57.08) rotate(90)"/>
          <rect x="148.51" y="219.74" width="22.38" height="1.95" transform="translate(380.41 61.01) rotate(90)"/>
          <rect x="141.85" y="219.74" width="27.89" height="1.95" transform="translate(376.51 64.92) rotate(90)"/>
          <rect x="134.96" y="219.74" width="33.8" height="1.95" transform="translate(372.57 68.85) rotate(90)"/>
          <rect x="127.92" y="219.74" width="40.06" height="1.95" transform="translate(368.66 72.76) rotate(90)"/>
          <rect x="120.74" y="219.74" width="46.54" height="1.95" transform="translate(364.73 76.7) rotate(90)"/>
          <rect x="113.54" y="219.74" width="53.14" height="1.95" transform="translate(360.82 80.61) rotate(90)"/>
          <rect x="106.29" y="219.74" width="59.75" height="1.95" transform="translate(356.88 84.54) rotate(90)"/>
          <rect x="99.14" y="219.74" width="66.23" height="1.95" transform="translate(352.97 88.45) rotate(90)"/>
          <rect x="92.12" y="219.74" width="72.41" height="1.95" transform="translate(349.04 92.39) rotate(90)"/>
          <rect x="85.39" y="219.74" width="78.05" height="1.95" transform="translate(345.13 96.29) rotate(90)"/>
          <rect x="79.08" y="219.74" width="82.8" height="1.95" transform="translate(341.2 100.23) rotate(90)"/>
          <rect x="59.9" y="219.74" width="113.34" height="1.95" transform="translate(337.29 104.14) rotate(90)"/>
          <rect x="71.24" y="219.74" width="82.8" height="1.95" transform="translate(333.35 108.07) rotate(90)"/>
          <rect x="69.7" y="219.74" width="78.05" height="1.95" transform="translate(329.44 111.98) rotate(90)"/>
          <rect x="68.59" y="219.74" width="72.41" height="1.95" transform="translate(325.51 115.92) rotate(90)"/>
          <rect x="67.77" y="219.74" width="66.23" height="1.95" transform="translate(321.6 119.83) rotate(90)"/>
          <rect x="67.08" y="219.74" width="59.75" height="1.95" transform="translate(317.66 123.76) rotate(90)"/>
          <rect x="66.45" y="219.74" width="53.14" height="1.95" transform="translate(313.73 127.7) rotate(90)"/>
          <rect x="65.84" y="219.74" width="46.54" height="1.95" transform="translate(309.82 131.6) rotate(90)"/>
          <rect x="65.14" y="219.74" width="40.06" height="1.95" transform="translate(305.89 135.54) rotate(90)"/>
          <rect x="64.36" y="219.74" width="33.8" height="1.95" transform="translate(301.98 139.45) rotate(90)"/>
          <rect x="63.38" y="219.74" width="27.89" height="1.95" transform="translate(298.04 143.38) rotate(90)"/>
          <rect x="62.23" y="219.74" width="22.38" height="1.95" transform="translate(294.13 147.29) rotate(90)"/>
          <rect x="60.8" y="219.74" width="17.37" height="1.95" transform="translate(290.2 151.23) rotate(90)"/>
          <rect x="59.13" y="219.74" width="12.9" height="1.95" transform="translate(286.29 155.14) rotate(90)"/>
          <rect x="57.12" y="219.74" width="9.04" height="1.95" transform="translate(282.35 159.07) rotate(90)"/>
          <rect x="54.82" y="219.74" width="5.83" height="1.95" transform="translate(278.45 162.98) rotate(90)"/>
          <rect x="52.14" y="219.74" width="3.31" height="1.95" transform="translate(274.51 166.91) rotate(90)"/>
          <rect x="49.07" y="219.74" width="1.64" height="1.95" transform="translate(270.6 170.82) rotate(90)"/>
          <rect x="45.14" y="219.74" width="1.64" height="1.95" transform="translate(266.67 174.76) rotate(90)"/>
          <rect x="41.23" y="219.74" width="1.64" height="1.95" transform="translate(262.76 178.67) rotate(90)"/>
          <rect x="37.29" y="219.74" width="1.64" height="1.95" transform="translate(258.82 182.6) rotate(90)"/>
          <rect x="33.36" y="219.74" width="1.64" height="1.95" transform="translate(254.89 186.54) rotate(90)"/>
          <rect x="29.45" y="219.74" width="1.64" height="1.95" transform="translate(250.98 190.45) rotate(90)"/>
          <rect x="25.51" y="219.74" width="1.64" height="1.95" transform="translate(247.04 194.38) rotate(90)"/>
          <rect x="21.6" y="219.74" width="1.64" height="1.95" transform="translate(243.14 198.29) rotate(90)"/>
          <rect x="17.67" y="219.74" width="1.64" height="1.95" transform="translate(239.2 202.22) rotate(90)"/>
        </g>
      </g>
    </g>
  </g>
</svg>