<?xml version="1.0" encoding="UTF-8"?>
<svg id="Layer_2" data-name="Layer 2" xmlns="http://www.w3.org/2000/svg" xmlns:xlink="http://www.w3.org/1999/xlink" viewBox="0 0 459.4 256.43">
  <defs>
    <style>
      .cls-1 {
        fill: #fff;
      }

      .cls-2 {
        mask: url(#mask);
      }

      .cls-3 {
        fill: url(#radial-gradient);
      }

      .cls-4 {
        fill: #fff;
      }

      .cls-5 {
        fill: url(#linear-gradient);
      }
    </style>
    <linearGradient id="linear-gradient" x1="684.06" y1="-2664.57" x2="725.5" y2="-2664.57" gradientTransform="translate(790.24 -2605.38) scale(1 -1) skewX(25)" gradientUnits="userSpaceOnUse">
      <stop offset="0" stop-color="#010101"/>
      <stop offset="1" stop-color="#fff"/>
    </linearGradient>
    <mask id="mask" x="-690.23" y="-147.99" width="2169.99" height="1479.9" maskUnits="userSpaceOnUse">
      <g id="stub-mask">
        <polygon class="cls-1" points="-.14 -147.99 1479.77 -147.99 789.68 1331.91 -690.23 1331.91 -.14 -147.99"/>
        <polygon class="cls-5" points="233.49 54.76 275.67 54.76 271.52 63.64 229.35 63.64 233.49 54.76"/>
      </g>
    </mask>
    <radialGradient id="radial-gradient" cx="843.05" cy="-784.9" fx="843.05" fy="-784.9" r="1.3" gradientTransform="translate(-142504.47 -64301.7) scale(205 -82) skewX(10.57)" gradientUnits="userSpaceOnUse">
      <stop offset="0" stop-color="#fff"/>
      <stop offset=".15" stop-color="#fff"/>
      <stop offset=".42" stop-color="#fff" stop-opacity=".92"/>
      <stop offset="1" stop-color="#fff" stop-opacity="0"/>
    </radialGradient>
  </defs>
  <g id="Layer_1-2" data-name="Layer 1">
    <g>
      <g>
        <path class="cls-4" d="M48.43,100.46v3.63l.43.08c1.7.32,2.45.65,2.79.86.46.3.8.71,1.03,1.25.25.59.42,1.46.5,2.61.09,1.19.13,3.26.13,6.16v3.04c-1.41-.35-2.67-.59-3.74-.72-1.25-.15-2.53-.23-3.8-.23-4.47,0-8.35.85-11.53,2.51-3.21,1.68-5.66,4.19-7.28,7.45-1.61,3.24-2.43,7.26-2.43,11.96,0,6.93,1.35,12.21,4.01,15.7,2.7,3.53,6.8,5.32,12.18,5.32,2.17,0,5.88-.78,8.23-1.88,2.22-1.05,2.96-1.5,4.98-3.39l.09,5.28h17.58v-3.66h0c-1.28-.26-2.58-1.17-3.12-1.58-.46-.36-.85-.8-1.07-1.29-.23-.51-.38-1.22-.45-2.11-.07-.93-.11-2.44-.11-4.5v-46.5M38.71,137.14c0-3.07.32-5.76.95-7.99.62-2.19,1.54-3.88,2.74-5.02,1.19-1.13,2.57-1.67,4.23-1.67,2.29,0,3.92.72,5.01,2.2,1.11,1.51,1.67,3.89,1.67,7.09v13.62c0,1.46-.39,2.77-1.16,3.89-.78,1.13-1.75,1.98-2.88,2.52-1.15.55-2.31.83-3.46.83-2.42,0-4.15-1.2-5.3-3.66-1.2-2.56-1.81-6.53-1.81-11.8Z"/>
        <path class="cls-4" d="M94.04,160.09c3.79,0,7.2-.63,10.13-1.88,2.93-1.25,5.92-3.4,8.89-6.37l.37-.37-4.23-4.35-.38.37c-1.99,1.92-3.86,3.26-5.54,4.01-1.68.74-3.6,1.12-5.7,1.12-3.55,0-6.22-1.11-7.93-3.29-1.68-2.14-2.57-5.52-2.66-10.04h27.36v-.54c-.03-3.25-.34-6.06-.93-8.34-.56-2.26-1.41-4.29-2.53-6.05-.95-1.49-2.18-2.79-3.63-3.85-1.46-1.06-3.22-1.89-5.24-2.47-2.01-.58-4.38-.88-7.03-.88-4.29,0-8.12.85-11.38,2.53-3.27,1.69-5.84,4.21-7.63,7.5-1.77,3.27-2.67,7.2-2.67,11.68,0,6.96,1.76,12.29,5.22,15.85,3.47,3.57,8.69,5.38,15.51,5.38ZM87.23,133.79c.29-3.63,1.04-6.45,2.23-8.39,1.22-1.98,2.8-2.94,4.83-2.94s3.58.91,4.53,2.78c.95,1.87,1.51,4.75,1.65,8.55h-13.25Z"/>
        <path class="cls-4" d="M124.44,158.74c1.89.89,4.14,1.34,6.68,1.34s6.18-.48,8.47-1.49c2.19-.96,3.3-1.7,5.6-3.78v5.28s16.76,0,16.76,0v-3.66h0c-1.05-.15-2.35-.92-2.74-1.2-.31-.22-.59-.55-.83-.79-.23-.23-.43-.56-.59-.96-.17-.42-.29-1.11-.38-2.04-.09-.96-.13-2.35-.13-4.12v-15.95c0-3.53-.54-6.36-1.61-8.39-1.09-2.07-2.75-3.58-4.95-4.5-2.15-.9-5.03-1.35-8.56-1.35-1.36,0-2.75.09-4.12.25-1.35.16-2.92.45-4.65.85-1.71.39-3.48.9-5.25,1.51-1.75.6-3.99,1.47-6.64,2.59l-.33.14v8.33h9.14l.08-.44c.36-2.08.92-3.71,1.65-4.86.72-1.12,1.52-1.89,2.38-2.28.89-.4,1.97-.61,3.21-.61s2.28.26,3.14.77c.85.5,1.56,1.39,2.11,2.66.57,1.3.86,3.21.86,5.66v3.39c-8.25.62-14.52,2.1-18.65,4.38-4.32,2.39-6.51,5.74-6.51,9.93,0,2.08.5,3.95,1.48,5.55.99,1.61,2.46,2.88,4.37,3.78ZM134.72,142.4c1.96-1.35,5.01-2.11,9.07-2.26v6.24c0,1.15-.32,2.25-.96,3.28-.64,1.03-1.52,1.87-2.61,2.49-1.09.62-2.27.94-3.49.94-1.58,0-2.83-.4-3.7-1.19-.87-.79-1.29-1.92-1.29-3.47,0-2.67.98-4.64,2.98-6.02Z"/>
        <path class="cls-4" d="M165.58,100.46v3.64h0c1.14.15,2.42.81,2.95,1.23.41.32.79.67,1.04,1.05.26.38.45.92.57,1.59.12.73.21,1.64.25,2.71.04,1.09.07,2.83.07,5.15v31.9c0,1.72-.03,3.06-.09,4-.06.89-.17,1.58-.36,2.05-.18.48-.39.87-.63,1.16-.23.28-.56.54-.98.76-.44.23-1.08.44-1.89.63l-.42.09v3.66h22.21v-3.65l-.41-.1c-1.36-.33-2.27-.75-2.73-1.25-.46-.51-.77-1.21-.93-2.09-.17-.95-.25-2.72-.25-5.27v-47.28"/>
        <g>
          <path class="cls-4" d="M0,117.69v4.11l.43.08c.95.19,1.73.41,2.32.65.54.23.95.54,1.26.96.31.43.53,1.02.65,1.75.13.8.19,1.87.19,3.18v19.22c0,2.57-.09,4.36-.27,5.32-.17.89-.49,1.59-.96,2.09-.47.5-1.37.92-2.68,1.25l-.4.1v3.68h22.35v-3.68l-.41-.1c-.76-.18-1.38-.39-1.85-.62-.43-.21-.75-.45-.97-.7h0c-.23-.26-.41-.55-.55-.86-.14-.32-.25-.69-.33-1.11-.08-.42-.15-1.05-.19-1.87-.04-.83-.06-2.02-.06-3.55v-29.92"/>
          <rect class="cls-4" x="5.45" y="107.56" width="13.02" height="8.16"/>
        </g>
      </g>
      <g>
        <path class="cls-4" d="M0,189.28v5.39l.43.09c2.12.43,3.61.92,4.44,1.47.8.53,1.41,1.23,1.8,2.08.41.89.67,2.09.77,3.57.11,1.54.17,3.96.17,7.18v27.11c0,4.13-.15,7-.44,8.54-.28,1.47-.81,2.65-1.58,3.49-.77.84-2.22,1.54-4.3,2.09l-.4.1v5.31h33.89v-5.32l-.41-.09c-1.94-.46-3.29-1.12-4.04-1.98-.75-.87-1.25-2.08-1.48-3.62-.25-1.62-.37-4.51-.37-8.59v-25.53c0-1.94.6-3.79,1.79-5.49,1.2-1.73,2.71-3.09,4.48-4.06,1.76-.96,3.47-1.45,5.06-1.45,1.21,0,2.22.15,3.01.43.77.28,1.45.69,2.01,1.21.57.53,1.08,1.23,1.53,2.1.46.88.82,1.92,1.08,3.1.27,1.2.46,2.8.57,4.76.11,2,.17,4.47.17,7.32v17.68c0,4.17-.14,7.08-.4,8.65-.26,1.5-.76,2.68-1.49,3.53-.72.83-2.09,1.48-4.07,1.94l-.41.1v5.32h33.69v-5.31l-.4-.1c-1.61-.42-2.8-.93-3.54-1.52-.72-.57-1.25-1.31-1.58-2.18-.35-.91-.58-2.15-.69-3.67-.11-1.56-.17-3.86-.17-6.82v-21.51c0-2.56.08-4.42.23-5.53.15-1.08.43-2.07.84-2.94.41-.86.96-1.66,1.65-2.36.7-.72,1.57-1.44,2.57-2.15.97-.69,1.96-1.21,2.92-1.55.95-.33,2-.5,3.12-.5,1.63,0,2.97.29,3.95.85.98.57,1.85,1.52,2.57,2.83.74,1.34,1.25,3.24,1.51,5.63.27,2.44.41,5.68.41,9.6v17.68c0,4.12-.15,7.02-.44,8.61-.28,1.53-.78,2.73-1.49,3.57-.7.83-2.03,1.48-3.96,1.94l-.41.1v5.32h34.1v-5.32l-.41-.1c-1.18-.29-2.21-.66-3.04-1.08-.79-.4-1.4-.89-1.83-1.46-.44-.58-.79-1.35-1.04-2.29-.26-.97-.43-2.29-.5-3.94-.07-1.68-.1-3.5-.1-5.42v-24.08c0-4.07-.36-7.62-1.08-10.55-.73-2.97-1.9-5.48-3.5-7.47-1.61-2-3.68-3.5-6.15-4.45-2.45-.94-5.57-1.42-9.27-1.42s-7.43.86-10.89,2.56c-3.3,1.62-7.19,4.4-11.58,8.28-.95-2.33-2.16-4.27-3.61-5.77-1.6-1.65-3.58-2.93-5.89-3.79-2.29-.85-5.19-1.29-8.61-1.29s-7.04.79-10.43,2.36c-3.31,1.53-5.45,2.1-9.55,5.76h-.72l.05-6.98"/>
        <path class="cls-4" d="M182.28,222.48c-.05-5.18-.54-9.66-1.45-13.32-.88-3.58-2.22-6.82-3.97-9.61-1.49-2.37-3.41-4.41-5.69-6.09-2.28-1.67-5.04-2.99-8.22-3.92-3.16-.93-6.89-1.4-11.08-1.4-6.77,0-12.8,1.36-17.93,4.03-5.15,2.69-9.18,6.69-11.98,11.9-2.79,5.2-4.21,11.45-4.21,18.6,0,11.08,2.76,19.56,8.2,25.22,5.45,5.66,13.66,8.53,24.4,8.53,5.99,0,11.36-1.01,15.97-3,4.61-1.99,9.33-5.41,14.01-10.16l.37-.38-6.28-6.54-.38.37c-3.19,3.09-6.18,5.28-8.89,6.49-2.71,1.21-5.79,1.82-9.17,1.82-5.74,0-10.06-1.82-12.84-5.41-2.75-3.54-4.2-9.14-4.3-16.62h43.46v-.54ZM142.82,201.15c1.99-3.26,4.59-4.84,7.94-4.84s5.92,1.51,7.48,4.61c1.56,3.09,2.45,7.84,2.67,14.12h-21.71c.44-6.02,1.66-10.69,3.62-13.89Z"/>
        <g>
          <path class="cls-4" d="M305.49,189.18v6.43l.43.08c1.51.3,2.76.65,3.7,1.04.89.37,1.59.91,2.11,1.61.52.71.88,1.68,1.07,2.89.2,1.27.3,2.97.3,5.05v30.2c0,4.06-.15,6.89-.44,8.41-.28,1.45-.81,2.61-1.58,3.44-.77.83-2.24,1.52-4.37,2.05l-.4.1v5.23h34.51v-5.24l-.41-.1c-1.22-.29-2.22-.62-2.97-1-.71-.36-1.26-.75-1.62-1.17h0c-.38-.43-.68-.91-.91-1.43-.23-.52-.42-1.13-.55-1.8-.13-.68-.23-1.68-.3-2.98-.07-1.32-.1-3.2-.1-5.59v-47.23"/>
          <rect class="cls-4" x="314.09" y="173.98" width="19.85" height="12.21"/>
        </g>
        <path class="cls-4" d="M393.57,237.64c-3.14,2.79-5.9,4.75-8.2,5.82-2.27,1.06-4.72,1.59-7.28,1.59-3.51,0-6.37-.92-8.5-2.73-2.15-1.82-3.73-4.47-4.7-7.88-.99-3.46-1.49-7.77-1.49-12.82s.34-9.3,1.02-12.59c.67-3.28,1.58-5.92,2.71-7.84,1.11-1.89,2.39-3.24,3.83-4,1.45-.77,2.99-1.15,4.59-1.15,2.4,0,4.19.85,5.47,2.61,1.31,1.8,2.32,4.75,2.99,8.76l.07.45h14.55v-16.76l-.39-.11c-3.02-.88-6.42-1.58-10.12-2.09-3.7-.5-7.45-.76-11.14-.76-6.95,0-13.21,1.38-18.61,4.09-5.42,2.73-9.64,6.8-12.53,12.1-2.89,5.29-4.35,11.64-4.35,18.87,0,10.73,2.68,19.03,7.96,24.69,5.29,5.66,13.05,8.54,23.07,8.54,4.99,0,9.66-.93,13.88-2.77,4.22-1.83,8.64-4.9,13.14-9.12l.38-.35-5.97-6.9-.4.36Z"/>
        <path class="cls-4" d="M457.2,226.71c-1.45-2.48-3.58-4.71-6.33-6.61-2.73-1.88-6.29-3.7-10.59-5.4-4.65-1.86-7.82-3.35-9.43-4.45-1.57-1.06-2.66-2.16-3.26-3.26-.59-1.09-.89-2.44-.89-4.01,0-2.2.8-3.86,2.45-5.08,1.68-1.24,4-1.87,6.88-1.87,2.03,0,3.78.29,5.22.85,1.41.55,2.74,1.57,3.93,3.02,1.21,1.48,2.35,3.61,3.37,6.35l.13.35h9.95v-16.28l-.44-.08c-5.06-.88-9.25-1.45-12.45-1.71-3.21-.26-6.52-.4-9.84-.4-5.7,0-10.84.78-15.29,2.33-4.48,1.56-7.99,3.84-10.42,6.79-2.45,2.97-3.69,6.53-3.69,10.58,0,2.48.5,4.77,1.49,6.8.98,2.02,2.33,3.87,4.01,5.5,1.67,1.62,3.66,3.1,5.9,4.38,2.22,1.27,4.63,2.45,7.15,3.51,4.44,1.87,7.61,3.39,9.42,4.53,1.77,1.11,3.06,2.28,3.81,3.47.74,1.18,1.12,2.62,1.12,4.31,0,2.7-.8,4.69-2.45,6.09-1.65,1.4-4.16,2.1-7.44,2.1-3.83,0-6.92-.96-9.19-2.86-2.28-1.91-3.97-4.83-5.04-8.69l-.11-.39h-10.12v16.66l.42.09c9.23,2.06,17.73,3.1,25.27,3.1,4.18,0,8.06-.41,11.53-1.23,3.49-.82,6.54-2.09,9.05-3.78,2.53-1.7,4.52-3.9,5.93-6.53,1.41-2.63,2.12-5.79,2.12-9.41,0-3.32-.74-6.27-2.2-8.77Z"/>
        <path class="cls-4" d="M268.64,197.08v-7.9h-55.14s0-15.2,0-15.2h-17.48c-.23,3.47-.52,5.86-.95,8.16-.42,2.28-1,4.14-1.7,5.54-.69,1.36-1.66,2.46-2.9,3.27-1.25.82-3.26,1.45-5.96,1.87l-.45.07v5.47h8.57v35.78c0,7.17,1.75,12.61,5.19,16.19,3.45,3.58,8.7,5.39,15.63,5.39,3.7,0,7.28-.68,10.62-2.02,3.32-1.34,7.06-3.67,11.1-6.93l.41-.33-4.99-6.3-.42.35c-1.2,1.01-2.35,1.8-3.43,2.34-1.07.54-2.1.92-3.06,1.13-.96.21-2.08.31-3.32.31-1.56,0-2.83-.49-3.88-1.51-1.06-1.02-1.83-2.67-2.28-4.89-.47-2.29-.71-5.91-.71-10.74v-22.5c-.01-3.31,2.49-6.45,5.52-6.45h20.58s1.74,0,1.74,0c2.37,0,3.33.92,3.84,1.46.65.69,1.13,1.53,1.51,2.38.25.56.41,1.32.54,2.15.06,1.44.09,3.32.09,5.63v26.69c0,4.06-.15,6.89-.44,8.41-.28,1.45-.81,2.61-1.58,3.44-.77.83-2.22,1.52-4.3,2.05l-.4.1v5.23h34.85v-5.27l-.44-.07c-2.17-.37-3.71-.99-4.59-1.84-.88-.85-1.47-2.06-1.77-3.58-.31-1.6-.47-4.47-.47-8.54v-20.72c0-2.22.07-3.9.2-5,.13-1.08.41-2.16.82-3.21.4-1.03,1.1-2.07,2.08-3.07.98-1.01,2.06-1.8,3.21-2.36,1.13-.55,2.18-.82,3.09-.82,1.97,0,3.49.6,4.65,1.85,1.2,1.28,2.18,3.15,2.93,5.57l.12.37h13.33v-18.9l-.44-.08c-3.08-.57-6.07-.85-8.87-.85-4.17,0-8.13.85-11.81,2.28-2.91,1.13-4.2,2.1-6.58,3.75"/>
      </g>
    </g>
    <g id="uuid-28388976-4e1a-4b78-b51e-0dab1d024199" data-name="Layer 1-2">
      <g class="cls-2">
        <path class="cls-3" d="M459.39,60.73c-.04-.44-.08-.87-.13-1.3h-122.48c-14.01,0-29.26-15.24-29.26-29.25V0s-1.3,0-1.3,0v30.17c0,14.01-15.24,29.25-29.25,29.25h-45.37v1.3s45.37,0,45.37,0c14.01,0,29.26,15.24,29.26,29.25v35.5s1.3,0,1.3,0v-35.5c0-14.01,15.24-29.25,29.26-29.25h45.37v-1.3s.16,1.3.16,1.3h77.1,0Z"/>
      </g>
    </g>
  </g>
</svg>
