<?xml version="1.0" encoding="UTF-8"?>
<svg id="Layer_2" data-name="Layer 2" xmlns="http://www.w3.org/2000/svg" xmlns:xlink="http://www.w3.org/1999/xlink" viewBox="0 0 400.71 203.44">
  <defs>
    <style>
      .cls-1 {
        fill: url(#linear-gradient-2);
      }

      .cls-2 {
        mask: url(#mask-1);
      }

      .cls-3 {
        mask: url(#mask);
      }

      .cls-4 {
        fill: url(#linear-gradient);
      }
    </style>
    <linearGradient id="linear-gradient" x1="4208.98" y1="-1611.54" x2="4594.94" y2="-1611.54" gradientTransform="translate(-1885.71 -722.59) scale(.5 -.5)" gradientUnits="userSpaceOnUse">
      <stop offset="0" stop-color="#fff" stop-opacity=".2"/>
      <stop offset=".25" stop-color="#fff"/>
      <stop offset=".5" stop-color="#fff"/>
      <stop offset="1" stop-color="#fff" stop-opacity=".2"/>
    </linearGradient>
    <mask id="mask" x="228.78" y="-13.31" width="172.97" height="192.98" maskUnits="userSpaceOnUse">
      <g id="mh">
        <rect class="cls-4" x="218.78" y="-3.31" width="192.98" height="172.97" transform="translate(398.44 -232.09) rotate(90)"/>
      </g>
    </mask>
    <linearGradient id="linear-gradient-2" x1="4401.96" y1="-1438.57" x2="4401.96" y2="-1784.51" gradientTransform="translate(-1885.71 -722.59) scale(.5 -.5)" gradientUnits="userSpaceOnUse">
      <stop offset="0" stop-color="#fff" stop-opacity=".2"/>
      <stop offset=".36" stop-color="#fff"/>
      <stop offset=".61" stop-color="#fff"/>
      <stop offset="1" stop-color="#fff" stop-opacity=".2"/>
    </linearGradient>
    <mask id="mask-1" x="228.78" y="-13.31" width="172.97" height="192.98" maskUnits="userSpaceOnUse">
      <g id="mv">
        <rect class="cls-1" x="218.78" y="-3.31" width="192.98" height="172.97" transform="translate(398.44 -232.09) rotate(90)"/>
      </g>
    </mask>
  </defs>
  <g id="Layer_1-2" data-name="Layer 1" fill="#fff">
    <g>
      <g>
        <path d="M42.25,67.38v3.17l.38.07c1.48.28,2.14.57,2.43.75.4.26.7.62.9,1.09.22.51.36,1.28.43,2.28.07,1.04.11,2.85.11,5.37v2.65c-1.23-.3-2.33-.52-3.26-.63-1.09-.13-2.21-.2-3.31-.2-3.9,0-7.28.74-10.06,2.19-2.8,1.47-4.94,3.66-6.35,6.5-1.41,2.82-2.12,6.33-2.12,10.43,0,6.05,1.18,10.65,3.5,13.69,2.35,3.08,5.93,4.64,10.63,4.64,1.89,0,5.13-.68,7.18-1.64,1.94-.91,2.58-1.31,4.34-2.96l.07,4.6h15.33v-3.19h0c-1.11-.22-2.25-1.02-2.72-1.37-.4-.31-.75-.7-.94-1.12-.2-.45-.33-1.07-.39-1.84-.06-.81-.09-2.13-.09-3.93v-40.56M33.76,99.38c0-2.68.28-5.02.83-6.97.54-1.91,1.34-3.38,2.39-4.38,1.04-.98,2.25-1.46,3.69-1.46,1.99,0,3.42.63,4.37,1.92.96,1.32,1.45,3.4,1.45,6.18v11.88c0,1.28-.34,2.42-1.01,3.39-.68.99-1.52,1.73-2.51,2.2-1,.48-2.02.72-3.02.72-2.11,0-3.62-1.04-4.62-3.19-1.05-2.23-1.58-5.69-1.58-10.29Z"/>
        <path d="M82.03,119.4c3.31,0,6.28-.55,8.84-1.64,2.56-1.09,5.17-2.96,7.75-5.56l.32-.32-3.69-3.8-.33.32c-1.74,1.67-3.36,2.85-4.83,3.5-1.47.65-3.14.98-4.97.98-3.1,0-5.42-.97-6.92-2.87-1.46-1.87-2.25-4.81-2.32-8.76h23.86v-.47c-.03-2.83-.3-5.28-.81-7.28-.49-1.97-1.23-3.74-2.2-5.27-.83-1.3-1.9-2.43-3.17-3.35-1.27-.92-2.81-1.65-4.57-2.16-1.75-.51-3.82-.77-6.13-.77-3.74,0-7.08.74-9.93,2.21-2.86,1.48-5.09,3.68-6.65,6.54-1.55,2.85-2.33,6.28-2.33,10.19,0,6.07,1.53,10.72,4.55,13.82,3.03,3.11,7.58,4.69,13.53,4.69ZM76.09,96.46c.25-3.17.91-5.63,1.95-7.32,1.06-1.72,2.44-2.56,4.22-2.56s3.13.79,3.95,2.42c.83,1.63,1.31,4.14,1.44,7.46h-11.56Z"/>
        <path d="M108.55,118.22c1.65.77,3.61,1.17,5.83,1.17s5.39-.42,7.38-1.3c1.91-.84,2.88-1.48,4.88-3.3v4.61s14.62,0,14.62,0v-3.19h0c-.92-.13-2.05-.81-2.39-1.04-.27-.19-.51-.48-.72-.69-.2-.2-.38-.49-.52-.84-.15-.37-.26-.97-.33-1.78-.07-.84-.11-2.05-.11-3.6v-13.91c0-3.08-.47-5.54-1.41-7.31-.95-1.8-2.4-3.12-4.32-3.92-1.87-.78-4.38-1.18-7.46-1.18-1.19,0-2.4.07-3.59.22-1.18.14-2.55.39-4.06.74-1.49.34-3.03.78-4.58,1.31-1.53.52-3.48,1.28-5.79,2.26l-.28.12v7.26h7.97l.07-.38c.31-1.81.8-3.24,1.44-4.24.63-.98,1.32-1.65,2.08-1.99.78-.35,1.72-.53,2.8-.53s1.99.22,2.74.67c.74.43,1.36,1.21,1.84,2.32.5,1.14.75,2.8.75,4.93v2.96c-7.2.54-12.67,1.83-16.27,3.82-3.77,2.09-5.68,5-5.68,8.66,0,1.82.43,3.45,1.29,4.84.86,1.4,2.14,2.51,3.81,3.3ZM117.51,103.97c1.71-1.17,4.37-1.84,7.91-1.97v5.44c0,1-.28,1.96-.83,2.86-.56.9-1.32,1.63-2.28,2.17-.95.54-1.98.82-3.05.82-1.38,0-2.47-.35-3.23-1.04-.76-.69-1.13-1.68-1.13-3.03,0-2.33.85-4.05,2.6-5.25Z"/>
        <path d="M144.43,67.38v3.18h0c1,.13,2.11.71,2.58,1.07.36.28.69.58.91.91.23.34.39.8.49,1.39.11.63.18,1.43.22,2.37.04.95.06,2.46.06,4.49v27.82c0,1.5-.03,2.67-.07,3.49-.05.77-.15,1.38-.31,1.79-.16.42-.34.76-.55,1.01-.2.25-.48.47-.85.67-.39.2-.94.39-1.65.55l-.36.08v3.19h19.37v-3.18l-.35-.09c-1.18-.29-1.98-.65-2.38-1.09-.4-.44-.67-1.05-.81-1.82-.14-.83-.22-2.37-.22-4.59v-41.24"/>
        <g>
          <path d="M0,82.41v3.59l.38.07c.83.16,1.51.35,2.02.57.47.2.83.47,1.1.84.27.37.46.89.56,1.53.11.69.17,1.63.17,2.78v16.77c0,2.24-.08,3.8-.24,4.64-.15.77-.43,1.39-.84,1.83-.41.44-1.19.8-2.34,1.09l-.35.09v3.21h19.5v-3.21l-.36-.08c-.67-.16-1.21-.34-1.61-.54-.37-.19-.66-.39-.84-.61h0c-.2-.23-.36-.48-.48-.75-.12-.28-.22-.6-.29-.96-.07-.37-.13-.92-.16-1.63-.04-.72-.06-1.77-.06-3.1v-26.1"/>
          <rect x="4.75" y="73.58" width="11.35" height="7.12"/>
        </g>
      </g>
      <g>
        <path d="M0,144.86v4.7l.37.08c1.85.37,3.15.8,3.87,1.28.7.47,1.23,1.08,1.57,1.82.35.77.58,1.82.68,3.12.1,1.34.15,3.45.15,6.27v23.65c0,3.6-.13,6.1-.38,7.45-.24,1.28-.71,2.31-1.38,3.05-.67.73-1.93,1.35-3.75,1.82l-.35.09v4.63h29.56v-4.64l-.36-.08c-1.69-.4-2.87-.98-3.52-1.72-.66-.75-1.09-1.82-1.29-3.15-.21-1.41-.32-3.93-.32-7.5v-22.27c0-1.7.52-3.31,1.56-4.79,1.05-1.51,2.36-2.7,3.91-3.54,1.54-.84,3.02-1.27,4.41-1.27,1.06,0,1.94.13,2.62.38.67.24,1.26.6,1.76,1.05.49.46.95,1.07,1.34,1.83.4.77.71,1.68.94,2.7.23,1.05.4,2.44.5,4.15.1,1.74.15,3.89.15,6.39v15.42c0,3.64-.12,6.18-.35,7.54-.22,1.31-.66,2.34-1.3,3.08-.63.73-1.82,1.29-3.55,1.69l-.36.08v4.64h29.39v-4.63l-.35-.09c-1.4-.36-2.44-.81-3.09-1.32-.63-.5-1.09-1.14-1.38-1.9-.3-.8-.5-1.87-.6-3.2-.1-1.36-.15-3.36-.15-5.95v-18.76c0-2.23.07-3.86.2-4.82.13-.95.38-1.81.74-2.57.35-.75.84-1.44,1.44-2.06.61-.63,1.37-1.26,2.24-1.87.85-.6,1.71-1.05,2.55-1.35.83-.29,1.74-.43,2.72-.43,1.43,0,2.59.25,3.45.75.86.49,1.61,1.32,2.24,2.47.64,1.17,1.09,2.82,1.32,4.91.24,2.13.36,4.95.36,8.38v15.42c0,3.59-.13,6.12-.38,7.51-.24,1.33-.68,2.38-1.3,3.12-.61.73-1.77,1.29-3.46,1.69l-.36.08v4.64h29.74v-4.64l-.35-.09c-1.03-.26-1.92-.57-2.65-.94-.69-.35-1.23-.78-1.6-1.28-.38-.5-.69-1.18-.91-2-.23-.84-.37-2-.43-3.43-.06-1.46-.09-3.05-.09-4.73v-21c0-3.55-.32-6.64-.94-9.2-.63-2.59-1.66-4.78-3.05-6.51-1.4-1.74-3.21-3.05-5.37-3.88-2.14-.82-4.86-1.24-8.09-1.24s-6.48.75-9.5,2.23c-2.87,1.41-6.27,3.84-10.1,7.22-.82-2.03-1.88-3.72-3.15-5.03-1.4-1.44-3.12-2.55-5.13-3.3-2-.75-4.53-1.12-7.51-1.12s-6.14.69-9.1,2.06c-2.89,1.33-4.75,1.83-8.33,5.02h-.62l.04-6.09"/>
        <path d="M159,173.82c-.04-4.52-.47-8.43-1.27-11.62-.77-3.13-1.93-5.95-3.47-8.38-1.3-2.06-2.97-3.85-4.96-5.31-1.98-1.46-4.4-2.61-7.17-3.42-2.76-.81-6.01-1.22-9.66-1.22-5.9,0-11.17,1.18-15.64,3.52-4.49,2.34-8,5.84-10.45,10.38-2.44,4.53-3.67,9.99-3.67,16.23,0,9.66,2.41,17.07,7.16,22,4.75,4.94,11.91,7.44,21.29,7.44,5.22,0,9.91-.88,13.93-2.61,4.02-1.73,8.13-4.71,12.22-8.86l.32-.33-5.48-5.7-.33.32c-2.78,2.7-5.39,4.6-7.76,5.67-2.36,1.06-5.05,1.59-8,1.59-5.01,0-8.78-1.59-11.2-4.72-2.4-3.09-3.66-7.97-3.75-14.5h37.9v-.47ZM124.58,155.22c1.74-2.84,4.01-4.23,6.93-4.23s5.16,1.31,6.52,4.02c1.36,2.7,2.14,6.84,2.33,12.32h-18.93c.39-5.25,1.45-9.32,3.16-12.11Z"/>
        <g>
          <path d="M266.46,144.77v5.61l.38.07c1.32.26,2.4.56,3.23.91.77.32,1.39.8,1.84,1.4.45.62.77,1.46.93,2.52.17,1.11.26,2.59.26,4.4v26.34c0,3.55-.13,6.01-.38,7.33-.24,1.27-.71,2.28-1.38,3-.67.72-1.95,1.32-3.81,1.79l-.35.09v4.57h30.1v-4.57l-.36-.08c-1.07-.25-1.94-.54-2.59-.87-.62-.31-1.1-.65-1.41-1.02h0c-.33-.38-.6-.8-.79-1.25-.2-.45-.36-.98-.48-1.57-.12-.59-.2-1.47-.26-2.6-.06-1.15-.09-2.79-.09-4.88v-41.2"/>
          <rect x="273.97" y="131.52" width="17.31" height="10.65"/>
        </g>
        <path d="M343.29,187.04c-2.74,2.44-5.15,4.15-7.15,5.08-1.98.92-4.12,1.39-6.35,1.39-3.06,0-5.56-.8-7.41-2.38-1.87-1.59-3.25-3.9-4.1-6.87-.86-3.01-1.3-6.78-1.3-11.18s.3-8.11.89-10.98c.59-2.86,1.38-5.16,2.37-6.84.97-1.65,2.09-2.82,3.34-3.49,1.27-.67,2.61-1.01,4-1.01,2.09,0,3.65.74,4.77,2.27,1.15,1.57,2.02,4.14,2.61,7.64l.07.39h12.69v-14.62l-.34-.1c-2.63-.77-5.6-1.38-8.82-1.82-3.23-.44-6.5-.66-9.72-.66-6.06,0-11.52,1.2-16.23,3.57-4.73,2.38-8.41,5.93-10.93,10.56-2.52,4.61-3.79,10.15-3.79,16.46,0,9.36,2.34,16.6,6.94,21.54,4.61,4.94,11.38,7.45,20.13,7.45,4.35,0,8.42-.81,12.11-2.41,3.68-1.6,7.53-4.28,11.46-7.96l.33-.31-5.2-6.02-.35.31Z"/>
        <path d="M398.8,177.51c-1.26-2.17-3.12-4.1-5.52-5.76-2.38-1.64-5.49-3.22-9.24-4.71-4.05-1.62-6.82-2.93-8.22-3.88-1.37-.92-2.32-1.88-2.84-2.84-.52-.95-.78-2.13-.78-3.5,0-1.92.7-3.37,2.14-4.43,1.47-1.08,3.49-1.63,6.01-1.63,1.77,0,3.3.25,4.55.74,1.23.48,2.39,1.37,3.43,2.64,1.06,1.29,2.05,3.15,2.94,5.54l.11.3h8.68v-14.2l-.39-.07c-4.42-.76-8.07-1.27-10.86-1.49-2.8-.23-5.69-.35-8.59-.35-4.97,0-9.46.68-13.33,2.03-3.91,1.36-6.97,3.35-9.08,5.93-2.13,2.59-3.22,5.7-3.22,9.23,0,2.17.44,4.16,1.3,5.93.86,1.76,2.04,3.37,3.5,4.8,1.46,1.42,3.19,2.7,5.14,3.82,1.94,1.11,4.04,2.14,6.24,3.06,3.87,1.63,6.63,2.96,8.21,3.95,1.55.97,2.67,1.99,3.32,3.03.65,1.03.97,2.29.97,3.76,0,2.36-.7,4.09-2.14,5.31-1.44,1.22-3.63,1.84-6.49,1.84-3.34,0-6.04-.84-8.01-2.5-1.99-1.66-3.47-4.22-4.39-7.58l-.09-.34h-8.83v14.53l.36.08c8.05,1.79,15.46,2.7,22.04,2.7,3.64,0,7.03-.36,10.06-1.07,3.05-.71,5.7-1.82,7.89-3.3,2.2-1.49,3.95-3.4,5.17-5.69,1.23-2.29,1.85-5.05,1.85-8.21,0-2.9-.65-5.47-1.92-7.65Z"/>
        <path d="M234.33,151.67v-6.89h-48.1s0-13.26,0-13.26h-15.25c-.2,3.03-.46,5.11-.83,7.12-.37,1.99-.87,3.61-1.48,4.83-.6,1.19-1.45,2.15-2.53,2.85-1.09.72-2.84,1.26-5.2,1.63l-.39.06v4.77h7.47v31.21c0,6.25,1.52,11,4.52,14.12,3,3.12,7.59,4.7,13.64,4.7,3.23,0,6.35-.59,9.26-1.76,2.9-1.17,6.16-3.2,9.68-6.05l.36-.29-4.35-5.5-.37.31c-1.04.88-2.05,1.57-2.99,2.04-.93.47-1.83.8-2.67.98-.84.18-1.81.27-2.89.27-1.36,0-2.47-.43-3.38-1.31-.92-.89-1.59-2.33-1.99-4.26-.41-2-.62-5.15-.62-9.37v-19.63c0-2.89,2.17-5.63,4.82-5.63h17.95s1.52,0,1.52,0c2.07,0,2.91.8,3.35,1.27.56.6.99,1.33,1.32,2.07.22.49.36,1.15.47,1.88.05,1.26.08,2.9.08,4.91v23.28c0,3.54-.13,6.01-.38,7.33-.24,1.27-.7,2.28-1.38,3-.67.72-1.94,1.33-3.75,1.79l-.35.09v4.56h30.4v-4.59l-.39-.07c-1.89-.32-3.24-.86-4-1.6s-1.28-1.79-1.54-3.13c-.27-1.4-.41-3.9-.41-7.45v-18.07c0-1.94.06-3.4.18-4.36.12-.94.36-1.88.72-2.8.35-.9.96-1.8,1.82-2.68.85-.88,1.79-1.57,2.8-2.06.99-.48,1.9-.72,2.7-.72,1.71,0,3.04.53,4.06,1.61,1.04,1.11,1.9,2.75,2.56,4.86l.1.33h11.63v-16.49l-.38-.07c-2.69-.49-5.29-.74-7.74-.74-3.64,0-7.09.74-10.3,1.99-2.54.98-3.67,1.83-5.74,3.27"/>
      </g>
    </g>
    <g class="cls-3">
      <g class="cls-2">
        <g>
          <rect x="399.1" y="50.12" width="1.47" height="1.76" transform="translate(450.83 -348.84) rotate(90)"/>
          <rect x="395.56" y="50.12" width="1.47" height="1.76" transform="translate(447.29 -345.3) rotate(90)"/>
          <rect x="392.04" y="50.12" width="1.47" height="1.76" transform="translate(443.77 -341.78) rotate(90)"/>
          <rect x="388.5" y="50.12" width="1.47" height="1.76" transform="translate(440.23 -338.24) rotate(90)"/>
          <rect x="384.98" y="50.12" width="1.47" height="1.76" transform="translate(436.72 -334.72) rotate(90)"/>
          <rect x="381.44" y="50.12" width="1.47" height="1.76" transform="translate(433.17 -331.18) rotate(90)"/>
          <rect x="377.92" y="50.12" width="1.47" height="1.76" transform="translate(429.66 -327.66) rotate(90)"/>
          <rect x="373.63" y="50.12" width="2.98" height="1.76" transform="translate(426.12 -324.12) rotate(90)"/>
          <rect x="368.98" y="50.12" width="5.24" height="1.76" transform="translate(422.6 -320.6) rotate(90)"/>
          <rect x="363.99" y="50.12" width="8.13" height="1.76" transform="translate(419.06 -317.06) rotate(90)"/>
          <rect x="358.74" y="50.12" width="11.61" height="1.76" transform="translate(415.54 -313.55) rotate(90)"/>
          <rect x="353.19" y="50.12" width="15.63" height="1.76" transform="translate(412 -310) rotate(90)"/>
          <rect x="347.39" y="50.12" width="20.14" height="1.76" transform="translate(408.46 -306.46) rotate(90)"/>
          <rect x="341.39" y="50.12" width="25.1" height="1.76" transform="translate(404.94 -302.95) rotate(90)"/>
          <rect x="335.19" y="50.12" width="30.42" height="1.76" transform="translate(401.4 -299.41) rotate(90)"/>
          <rect x="328.86" y="50.12" width="36.05" height="1.76" transform="translate(397.88 -295.89) rotate(90)"/>
          <rect x="322.4" y="50.12" width="41.88" height="1.76" transform="translate(394.34 -292.35) rotate(90)"/>
          <rect x="315.92" y="50.12" width="47.82" height="1.76" transform="translate(390.82 -288.83) rotate(90)"/>
          <rect x="309.4" y="50.12" width="53.77" height="1.76" transform="translate(387.28 -285.29) rotate(90)"/>
          <rect x="302.97" y="50.12" width="59.6" height="1.76" transform="translate(383.77 -281.77) rotate(90)"/>
          <rect x="296.65" y="50.12" width="65.16" height="1.76" transform="translate(380.22 -278.23) rotate(90)"/>
          <rect x="290.59" y="50.12" width="70.24" height="1.76" transform="translate(376.71 -274.71) rotate(90)"/>
          <rect x="284.91" y="50.12" width="74.51" height="1.76" transform="translate(373.17 -271.17) rotate(90)"/>
          <rect x="267.65" y="50.12" width="101.99" height="1.76" transform="translate(369.65 -267.65) rotate(90)"/>
          <rect x="277.85" y="50.12" width="74.51" height="1.76" transform="translate(366.11 -264.11) rotate(90)"/>
          <rect x="276.47" y="50.12" width="70.24" height="1.76" transform="translate(362.59 -260.6) rotate(90)"/>
          <rect x="275.47" y="50.12" width="65.16" height="1.76" transform="translate(359.05 -257.05) rotate(90)"/>
          <rect x="274.73" y="50.12" width="59.6" height="1.76" transform="translate(355.53 -253.54) rotate(90)"/>
          <rect x="274.11" y="50.12" width="53.77" height="1.76" transform="translate(351.99 -250) rotate(90)"/>
          <rect x="273.54" y="50.12" width="47.82" height="1.76" transform="translate(348.45 -246.45) rotate(90)"/>
          <rect x="272.99" y="50.12" width="41.88" height="1.76" transform="translate(344.93 -242.94) rotate(90)"/>
          <rect x="272.37" y="50.12" width="36.05" height="1.76" transform="translate(341.39 -239.4) rotate(90)"/>
          <rect x="271.67" y="50.12" width="30.42" height="1.76" transform="translate(337.87 -235.88) rotate(90)"/>
          <rect x="270.78" y="50.12" width="25.1" height="1.76" transform="translate(334.33 -232.34) rotate(90)"/>
          <rect x="269.75" y="50.12" width="20.14" height="1.76" transform="translate(330.82 -228.82) rotate(90)"/>
          <rect x="268.46" y="50.12" width="15.63" height="1.76" transform="translate(327.27 -225.28) rotate(90)"/>
          <rect x="266.96" y="50.12" width="11.61" height="1.76" transform="translate(323.76 -221.76) rotate(90)"/>
          <rect x="265.15" y="50.12" width="8.13" height="1.76" transform="translate(320.22 -218.22) rotate(90)"/>
          <rect x="263.08" y="50.12" width="5.24" height="1.76" transform="translate(316.7 -214.7) rotate(90)"/>
          <rect x="260.67" y="50.12" width="2.98" height="1.76" transform="translate(313.16 -211.16) rotate(90)"/>
          <rect x="257.91" y="50.12" width="1.47" height="1.76" transform="translate(309.64 -207.65) rotate(90)"/>
          <rect x="254.36" y="50.12" width="1.47" height="1.76" transform="translate(306.1 -204.1) rotate(90)"/>
          <rect x="250.85" y="50.12" width="1.47" height="1.76" transform="translate(302.58 -200.59) rotate(90)"/>
          <rect x="247.31" y="50.12" width="1.47" height="1.76" transform="translate(299.04 -197.05) rotate(90)"/>
          <rect x="243.77" y="50.12" width="1.47" height="1.76" transform="translate(295.5 -193.5) rotate(90)"/>
          <rect x="240.25" y="50.12" width="1.47" height="1.76" transform="translate(291.98 -189.99) rotate(90)"/>
          <rect x="236.71" y="50.12" width="1.47" height="1.76" transform="translate(288.44 -186.45) rotate(90)"/>
          <rect x="233.19" y="50.12" width="1.47" height="1.76" transform="translate(284.92 -182.93) rotate(90)"/>
          <rect x="229.65" y="50.12" width="1.47" height="1.76" transform="translate(281.38 -179.39) rotate(90)"/>
        </g>
      </g>
    </g>
  </g>
</svg>