<?xml version="1.0" encoding="UTF-8"?>
<svg id="Layer_2" xmlns="http://www.w3.org/2000/svg" version="1.1" xmlns:xlink="http://www.w3.org/1999/xlink" viewBox="0 0 459.4 256.4">
  <!-- Generator: Adobe Illustrator 29.8.9, SVG Export Plug-In . SVG Version: 2.1.1 Build 1)  -->
  <defs>
    <style>
      .st0 {
        fill: #fff;
      }

      .st1 {
        fill: url(#radial-gradient);
        mask: url(#stub-mask);
      }
    </style>
    <radialGradient id="radial-gradient" cx="118.6" cy="1459" fx="118.6" fy="1459" r="1.6" gradientTransform="translate(31803.2 -119570.7) scale(205 82) skewX(-10.6)" gradientUnits="userSpaceOnUse">
      <stop offset="0" stop-color="#fff"/>
      <stop offset=".7" stop-color="#fff"/>
      <stop offset=".9" stop-color="#fff" stop-opacity=".2"/>
      <stop offset="1" stop-color="#fff" stop-opacity="0"/>
    </radialGradient>
    <linearGradient id="stub-mask-grad" x1="231.6" y1="68" x2="246" y2="68" gradientUnits="userSpaceOnUse">
      <stop offset="0" stop-color="#000"/>
      <stop offset=".8" stop-color="#fff"/>
      <stop offset="1" stop-color="#fff"/>
    </linearGradient>
    <mask id="stub-mask" maskUnits="userSpaceOnUse" x="-50" y="-50" width="600" height="400">
      <rect x="-50" y="-50" width="600" height="400" fill="#fff"/>
      <rect x="230" y="66" width="16.5" height="4" fill="url(#stub-mask-grad)"/>
    </mask>
  </defs>
  <g>
    <g>
      <path class="st0" d="M48.4,100.5v3.6h.4c1.7.4,2.5.7,2.8.9.5.3.8.7,1,1.2.2.6.4,1.5.5,2.6,0,1.2.1,3.3.1,6.2v3c-1.4-.3-2.7-.6-3.7-.7-1.2-.2-2.5-.2-3.8-.2-4.5,0-8.4.8-11.5,2.5-3.2,1.7-5.7,4.2-7.3,7.4-1.6,3.2-2.4,7.3-2.4,12,0,6.9,1.4,12.2,4,15.7,2.7,3.5,6.8,5.3,12.2,5.3s5.9-.8,8.2-1.9c2.2-1.1,3-1.5,5-3.4v5.3h17.7v-3.7h0c-1.3-.3-2.6-1.2-3.1-1.6-.5-.4-.8-.8-1.1-1.3-.2-.5-.4-1.2-.4-2.1,0-.9-.1-2.4-.1-4.5v-46.5M38.7,137.1c0-3.1.3-5.8,1-8,.6-2.2,1.5-3.9,2.7-5,1.2-1.1,2.6-1.7,4.2-1.7s3.9.7,5,2.2c1.1,1.5,1.7,3.9,1.7,7.1v13.6c0,1.5-.4,2.8-1.2,3.9-.8,1.1-1.8,2-2.9,2.5-1.2.6-2.3.8-3.5.8-2.4,0-4.2-1.2-5.3-3.7-1.2-2.6-1.8-6.5-1.8-11.8h0Z"/>
      <path class="st0" d="M94,160.1c3.8,0,7.2-.6,10.1-1.9s5.9-3.4,8.9-6.4l.4-.4-4.2-4.4-.4.4c-2,1.9-3.9,3.3-5.5,4-1.7.7-3.6,1.1-5.7,1.1-3.6,0-6.2-1.1-7.9-3.3-1.7-2.1-2.6-5.5-2.7-10h27.4v-.5c0-3.2-.3-6.1-.9-8.3-.6-2.3-1.4-4.3-2.5-6.1-.9-1.5-2.2-2.8-3.6-3.8-1.5-1.1-3.2-1.9-5.2-2.5-2-.6-4.4-.9-7-.9-4.3,0-8.1.8-11.4,2.5-3.3,1.7-5.8,4.2-7.6,7.5-1.8,3.3-2.7,7.2-2.7,11.7,0,7,1.8,12.3,5.2,15.9,3.5,3.6,8.7,5.4,15.5,5.4h0ZM87.2,133.8c.3-3.6,1-6.4,2.2-8.4,1.2-2,2.8-2.9,4.8-2.9s3.6.9,4.5,2.8c.9,1.9,1.5,4.8,1.7,8.6h-13.2,0Z"/>
      <path class="st0" d="M124.4,158.7c1.9.9,4.1,1.3,6.7,1.3s6.2-.5,8.5-1.5c2.2-1,3.3-1.7,5.6-3.8v5.3h16.8v-3.7h0c-1.1-.1-2.4-.9-2.7-1.2-.3-.2-.6-.6-.8-.8-.2-.2-.4-.6-.6-1-.2-.4-.3-1.1-.4-2,0-1-.1-2.4-.1-4.1v-15.9c0-3.5-.5-6.4-1.6-8.4-1.1-2.1-2.8-3.6-4.9-4.5-2.1-.9-5-1.3-8.6-1.3s-2.8,0-4.1.2c-1.4.2-2.9.4-4.6.8-1.7.4-3.5.9-5.2,1.5-1.8.6-4,1.5-6.6,2.6h-.3v8.5h9.1v-.4c.4-2.1,1-3.7,1.7-4.9.7-1.1,1.5-1.9,2.4-2.3.9-.4,2-.6,3.2-.6s2.3.3,3.1.8c.9.5,1.6,1.4,2.1,2.7.6,1.3.9,3.2.9,5.7v3.4c-8.2.6-14.5,2.1-18.7,4.4-4.3,2.4-6.5,5.7-6.5,9.9s.5,3.9,1.5,5.6c1,1.6,2.5,2.9,4.4,3.8h0ZM134.7,142.4c2-1.4,5-2.1,9.1-2.3v6.2c0,1.1-.3,2.2-1,3.3s-1.5,1.9-2.6,2.5c-1.1.6-2.3.9-3.5.9s-2.8-.4-3.7-1.2c-.9-.8-1.3-1.9-1.3-3.5,0-2.7,1-4.6,3-6h0Z"/>
      <path class="st0" d="M165.6,100.5v3.6h0c1.1.2,2.4.8,2.9,1.2.4.3.8.7,1,1.1.3.4.4.9.6,1.6.1.7.2,1.6.2,2.7,0,1.1,0,2.8,0,5.2v31.9c0,1.7,0,3.1,0,4,0,.9-.2,1.6-.4,2.1-.2.5-.4.9-.6,1.2-.2.3-.6.5-1,.8-.4.2-1.1.4-1.9.6h-.4v3.8h22.2v-3.6h-.4c-1.4-.4-2.3-.9-2.7-1.4-.5-.5-.8-1.2-.9-2.1-.2-.9-.2-2.7-.2-5.3v-47.3"/>
      <g>
        <path class="st0" d="M0,117.7v4.1h.4c.9.3,1.7.5,2.3.7.5.2,1,.5,1.3,1,.3.4.5,1,.7,1.8.1.8.2,1.9.2,3.2v19.2c0,2.6,0,4.4-.3,5.3-.2.9-.5,1.6-1,2.1-.5.5-1.4.9-2.7,1.2h-.4v3.8h22.4v-3.7h-.4c-.8-.3-1.4-.5-1.9-.7-.4-.2-.8-.4-1-.7h0c-.2-.3-.4-.6-.5-.9-.1-.3-.2-.7-.3-1.1s-.1-1.1-.2-1.9c0-.8,0-2,0-3.6v-29.9"/>
        <rect class="st0" x="5.4" y="107.6" width="13" height="8.2"/>
      </g>
    </g>
    <g>
      <path class="st0" d="M0,189.3v5.4h.4c2.1.5,3.6,1,4.4,1.6.8.5,1.4,1.2,1.8,2.1.4.9.7,2.1.8,3.6.1,1.5.2,4,.2,7.2v27.1c0,4.1-.2,7-.4,8.5-.3,1.5-.8,2.6-1.6,3.5-.8.8-2.2,1.5-4.3,2.1h-.4v5.4h33.9v-5.3h-.4c-1.9-.6-3.3-1.2-4-2.1-.8-.9-1.2-2.1-1.5-3.6-.2-1.6-.4-4.5-.4-8.6v-25.5c0-1.9.6-3.8,1.8-5.5,1.2-1.7,2.7-3.1,4.5-4.1,1.8-1,3.5-1.4,5.1-1.4s2.2.1,3,.4c.8.3,1.5.7,2,1.2.6.5,1.1,1.2,1.5,2.1.5.9.8,1.9,1.1,3.1.3,1.2.5,2.8.6,4.8.1,2,.2,4.5.2,7.3v17.7c0,4.2-.1,7.1-.4,8.6-.3,1.5-.8,2.7-1.5,3.5-.7.8-2.1,1.5-4.1,1.9h-.4v5.4h33.7v-5.3h-.4c-1.6-.5-2.8-1-3.5-1.6-.7-.6-1.2-1.3-1.6-2.2-.3-.9-.6-2.1-.7-3.7-.1-1.6-.2-3.9-.2-6.8v-21.5c0-2.6,0-4.4.2-5.5.2-1.1.4-2.1.8-2.9.4-.9,1-1.7,1.7-2.4.7-.7,1.6-1.4,2.6-2.1,1-.7,2-1.2,2.9-1.6.9-.3,2-.5,3.1-.5,1.6,0,3,.3,3.9.9,1,.6,1.8,1.5,2.6,2.8.7,1.3,1.2,3.2,1.5,5.6.3,2.4.4,5.7.4,9.6v17.7c0,4.1-.2,7-.4,8.6-.3,1.5-.8,2.7-1.5,3.6-.7.8-2,1.5-4,1.9h-.4v5.4h34.1v-5.3h-.4c-1.2-.4-2.2-.8-3-1.2-.8-.4-1.4-.9-1.8-1.5-.4-.6-.8-1.4-1-2.3-.3-1-.4-2.3-.5-3.9,0-1.7,0-3.5,0-5.4v-24.1c0-4.1-.4-7.6-1.1-10.6-.7-3-1.9-5.5-3.5-7.5-1.6-2-3.7-3.5-6.2-4.4-2.4-.9-5.6-1.4-9.3-1.4s-7.4.9-10.9,2.6c-3.3,1.6-7.2,4.4-11.6,8.3-.9-2.3-2.2-4.3-3.6-5.8-1.6-1.6-3.6-2.9-5.9-3.8-2.3-.9-5.2-1.3-8.6-1.3s-7,.8-10.4,2.4c-3.3,1.5-5.5,2.1-9.5,5.8h-.7v-7"/>
      <path class="st0" d="M182.3,222.5c0-5.2-.5-9.7-1.4-13.3-.9-3.6-2.2-6.8-4-9.6-1.5-2.4-3.4-4.4-5.7-6.1-2.3-1.7-5-3-8.2-3.9-3.2-.9-6.9-1.4-11.1-1.4-6.8,0-12.8,1.4-17.9,4-5.1,2.7-9.2,6.7-12,11.9-2.8,5.2-4.2,11.4-4.2,18.6,0,11.1,2.8,19.6,8.2,25.2,5.5,5.7,13.7,8.5,24.4,8.5s11.4-1,16-3,9.3-5.4,14-10.2l.4-.4-6.3-6.5-.4.4c-3.2,3.1-6.2,5.3-8.9,6.5s-5.8,1.8-9.2,1.8c-5.7,0-10.1-1.8-12.8-5.4-2.8-3.5-4.2-9.1-4.3-16.6h43.5v-.5h0ZM142.8,201.1c2-3.3,4.6-4.8,7.9-4.8s5.9,1.5,7.5,4.6c1.6,3.1,2.4,7.8,2.7,14.1h-21.7c.4-6,1.7-10.7,3.6-13.9Z"/>
      <g>
        <path class="st0" d="M305.5,189.2v6.4h.4c1.5.4,2.8.7,3.7,1.1.9.4,1.6.9,2.1,1.6.5.7.9,1.7,1.1,2.9.2,1.3.3,3,.3,5.1v30.2c0,4.1-.1,6.9-.4,8.4-.3,1.4-.8,2.6-1.6,3.4s-2.2,1.5-4.4,2.1h-.4v5.3h34.5v-5.2h-.4c-1.2-.4-2.2-.7-3-1.1-.7-.4-1.3-.8-1.6-1.2h0c-.4-.4-.7-.9-.9-1.4-.2-.5-.4-1.1-.5-1.8-.1-.7-.2-1.7-.3-3,0-1.3-.1-3.2-.1-5.6v-47.2"/>
        <rect class="st0" x="314.1" y="174" width="19.9" height="12.2"/>
      </g>
      <path class="st0" d="M393.6,237.6c-3.1,2.8-5.9,4.8-8.2,5.8-2.3,1.1-4.7,1.6-7.3,1.6s-6.4-.9-8.5-2.7c-2.1-1.8-3.7-4.5-4.7-7.9-1-3.5-1.5-7.8-1.5-12.8s.3-9.3,1-12.6c.7-3.3,1.6-5.9,2.7-7.8,1.1-1.9,2.4-3.2,3.8-4,1.5-.8,3-1.1,4.6-1.1,2.4,0,4.2.9,5.5,2.6,1.3,1.8,2.3,4.8,3,8.8v.4h14.6v-16.8h-.4c-3-1-6.4-1.7-10.1-2.2-3.7-.5-7.5-.8-11.1-.8-7,0-13.2,1.4-18.6,4.1-5.4,2.7-9.6,6.8-12.5,12.1-2.9,5.3-4.4,11.6-4.4,18.9,0,10.7,2.7,19,8,24.7,5.3,5.7,13,8.5,23.1,8.5s9.7-.9,13.9-2.8c4.2-1.8,8.6-4.9,13.1-9.1l.4-.4-6-6.9-.4.4h0Z"/>
      <path class="st0" d="M457.2,226.7c-1.5-2.5-3.6-4.7-6.3-6.6-2.7-1.9-6.3-3.7-10.6-5.4-4.6-1.9-7.8-3.4-9.4-4.4-1.6-1.1-2.7-2.2-3.3-3.3-.6-1.1-.9-2.4-.9-4s.8-3.9,2.5-5.1c1.7-1.2,4-1.9,6.9-1.9s3.8.3,5.2.9c1.4.6,2.7,1.6,3.9,3,1.2,1.5,2.4,3.6,3.4,6.4v.4h10.1v-16.3h-.4c-5.1-1-9.2-1.5-12.5-1.8-3.2-.3-6.5-.4-9.8-.4-5.7,0-10.8.8-15.3,2.3-4.5,1.6-8,3.8-10.4,6.8-2.5,3-3.7,6.5-3.7,10.6s.5,4.8,1.5,6.8c1,2,2.3,3.9,4,5.5,1.7,1.6,3.7,3.1,5.9,4.4,2.2,1.3,4.6,2.4,7.1,3.5,4.4,1.9,7.6,3.4,9.4,4.5,1.8,1.1,3.1,2.3,3.8,3.5.7,1.2,1.1,2.6,1.1,4.3,0,2.7-.8,4.7-2.5,6.1-1.6,1.4-4.2,2.1-7.4,2.1s-6.9-1-9.2-2.9c-2.3-1.9-4-4.8-5-8.7v-.4h-10.2v16.7h.4c9.2,2.1,17.7,3.2,25.3,3.2s8.1-.4,11.5-1.2c3.5-.8,6.5-2.1,9-3.8,2.5-1.7,4.5-3.9,5.9-6.5s2.1-5.8,2.1-9.4-.7-6.3-2.2-8.8h0Z"/>
      <path class="st0" d="M268.6,197.1v-7.9h-55.1v-15.2h-17.5c-.2,3.5-.5,5.9-.9,8.2-.4,2.3-1,4.1-1.7,5.5-.7,1.4-1.7,2.5-2.9,3.3-1.2.8-3.3,1.4-6,1.9h-.4v5.5h8.6v35.8c0,7.2,1.8,12.6,5.2,16.2,3.4,3.6,8.7,5.4,15.6,5.4s7.3-.7,10.6-2c3.3-1.3,7.1-3.7,11.1-6.9l.4-.3-5-6.3-.4.4c-1.2,1-2.4,1.8-3.4,2.3-1.1.5-2.1.9-3.1,1.1-1,.2-2.1.3-3.3.3s-2.8-.5-3.9-1.5c-1.1-1-1.8-2.7-2.3-4.9-.5-2.3-.7-5.9-.7-10.7v-22.5c0-3.3,2.5-6.4,5.5-6.4h22.3c2.4,0,3.3.9,3.8,1.5.6.7,1.1,1.5,1.5,2.4.2.6.4,1.3.5,2.1,0,1.4,0,3.3,0,5.6v26.7c0,4.1-.1,6.9-.4,8.4-.3,1.4-.8,2.6-1.6,3.4s-2.2,1.5-4.3,2.1h-.4v5.3h34.9v-5.3h-.4c-2.2-.4-3.7-1.1-4.6-1.9-.9-.9-1.5-2.1-1.8-3.6-.3-1.6-.5-4.5-.5-8.5v-20.7c0-2.2,0-3.9.2-5,.1-1.1.4-2.2.8-3.2.4-1,1.1-2.1,2.1-3.1,1-1,2.1-1.8,3.2-2.4,1.1-.6,2.2-.8,3.1-.8,2,0,3.5.6,4.6,1.9,1.2,1.3,2.2,3.1,2.9,5.6v.4h13.4v-18.9h-.4c-3.1-.7-6.1-.9-8.9-.9-4.2,0-8.1.9-11.8,2.3-2.9,1.1-4.2,2.1-6.6,3.8"/>
    </g>
  </g>
  <g id="uuid-28388976-4e1a-4b78-b51e-0dab1d024199">
    <path class="st1" d="M459.4,68.7c0-.4,0-.9-.1-1.3h-122.5c-14,0-29.3-15.2-29.3-29.2V8h-1.3v30.2c0,14-15.2,29.2-29.2,29.2h-45.4v1.3h45.4c14,0,29.3,15.2,29.3,29.3v35.5h1.3v-35.5c0-14,15.2-29.2,29.3-29.2h45.4v-1.3l.2,1.3h77.1,0Z"/>
  </g>
</svg>
