<?xml version="1.0" encoding="UTF-8"?>
<svg id="Layer_2" data-name="Layer 2" xmlns="http://www.w3.org/2000/svg" xmlns:xlink="http://www.w3.org/1999/xlink" viewBox="0 0 219.74 121.97">
  <defs>
    <style>
      .cls-1 {
        fill: #fff;
      }

      .cls-2 {
        mask: url(#mask);
      }

      .cls-3 {
        fill: url(#radial-gradient);
      }

      .cls-4 {
        fill: #010101;
      }

      .cls-5 {
        fill: url(#linear-gradient);
      }
    </style>
    <linearGradient id="linear-gradient" x1="94.73" y1="-771.17" x2="118.38" y2="-771.17" gradientTransform="translate(354.71 -737.38) scale(1 -1) skewX(25)" gradientUnits="userSpaceOnUse">
      <stop offset="0" stop-color="#010101"/>
      <stop offset="1" stop-color="#fff"/>
    </linearGradient>
    <mask id="mask" x="-436.41" y="-84.47" width="1238.54" height="844.67" maskUnits="userSpaceOnUse">
      <g id="stub-mask">
        <polygon class="cls-1" points="-42.54 -84.47 802.13 -84.47 408.25 760.2 -436.41 760.2 -42.54 -84.47"/>
        <polygon class="cls-5" points="90.8 31.25 114.88 31.25 112.51 36.32 88.44 36.32 90.8 31.25"/>
      </g>
    </mask>
    <radialGradient id="radial-gradient" cx="653.66" cy="160.8" fx="653.66" fy="160.8" r=".42" gradientTransform="translate(-140015.28 13220.18) scale(205 -82) skewX(10.57)" gradientUnits="userSpaceOnUse">
      <stop offset="0" stop-color="#010101"/>
      <stop offset=".15" stop-color="#010101"/>
      <stop offset=".42" stop-color="#010101" stop-opacity=".92"/>
      <stop offset="1" stop-color="#010101" stop-opacity="0"/>
    </radialGradient>
  </defs>
  <g id="Layer_1-2" data-name="Layer 1">
    <g>
      <path class="cls-4" d="M139.02,89.08v8.46h-.13c-5.37-.94-11.06,1.88-11.06,8.71v14.91h-10.47v-32.07h10.47v4.46h.27c1.64-3.58,3.63-4.99,7.29-4.99.92,0,2.45.28,3.63.53Z"/>
      <path class="cls-4" d="M3,52.11c-1.69,0-3,.9-3,2.55s1.31,2.55,3,2.55,3-.86,3-2.55-1.31-2.55-3-2.55Z"/>
      <rect class="cls-4" y="59.4" width="6" height="18.37"/>
      <path class="cls-4" d="M21.59,61.23h-.07c-.75-.97-2.78-2.4-5.55-2.4-5.1,0-8.36,3.73-8.36,9.76s3.26,9.76,8.36,9.76c2.78,0,4.8-1.44,5.55-2.4h.07v1.83h6v-25.66h-6v9.11ZM17.54,74.04c-2.44,0-3.94-1.87-3.94-5.45s1.5-5.45,3.94-5.45,3.94,1.87,3.94,5.45-1.5,5.45-3.94,5.45Z"/>
      <path class="cls-4" d="M39.1,58.82c-6.11,0-9.9,4.16-9.9,9.76s3.86,9.76,10.24,9.76c5.21,0,8.21-2.44,9.26-6.14h-5.96c-.38.9-1.35,1.83-3.41,1.83s-4.13-1.36-4.13-3.95h13.8c0-6.67-3.34-11.27-9.9-11.27ZM35.2,66.61c0-2.55,1.61-3.84,3.9-3.84s3.9,1.29,3.9,3.84h-7.8Z"/>
      <path class="cls-4" d="M68.42,75.04v-8.43c0-5.78-3-7.79-8.4-7.79-6.26,0-8.89,2.98-9.08,6.5h5.63c.19-1.76,1.24-2.55,3.41-2.55,1.65,0,2.44.65,2.44,1.72,0,1.54-2.44,1.9-4.91,2.37-4.5.86-7.31,2.55-7.31,6.21,0,3.09,2.25,5.27,6.3,5.27,2.55,0,4.8-1.15,6.04-2.51h.07c0,1.29.75,2.51,3.45,2.51,1.2,0,2.29-.14,3.49-.57v-1.36c-.75,0-1.13-.39-1.13-1.36ZM62.42,71.06c0,1.76-1.24,3.34-3.83,3.34-1.46,0-2.4-.65-2.4-2.15,0-1.15.79-2.08,3.15-2.58,1.39-.29,2.33-.54,3.08-.83v2.22Z"/>
      <rect class="cls-4" x="71.09" y="52.11" width="6" height="25.66"/>
      <path class="cls-4" d="M51.98,99.29v21.67h-10.61v-18.48c0-4.82-1.05-6.45-4.78-6.45-3.34,0-5.43,1.94-5.43,6.39v18.54h-10.47v-18.48c0-4.82-1.05-6.45-4.78-6.45-3.27,0-5.43,1.94-5.43,6.39v18.54H0v-32.07h10.47v4.63h.13c1.77-2.94,5.43-5.64,10.47-5.64,4.39,0,7.46,2.32,8.77,5.64h.13c2.88-3.19,5.83-5.64,11.26-5.64,6.74,0,10.74,4.07,10.74,11.4Z"/>
      <path class="cls-4" d="M78.49,111.26h10.41c-1.83,6.45-7.07,10.71-16.17,10.71-11.13,0-17.87-7.02-17.87-17.04s6.61-17.04,17.28-17.04c11.46,0,17.28,8.02,17.28,19.67h-24.09c0,4.51,3.47,6.89,7.2,6.89s5.3-1.63,5.96-3.19ZM65.33,101.48h13.62c0-4.45-2.82-6.7-6.81-6.7s-6.81,2.25-6.81,6.7Z"/>
      <path class="cls-4" d="M141.14,80.63c0-2.88,2.29-4.45,5.24-4.45s5.24,1.57,5.24,4.45-2.29,4.45-5.24,4.45-5.24-1.5-5.24-4.45ZM151.62,88.9v32.07h-10.47v-32.07h10.47Z"/>
      <path class="cls-4" d="M170.3,114.37c-4.39,0-6.74-3.51-6.74-9.52s2.42-9.52,6.74-9.52c3.39,0,4.98,1.88,5.64,3.96h10.36c-1.42-6.69-7.1-11.48-16.19-11.48-10.34,0-17.02,7.08-17.02,17.04s6.68,17.04,17.28,17.04c8.93,0,14.75-4.74,15.97-11.48h-10.4c-.66,2.2-2.25,3.96-5.64,3.96Z"/>
      <path class="cls-4" d="M219.74,111.51c0,6.76-5.37,10.46-14.66,10.46-11.98,0-16.56-5.14-16.89-11.65h9.82c.33,3.19,2.55,4.76,6.68,4.76,2.95,0,4.58-.94,4.58-2.76,0-2.76-3.14-3.13-8.45-4.26-5.7-1.19-11.98-3.19-11.98-9.9,0-5.83,5.24-10.27,14.66-10.27,10.74,0,14.93,5.2,15.25,10.84h-9.82c-.33-2.57-1.77-3.95-5.17-3.95-2.95,0-4.45,1-4.45,2.57,0,2.25,2.09,2.32,7.27,3.38,6.61,1.38,13.16,3.51,13.16,10.77Z"/>
      <path class="cls-4" d="M109.5,113.26c-.83.3-1.62.44-2.37.44-1.67,0-2.5-.74-2.5-2.21v-15.25h10.58v-7.33h-16.63v-.57l1.64-.13c1.4-.08,2.54-.52,3.42-1.3.88-.78,1.34-1.89,1.38-3.32l.04-2.98h-9.13l-.05,6.14c0,.76-.24,1.31-.72,1.64-.48.34-1.03.51-1.64.51h-4.14v7.31h6.55l-.17,15.83c0,2.74.91,5.02,2.73,6.83,1.82,1.81,4.42,2.72,7.79,2.72,1.71,0,3.41-.27,5.1-.82,1.69-.55,2.97-1.2,3.85-1.96l-3.42-7.02c-.7.67-1.47,1.16-2.3,1.45Z"/>
    </g>
    <g id="uuid-b4a03935-ebef-49f6-9308-656d69726be5" data-name="Layer 1-2">
      <g class="cls-2">
        <path class="cls-3" d="M219.74,34.66c-.02-.25-.05-.5-.08-.74h-69.91c-8,0-16.7-8.7-16.7-16.69V0s-.74,0-.74,0v17.22c0,8-8.7,16.69-16.7,16.69h-25.89v.74s25.89,0,25.89,0c8,0,16.7,8.7,16.7,16.69v20.26s.74,0,.74,0v-20.26c0-8,8.7-16.69,16.7-16.69h25.89v-.74s.09.74.09.74h44,0Z"/>
      </g>
    </g>
  </g>
</svg>
