<?xml version="1.0" encoding="UTF-8"?>
<svg id="Layer_2" data-name="Layer 2" xmlns="http://www.w3.org/2000/svg" viewBox="0 0 123.93 123.93">
  <g id="Layer_1-2" data-name="Layer 1">
    <path d="M61.97.75c33.76,0,61.22,27.46,61.22,61.22s-27.46,61.22-61.22,61.22S.75,95.72.75,61.97,28.21.75,61.97.75M61.97,0C27.74,0,0,27.74,0,61.97s27.74,61.97,61.97,61.97,61.97-27.74,61.97-61.97S96.19,0,61.97,0h0Z"/>
    <g>
      <path d="M110.37,42.5l-.17.14c-.08.05-.21.1-.39.17l-3.41,1.29c-.19.07-.34.12-.44.14l-.26-.03c-.07-.04-.16-.13-.27-.28l-.19.07,1.4,3.72,1.41-.45-.15-.4c-.2.01-.35.02-.46.03h-.31s-.27-.09-.27-.09l-.19-.17c-.05-.07-.1-.17-.15-.31l-.47-1.25,2.27-.86.32.86c.05.13.07.23.06.3l-.11.23c-.06.08-.17.16-.31.26l.14.38,1.51-.57-.14-.38c-.18.02-.32.03-.42.01l-.23-.1-.15-.26-.33-.86,2.06-.78.48,1.27.08.28v.23s-.11.21-.11.21l-.2.22-.29.25.15.39,1.19-.45-1.42-3.76-.19.07c.01.14.01.23,0,.3l-.06.16Z"/>
      <path d="M43.63,17.87c.22.03.45,0,.69-.09.24-.09.43-.22.58-.4.15-.18.24-.38.28-.6.04-.22,0-.45-.08-.68-.09-.23-.22-.42-.38-.56-.17-.14-.36-.23-.59-.26-.22-.03-.45,0-.69.09-.23.09-.42.22-.57.4-.15.18-.24.38-.28.6-.04.22-.01.44.07.65.09.23.22.42.39.56.17.15.37.24.59.27Z"/>
      <path d="M63.29,15.45c-.24,0-.44-.05-.59-.12-.15-.08-.27-.18-.37-.33-.09-.15-.16-.34-.21-.59h-.43s-.04,1.14-.04,1.14c.58.17,1.1.26,1.55.27.28,0,.53-.01.77-.06.23-.05.44-.13.61-.26.17-.12.31-.28.41-.48.1-.2.15-.45.16-.74,0-.26-.04-.5-.15-.7-.11-.2-.26-.38-.46-.54-.2-.16-.47-.34-.83-.53-.3-.16-.52-.3-.68-.42-.15-.12-.26-.25-.33-.39-.07-.14-.1-.31-.09-.51,0-.19.05-.35.15-.48.09-.13.21-.23.36-.29.15-.06.32-.09.5-.09.22,0,.39.04.52.1.13.06.25.16.34.3.09.14.17.34.23.58h.42s.03-1.12.03-1.12c-.31-.09-.57-.15-.77-.18-.21-.03-.42-.05-.64-.05-.37-.01-.71.04-1,.16-.3.12-.52.29-.68.52s-.24.5-.25.81c0,.22.03.42.12.6.09.19.23.36.42.52.19.16.45.33.78.5.34.18.59.33.76.47.16.13.28.27.35.42.07.14.1.32.09.53-.01.33-.11.58-.29.74-.19.17-.44.24-.78.23Z"/>
      <path d="M58.55,10.48l.22.07.17.16.16.25c.05.1.11.22.16.35l.42-.03-.1-1.27-4,.32.02.21c.13.03.23.05.29.08l.14.11.09.2c.02.09.04.23.06.42l.29,3.63c.02.21.02.36,0,.47l-.1.24c-.06.06-.17.12-.34.18l.02.21,3.96-.31-.04-1.48-.42.03c-.04.19-.08.34-.1.45l-.1.3-.15.24-.22.14c-.08.03-.2.05-.34.06l-1.33.11-.19-2.42.92-.07c.13,0,.24,0,.31.03l.19.17c.06.08.11.2.16.37l.4-.03-.13-1.61-.4.03c-.03.18-.06.32-.1.4l-.16.19c-.07.04-.17.07-.29.08l-.92.07-.17-2.2,1.35-.11h.29Z"/>
      <path d="M9.97,69.57c.02-.14.04-.23.07-.29l.1-.14.2-.09c.09-.03.23-.05.42-.07l3.62-.41c.21-.02.36-.03.46-.02l.25.09c.06.05.12.17.19.34l.2-.02-.45-3.95-1.48.08.05.42c.2.03.34.06.45.09l.3.09.24.14.15.21c.03.08.06.2.07.34l.15,1.33-2.41.27-.1-.91c-.02-.13,0-.24.02-.31l.16-.19c.08-.06.2-.12.36-.17l-.05-.4-1.61.18.04.4c.18.02.32.05.41.09l.2.16c.04.07.07.16.08.29l.1.91-2.19.25-.15-1.35v-.29s.05-.22.05-.22l.15-.18.24-.17c.1-.06.21-.11.35-.17l-.05-.42-1.26.14.45,3.99.2-.02Z"/>
      <path d="M104.38,61.93c0-23.43-18.99-42.42-42.42-42.42S19.55,38.5,19.55,61.93s18.99,42.42,42.42,42.42,42.42-18.99,42.42-42.42ZM51.15,21.76c3.45-.93,7.08-1.43,10.82-1.43,22.97,0,41.59,18.62,41.59,41.59,0,4.06-.59,7.99-1.68,11.7h-36.03c-6.99-.31-14.38-7.7-14.7-14.7V21.76ZM50.41,101.88c-13.38-3.86-23.99-14.26-28.14-27.51h13.45c6.99.31,14.38,7.7,14.7,14.7v12.82ZM50.41,58.93c-.31,6.99-7.7,14.38-14.7,14.7h-13.66c-1.09-3.71-1.68-7.64-1.68-11.7,0-18.96,12.69-34.94,30.03-39.95v36.96ZM51.15,89.06c.31-6.99,7.7-14.38,14.7-14.7h35.82c-5.29,16.89-21.06,29.15-39.7,29.15-3.74,0-7.37-.5-10.82-1.43v-13.03Z"/>
      <path d="M17.69,85.91c.2.13.41.19.63.2.22,0,.44-.05.64-.16.22-.12.38-.27.51-.46.12-.19.18-.4.19-.62,0-.22-.05-.45-.18-.67-.12-.22-.28-.39-.47-.52-.19-.13-.4-.19-.63-.19-.23,0-.45.05-.66.17-.22.12-.39.27-.5.45-.12.19-.18.39-.18.62,0,.22.06.45.18.67.12.22.28.39.48.51Z"/>
      <path d="M50.74,11.75c.19-.24.44-.39.74-.45.22-.05.41-.05.57-.02.16.03.3.1.43.22.13.12.26.29.39.52l.42-.08-.23-1.13c-.31-.01-.59,0-.83.01-.25.02-.5.06-.76.11-.49.1-.9.31-1.22.62-.32.31-.53.71-.64,1.19-.11.48-.1,1.02.02,1.6.19.94.51,1.61.97,2.02.46.4,1.04.54,1.75.39.26-.05.48-.12.67-.22.19-.09.36-.21.52-.36l.37.26.31-.15-.29-1.43c-.03-.17-.06-.3-.06-.4v-.24s.09-.18.09-.18l.2-.16-.04-.2-1.7.34.04.2c.16,0,.28.03.36.08l.19.23c.05.1.1.28.15.53l.05.25c.06.3.02.53-.11.7-.13.17-.36.3-.69.36-.31.06-.59.02-.85-.13-.25-.15-.47-.41-.66-.77-.19-.36-.33-.81-.44-1.35-.11-.53-.14-1-.08-1.4.05-.4.17-.72.36-.96Z"/>
      <path d="M93.07,25.65l-.77.86c.34.5.67.9,1.01,1.2.21.19.42.33.63.45.21.11.42.18.63.19.21.02.42-.02.62-.11.21-.09.41-.24.6-.46.17-.2.29-.41.33-.63.05-.22.05-.46,0-.71-.05-.25-.15-.56-.3-.94-.13-.31-.21-.56-.25-.75-.04-.19-.04-.36,0-.51.04-.15.12-.3.25-.45.12-.14.26-.23.42-.28.15-.04.31-.04.46,0,.15.05.3.13.44.26.16.14.27.28.33.41.06.13.09.28.07.45-.02.17-.08.37-.2.6l.32.28.76-.85c-.18-.27-.34-.48-.48-.63-.14-.16-.29-.31-.45-.45-.28-.25-.57-.43-.87-.52-.3-.1-.58-.11-.85-.04-.26.07-.5.23-.71.46-.14.16-.24.34-.29.54-.05.2-.05.42-.01.67.04.25.13.54.27.89.15.36.24.64.28.85.04.2.04.39,0,.54-.04.16-.13.31-.27.47-.22.24-.45.37-.7.38-.25,0-.49-.1-.75-.32-.18-.16-.31-.32-.38-.47-.07-.15-.09-.32-.07-.49.02-.17.1-.37.22-.59l-.32-.29Z"/>
      <path d="M99.96,26.85c-.05.06-.15.16-.32.31l-2.08,1.83c-.27.24-.47.46-.6.67-.13.21-.2.43-.23.67-.02.24.02.47.13.71.11.24.28.49.51.74.19.21.37.38.56.5.18.12.36.2.54.25.17.04.35.06.53.03.19-.03.39-.09.58-.19.2-.1.42-.26.65-.46l2.03-1.79c.17-.15.3-.25.39-.3l.25-.05c.08.01.19.07.33.16l.15-.14-1.13-1.29-.15.14c.08.16.12.28.12.35l-.08.23c-.05.08-.17.2-.35.36l-1.97,1.74c-.26.23-.48.4-.66.5-.18.11-.35.17-.53.19-.17.02-.33,0-.49-.08-.15-.07-.29-.18-.43-.33-.14-.16-.25-.31-.31-.45-.06-.14-.09-.29-.08-.43,0-.15.06-.3.16-.47.1-.17.25-.34.46-.52l2.24-1.97c.17-.15.3-.25.39-.3l.25-.05c.08.01.19.07.32.16l.15-.14-1.19-1.35-.15.14c.07.13.1.22.11.28v.17s-.11.17-.11.17Z"/>
      <path d="M88.37,18.22l-1.94,3.08c-.11.17-.2.3-.27.38l-.22.13c-.08.01-.21,0-.38-.06l-.11.17,3.37,2.12.86-1.21-.36-.23c-.15.13-.27.23-.35.3l-.26.18-.26.1-.26-.02-.31-.15-1.13-.71,1.29-2.06.78.49.23.21.05.25c0,.1-.03.23-.09.39l.34.22.86-1.37-.34-.22c-.13.13-.24.22-.32.26l-.25.06-.28-.11-.78-.49,1.18-1.87,1.15.72.23.17.13.18.05.23-.02.3c-.02.11-.04.24-.08.38l.36.22.68-1.08-3.4-2.14-.11.17.18.23.05.17-.05.21c-.03.08-.1.21-.21.37Z"/>
      <path d="M74.8,10.64h.19s.14.07.14.07l.12.1.15.16.21.22.15.11.19.07h.31c.1-.01.21-.07.34-.17.13-.1.27-.24.43-.44l-.29-.22c-.12.15-.23.25-.32.3l-.26.04-.16-.07-.13-.11-.16-.18-.2-.21-.13-.1-.18-.07c-.12-.03-.23-.04-.33-.01l-.31.15c-.11.08-.26.23-.46.46l.29.22.22-.23.18-.1Z"/>
      <path d="M71.64,16.2c-.15.12-.31.18-.47.16l-.05.2,1.78.45.05-.2c-.17-.07-.29-.15-.35-.25-.06-.1-.08-.23-.03-.39l.11-.27c.05-.1.13-.24.26-.42l.24-.36,1.94.5.02.57c0,.14,0,.27,0,.38l-.04.31-.11.22-.19.1c-.08.01-.19.02-.33.01l-.05.2,1.92.49.05-.2-.26-.21c-.06-.08-.1-.18-.12-.31-.02-.12-.04-.3-.05-.53l-.25-4.91-.66-.17-2.89,4.07c-.18.26-.35.44-.5.57ZM74.99,12.41l.12,2.83-1.74-.45,1.62-2.39Z"/>
      <path d="M66.88,11.65l.42.06c.08-.22.17-.39.25-.53.08-.14.17-.24.25-.31l.26-.12c.09-.01.2-.01.34,0l.53.08-.61,4.27c-.02.17-.05.29-.08.38l-.09.2-.12.11-.17.06-.24.03-.03.2,1.94.27.03-.2c-.13-.05-.23-.1-.29-.14l-.14-.16-.05-.24c0-.1,0-.23.03-.4l.6-4.27.54.08c.15.02.27.05.34.1l.2.19c.06.08.11.2.15.34.04.15.08.35.1.59l.42.06.21-1.45-4.6-.65-.21,1.45Z"/>
      <path d="M79.4,19.15c.45.18.89.23,1.31.16.42-.07.81-.28,1.16-.63.35-.35.65-.82.89-1.44.23-.57.34-1.09.33-1.55,0-.46-.13-.86-.37-1.19-.24-.33-.6-.59-1.07-.78-.44-.18-.88-.22-1.3-.14-.42.08-.81.3-1.15.65-.35.34-.64.81-.87,1.39-.19.47-.3.9-.33,1.28-.03.38,0,.72.1,1.01.1.29.26.54.48.75.22.21.49.37.81.5ZM79.2,15.83c.14-.35.29-.66.46-.93.17-.27.35-.48.54-.64.19-.16.4-.26.61-.3.22-.04.44-.01.68.08.27.11.47.29.61.54.14.25.19.59.16,1.01-.03.42-.16.91-.39,1.48-.19.47-.4.85-.64,1.16-.24.31-.5.51-.77.62-.27.1-.56.09-.85-.02-.46-.18-.72-.53-.79-1.04-.07-.51.05-1.17.37-1.97Z"/>
      <path d="M9.14,61.25l4.64,1.85c.29.12.51.23.67.35.15.12.24.26.27.42h.21s.03-1.83.03-1.83h-.21c-.03.18-.08.31-.16.4-.08.09-.2.13-.37.13l-.29-.04c-.1-.02-.26-.08-.47-.15l-.41-.15.03-2,.54-.15c.14-.04.26-.07.38-.09l.31-.03.24.06.14.16c.03.07.06.18.09.32h.21s.03-1.98.03-1.98h-.21c-.03.13-.08.23-.15.3l-.27.19c-.12.05-.28.11-.5.17l-4.71,1.4v.68ZM12.7,60.32l-.03,1.79-2.7-1.02,2.73-.78Z"/>
      <path d="M27.85,94.51c.33.09.64.27.92.56l.15-.14.04-.29c-.43-.36-.89-.59-1.39-.69-.5-.1-1.01-.05-1.53.15-.53.2-1.04.54-1.54,1.03-.54.54-.85,1.06-.92,1.57-.07.51.11.98.53,1.41.24.24.48.41.73.52.25.11.49.17.73.17.24,0,.47-.05.69-.15.22-.1.42-.24.6-.41.24-.24.41-.48.51-.74.1-.26.12-.52.05-.78-.06-.26-.2-.5-.43-.73-.19-.19-.4-.35-.62-.46-.22-.11-.47-.19-.76-.24l-.02-.04c.44-.35.84-.58,1.21-.69.37-.11.72-.13,1.05-.04ZM25.68,95.63l.29.1.26.15.24.2c.22.23.31.48.27.77-.04.29-.21.58-.51.87-.14.14-.29.26-.44.35s-.31.15-.46.17c-.16.02-.31,0-.47-.05-.15-.05-.31-.16-.46-.31-.17-.17-.26-.36-.27-.57-.01-.21.05-.44.19-.69.14-.25.35-.51.62-.78l.21-.18.14-.07h.11s.3.04.3.04Z"/>
      <path d="M23.54,92.72c.18.04.36.03.56,0,.19-.04.39-.14.58-.29.26-.2.43-.44.52-.71.09-.27.1-.56.02-.86-.08-.3-.23-.61-.47-.91-.25-.32-.52-.56-.82-.72-.3-.16-.59-.22-.89-.19-.3.03-.57.14-.83.34-.26.21-.44.45-.52.73-.08.28-.08.58.03.91l-.04.04c-.31-.17-.6-.24-.87-.23-.27.02-.53.12-.77.31-.24.19-.4.4-.48.64-.08.24-.08.51,0,.8.08.29.25.6.51.92.22.29.48.51.76.66.29.16.57.23.85.22.28-.01.53-.11.76-.29.5-.39.66-.91.49-1.55l.04-.04c.21.11.4.18.58.22ZM22.24,93.15c-.09.12-.2.23-.33.34-.28.22-.55.31-.82.28-.27-.03-.51-.19-.73-.47-.13-.17-.21-.34-.25-.52-.03-.18-.01-.36.07-.54.08-.18.22-.35.42-.51.18-.14.37-.23.55-.28.19-.05.37-.03.54.04.17.07.33.2.48.39.13.16.21.32.25.47.04.15.04.29.01.43-.03.13-.09.26-.18.38ZM22.86,92.03c-.14-.08-.28-.2-.41-.36-.14-.18-.22-.37-.25-.56-.03-.2,0-.4.1-.59.1-.19.25-.38.46-.54.2-.16.4-.26.6-.3.2-.05.39-.03.57.04.18.07.34.2.48.39.13.16.21.32.25.48.04.16.04.31,0,.45-.03.14-.1.28-.2.41-.1.13-.22.25-.36.37-.13.1-.27.19-.41.25-.14.06-.28.09-.42.08-.14,0-.28-.04-.42-.12Z"/>
      <path d="M31.96,98.21c.34.05.66.2.98.45l.13-.16v-.29c-.46-.31-.95-.48-1.45-.52-.5-.04-1.01.07-1.51.32-.5.26-.97.65-1.41,1.2-.48.6-.72,1.15-.73,1.67,0,.52.22.96.69,1.34.26.21.53.36.78.44.26.08.51.11.75.08.24-.03.46-.1.67-.22s.39-.28.55-.48c.21-.26.35-.53.42-.8.07-.27.06-.53-.03-.78-.09-.25-.26-.48-.51-.68-.21-.17-.43-.3-.67-.38-.23-.09-.49-.14-.79-.16l-.02-.04c.39-.39.77-.67,1.12-.82.35-.15.7-.21,1.04-.16ZM29.94,99.57l.3.07.28.12.26.17c.25.2.37.44.36.73,0,.29-.14.6-.4.92-.13.16-.26.29-.4.4-.14.11-.29.18-.44.22-.15.04-.31.04-.47,0-.16-.04-.33-.12-.49-.26-.19-.15-.3-.33-.34-.54-.04-.21,0-.45.11-.71.11-.26.28-.54.53-.84l.19-.21.13-.08.11-.03.3.02Z"/>
      <path d="M10.23,55.31l-.19-.1-.09-.15c-.02-.06-.04-.15-.05-.28l-.2-.03-.25,1.79.2.03c.05-.12.1-.21.14-.26l.14-.11.21-.04c.09,0,.23.01.42.04l3.61.5c.21.03.36.06.45.09l.22.15c.05.07.08.19.1.37l.2.03.53-3.82-1.66-.32-.06.43c.25.09.43.17.55.22.12.06.22.11.3.17l.18.16.1.17.04.22c0,.08,0,.19-.02.31l-.15,1.12-4.26-.59c-.2-.03-.35-.06-.44-.09Z"/>
      <path d="M35.13,100.18c.18.12.33.22.43.31l.25.23.11.21-.02.22c-.03.08-.09.19-.17.33l-1.91,3.05c-.25.4-.46.72-.62.94l.2.13,2.33.07v-.37c-.29,0-.53,0-.72,0-.19-.01-.33-.04-.41-.09l-.11-.16.08-.24,1.81-2.89c.1-.17.19-.28.27-.33l.24-.09c.09,0,.19.02.32.07.13.05.33.16.61.31l.16-.26-2.69-1.69-.16.26Z"/>
      <path d="M13.11,79.73c.08-.04.21-.1.39-.17l3.42-1.26c.2-.07.34-.12.44-.13l.26.03c.07.04.16.13.26.28l.19-.07-.63-1.7-.19.07c.01.14.02.24,0,.3l-.07.17-.17.13c-.08.04-.2.1-.38.16l-3.42,1.26c-.18.07-.32.11-.41.13h-.22s-.15-.08-.15-.08l-.18-.22-.19.07.63,1.7.19-.07c-.01-.13-.01-.23,0-.3l.07-.16.17-.14Z"/>
      <path d="M35.48,17.29c.19-.11.35-.17.49-.19.14-.02.29,0,.45.07.16.07.32.19.5.38l.37-.21-.57-.98c-.31.09-.56.17-.75.26-.19.08-.38.18-.57.29-.32.19-.58.41-.77.66-.19.25-.29.52-.3.8-.01.28.06.55.21.82.11.19.25.34.42.45.17.11.38.18.63.22.25.04.56.04.93.02.38-.03.68-.03.89,0,.21.02.38.08.52.17.14.09.26.22.36.4.16.28.21.55.14.78-.07.24-.25.44-.54.61-.21.12-.4.19-.57.21-.17.02-.33-.01-.49-.09-.15-.08-.32-.21-.49-.39l-.37.21.58,1c.58-.16,1.07-.36,1.46-.58.24-.14.45-.29.62-.46.17-.17.3-.35.38-.54.08-.2.11-.4.09-.63-.02-.22-.1-.46-.25-.72-.13-.23-.3-.4-.49-.52-.2-.12-.42-.19-.67-.22-.25-.03-.58-.04-.99,0-.34.02-.6.02-.79,0-.19-.03-.36-.08-.49-.16-.13-.08-.25-.21-.35-.38-.09-.16-.14-.33-.13-.49,0-.16.06-.31.15-.44.09-.13.22-.24.38-.34Z"/>
      <path d="M14.18,39.68l.18.1.22-.2.17-.06.22.03c.09.03.21.09.38.18l3.22,1.7c.18.1.32.18.4.24l.15.21c.02.08,0,.21-.03.38l.18.1,1.86-3.52-1.27-.76-.2.38c.14.14.25.25.32.32l.2.24.12.25v.26c-.02.09-.06.19-.13.32l-.62,1.18-2.15-1.13.43-.81.19-.24.24-.07c.1,0,.23.02.4.06l.19-.36-1.43-.76-.19.36c.14.12.23.22.29.3l.08.24-.09.29-.43.81-1.95-1.03.63-1.2.15-.24.17-.14.23-.06h.3c.11,0,.24.02.38.05l.2-.37-1.12-.59-1.87,3.55Z"/>
      <path d="M30.92,20.22c.16-.12.31-.19.46-.23.15-.03.31-.02.48.03.17.05.36.16.56.31l.34-.25-.69-.94c-.27.11-.5.22-.7.33-.19.11-.39.24-.6.4-.42.31-.71.67-.86,1.09-.16.42-.18.87-.06,1.35.11.48.35.96.7,1.44.57.77,1.14,1.24,1.73,1.41.58.17,1.17.04,1.76-.39.27-.2.51-.4.72-.59.21-.2.4-.4.57-.62l-.71-.97-.34.25c.09.28.14.51.14.68,0,.17-.04.33-.12.48-.08.14-.22.28-.41.42-.25.18-.52.26-.81.22-.29-.03-.59-.17-.91-.42-.32-.25-.64-.59-.97-1.04-.32-.44-.55-.85-.67-1.24-.12-.39-.15-.73-.08-1.02.07-.29.23-.52.46-.7Z"/>
      <path d="M19.56,31.59l.25-.09c.1-.01.22,0,.37.02.15.03.34.09.58.17l.24-.34-1.2-.84-2.67,3.81,1.2.84.24-.35c-.15-.17-.27-.33-.36-.46-.08-.13-.14-.26-.16-.36v-.29s.17-.29.17-.29l.31-.44,3.53,2.47c.14.1.24.18.3.24l.13.17.04.16-.02.18-.08.22.17.12,1.13-1.61-.17-.12-.25.2-.2.05-.24-.06c-.09-.04-.2-.11-.34-.2l-3.53-2.47.31-.45c.09-.13.17-.22.24-.26Z"/>
      <path d="M27.24,23l-.14-.15-1.35,1.21.14.15c.12-.06.21-.1.27-.11h.18l.19.11c.07.06.17.16.3.3l2.43,2.71c.14.15.23.28.29.36l.07.25c0,.08-.06.2-.17.35l.14.15,1.35-1.21-.14-.15c-.12.06-.21.1-.28.12h-.18s-.19-.12-.19-.12c-.07-.06-.16-.15-.29-.29l-2.43-2.71c-.13-.15-.22-.26-.27-.34l-.08-.2.02-.17.14-.25Z"/>
      <path d="M11.09,47.69l.19.07.19-.23.15-.08h.22c.09.02.22.06.41.12l3.43,1.21c.2.07.34.13.43.18l.18.19c.03.08.04.2.02.39l.19.07.52-1.48-.2-.07-.19.24-.16.08h-.22c-.09-.02-.22-.06-.4-.13l-1.45-.51c-.45-.16-.88-.3-1.31-.44-.43-.14-.73-.23-.89-.27l.02-.07,4.52-.08.16-.47-3.37-2.99.02-.07c.14.07.42.18.82.34.41.16.81.3,1.21.45l1.52.54c.21.08.36.14.45.19l.17.2c.03.08.03.2.01.37l.2.07.59-1.69-.19-.07-.19.24-.16.08h-.22c-.09-.02-.22-.06-.4-.13l-3.43-1.21c-.18-.06-.32-.12-.4-.16l-.17-.14-.06-.16c-.01-.06,0-.16,0-.29l-.19-.07-.48,1.37,3.31,2.92-4.37.06-.51,1.45Z"/>
      <path d="M25.02,26.78c-.37-.34-.76-.47-1.16-.38-.4.09-.83.37-1.28.87l-1.43,1.57.15.14.26-.14.18-.02.2.09c.07.05.18.14.33.27l2.69,2.45c.15.14.26.25.32.33l.09.24c0,.08-.04.2-.13.36l.15.14,1.22-1.34-.15-.14-.26.14-.17.02-.2-.09c-.08-.05-.19-.14-.34-.28l-1.06-.96.32-.35.23-.22.2-.09c.07-.02.17-.02.29,0,.12.01.3.05.54.11l.78.2c.19.05.39.1.58.14.19.04.38.08.56.09l.8-.88-.15-.14-.31.16c-.1.02-.21.03-.35.02-.13-.01-.31-.05-.54-.1l-.77-.18c-.31-.07-.55-.11-.73-.1-.18,0-.36.05-.53.13l-.02-.02c.18-.42.24-.8.19-1.14-.05-.34-.22-.64-.51-.9ZM24.87,28.98c-.08.14-.2.3-.37.48l-.33.36-1.85-1.69c.1-.13.24-.28.41-.47.22-.24.42-.39.62-.47.2-.08.39-.09.58-.04.19.05.39.17.59.35.19.17.32.35.4.52.08.18.11.35.09.51-.02.16-.06.31-.14.45Z"/>
      <path d="M11.32,76.57l.2-.05c0-.14.01-.24.03-.3l.08-.15.18-.12c.08-.04.22-.08.41-.13l3.53-.88c.19-.05.33-.08.42-.08l.22.02.15.1.16.25.2-.05-.38-1.51c-.12-.46-.23-.83-.35-1.1-.12-.27-.25-.5-.42-.68-.2-.23-.42-.4-.67-.53-.29-.15-.62-.23-1-.25-.38-.02-.8.03-1.26.14-.45.11-.83.27-1.13.47-.3.19-.53.44-.69.72-.16.29-.26.61-.29.97-.03.36.02.81.15,1.33l.46,1.82ZM11.2,73.55c.09-.34.29-.63.61-.88s.75-.45,1.3-.58c.28-.07.53-.11.77-.14.24-.02.46-.02.67,0,.21.03.4.08.58.17.18.08.32.19.44.32.12.13.22.28.31.46.08.17.15.38.21.61.05.22.09.38.1.49l-4.82,1.2c-.05-.17-.1-.34-.15-.53-.1-.41-.11-.78-.02-1.12Z"/>
      <path d="M105.79,33.06c-.21-.31-.45-.55-.72-.72-.27-.17-.54-.25-.82-.24-.28,0-.54.1-.8.28-.18.12-.32.27-.41.46-.1.18-.15.4-.17.65-.02.25,0,.56.06.92.06.38.08.68.07.89,0,.21-.05.39-.13.53-.08.14-.2.27-.37.39-.27.19-.53.25-.77.2-.24-.05-.46-.21-.65-.49-.14-.2-.22-.38-.25-.55-.03-.17-.01-.33.05-.49.06-.16.18-.34.35-.52l-.24-.35-.95.65c.21.57.44,1.04.7,1.41.16.23.33.42.51.58.18.16.37.27.57.34.2.06.41.08.63.04.22-.04.45-.14.7-.31.22-.15.38-.33.48-.53.1-.2.15-.43.17-.69.01-.26-.01-.58-.07-.99-.05-.33-.07-.6-.06-.79,0-.19.05-.36.12-.5.07-.14.19-.26.35-.38.16-.11.31-.16.47-.17.16,0,.31.03.45.11.14.08.26.2.37.35.12.18.2.34.23.48.03.14.02.29-.04.45-.06.16-.17.34-.34.53l.24.35.94-.64c-.11-.3-.22-.55-.32-.73-.1-.18-.21-.37-.33-.55Z"/>
      <rect x="48.35" y="109.72" width="2" height="1.25"/>
      <path d="M110.16,52.14l2.9-2.85-.3-1.31-.2.05c0,.14-.02.23-.03.3l-.09.15-.18.12c-.08.03-.22.07-.41.12l-3.55.82c-.2.05-.36.07-.46.08l-.26-.06c-.07-.05-.14-.15-.23-.31l-.2.05.35,1.53.2-.05c0-.14.01-.24.03-.3l.09-.16.19-.11c.08-.03.21-.07.4-.11l.84-.19c.55-.13,1.09-.26,1.64-.4.55-.14.93-.24,1.13-.31l.02.07-.28.25c-.1.08-.24.23-.45.43l-3.29,3.22.12.52,4.6-1.06c.2-.05.34-.07.44-.08l.21.03.14.1.15.25.2-.05-.35-1.51-.2.05c0,.14-.02.23-.03.29l-.08.15-.19.11c-.09.03-.22.07-.41.11l-.86.2c-.4.09-.85.2-1.34.33-.49.13-.82.22-.99.27v-.05c.12-.11.24-.21.35-.31.11-.1.23-.22.37-.35Z"/>
      <path d="M112.75,55.09l.04.42c.23.03.42.08.57.12.15.05.27.1.36.17l.18.23c.03.08.06.19.07.33l.05.54-4.29.4c-.17.02-.3.02-.38.01l-.21-.05-.13-.09-.1-.15-.08-.22-.21.02.18,1.95.21-.02c.02-.14.04-.25.07-.32l.12-.17.22-.11c.1-.03.23-.05.39-.06l4.29-.4.05.54c.01.16.01.28-.01.36l-.14.23c-.07.08-.17.15-.3.23-.13.07-.32.15-.55.24l.04.42,1.46-.14-.43-4.63-1.46.14Z"/>
      <path d="M114.7,62.99l-4.62-1.89c-.29-.12-.51-.24-.67-.36-.15-.12-.24-.26-.26-.42h-.21s-.04,1.83-.04,1.83h.2c.03-.18.08-.31.17-.39.08-.09.2-.13.37-.12l.29.04c.11.03.26.08.47.16l.41.16-.05,2-.55.15c-.14.04-.26.07-.37.09l-.31.03-.24-.06-.14-.16c-.03-.07-.06-.18-.09-.32h-.2s-.04,1.98-.04,1.98h.21c.03-.12.08-.22.15-.3l.27-.19c.11-.05.28-.11.5-.17l4.72-1.36v-.68ZM111.14,63.89l.04-1.8,2.69,1.04-2.73.76Z"/>
      <path d="M50.68,117.11l-.15-.11h0s-.08-.13-.08-.13l-.05-.17c-.01-.06-.02-.16-.03-.29,0-.13,0-.31,0-.54v-4.59h-2.84v.63h.07c.15.04.27.07.36.11l.19.15.1.27c.02.12.03.29.03.49v2.95c0,.39-.01.67-.04.82-.03.14-.08.24-.15.32-.07.08-.21.14-.41.19l-.06.02v.56h3.43v-.57h-.06s-.28-.11-.28-.11Z"/>
      <path d="M113.7,71.14c.14-.26.24-.61.31-1.06l.36-2.32-.2-.03c-.06.13-.1.21-.14.26l-.14.11-.22.04c-.09,0-.23-.01-.42-.04l-3.6-.56c-.2-.03-.36-.06-.45-.1l-.21-.15c-.05-.07-.08-.19-.09-.37l-.2-.03-.34,2.19c-.07.44-.07.82-.01,1.15.06.32.19.59.41.8.21.21.51.34.88.4.33.05.63,0,.89-.17.27-.16.49-.43.66-.79h.04c.06.26.14.48.23.65.09.17.22.32.38.44.16.12.36.2.6.24.29.05.54.02.74-.09.21-.1.38-.28.51-.54ZM111.15,69.26c-.06.37-.15.65-.26.84-.12.2-.27.33-.46.4-.19.07-.42.09-.69.05-.27-.04-.49-.12-.65-.24-.16-.12-.28-.29-.34-.51-.06-.22-.06-.51,0-.88.04-.25.08-.48.14-.69l2.37.37-.1.66ZM112.49,70.91c-.39-.06-.67-.22-.84-.48-.17-.26-.22-.6-.15-1.04l.12-.74,2.15.33c0,.09-.02.22-.04.4-.02.18-.04.32-.06.43-.03.18-.07.34-.12.49-.06.15-.13.27-.22.37-.09.1-.21.17-.34.22-.14.04-.3.05-.49.02Z"/>
      <path d="M61.97,4.15C32.98,4.15,8.99,25.49,4.83,53.32c-.36,2.39-.57,4.82-.62,7.3,0,.44-.02.87-.02,1.31v.18c.02,5.18.72,10.2,2.02,14.98.42,1.55.9,3.07,1.44,4.56.52,1.43,1.09,2.83,1.72,4.2.69,1.52,1.45,3.01,2.27,4.46.77,1.37,1.6,2.7,2.48,4,1.02,1.51,2.11,2.96,3.26,4.36,1.82,2.21,3.81,4.28,5.93,6.2,3.02,2.72,6.32,5.12,9.86,7.16,1.12.65,2.27,1.25,3.44,1.82v-.87c-18.75-9.33-31.63-28.68-31.63-51.05C4.98,30.45,30.49,4.93,61.97,4.93s56.99,25.52,56.99,56.99c0,22.35-12.86,41.69-31.59,51.03l-.06.03v.87l.13-.06c1.13-.56,2.24-1.15,3.33-1.78,3.53-2.03,6.82-4.43,9.83-7.14,2.14-1.92,4.13-4,5.96-6.22,1.15-1.39,2.24-2.85,3.26-4.35.88-1.3,1.71-2.63,2.48-4,.82-1.45,1.58-2.94,2.28-4.47.62-1.37,1.2-2.77,1.71-4.19.54-1.49,1.02-3.02,1.44-4.57,1.3-4.78,2-9.8,2.01-14.98v-.18c0-.44,0-.88-.01-1.31-.05-2.45-.26-4.86-.61-7.22-4.13-27.86-28.14-49.24-57.15-49.24Z"/>
      <path d="M75.94,117.02c-.07-.08-.12-.19-.14-.32-.03-.15-.04-.42-.04-.81v-7.26h-2.83v.56c.18.02.37.12.45.19l.16.16.09.24c.02.11.03.25.04.42,0,.17.01.43.01.79v4.9c0,.26,0,.47-.01.61,0,.14-.03.24-.05.32l-.1.18-.15.12c-.07.04-.17.07-.29.1h-.06v.58h3.41v-.56l-.06-.02c-.21-.05-.35-.11-.42-.19Z"/>
      <path d="M57.86,116.79c-.04-.08-.06-.19-.07-.32-.01-.14-.02-.37-.02-.69v-7.14h-2.83v.56h.07c.26.06.38.11.43.15l.16.19c.04.09.06.22.08.4.01.18.02.5.02.95v.47c-.22-.05-.41-.09-.57-.11-.19-.02-.39-.04-.58-.04-.69,0-1.28.13-1.77.39-.49.26-.87.64-1.12,1.14-.25.5-.37,1.11-.37,1.84,0,1.06.21,1.87.62,2.41.41.54,1.04.82,1.87.82.33,0,.9-.12,1.26-.29.34-.16.45-.23.76-.52v.81h2.71v-.56c-.2-.04-.4-.18-.48-.24l-.16-.2ZM55.7,115.53c0,.22-.06.43-.18.6-.12.17-.27.3-.44.39-.18.08-.35.13-.53.13-.37,0-.64-.18-.81-.56-.18-.39-.28-1-.28-1.81,0-.47.05-.88.15-1.23.09-.34.24-.59.42-.77.18-.17.4-.26.65-.26.35,0,.6.11.77.34.17.23.26.6.26,1.09v2.09Z"/>
      <path d="M65.07,114.51c0-.5-.05-.93-.14-1.28-.09-.35-.22-.66-.39-.93-.15-.23-.33-.43-.56-.59-.22-.16-.49-.29-.8-.38-.31-.09-.67-.14-1.08-.14-.66,0-1.25.13-1.75.39-.5.26-.9.65-1.17,1.15-.27.5-.41,1.1-.41,1.79,0,1.07.27,1.89.8,2.43.53.55,1.33.83,2.38.83.58,0,1.11-.1,1.56-.29.45-.19.91-.52,1.36-.98l.06-.06-.65-.67-.06.06c-.31.29-.59.5-.85.62-.26.11-.55.17-.87.17-.54,0-.95-.17-1.22-.51-.26-.33-.4-.85-.41-1.54h4.2v-.08ZM60.9,113.75c.04-.56.16-.99.34-1.29.19-.3.43-.45.74-.45s.55.14.7.43c.15.29.23.73.25,1.31h-2.03Z"/>
      <path d="M71.83,116.92l-.09-.15c-.03-.07-.04-.17-.06-.31-.01-.15-.02-.36-.02-.63v-2.45c0-.54-.08-.98-.25-1.29-.17-.32-.42-.55-.76-.69-.33-.14-.77-.21-1.31-.21-.21,0-.42.01-.63.04-.21.02-.45.07-.71.13-.26.06-.53.14-.81.23-.27.09-.61.23-1.02.4l-.05.02v1.28h1.4v-.07c.07-.32.15-.57.26-.75.11-.17.23-.29.37-.35.14-.06.3-.09.49-.09s.35.04.48.12c.13.08.24.21.32.41.09.2.13.49.13.87v.52c-1.27.1-2.23.32-2.86.67-.66.37-1,.88-1,1.52,0,.32.08.61.23.85.15.25.38.44.67.58.29.14.64.21,1.03.21s.95-.07,1.3-.23c.34-.15.51-.26.86-.58v.81s2.57,0,2.57,0v-.56c-.16-.02-.36-.14-.42-.18l-.13-.12ZM69.59,115.68c0,.18-.05.35-.15.5-.1.16-.23.29-.4.38-.17.1-.35.14-.54.14-.24,0-.43-.06-.57-.18-.13-.12-.2-.29-.2-.53,0-.41.15-.71.46-.92.3-.21.77-.32,1.39-.35v.96Z"/>
      <path d="M106.31,36.64l.2.38c.22-.06.42-.09.57-.11.16-.02.29,0,.4.02l.25.14.19.28.25.48-3.81,2.01c-.15.08-.27.13-.35.16l-.21.04-.16-.03-.15-.1-.16-.17-.18.1.92,1.74.18-.1c-.04-.14-.06-.24-.06-.32l.05-.2.17-.19c.08-.06.19-.13.34-.21l3.81-2.01.25.48c.07.14.12.25.12.34l-.03.27c-.03.09-.1.2-.19.32-.1.12-.23.26-.42.43l.2.37,1.3-.69-2.17-4.11-1.3.68Z"/>
      <path d="M96.36,100.41c.33,0,.66-.07.99-.22.33-.15.7-.41,1.09-.77l1.38-1.28-.14-.15c-.12.06-.22.1-.28.12h-.17s-.19-.1-.19-.1c-.07-.05-.17-.15-.31-.3l-2.48-2.67c-.13-.14-.22-.25-.27-.33l-.09-.2.02-.18.14-.26-.14-.15-1.14,1.06c-.35.33-.62.6-.8.83-.18.23-.31.47-.4.7-.1.28-.15.56-.14.84.01.32.1.66.26.99.16.34.41.68.73,1.03.32.34.63.6.95.77.32.17.64.25.97.26ZM94.54,98.12c-.14-.2-.24-.4-.32-.59-.08-.2-.12-.39-.13-.59-.01-.19.01-.37.07-.54.06-.17.14-.33.25-.49.11-.16.26-.32.43-.48.16-.15.29-.26.38-.33l3.38,3.65c-.12.13-.25.26-.4.39-.31.29-.64.47-.97.56-.34.08-.69.05-1.06-.11-.37-.15-.75-.44-1.14-.86-.19-.21-.36-.41-.49-.61Z"/>
      <path d="M109.11,85.19l.79-1.63-.19-.09-.21.21-.16.07-.22-.03c-.09-.03-.22-.08-.39-.17l-3.28-1.59c-.19-.09-.32-.17-.4-.23l-.16-.21c-.02-.08-.02-.21.02-.39l-.19-.09-.79,1.63.19.09.22-.21.17-.07.21.03c.08.03.21.08.38.16l3.28,1.59c.17.08.3.15.37.21l.16.16.05.17c0,.06,0,.16-.03.29l.19.09Z"/>
      <path d="M91.88,104.23l-.22.05-.23-.04-.27-.13-.32-.22-.34.24.74,1.03,3.27-2.33-.12-.17c-.13.05-.22.07-.28.08l-.17-.02-.18-.13c-.06-.06-.15-.17-.26-.33l-2.11-2.97c-.12-.17-.2-.3-.25-.39l-.04-.26c.02-.08.09-.19.21-.33l-.12-.17-3.24,2.31.79,1.25.35-.25c-.06-.19-.11-.33-.14-.43l-.07-.31v-.28s.12-.23.12-.23l.26-.23,1.09-.77,1.41,1.98-.75.53-.28.13-.25-.05c-.09-.04-.2-.12-.33-.23l-.33.23.94,1.32.33-.23c-.07-.17-.11-.31-.12-.4l.04-.25.21-.22.75-.53,1.28,1.8-1.1.79-.25.15Z"/>
      <path d="M111.46,79.82l.63-1.7-.19-.07-.19.23-.16.08h-.22c-.09-.02-.22-.06-.4-.13l-3.41-1.27c-.19-.07-.34-.13-.42-.19l-.18-.19c-.03-.08-.04-.2-.02-.39l-.19-.07-1.34,3.62,1.56.67.15-.4c-.22-.14-.38-.26-.49-.34l-.26-.23-.15-.2-.06-.19v-.22s.1-.3.1-.3l.39-1.05,4.04,1.5c.19.07.33.13.41.18l.17.14.06.16c0,.06,0,.16,0,.28l.19.07Z"/>
      <path d="M103.02,94.61l-2.45-4.35c-.15-.27-.25-.5-.3-.7-.04-.19-.03-.36.06-.5l-.16-.13-1.17,1.41.16.13c.13-.12.26-.19.38-.21.12-.02.24.03.37.13l.2.21c.07.09.16.22.27.41l.22.37-1.27,1.54-.52-.22c-.13-.06-.25-.11-.35-.16l-.26-.17-.15-.2v-.21c0-.08.05-.18.12-.31l-.16-.13-1.26,1.53.16.13.31-.14c.1-.02.21,0,.33.02.12.03.29.09.5.18l4.55,1.87.43-.52ZM99.67,93.11l1.14-1.38,1.47,2.48-2.61-1.1Z"/>
      <path d="M104.34,90.29c.35.08.68.08,1,0,.32-.08.62-.23.9-.46.28-.23.57-.58.85-1.03l1-1.59-.17-.11-.23.19-.17.05-.21-.05c-.08-.03-.21-.1-.37-.21l-3.09-1.94c-.16-.1-.28-.18-.35-.24l-.14-.17-.03-.17c0-.06.03-.16.07-.29l-.17-.11-.83,1.31c-.25.41-.44.74-.55,1.01-.12.27-.18.53-.2.77-.02.3,0,.58.09.85.09.31.27.61.51.89.25.29.57.55.97.8.4.25.77.41,1.12.49ZM102.52,88.07c-.12-.17-.22-.35-.28-.53s-.09-.37-.08-.54c.01-.18.05-.35.12-.54.07-.18.16-.37.29-.58.12-.19.21-.33.28-.42l4.21,2.64c-.08.15-.18.31-.28.48-.22.36-.49.62-.8.79-.3.17-.66.23-1.06.17-.4-.05-.84-.23-1.32-.53-.24-.15-.45-.3-.64-.46-.18-.16-.34-.32-.46-.49Z"/>
      <path d="M112.42,75.49l.08.16c.02.06.02.16.02.29l.2.05.46-1.75-.2-.05-.17.24-.15.1-.22.02c-.09,0-.23-.04-.41-.09l-3.52-.93c-.2-.05-.35-.1-.44-.14l-.2-.18c-.04-.07-.06-.2-.05-.38l-.2-.05-.46,1.75.2.05.17-.25.16-.09h.22c.09,0,.22.03.4.08l3.52.93c.19.05.32.09.41.13l.18.12Z"/>
    </g>
  </g>
</svg>