<?xml version="1.0" encoding="UTF-8"?>
<svg fill="#FFFFFF" id="Layer_2" data-name="Layer 2" xmlns="http://www.w3.org/2000/svg" viewBox="0 0 454.31 281.06">
  <g id="Layer_1-2" data-name="Layer 1">
    <path d="M77.82,153.58h-24.96c-13.6,0-16.76-4.22-16.76-9.62v-50.73c0-7.11,9.31-9.35,21.42-9.35,7.45,0,15.83,1.32,15.83,1.32v-18.31c0-2.37-.93-4.74-1.3-5.93h25.89v91.44s-13.6,1.19-20.11,1.19ZM66.83,146.2c4.84,0,6.33-1.58,6.33-4.87v-45.85c0-3.03-2.61-4.48-6.33-4.48-4.1,0-6.33,1.45-6.33,4.48v45.72c0,3.43,1.68,5.01,6.33,5.01Z"/>
    <path d="M199.05,153.71c-9.87,0-19.18-3.14-19.18-9.41v-21.56c0-5.36,6.15-8.75,14.53-9.67,4.1-.39,7.45-.91,11.36-1.44,8.19-1.18,10.43-2.74,10.43-6.4v-9.54c0-3-2.61-4.44-6.52-4.44-6.15,0-9.13,3.53-9.13,7.32v6.66h-18.44v-16.2c0-1.05-.19-3.14-.19-3.14,0,0,18.25-1.83,29.24-1.83,21.79,0,28.87,1.05,28.87,9.54v49c0,3.14,1.3,7.32,2.23,9.93h-19.56l-4.1-2.61s-10.99,3.79-19.56,3.79ZM203.7,125.49v15.16c0,2.48,2.23,5.23,6.33,5.23,4.84,0,6.15-2.09,6.15-5.36v-22.34h-2.79c-5.03,0-9.69,2.87-9.69,7.32Z"/>
    <path d="M275.85,147.56c0,3.17.37,3.97,1.3,5.69h-27.38c.56-1.59.93-2.64.93-5.69v-76.96c0-3.7-.56-6.08-1.68-9.65h26.82v86.61Z"/>
    <path d="M26.82,147.56c0,3.17.37,3.97,1.3,5.69H.75c.56-1.59.93-2.64.93-5.69v-76.96c0-3.7-.56-6.08-1.68-9.65h26.82v86.61Z"/>
    <path d="M66.69,205.32v68.16c0,4.23.39,5.28,1.38,7.57h-27.94v-75.91c0-4.58-1.38-5.99-6.3-5.99-3.74,0-6.1,2.11-6.1,5.99v68.34c0,4.23.39,5.28,1.38,7.57H.2c.59-2.11.98-3.52.98-7.57v-73.8c0-4.23-.59-7.22-1.18-9.34h23.61l2.95,2.99s8.85-4.58,18.89-4.58c7.28,0,12,1.59,17.31,5.64,0,0,9.05-5.64,22.62-5.64,15.54,0,20.85,5.81,20.85,15.15v69.57c0,4.23.39,5.28,1.38,7.57h-27.93v-75.56c0-4.58-1.38-6.34-6.69-6.34-4.13,0-6.3,1.94-6.3,6.17Z"/>
    <path d="M361.52,268.17c0,3.55-2.23,5-6.52,5-3.73,0-6.33-1.18-6.33-5v-44.05c0-3.55,1.49-5.92,8.75-5.92s8.01,3.29,8.01,5.92v11.69h19.35c.07,0,.14,0,.2,0v-23.14s-6.15-1.71-28.87-1.71c-24.03,0-31.29,2.37-31.29,10.78v47.34c0,9.47,4.28,11.97,29.8,11.97,27.19,0,31.66-2.89,31.66-12.49v-13.62h-24.77v13.23Z"/>
    <path d="M393.22,237.25v-14.69c0-7.67,9.13-10.79,24.03-10.79h11.36c7.26,0,16.2.52,23.65,1.3v21.58h-18.81v-7.54c0-5.59-2.61-8.32-9.5-8.32-4.84,0-7.45,1.69-7.45,5.2v7.54c0,5.72,1.3,7.41,11.18,9.62,3.54.78,6.89,1.3,10.43,2.08,11.92,2.6,16.2,4.68,16.2,10.4v15.73c0,8.32-7.64,11.7-25.89,11.7h-7.45c-8.01,0-19-.26-26.82-1.56v-23.79h20.67v10.01c0,6.5,3.91,8.45,8.19,8.45,5.03,0,7.45-1.82,7.45-5.59v-10.53c0-4.55-5.03-6.37-10.24-7.15-5.77-.91-9.87-1.69-15.09-2.86-10.62-2.34-11.92-5.59-11.92-10.79Z"/>
    <g>
      <path d="M291.45,275.37c0,3.04-.37,4.1-.93,5.69h27.38c-.93-1.72-1.3-2.51-1.3-5.69v-62.41h-25.14v62.41Z"/>
      <path d="M316.22,196.3h-25.89c.37,1.19,1.3,3.57,1.3,5.95v8.33h24.58v-14.28Z"/>
    </g>
    <path d="M237.81,221.63v53.74c0,3.04-.37,4.1-.93,5.69h27.38c-.93-1.72-1.3-2.51-1.3-5.69v-44.43c0-2.91,1.3-8.86,17.88-8.86h2.79v-10.31h-4.66c-10.24,0-16.76,4.23-16.76,4.23l-3.61-3.7s-3.94.08-21.8.08"/>
    <path d="M220.48,271.74c-6.5-.45-8.27-.75-8.27-8.02v-42.89h15.72l4.07-9.34h-19.98v-15.47l-24.96,3.04v71.76c0,10.71,5.58,10.23,21.41,10.23,17.07,0,20.12-.65,20.12-.65v-11.11c-2.17,1.04-4.64,2.69-8.12,2.45Z"/>
    <path d="M177.39,245.68v-23.54c0-10.39-6.33-11.18-31.48-11.18-22.72,0-31.1,1.18-31.1,11.57v46.02c0,9.47,4.47,12.49,29.99,12.49,27.19,0,32.59-2.24,32.59-12.49v-13.62h-24.21v13.76c0,3.16-1.68,4.73-6.33,4.73s-6.7-1.05-6.7-4.47v-23.27h37.25ZM140.14,222.01c0-2.63,2.42-3.94,6.52-3.94.54,0,1.05.02,1.51.05,3.38.26,4.82,1.45,4.82,3.76v17.49h-12.85v-17.36Z"/>
    <path d="M170.19,119.01v-23.54c0-10.39-6.33-11.18-31.48-11.18-22.72,0-31.1,1.18-31.1,11.57v46.02c0,9.47,4.47,12.49,29.99,12.49,27.19,0,32.59-2.24,32.59-12.49v-13.62h-24.21v13.76c0,3.16-1.68,4.73-6.33,4.73s-6.7-1.05-6.7-4.47v-23.27h37.25ZM132.94,95.34c0-2.63,2.42-3.94,6.52-3.94.54,0,1.05.02,1.51.05,3.38.26,4.82,1.45,4.82,3.76v17.49h-12.85v-17.36Z"/>
    <path d="M405.99,0c41.09.46,63.05,48.83,37.16,80.61,22.3,28.01,9.21,70.23-25.68,79.17-47.04,12.04-80.57-41.99-50.44-79.29C340.76,48,364.12-.46,405.99,0ZM404.02,9.33c-8.93.18-17.6,3.57-24.38,9.22-1.04.87-9.28,8.99-8.11,9.98,8.6.57,18.29,3.82,25.05,9.29,1.75,1.41,2.29,3.79,4.48,4-1.15-5.46-1.98-10.98-1.46-16.6.51-5.56,3.05-10.58,4.42-15.89ZM435.35,23.05c-7.48-8.63-17.51-13.59-29.11-13.72,4.87,10.6,7.13,22.23,2.21,33.22,1,.84,5.54-4.6,6.71-5.47,6.92-5.14,15.58-8.5,24.31-8.56-1.07-2.09-2.61-3.73-4.12-5.47ZM400.99,49.28c-12.19-1.5-24.34-8.23-30.21-19.28-4.45,5.72-5.88,16.75-5.15,24,.35,3.44,5.35,17.82,8.12,19.26,1.69.88,6.82-3.8,8.62-4.73,5.81-3.01,12.15-4.15,18.38-5.99l.25-13.26ZM440.94,30.75c-1.36-1.02-6.27,6.68-7.38,7.75-6.1,5.83-15.42,9.12-23.53,10.81v13.83c5.19,1.04,9.78,2.05,14.65,4.19,2.71,1.19,9.4,5.94,10.92,6.15,3.41.48,6.74-9.26,7.58-12.07,3.33-11.05,2.61-20.23-2.24-30.66ZM401.07,72.84c-7.09.13-14.67,2.95-19.93,7.76.02.81,7.54,4.63,8.87,5.15,1.52.6,11.06,3.91,11.06,1.5v-14.4ZM409.93,88.35c2.97.99,19.19-5.8,19.19-7.75-5.17-4.73-12.16-7.43-19.19-7.75v15.51ZM444.64,107.55c-.46-7.66-3.73-14.78-8.49-20.67-7.38,5.66-16.1,10.01-25.53,10.65l-.69,10.02h34.71ZM365.62,107.55l34.24-.1c1.71-.56,1.59-7.56,1.11-9.03-.58-1.76-3.98-1.1-5.85-1.54-3.38-.79-7.55-1.92-10.69-3.34-2.62-1.19-8.9-6.42-10.94-5.98-1.87.41-8.49,16.91-7.87,19.98ZM400.97,125.92c-.12-2.05,1.07-8.68-1.11-9.4l-34.24-.1c.36,7.4,4.03,13.91,7.81,19.99.93.15,8.99-5.12,11-5.98,5.3-2.27,10.94-3.26,16.54-4.51ZM444.64,116.42h-34.71l.71,10c9.28,1.43,18.02,4.91,25.43,10.65,2.75-.58,9.45-17.03,8.57-20.65ZM398.7,135.77c-2.6.19-17.59,5.64-17.56,7.61,1.53,3.45,16.49,8.97,18.76,8.42,2.75-.66-.28-11.51,1.16-14.3l-.71-1.56c-.52-.47-1.07-.21-1.66-.17ZM409.93,135.62v16.25c6.99-1.03,13.39-3.83,19.21-7.76.19-1.26-.98-1.44-1.72-1.97-5.08-3.61-11.37-5.52-17.49-6.52Z"/>
  </g>
</svg>