<?xml version="1.0" encoding="UTF-8"?>
<svg xmlns="http://www.w3.org/2000/svg" viewBox="0 0 283.5137 134.4551" fill="#FFFFFF">
  <path fill-rule="evenodd" d="M56.2345 87.9453L1.06771 87.9453C0.16514 87.9453 0 88.2432 0 88.8301L0 133.57C0 134.157 0.16514 134.455 1.06771 134.455L15.7459 134.455C16.6494 134.455 16.8146 134.157 16.8146 133.57L16.8146 95.6665C16.8146 95.0381 17.2356 94.6475 17.9135 94.6475L21.6562 94.6475C22.3346 94.6475 22.7556 95.0381 22.7556 95.6665L22.7556 133.57C22.7556 134.157 22.9208 134.455 23.8234 134.455L38.502 134.455C39.4051 134.455 39.5702 134.157 39.5702 133.57L39.5702 95.6665C39.5702 95.0381 39.9912 94.6475 40.6692 94.6475L44.2155 94.6475C44.9906 94.6475 45.5113 95.1265 45.5113 95.8394L45.5113 133.57C45.5113 134.157 45.6764 134.455 46.58 134.455L61.8488 134.455C62.7528 134.455 62.918 134.157 62.918 133.57L62.918 94.6284C62.918 90.1313 60.732 87.9453 56.2345 87.9453ZM91.7056 109.6C91.7056 110.228 91.291 110.619 90.6235 110.619L86.9385 110.619C86.271 110.619 85.856 110.228 85.856 109.6L85.856 95.8394C85.856 95.1265 86.3687 94.6475 87.1318 94.6475L90.6235 94.6475C91.291 94.6475 91.7056 95.0381 91.7056 95.6665L91.7056 109.6ZM104.494 87.9453L75.2988 87.9453C70.8706 87.9453 68.7183 90.1313 68.7183 94.6284L68.7183 127.772C68.7183 132.269 70.8706 134.455 75.2988 134.455L105.464 134.455C106.353 134.455 106.516 134.157 106.516 133.57L106.516 121.541C106.516 120.955 106.353 120.657 105.464 120.657L92.7573 120.657C91.8682 120.657 91.7056 120.955 91.7056 121.541L91.7056 125.263C91.7056 125.891 91.291 126.282 90.6235 126.282L87.1318 126.282C86.3687 126.282 85.856 125.803 85.856 125.09L85.856 116.349C85.856 115.721 86.271 115.33 86.9385 115.33L105.852 115.33C106.741 115.33 106.903 115.032 106.903 114.445L106.903 90.3008C106.903 88.6719 106.16 87.9453 104.494 87.9453ZM137.373 87.9453L129.808 87.9453C129.141 87.9453 128.726 87.5547 128.726 86.9258L128.726 75.1567C128.726 74.5698 128.563 74.272 127.674 74.272L114.211 74.272C112.848 74.272 112.695 74.4414 112.653 74.8574L112.558 93.8511L112.558 133.57C112.558 134.157 112.721 134.455 113.61 134.455L127.674 134.455C128.563 134.455 128.726 134.157 128.726 133.57L128.726 97.3105C128.726 96.3203 129.547 96.1738 129.817 96.126L137.572 96.1299C138.072 96.0781 138.328 95.2539 138.328 94.7144L138.328 88.8301C138.328 88.2563 138.176 87.9453 137.373 87.9453ZM171.805 87.9453L143.871 87.9453C141.919 87.9453 141.656 88.8735 141.656 89.7817L141.656 133.57C141.656 134.144 141.808 134.455 142.61 134.455L157.936 134.455C158.738 134.455 158.89 134.144 158.89 133.57L158.89 97.9165C158.89 97.2881 159.305 96.8975 159.972 96.8975L172.271 96.9292C172.458 96.9077 172.857 96.8682 172.857 95.6392L172.857 88.8301C172.857 88.2432 172.695 87.9453 171.805 87.9453ZM193.271 74.272L178.237 74.272C177.576 74.272 177.282 74.5596 177.282 75.2051L177.282 82.5483C177.282 83.0693 177.441 83.3926 178.237 83.3926L193.271 83.3926C194.242 83.3926 194.322 82.9932 194.322 82.5483L194.322 75.2051C194.322 74.7202 194.195 74.272 193.271 74.272ZM193.271 87.9453L178.237 87.9453C177.567 87.9453 177.282 88.21 177.282 88.8301L177.282 133.57C177.282 134.144 177.434 134.455 178.237 134.455L193.271 134.455C194.16 134.455 194.322 134.157 194.322 133.57L194.322 88.8301C194.322 88.3706 194.195 87.9453 193.271 87.9453ZM231.659 87.9453L206.634 87.9453C202.206 87.9453 200.054 90.1313 200.054 94.6284L200.054 127.772C200.054 132.269 202.206 134.455 206.634 134.455L231.659 134.455C236.086 134.455 238.239 132.269 238.239 127.772L238.239 116.436C238.239 115.849 238.076 115.551 237.188 115.551L224.093 115.551C223.204 115.551 223.042 115.849 223.042 116.436L223.042 126.561C223.042 127.274 222.528 127.753 221.765 127.753L218.273 127.753C217.606 127.753 217.192 127.363 217.192 126.734L217.192 95.6665C217.192 95.0381 217.606 94.6475 218.273 94.6475L221.765 94.6475C222.528 94.6475 223.042 95.1265 223.042 95.8394L223.042 104.666C223.042 105.253 223.204 105.551 224.093 105.551L237.188 105.551C238.076 105.551 238.239 105.253 238.239 104.666L238.239 94.6284C238.239 90.1313 236.086 87.9453 231.659 87.9453ZM266.861 95.8394L266.861 101.637C266.861 102.224 267.023 102.522 267.913 102.522L282.462 102.522C283.351 102.522 283.514 102.224 283.514 101.637L283.514 93.0698C283.514 89.6216 281.107 87.9453 276.157 87.9453L252.2 87.9453C246.663 87.9453 243.971 89.8481 243.971 93.7627L243.971 106.916C243.971 109.594 245.231 111.146 247.717 111.528L264.987 114.385C266.333 114.726 266.473 115.509 266.473 115.83L266.473 126.561C266.473 127.274 265.96 127.753 265.197 127.753L261.899 127.753C261.136 127.753 260.624 127.274 260.624 126.561L260.624 119.378C260.624 118.791 260.461 118.493 259.571 118.493L245.022 118.493C244.133 118.493 243.971 118.791 243.971 119.378L243.971 129.33C243.971 132.778 246.377 134.455 251.327 134.455L275.285 134.455C280.822 134.455 283.514 132.552 283.514 128.638L283.514 113.58C283.514 111.447 282.413 110.221 280.147 109.833L262.494 106.803C261.158 106.634 261.011 105.857 261.011 105.532L261.011 95.8394C261.011 95.1265 261.524 94.6475 262.287 94.6475L265.585 94.6475C266.348 94.6475 266.861 95.1265 266.861 95.8394ZM0.95508 9.12061L15.9893 9.12061C16.96 9.12061 17.0405 8.72119 17.0405 8.27637L17.0405 0.93262C17.0405 0.44824 16.9131 0 15.9893 0L0.95508 0C0.29443 0 0 0.2876 0 0.93262L0 8.27637C0 8.79736 0.15967 9.12061 0.95508 9.12061ZM0.95508 60.1831L15.9893 60.1831C16.8779 60.1831 17.0405 59.8853 17.0405 59.2983L17.0405 14.5581C17.0405 14.0986 16.9131 13.6733 15.9893 13.6733L0.95508 13.6733C0.28564 13.6733 0 13.938 0 14.5581L0 59.2983C0 59.8721 0.15234 60.1831 0.95508 60.1831ZM45.6831 52.4619C45.6831 53.0903 45.2686 53.481 44.6006 53.481L41.1089 53.481C40.3462 53.481 39.8335 53.002 39.8335 52.2886L39.8335 21.5669C39.8335 20.854 40.3462 20.375 41.1089 20.375L44.6006 20.375C45.2686 20.375 45.6831 20.7656 45.6831 21.3945L45.6831 52.4619ZM61.9629 0L48.3838 0C47.4863 0 47.3745 0.31104 47.3276 0.68701L45.6787 12.7212C45.5161 13.3179 45.0493 13.6733 44.5034 13.6733L29.2759 13.6733C24.8481 13.6733 22.6958 15.8594 22.6958 20.356L22.6958 53.5C22.6958 57.9971 24.8481 60.1831 29.2759 60.1831L61.8657 60.1831C62.7554 60.1831 62.918 59.8853 62.918 59.2983L62.918 0.88477C62.918 0.31104 62.7656 0 61.9629 0ZM91.7056 35.3271C91.7056 35.9561 91.291 36.3467 90.6235 36.3467L86.9385 36.3467C86.271 36.3467 85.856 35.9561 85.856 35.3271L85.856 21.5669C85.856 20.854 86.3687 20.375 87.1318 20.375L90.6235 20.375C91.291 20.375 91.7056 20.7656 91.7056 21.3945L91.7056 35.3271ZM104.494 13.6733L75.2988 13.6733C70.8706 13.6733 68.7183 15.8594 68.7183 20.356L68.7183 53.5C68.7183 57.9971 70.8706 60.1831 75.2988 60.1831L105.464 60.1831C106.353 60.1831 106.516 59.8853 106.516 59.2983L106.516 47.269C106.516 46.6821 106.353 46.3843 105.464 46.3843L92.7573 46.3843C91.8682 46.3843 91.7056 46.6821 91.7056 47.269L91.7056 50.9907C91.7056 51.6191 91.291 52.0098 90.6235 52.0098L87.1318 52.0098C86.3687 52.0098 85.856 51.5308 85.856 50.8179L85.856 42.0767C85.856 41.4482 86.271 41.0576 86.9385 41.0576L105.852 41.0576C106.741 41.0576 106.903 40.7598 106.903 40.1733L106.903 16.0288C106.903 14.3999 106.16 13.6733 104.494 13.6733ZM127.901 38.5288C127.901 37.9004 128.316 37.5098 128.983 37.5098L132.669 37.5098C133.337 37.5098 133.751 37.9004 133.751 38.5288L133.751 52.4619C133.751 53.0903 133.337 53.481 132.669 53.481L129.178 53.481C127.993 53.481 127.901 52.6343 127.901 52.375L127.901 38.5288ZM119.575 60.1831L148.188 60.1831C150.582 60.1831 150.889 59.0166 150.889 58.0005L150.889 20.356C150.889 15.8594 148.705 13.6733 144.212 13.6733L114.144 13.6733C113.254 13.6733 113.091 13.9712 113.091 14.5581L113.091 26.5864C113.091 27.1733 113.254 27.4712 114.144 27.4712L126.85 27.4712C127.739 27.4712 127.901 27.1733 127.901 26.5864L127.901 22.8657C127.901 22.2363 128.316 21.8457 128.983 21.8457L132.475 21.8457C133.239 21.8457 133.751 22.3252 133.751 23.0386L133.751 31.7783C133.751 32.4077 133.337 32.7983 132.669 32.7983L113.755 32.7983C112.866 32.7983 112.704 33.0962 112.704 33.6821L112.704 53.5C112.704 57.9971 114.951 60.1831 119.575 60.1831ZM172.969 0L159.39 0C158.42 0 158.36 0.48145 158.334 0.68701L157.073 10.124C156.8 11.9873 156.689 13.5962 156.689 15.6831L156.689 59.2983C156.689 59.8721 156.842 60.1831 157.644 60.1831L172.969 60.1831C173.771 60.1831 173.924 59.8721 173.924 59.2983L173.924 0.88477C173.924 0.31104 173.771 0 172.969 0Z"/>
</svg>
