<?xml version="1.0" encoding="UTF-8"?>
<svg id="Layer_2" data-name="Layer 2" xmlns="http://www.w3.org/2000/svg" xmlns:xlink="http://www.w3.org/1999/xlink" viewBox="0 0 125.08 125.08">
  <defs>
    <style>
      .cls-1 {
        fill: url(#linear-gradient-15);
      }

      .cls-2 {
        fill: url(#linear-gradient-13);
      }

      .cls-3 {
        fill: url(#linear-gradient-2);
      }

      .cls-4 {
        fill: url(#linear-gradient-10);
      }

      .cls-5 {
        fill: url(#linear-gradient-12);
      }

      .cls-6 {
        fill: url(#linear-gradient-4);
      }

      .cls-7 {
        fill: url(#linear-gradient-3);
      }

      .cls-8 {
        fill: url(#linear-gradient-5);
      }

      .cls-9 {
        fill: url(#linear-gradient-22);
      }

      .cls-10 {
        fill: url(#linear-gradient-8);
      }

      .cls-11 {
        fill: url(#linear-gradient-14);
      }

      .cls-12 {
        fill: url(#linear-gradient-20);
      }

      .cls-13 {
        fill: url(#linear-gradient-17);
      }

      .cls-14 {
        fill: url(#linear-gradient-7);
      }

      .cls-15 {
        fill: url(#linear-gradient-9);
      }

      .cls-16 {
        fill: url(#linear-gradient-11);
      }

      .cls-17 {
        fill: url(#linear-gradient-19);
      }

      .cls-18 {
        fill: url(#linear-gradient-6);
      }

      .cls-19 {
        fill: url(#linear-gradient-21);
      }

      .cls-20 {
        fill: url(#linear-gradient-16);
      }

      .cls-21 {
        fill: url(#linear-gradient);
      }

      .cls-22 {
        fill: url(#linear-gradient-23);
      }

      .cls-23 {
        fill: url(#linear-gradient-18);
      }
    </style>
    <linearGradient id="linear-gradient" x1="-8.57" y1="43.89" x2="95.43" y2="134.56" gradientUnits="userSpaceOnUse">
      <stop offset="0" stop-color="#aaaaab"/>
      <stop offset=".2" stop-color="#d2d2d4"/>
      <stop offset=".5" stop-color="#fff"/>
      <stop offset=".8" stop-color="#d2d2d4"/>
      <stop offset="1" stop-color="#aaaaab"/>
    </linearGradient>
    <linearGradient id="linear-gradient-2" x1="8.79" y1="23.99" x2="112.79" y2="114.65" xlink:href="#linear-gradient"/>
    <linearGradient id="linear-gradient-3" x1="23.56" y1="7.03" x2="127.56" y2="97.7" xlink:href="#linear-gradient"/>
    <linearGradient id="linear-gradient-4" x1="6.11" y1="27.06" x2="110.11" y2="117.72" xlink:href="#linear-gradient"/>
    <linearGradient id="linear-gradient-5" x1="13.14" y1="18.99" x2="117.14" y2="109.66" xlink:href="#linear-gradient"/>
    <linearGradient id="linear-gradient-6" x1="-8.36" y1="43.65" x2="95.64" y2="134.32" xlink:href="#linear-gradient"/>
    <linearGradient id="linear-gradient-7" x1="30.95" y1="-1.44" x2="134.95" y2="89.23" xlink:href="#linear-gradient"/>
    <linearGradient id="linear-gradient-8" x1="29.99" y1="-.33" x2="133.99" y2="90.33" xlink:href="#linear-gradient"/>
    <linearGradient id="linear-gradient-9" x1="42.11" y1="-14.24" x2="146.11" y2="76.43" xlink:href="#linear-gradient"/>
    <linearGradient id="linear-gradient-10" x1="9.88" y1="22.73" x2="113.88" y2="113.39" xlink:href="#linear-gradient"/>
    <linearGradient id="linear-gradient-11" x1="-13.93" y1="50.04" x2="90.07" y2="140.71" xlink:href="#linear-gradient"/>
    <linearGradient id="linear-gradient-12" x1="14.32" y1="17.63" x2="118.32" y2="108.3" xlink:href="#linear-gradient"/>
    <linearGradient id="linear-gradient-13" x1="43.46" y1="-15.78" x2="147.46" y2="74.88" xlink:href="#linear-gradient"/>
    <linearGradient id="linear-gradient-14" x1="18.42" y1="12.94" x2="122.42" y2="103.6" xlink:href="#linear-gradient"/>
    <linearGradient id="linear-gradient-15" x1="33.94" y1="-4.87" x2="137.94" y2="85.8" xlink:href="#linear-gradient"/>
    <linearGradient id="linear-gradient-16" x1="-20.24" y1="57.28" x2="83.76" y2="147.95" xlink:href="#linear-gradient"/>
    <linearGradient id="linear-gradient-17" x1="-12.5" y1="48.4" x2="91.5" y2="139.06" xlink:href="#linear-gradient"/>
    <linearGradient id="linear-gradient-18" x1="-16.21" y1="52.66" x2="87.79" y2="143.33" xlink:href="#linear-gradient"/>
    <linearGradient id="linear-gradient-19" x1="-20.29" y1="57.34" x2="83.71" y2="148.01" xlink:href="#linear-gradient"/>
    <linearGradient id="linear-gradient-20" x1="-10.76" y1="46.41" x2="93.24" y2="137.08" xlink:href="#linear-gradient"/>
    <linearGradient id="linear-gradient-21" x1="-19.86" y1="56.84" x2="84.14" y2="147.51" xlink:href="#linear-gradient"/>
    <linearGradient id="linear-gradient-22" x1="-18.08" y1="54.81" x2="85.92" y2="145.47" xlink:href="#linear-gradient"/>
    <linearGradient id="linear-gradient-23" x1="12.9" y1="19.26" x2="116.9" y2="109.93" xlink:href="#linear-gradient"/>
  </defs>
  <g id="Layer_1-2" data-name="Layer 1">
    <g>
      <path class="cls-21" d="M36.29,74.98h-13.45c4.15,13.26,14.76,23.65,28.14,27.51v-12.82c-.31-6.99-7.7-14.38-14.7-14.7Z"/>
      <path class="cls-3" d="M20.95,62.54c0,4.06.59,7.99,1.68,11.7h13.66c6.99-.31,14.38-7.7,14.7-14.7V22.59c-17.35,5.01-30.03,20.99-30.03,39.95Z"/>
      <path class="cls-7" d="M66.42,74.24h36.03c1.09-3.71,1.68-7.64,1.68-11.7,0-22.97-18.62-41.59-41.59-41.59-3.74,0-7.37.5-10.82,1.43v37.17c.31,6.99,7.7,14.38,14.7,14.7Z"/>
      <path class="cls-6" d="M102.24,74.98h-35.82c-6.99.31-14.38,7.7-14.7,14.7v13.03c3.45.93,7.08,1.43,10.82,1.43,18.64,0,34.41-12.26,39.7-29.15Z"/>
      <path class="cls-8" d="M25.1,28.11c-.2-.18-.39-.3-.59-.35s-.39-.04-.58.04c-.19.08-.4.23-.62.47-.17.19-.31.35-.41.47l1.85,1.69.33-.36c.17-.18.29-.34.37-.48.08-.14.13-.29.14-.45.02-.16-.01-.33-.09-.51s-.21-.35-.4-.52Z"/>
      <polygon class="cls-18" points="13.27 60.93 10.55 61.71 13.25 62.73 13.27 60.93"/>
      <path class="cls-14" d="M114.12,70.92c.06-.15.1-.31.13-.49.02-.11.04-.25.06-.43.02-.18.04-.31.04-.4l-2.15-.33-.12.74c-.07.43-.02.78.15,1.04.17.26.45.42.84.48.19.03.36.02.49-.02s.25-.12.34-.22c.09-.1.17-.23.22-.37Z"/>
      <path class="cls-10" d="M109.32,69.53c-.06.37-.06.67,0,.88.06.22.17.39.34.51s.38.2.65.24c.27.04.5.02.69-.05.19-.07.34-.21.46-.4.12-.19.21-.48.26-.84l.1-.66-2.37-.37c-.05.2-.1.43-.14.69Z"/>
      <polygon class="cls-15" points="75.56 13.02 73.94 15.41 75.68 15.86 75.56 13.02"/>
      <path class="cls-4" d="M97.81,100.31c.34-.09.66-.27.97-.56.14-.13.27-.26.4-.39l-3.38-3.65c-.09.07-.22.18-.38.33-.18.16-.32.32-.43.48-.11.16-.2.32-.25.49-.06.17-.08.35-.07.54.01.19.06.39.13.59.08.2.18.39.32.59.14.2.3.4.49.61.39.42.77.7,1.14.86.37.16.73.19,1.06.11Z"/>
      <path class="cls-16" d="M11.95,75.82l4.82-1.2c-.02-.11-.05-.28-.1-.49-.06-.23-.13-.44-.21-.61-.08-.17-.19-.33-.31-.46-.12-.13-.26-.23-.44-.32-.18-.08-.37-.14-.58-.17-.21-.03-.43-.03-.67,0-.24.02-.5.07-.77.14-.55.14-.99.33-1.3.58s-.52.55-.61.88c-.09.34-.08.71.02,1.12.05.19.1.37.15.53Z"/>
      <polygon class="cls-5" points="100.24 93.73 102.85 94.83 101.39 92.35 100.24 93.73"/>
      <path class="cls-2" d="M80.2,19.45c.29.12.57.12.85.02.27-.1.53-.31.77-.62.24-.31.45-.7.64-1.16.23-.57.36-1.06.39-1.48.03-.42-.02-.76-.16-1.01-.14-.25-.34-.43-.61-.54-.24-.1-.47-.12-.68-.08-.21.04-.42.14-.61.3-.19.16-.37.37-.54.64-.17.27-.32.58-.46.93-.32.8-.44,1.46-.37,1.97s.34.86.79,1.04Z"/>
      <path class="cls-11" d="M105.52,90.16c.4.05.75,0,1.06-.17.31-.17.57-.43.8-.79.1-.16.2-.32.28-.48l-4.21-2.64c-.07.09-.16.23-.28.42-.13.2-.23.4-.29.58-.07.18-.11.36-.12.54-.01.17.01.35.08.54s.15.36.28.53c.12.17.28.33.46.49.18.16.4.31.64.46.48.3.92.48,1.32.53Z"/>
      <polygon class="cls-1" points="111.72 64.51 114.45 63.75 111.76 62.71 111.72 64.51"/>
      <path class="cls-20" d="M25.85,96.2l-.14.07-.21.18c-.27.27-.48.53-.62.78-.14.25-.2.48-.19.69.01.21.11.4.27.57.15.15.31.26.46.31.16.05.31.07.47.05.16-.02.31-.08.46-.17s.3-.21.44-.35c.3-.3.47-.58.51-.87.04-.28-.05-.54-.27-.77l-.24-.2-.26-.15-.29-.1-.3-.05h-.11Z"/>
      <path class="cls-13" d="M62.56,112.63c-.31,0-.56.15-.74.45-.18.3-.3.73-.34,1.29h2.03c-.02-.58-.11-1.02-.25-1.31-.15-.29-.37-.43-.7-.43Z"/>
      <path class="cls-23" d="M55.25,112.63c-.25,0-.47.08-.65.26-.18.18-.33.43-.42.77-.1.34-.15.76-.15,1.23,0,.81.09,1.42.28,1.81.18.38.44.56.81.56.18,0,.36-.04.53-.13.17-.08.32-.21.44-.39.12-.17.18-.37.18-.6v-2.09c0-.49-.09-.86-.26-1.09-.17-.23-.42-.34-.77-.34Z"/>
      <path class="cls-17" d="M30.1,100.19l-.13.08-.19.21c-.24.3-.42.58-.53.84-.11.26-.15.5-.11.71.04.21.15.39.34.54.17.13.33.22.49.26.16.04.32.03.47,0,.15-.04.3-.12.44-.22.14-.11.27-.24.4-.4.26-.33.4-.63.4-.92,0-.29-.11-.53-.36-.73l-.26-.17-.28-.12-.3-.07-.3-.02-.11.03Z"/>
      <path class="cls-12" d="M68.31,116.61c0,.24.06.41.2.53.13.12.32.18.57.18.19,0,.37-.05.54-.14.17-.1.3-.22.4-.38.1-.16.15-.33.15-.5v-.96c-.62.02-1.09.14-1.39.35-.31.21-.46.51-.46.92Z"/>
      <path class="cls-19" d="M22.74,92.48c-.15-.19-.31-.32-.48-.39-.17-.07-.35-.08-.54-.04-.19.05-.37.14-.55.28-.2.16-.34.32-.42.51-.08.18-.11.36-.07.54.03.18.12.35.25.52.22.28.47.44.73.47.27.03.54-.06.82-.28.13-.1.24-.22.33-.34.09-.12.15-.25.18-.38.03-.14.03-.28-.01-.43-.04-.15-.12-.31-.25-.47Z"/>
      <path class="cls-9" d="M24.28,92.68c.14-.06.27-.14.41-.25.14-.11.26-.23.36-.37.1-.13.17-.27.2-.41.03-.14.03-.29,0-.45-.04-.16-.12-.32-.25-.48-.15-.19-.31-.32-.48-.39-.18-.07-.37-.09-.57-.04-.2.05-.4.15-.6.3-.21.17-.37.35-.46.54-.1.19-.13.39-.1.59.02.2.11.39.25.56.13.17.26.29.41.36.14.07.28.11.42.12.14,0,.28-.02.42-.08Z"/>
      <path class="cls-22" d="M62.54,0C28,0,0,28,0,62.54c0,7.35,1.27,14.41,3.6,20.96.51,1.43,1.06,2.83,1.67,4.2.67,1.53,1.4,3.02,2.19,4.48.74,1.37,1.53,2.71,2.37,4.02.95,1.49,1.97,2.94,3.05,4.34,1.01,1.31,2.06,2.59,3.17,3.82,1.8,2,3.73,3.88,5.77,5.64,3.31,2.84,6.92,5.35,10.78,7.46,8.89,4.86,19.1,7.63,29.95,7.63s21.03-2.76,29.92-7.61c3.87-2.11,7.5-4.63,10.82-7.48,2.05-1.76,3.98-3.65,5.78-5.65,1.1-1.23,2.16-2.5,3.17-3.82,1.06-1.39,2.07-2.82,3.02-4.3.84-1.31,1.63-2.65,2.37-4.03.79-1.46,1.52-2.97,2.2-4.5.6-1.37,1.16-2.77,1.67-4.19,2.33-6.56,3.61-13.61,3.61-20.97C125.08,28,97.08,0,62.54,0ZM38.39,102.48c-.28-.16-.48-.26-.61-.31-.13-.05-.23-.08-.32-.07l-.24.09c-.07.06-.16.17-.27.33l-1.81,2.89-.08.24.11.16c.08.05.21.08.41.09.19.01.44.01.74,0v.37s-2.34-.07-2.34-.07l-.2-.13c.16-.22.36-.53.62-.94l1.91-3.05c.09-.14.14-.25.17-.33l.02-.22-.11-.21-.25-.23c-.11-.09-.25-.19-.43-.31l.16-.26,2.69,1.69-.16.26ZM30.4,99.85c.29.02.56.07.79.16.23.09.45.21.67.38.25.2.42.43.51.68s.1.51.03.78c-.07.27-.21.53-.42.8-.16.2-.34.36-.55.48s-.43.2-.67.22c-.24.03-.49,0-.75-.08-.26-.08-.52-.23-.78-.44-.47-.38-.7-.82-.69-1.34,0-.51.25-1.07.73-1.67.44-.54.91-.94,1.41-1.2.5-.25,1-.36,1.51-.32.5.04.99.21,1.46.52v.29s-.14.16-.14.16c-.31-.25-.64-.4-.98-.45-.34-.05-.68,0-1.04.16-.35.16-.73.43-1.12.82l.02.04ZM26.19,95.89c.29.05.54.13.76.24.22.11.43.26.62.46.23.23.37.47.43.73.06.26.04.52-.05.78-.1.26-.27.51-.51.74-.18.18-.38.31-.6.41-.22.1-.45.15-.69.15-.24,0-.48-.06-.73-.17-.25-.11-.49-.28-.73-.52-.42-.43-.6-.9-.53-1.41.07-.51.37-1.03.92-1.57.5-.49,1.01-.84,1.54-1.03.53-.2,1.04-.24,1.53-.15.5.1.96.33,1.39.69l-.04.29-.15.14c-.28-.28-.59-.47-.92-.56-.33-.09-.68-.07-1.05.04-.37.11-.77.34-1.21.69l.02.04ZM23.01,94.71c-.23.18-.48.27-.76.29-.28.01-.56-.06-.85-.22-.29-.16-.54-.38-.76-.66-.26-.33-.42-.63-.51-.92-.08-.29-.08-.56,0-.8.08-.24.24-.46.48-.64.24-.19.5-.29.77-.31.27-.02.56.06.87.23l.04-.04c-.1-.33-.11-.63-.03-.91.08-.28.26-.52.52-.73.26-.2.53-.32.83-.34.29-.03.59.04.89.19.3.16.57.39.82.72.24.3.39.6.47.91s.07.59-.02.86c-.09.27-.27.51-.52.71-.19.15-.39.25-.58.29-.19.04-.38.05-.56,0s-.37-.11-.58-.22l-.04.04c.17.65.01,1.16-.49,1.55ZM13.45,80.95l-.19.07-.63-1.7.19-.07.18.22.15.09h.22c.09-.02.23-.06.41-.13l3.42-1.26c.18-.07.3-.12.38-.16l.17-.13.07-.17c.01-.07,0-.17,0-.3l.19-.07.63,1.7-.19.07c-.1-.15-.19-.25-.26-.28l-.26-.03c-.1.02-.25.06-.44.13l-3.42,1.26c-.18.07-.31.12-.39.17l-.17.14-.07.16c0,.06,0,.16,0,.3ZM13.22,43.87l.48-1.37.19.07c-.01.13-.01.23,0,.29l.06.16.17.14c.08.05.22.1.4.16l3.43,1.21c.18.06.31.1.4.12h.22s.16-.08.16-.08l.19-.24.19.07-.59,1.69-.2-.07c.02-.17.01-.29-.01-.37l-.17-.2c-.08-.05-.23-.12-.45-.19l-1.52-.53c-.4-.14-.8-.29-1.21-.45-.4-.16-.68-.27-.82-.34l-.02.07,3.37,2.99-.16.47-4.52.08-.02.07c.17.04.46.13.89.27.43.14.86.28,1.31.44l1.45.51c.18.06.31.1.4.12h.22s.16-.08.16-.08l.19-.24.2.07-.52,1.48-.19-.07c.02-.18,0-.31-.02-.39l-.18-.19c-.09-.05-.23-.11-.43-.18l-3.43-1.21c-.18-.06-.32-.1-.41-.12h-.22s-.15.08-.15.08l-.19.23-.19-.07.51-1.45,4.37-.06-3.31-2.92ZM23.11,35.39c.14.09.25.16.34.2l.24.06.2-.05.25-.2.17.12-1.13,1.61-.17-.12.08-.22.02-.18-.04-.16-.13-.17c-.06-.06-.16-.14-.3-.24l-3.53-2.47-.31.44-.16.29v.29c.01.11.07.23.15.36s.2.29.36.46l-.24.35-1.2-.84,2.67-3.81,1.2.84-.24.34c-.23-.09-.42-.15-.58-.17-.15-.03-.28-.04-.37-.02l-.25.09c-.07.05-.15.13-.24.26l-.31.45,3.53,2.47ZM25.94,29.46c.17-.08.35-.12.53-.13.18,0,.42.03.73.1l.77.18c.22.05.4.09.54.1.13.01.25,0,.35-.02l.31-.16.15.14-.8.88c-.18-.02-.37-.05-.56-.09-.19-.04-.39-.09-.58-.14l-.78-.2c-.23-.06-.41-.1-.54-.11-.12-.01-.22-.01-.29,0l-.2.09-.23.22-.32.35,1.06.96c.15.14.26.23.34.28l.2.09.17-.02.26-.14.15.14-1.22,1.34-.15-.14c.08-.16.13-.28.13-.36l-.09-.24c-.06-.08-.17-.19-.32-.33l-2.69-2.45c-.14-.13-.25-.22-.33-.27l-.2-.09-.18.02-.26.14-.15-.14,1.43-1.57c.45-.49.88-.78,1.28-.87.4-.08.79.04,1.16.38.28.26.45.56.51.9.05.34,0,.72-.19,1.14l.02.02ZM27.74,24.25c.05.08.14.19.27.34l2.43,2.71c.13.14.22.24.29.29l.19.11h.18c.07,0,.16-.05.28-.11l.14.15-1.35,1.21-.14-.15c.1-.15.16-.27.17-.35l-.07-.25c-.05-.09-.15-.21-.29-.36l-2.43-2.71c-.13-.14-.23-.24-.3-.3l-.19-.11h-.18c-.06.01-.15.05-.27.11l-.14-.15,1.35-1.21.14.15-.14.25-.02.17.08.2ZM31.1,22.56c.12.39.35.8.67,1.24.33.44.65.79.97,1.04.32.25.62.39.91.42.29.03.56-.04.81-.22.19-.14.32-.28.41-.42.08-.14.12-.3.12-.48,0-.17-.05-.4-.14-.68l.34-.25.71.97c-.17.22-.37.42-.57.62s-.45.39-.72.59c-.59.43-1.17.56-1.76.39-.59-.17-1.16-.64-1.73-1.41-.35-.48-.59-.97-.7-1.44-.11-.48-.09-.93.06-1.35.16-.42.44-.79.86-1.09.21-.15.41-.29.6-.4.19-.11.43-.22.7-.33l.69.94-.34.25c-.2-.16-.38-.26-.56-.31-.17-.05-.33-.06-.48-.03-.15.03-.3.11-.46.23-.24.17-.39.41-.46.7-.07.29-.05.63.08,1.02ZM35.65,19.16c.1.17.22.3.35.38.13.08.29.14.49.16.19.02.46.02.79,0,.41-.03.74-.02.99,0,.25.03.48.11.67.22.2.11.36.29.49.52.15.25.23.49.25.72.02.22-.01.43-.09.63-.08.19-.21.37-.38.54-.17.17-.38.32-.62.46-.39.22-.88.42-1.46.58l-.58-1,.37-.21c.17.19.34.32.49.39.16.08.32.1.49.09.17-.02.36-.09.57-.21.29-.17.47-.37.54-.61.07-.24.02-.5-.14-.78-.11-.18-.23-.32-.36-.4-.14-.09-.31-.14-.52-.17-.21-.03-.51-.02-.89,0-.37.03-.68.02-.93-.02-.25-.04-.46-.11-.63-.22-.17-.11-.32-.26-.42-.45-.16-.27-.23-.55-.21-.82s.12-.54.3-.8c.19-.25.45-.48.77-.66.19-.11.38-.21.57-.29.19-.08.44-.17.75-.26l.57.98-.37.21c-.18-.18-.35-.31-.5-.38-.16-.07-.31-.09-.45-.07-.14.02-.31.08-.49.19-.16.09-.29.21-.38.34-.09.13-.14.28-.15.44,0,.16.04.32.13.49ZM17.76,37.33l-.2.37c-.14-.03-.27-.04-.38-.05h-.3s-.23.07-.23.07l-.17.14-.15.24-.63,1.2,1.95,1.03.43-.81.09-.29-.08-.24c-.05-.08-.15-.18-.29-.3l.19-.36,1.43.76-.19.36c-.17-.04-.3-.06-.4-.06l-.24.07-.19.24-.43.81,2.15,1.13.62-1.18c.07-.12.11-.23.13-.32v-.26s-.12-.25-.12-.25l-.2-.24c-.07-.08-.18-.18-.32-.32l.2-.38,1.27.76-1.86,3.52-.18-.1c.04-.18.06-.31.03-.38l-.15-.21c-.08-.06-.21-.14-.4-.24l-3.22-1.7c-.17-.09-.3-.15-.38-.18l-.22-.03-.17.06-.22.2-.18-.1,1.87-3.55,1.12.59ZM15.51,56.6l.15-1.12c.02-.12.03-.22.02-.31l-.04-.22-.1-.17-.18-.16c-.08-.05-.18-.11-.3-.17-.12-.06-.3-.13-.55-.22l.06-.43,1.66.32-.53,3.82-.2-.03c-.02-.18-.05-.31-.1-.37l-.22-.15c-.1-.03-.25-.06-.45-.09l-3.61-.5c-.19-.03-.33-.04-.42-.04l-.21.04-.14.11s-.08.14-.14.26l-.2-.03.25-1.79.2.03c.02.13.03.22.05.28l.09.15.19.1c.09.03.24.06.44.09l4.26.59ZM14.44,59.79c.22-.06.39-.12.5-.17l.27-.19c.06-.07.11-.17.15-.3h.21s-.03,1.98-.03,1.98h-.21c-.03-.15-.06-.25-.09-.32l-.14-.16-.24-.06-.31.03c-.11.02-.24.05-.38.09l-.54.15-.03,2,.41.15c.21.08.36.13.47.15l.29.04c.17,0,.29-.04.37-.13.08-.09.13-.22.16-.4h.21s-.03,1.84-.03,1.84h-.21c-.02-.16-.11-.3-.27-.42-.16-.12-.38-.24-.67-.35l-4.64-1.85v-.68s4.72-1.4,4.72-1.4ZM11.15,66.07l.05.42c-.13.06-.25.12-.35.17l-.24.17-.15.18-.06.22v.29s.16,1.35.16,1.35l2.19-.25-.1-.91c-.01-.12-.04-.22-.08-.29l-.2-.16c-.09-.04-.23-.07-.41-.09l-.04-.4,1.61-.18.05.4c-.16.06-.28.12-.36.17l-.16.19c-.03.07-.03.17-.02.31l.1.91,2.41-.27-.15-1.33c-.01-.14-.04-.25-.07-.34l-.15-.21-.24-.14-.3-.09c-.1-.02-.25-.05-.45-.09l-.05-.42,1.48-.08.45,3.95-.2.02c-.06-.17-.13-.28-.19-.34l-.25-.09c-.1,0-.26,0-.46.02l-3.62.41c-.19.02-.33.04-.42.07l-.2.09-.1.14c-.02.06-.05.15-.07.29l-.2.02-.45-3.99,1.26-.14ZM11.57,73.06c.16-.28.39-.53.69-.72.3-.2.68-.35,1.13-.47.46-.12.88-.16,1.26-.14.38.02.71.1,1,.25.25.13.48.3.67.53.16.19.3.41.42.68.12.27.23.64.35,1.1l.38,1.51-.2.05-.16-.25-.15-.1-.22-.02c-.09,0-.23.03-.42.08l-3.53.88c-.19.05-.33.09-.41.13l-.18.12-.08.15c-.02.06-.02.16-.03.3l-.2.05-.46-1.82c-.13-.53-.18-.97-.15-1.33.03-.36.13-.69.29-.97ZM17.79,84.72c.12-.19.29-.34.5-.45.21-.12.44-.17.66-.17.23,0,.44.07.63.19.19.12.35.3.47.52.12.22.18.45.18.67,0,.23-.07.43-.19.62-.12.19-.29.34-.51.46-.2.11-.41.16-.64.16s-.44-.07-.63-.2c-.2-.12-.36-.3-.48-.51-.12-.22-.18-.45-.18-.67,0-.22.06-.43.18-.62ZM20.12,62.54c0-23.43,18.99-42.42,42.42-42.42s42.42,18.99,42.42,42.42-18.99,42.42-42.42,42.42-42.42-18.99-42.42-42.42ZM43.16,17c.04-.22.13-.42.28-.6.15-.18.34-.31.57-.4.24-.09.47-.12.69-.09.22.03.42.12.59.26.17.14.3.33.38.56.09.23.11.45.08.68-.03.22-.13.42-.28.6-.15.18-.34.31-.58.4-.24.09-.47.12-.69.09-.22-.03-.42-.12-.59-.27-.17-.15-.3-.33-.39-.56-.08-.22-.1-.43-.07-.65ZM51.03,14.73c.11.54.26.99.44,1.35.18.36.4.62.66.77.25.15.53.19.85.13.33-.07.56-.19.69-.36.13-.17.17-.41.11-.7l-.05-.25c-.05-.25-.1-.42-.15-.53l-.19-.23c-.08-.05-.2-.07-.36-.08l-.04-.2,1.7-.34.04.2-.2.16-.08.18v.24c0,.09.02.23.06.4l.29,1.43-.31.15-.37-.26c-.16.15-.33.27-.52.36-.19.09-.41.17-.67.22-.71.14-1.29.01-1.75-.39-.46-.41-.78-1.08-.97-2.02-.12-.59-.13-1.12-.02-1.6.11-.48.32-.88.64-1.19.32-.31.73-.52,1.22-.62.26-.05.52-.09.76-.11.25-.02.53-.02.83-.01l.23,1.13-.42.08c-.13-.23-.26-.41-.39-.52-.13-.12-.28-.19-.43-.22-.16-.03-.35-.02-.57.02-.31.06-.55.21-.74.45-.19.24-.31.56-.36.96-.05.4-.02.87.08,1.4ZM57.65,13.4l.92-.07c.13-.01.22-.03.29-.08l.16-.19c.04-.09.07-.22.1-.4l.4-.03.13,1.61-.4.03c-.05-.16-.11-.29-.16-.37l-.19-.17c-.07-.03-.17-.04-.31-.03l-.92.07.19,2.42,1.33-.11c.14-.01.25-.03.34-.06l.22-.14.15-.24.1-.3c.02-.1.06-.25.1-.45l.42-.03.04,1.48-3.96.31-.02-.21c.17-.06.29-.12.34-.18l.1-.24c.01-.1,0-.26,0-.47l-.29-3.63c-.02-.19-.03-.33-.06-.42l-.09-.2-.14-.11c-.06-.02-.15-.05-.29-.08l-.02-.21,4-.32.1,1.27-.42.03c-.05-.13-.11-.25-.16-.35l-.16-.25-.17-.16-.22-.07h-.29l-1.35.11.17,2.2ZM64.84,14.56c-.07-.15-.19-.28-.35-.42-.17-.13-.42-.29-.76-.47-.33-.17-.59-.34-.78-.5-.19-.16-.33-.34-.42-.52-.09-.19-.13-.38-.12-.6.01-.31.09-.58.25-.81s.38-.4.68-.52c.29-.12.63-.17,1-.16.22,0,.43.02.64.05.21.03.47.09.77.18l-.03,1.13h-.42c-.06-.26-.14-.46-.23-.6-.1-.14-.21-.24-.34-.3-.13-.06-.31-.09-.52-.1-.18,0-.35.02-.5.09-.15.06-.27.16-.36.29-.09.13-.14.3-.15.48,0,.2.02.37.09.51.07.14.18.27.33.39.15.12.38.26.68.42.36.19.64.37.83.53.2.16.35.34.46.54.11.2.16.43.15.7,0,.29-.06.54-.16.74-.1.2-.24.36-.41.48-.17.12-.38.21-.61.26-.24.05-.49.07-.77.06-.45-.01-.97-.1-1.55-.27l.04-1.15h.43c.05.26.12.46.21.61.09.15.22.26.37.33.15.07.35.11.59.12.33.01.59-.07.78-.23.18-.16.28-.41.29-.74,0-.21-.03-.39-.09-.53ZM75.6,12.18l.66.17.25,4.91c.01.23.03.41.05.53.02.12.06.23.12.31l.26.21-.05.2-1.92-.49.05-.2c.14,0,.26,0,.33-.01l.19-.1.11-.22.04-.31c0-.11,0-.24,0-.38l-.02-.57-1.94-.5-.24.36c-.12.18-.21.32-.26.42l-.11.27c-.04.16-.03.3.03.39.06.1.18.18.35.25l-.05.2-1.78-.45.05-.2c.16.02.32-.04.47-.16.15-.12.32-.31.5-.57l2.89-4.07ZM74.67,11.37c.2-.23.35-.38.46-.46l.31-.15c.1-.02.21-.02.33.01l.18.07.13.1.2.21.16.18.13.11.16.07.26-.04c.09-.05.19-.15.32-.3l.29.22c-.16.2-.31.34-.43.44-.13.1-.24.16-.34.18h-.31s-.19-.08-.19-.08l-.15-.11-.21-.22-.15-.16-.12-.1-.14-.06h-.19s-.18.1-.18.1l-.22.23-.29-.22ZM72.05,12.91l-.42-.06c-.03-.25-.06-.45-.1-.59-.04-.15-.09-.26-.15-.34l-.2-.19c-.07-.04-.19-.07-.34-.1l-.54-.08-.6,4.27c-.02.16-.03.3-.03.4l.05.24.14.16c.06.04.16.09.29.14l-.03.2-1.94-.27.03-.2.24-.03.17-.06.12-.11.09-.2c.03-.08.05-.21.08-.38l.61-4.27-.53-.08c-.13-.02-.25-.02-.34,0l-.26.12c-.08.07-.17.17-.25.31-.08.14-.17.31-.25.53l-.42-.06.21-1.45,4.6.65-.21,1.45ZM78.57,17.5c.03-.38.14-.81.33-1.28.23-.58.52-1.05.87-1.39.35-.35.73-.56,1.15-.65.42-.08.86-.04,1.3.14.47.19.83.45,1.07.78.24.33.37.73.37,1.19,0,.46-.11.98-.33,1.55-.24.61-.54,1.09-.89,1.44-.35.35-.74.56-1.16.63-.42.07-.86.02-1.31-.16-.32-.13-.59-.29-.81-.5-.22-.21-.38-.46-.48-.75-.1-.29-.13-.63-.1-1.01ZM89.15,18.09l-.18-.23.11-.17,3.4,2.14-.68,1.08-.36-.22c.04-.14.06-.26.08-.38l.02-.3-.05-.23-.13-.18-.23-.17-1.15-.72-1.18,1.87.78.49.28.11.25-.06c.08-.05.19-.13.32-.26l.34.22-.86,1.37-.34-.22c.06-.16.09-.29.09-.39l-.05-.25-.23-.21-.78-.49-1.29,2.06,1.13.71.31.15.26.02.26-.1.26-.18c.08-.07.2-.16.35-.3l.36.23-.86,1.21-3.37-2.12.11-.17c.17.06.3.08.38.06l.22-.13c.07-.08.16-.2.27-.38l1.94-3.08c.1-.16.17-.29.21-.37l.05-.21-.05-.17ZM93.82,27.63c.07.16.2.31.38.47.25.22.5.33.75.32.25,0,.48-.13.7-.38.14-.16.23-.31.27-.47.04-.16.04-.34,0-.54-.04-.21-.14-.49-.28-.85-.14-.34-.23-.64-.27-.89s-.04-.47.01-.67c.05-.2.15-.38.29-.54.21-.23.45-.39.71-.46.27-.07.55-.06.85.04.3.1.59.27.87.52.16.14.31.29.45.45.14.16.3.37.48.63l-.76.85-.32-.28c.12-.23.18-.43.2-.6.02-.17,0-.32-.07-.45-.06-.13-.18-.27-.33-.41-.14-.12-.29-.21-.44-.26s-.31-.05-.46,0c-.16.04-.3.14-.42.28-.13.15-.22.3-.25.45-.04.15-.04.32,0,.51.04.19.12.44.25.75.15.38.25.69.3.94.05.25.05.49,0,.71-.05.22-.16.43-.33.63-.2.22-.4.37-.6.46-.21.09-.42.12-.62.11-.21-.02-.42-.08-.63-.19-.21-.11-.42-.26-.63-.45-.33-.3-.67-.7-1.01-1.2l.77-.86.32.29c-.12.22-.19.42-.22.59-.02.17,0,.34.07.49ZM100.52,26.84l.15-.14,1.19,1.35-.15.14c-.14-.09-.24-.15-.32-.16l-.25.05c-.09.05-.22.15-.39.3l-2.24,1.97c-.2.18-.36.35-.46.52-.1.17-.15.32-.16.47,0,.15.02.29.08.43.06.14.16.29.31.45.13.15.28.26.43.33.15.07.31.09.49.08.17-.02.35-.08.53-.19.18-.11.4-.28.66-.5l1.97-1.74c.18-.16.3-.28.35-.36l.08-.23c0-.07-.04-.19-.12-.35l.15-.14,1.13,1.29-.15.14c-.14-.1-.25-.15-.33-.16l-.25.05c-.09.05-.22.15-.39.3l-2.03,1.79c-.23.2-.45.35-.65.46-.19.1-.39.16-.58.19-.17.02-.35,0-.53-.03-.17-.05-.35-.13-.54-.25-.19-.12-.37-.29-.56-.5-.23-.26-.4-.51-.51-.74-.11-.23-.15-.47-.13-.71s.1-.46.23-.67c.13-.21.33-.43.6-.67l2.08-1.83c.17-.15.27-.25.32-.31l.1-.17v-.17c0-.06-.04-.15-.1-.28ZM111,42.66l.19-.07,1.42,3.76-1.19.45-.15-.39.29-.25.2-.22.1-.21v-.23s-.07-.28-.07-.28l-.48-1.27-2.06.78.33.86.15.26.23.1c.1.01.23.01.42-.01l.14.38-1.51.57-.14-.38c.14-.1.25-.18.31-.26l.11-.23c0-.08,0-.18-.06-.3l-.32-.86-2.27.86.47,1.25c.05.13.1.23.15.31l.19.17.27.08h.31c.1,0,.26,0,.46-.02l.15.4-1.41.45-1.4-3.72.19-.07c.1.15.19.24.27.28l.26.03c.1-.02.25-.06.44-.14l3.41-1.29c.18-.07.31-.12.39-.17l.17-.14.06-.16c0-.06,0-.16,0-.3ZM110.01,53.46c.16-.05.49-.14.99-.27.49-.13.94-.24,1.34-.33l.86-.2c.19-.05.32-.08.41-.11l.19-.11.08-.15c.02-.06.03-.15.03-.29l.2-.05.35,1.51-.2.05-.15-.25-.14-.1-.21-.03c-.09,0-.24.03-.44.08l-4.6,1.06-.12-.52,3.29-3.22c.2-.2.35-.35.45-.43l.28-.25-.02-.07c-.21.07-.58.17-1.13.31-.55.14-1.1.27-1.64.4l-.84.19c-.18.04-.32.08-.4.11l-.19.11-.09.16c-.02.07-.03.17-.03.3l-.2.05-.35-1.53.2-.05c.08.16.16.27.23.31l.26.06c.1,0,.26-.03.46-.08l3.55-.82c.19-.04.33-.08.41-.12l.18-.12.09-.15c.02-.06.03-.16.03-.3l.2-.05.3,1.31-2.9,2.85c-.14.14-.27.26-.37.35-.11.1-.23.2-.37.31v.05ZM111.79,79.92l-.17-.14c-.08-.05-.22-.11-.41-.18l-4.04-1.5-.39,1.05-.09.3v.22s.05.19.05.19l.15.2.26.23c.11.08.27.19.49.34l-.15.4-1.56-.67,1.34-3.62.19.07c-.02.18-.01.31.02.39l.18.19c.09.05.23.12.42.19l3.41,1.27c.18.07.32.11.4.13h.22s.16-.08.16-.08l.19-.23.19.07-.63,1.7-.19-.07c.01-.13.02-.22,0-.28l-.06-.16ZM109.49,85.26l-.16-.16c-.08-.05-.2-.13-.37-.21l-3.28-1.59c-.17-.08-.3-.14-.38-.16l-.21-.03-.17.07-.22.21-.19-.09.79-1.63.19.09c-.04.18-.04.31-.02.39l.16.21c.08.06.22.14.4.23l3.28,1.59c.17.08.3.14.39.17l.22.03.16-.07.21-.21.19.09-.79,1.63-.19-.09c.03-.13.04-.22.03-.29l-.05-.17ZM92.52,102.12l-.75.53-.21.22-.04.25c.01.1.05.23.12.4l-.33.23-.94-1.32.33-.23c.13.11.24.19.33.23l.25.05.28-.13.75-.53-1.41-1.98-1.09.77-.26.23-.11.23v.28s.06.31.06.31c.03.1.08.24.14.43l-.35.25-.79-1.25,3.24-2.31.12.17c-.12.14-.19.25-.21.33l.04.26c.04.09.13.22.25.39l2.11,2.97c.11.16.2.27.26.33l.18.13.17.02c.06,0,.16-.03.28-.08l.12.17-3.27,2.33-.74-1.04.34-.24.32.22.27.13.23.04.22-.05.25-.15,1.1-.79-1.28-1.8ZM95.02,99.99c-.32-.35-.57-.69-.73-1.03-.16-.34-.25-.67-.26-.99,0-.28.04-.56.14-.84.08-.23.22-.47.4-.7.18-.23.44-.51.8-.83l1.14-1.06.14.15-.14.26-.02.18.09.2c.05.08.14.18.27.33l2.48,2.67c.13.15.24.24.31.3l.19.1h.17c.06-.02.15-.06.28-.12l.14.15-1.38,1.28c-.4.37-.76.63-1.09.77-.33.15-.66.22-.99.22-.33,0-.65-.09-.97-.26-.32-.17-.63-.42-.95-.77ZM98.62,93.88c-.21-.09-.38-.15-.5-.18-.12-.03-.23-.04-.33-.02l-.31.14-.16-.13,1.26-1.53.16.13c-.07.13-.11.23-.13.31v.21s.16.2.16.2l.26.17c.1.05.22.11.35.16l.52.22,1.27-1.54-.22-.37c-.11-.19-.2-.33-.27-.41l-.2-.21c-.13-.11-.25-.15-.37-.13-.12.02-.24.09-.38.21l-.16-.13,1.17-1.41.16.13c-.08.14-.1.31-.06.5.05.19.15.42.3.7l2.45,4.35-.43.52-4.55-1.87ZM102.82,89.61c-.25-.28-.42-.58-.51-.89-.08-.27-.11-.55-.09-.85.02-.25.09-.51.2-.77.11-.27.3-.61.55-1.01l.83-1.31.17.11c-.04.13-.06.23-.07.29l.03.17.14.17c.07.06.18.14.35.24l3.09,1.94c.17.1.29.17.37.21l.21.05.17-.05.23-.19.17.11-1,1.59c-.29.46-.57.8-.85,1.03-.28.23-.58.38-.9.46-.32.08-.65.08-1,0-.35-.08-.72-.24-1.12-.49-.4-.25-.73-.52-.97-.8ZM112.4,75.85l-3.52-.93c-.18-.05-.32-.08-.4-.09h-.22s-.16.11-.16.11l-.17.25-.2-.05.46-1.75.2.05c0,.18.02.31.05.38l.2.18c.09.04.24.09.44.14l3.52.93c.19.05.33.08.41.09l.22-.02.15-.1.17-.24.2.05-.46,1.75-.2-.05c0-.13,0-.22-.02-.29l-.08-.16-.18-.12c-.08-.04-.22-.08-.41-.13ZM113.01,72.39c-.24-.04-.44-.12-.6-.24-.16-.12-.29-.27-.38-.44s-.17-.38-.23-.64h-.04c-.17.36-.39.62-.66.79-.27.16-.57.22-.89.17-.38-.06-.67-.19-.88-.4-.21-.21-.35-.48-.41-.8-.06-.33-.05-.71.01-1.15l.34-2.19.2.03c.02.18.05.31.09.37l.21.15c.1.03.25.07.45.1l3.6.56c.19.03.33.05.42.04l.22-.04.14-.11s.08-.13.14-.26l.2.03-.36,2.32c-.07.45-.17.8-.31,1.06-.14.26-.31.44-.51.54-.21.1-.45.13-.74.09ZM110.54,65.64c-.22.06-.39.12-.5.17l-.27.19c-.07.07-.12.17-.15.3h-.21s.04-1.98.04-1.98h.2c.03.15.05.26.09.33l.14.16.24.06.31-.03c.11-.02.24-.05.37-.09l.55-.15.05-2-.41-.16c-.2-.08-.36-.13-.47-.16l-.29-.04c-.17,0-.29.04-.37.12-.08.08-.13.22-.17.4h-.2s.04-1.84.04-1.84h.21c.02.16.11.31.26.43s.38.24.67.36l4.62,1.89v.68s-4.74,1.36-4.74,1.36ZM113.75,60.33l-.04-.42c.24-.08.42-.16.55-.24.13-.08.23-.15.3-.23l.14-.23c.02-.08.03-.2.01-.36l-.05-.54-4.29.4c-.16.01-.3.04-.39.06l-.22.11-.12.17c-.03.07-.05.18-.07.32l-.21.02-.18-1.95.21-.02.08.22.1.15.13.09.21.05c.09,0,.22,0,.38-.01l4.29-.4-.05-.54c-.01-.13-.04-.24-.07-.33l-.18-.23c-.09-.07-.21-.12-.36-.17-.15-.05-.34-.09-.57-.12l-.04-.42,1.46-.14.43,4.63-1.46.14ZM109.06,41.36l-.2-.37c.18-.17.32-.31.42-.43.1-.12.16-.23.19-.32l.03-.27c0-.08-.05-.2-.13-.34l-.25-.48-3.81,2.01c-.15.08-.26.15-.34.21l-.17.19-.05.2c0,.07.02.18.06.32l-.18.1-.92-1.74.18-.1.16.17.15.1.16.03.21-.04c.08-.03.2-.08.35-.16l3.81-2.01-.25-.48-.19-.28-.25-.14c-.11-.03-.24-.04-.4-.02-.16.01-.35.05-.57.11l-.2-.38,1.3-.68,2.17,4.11-1.3.69ZM106.08,35.59l-.24-.35c.17-.19.28-.37.34-.53s.07-.31.04-.45c-.03-.14-.11-.3-.23-.48-.1-.15-.23-.27-.37-.35-.14-.08-.29-.12-.45-.11-.16,0-.32.06-.47.17-.16.11-.28.24-.35.38-.07.14-.11.31-.12.5,0,.19.01.46.06.79.06.4.08.73.07.99-.01.25-.07.48-.17.69-.1.21-.26.38-.48.53-.24.17-.48.27-.7.31-.22.04-.43.02-.63-.04-.2-.06-.39-.18-.57-.34-.18-.16-.35-.35-.51-.58-.25-.37-.49-.84-.7-1.41l.95-.65.24.35c-.17.19-.29.36-.35.52-.06.16-.08.32-.05.49.03.17.12.35.25.55.19.28.41.44.65.49.24.05.5-.02.77-.2.17-.12.3-.25.37-.39.08-.14.12-.32.13-.53,0-.21-.02-.51-.07-.89-.06-.37-.07-.68-.06-.92.02-.25.08-.47.17-.65.09-.18.23-.34.41-.46.26-.18.53-.27.8-.28.28,0,.55.07.82.24.27.17.51.41.72.72.12.18.24.36.33.55.1.18.21.43.32.73l-.94.64ZM50.92,110.34v1.25h-2v-1.25h2ZM51.6,118.4h-3.43v-.56l.06-.02c.2-.05.34-.12.41-.19.07-.08.12-.18.15-.32.03-.15.04-.42.04-.82v-2.95c0-.2,0-.37-.03-.49l-.1-.27-.19-.15c-.09-.04-.21-.07-.36-.1h-.07v-.64h2.84v4.59c0,.23,0,.42,0,.54,0,.13.02.22.03.29l.05.17.08.13h0s.15.11.15.11l.28.1h.06v.58ZM59.08,118.4h-2.7v-.81c-.32.29-.44.36-.78.52-.36.17-.93.29-1.26.29-.83,0-1.46-.27-1.87-.82-.41-.53-.62-1.35-.62-2.41,0-.72.13-1.34.37-1.84.25-.5.63-.89,1.12-1.14.49-.26,1.08-.39,1.77-.39.19,0,.39.01.58.04.16.02.36.06.57.11v-.47c0-.44,0-.76-.02-.95-.01-.18-.04-.31-.08-.4l-.16-.19c-.05-.03-.17-.08-.43-.13h-.07v-.57h2.83v7.14c0,.32,0,.55.02.69.01.14.03.24.07.32l.16.2c.08.06.28.2.48.24v.56ZM61.85,116.75c.26.34.67.51,1.22.51.32,0,.62-.06.87-.17.26-.11.55-.32.85-.62l.06-.06.65.67-.06.06c-.46.46-.91.79-1.36.98-.45.19-.97.29-1.56.29-1.05,0-1.85-.28-2.38-.83-.53-.55-.8-1.37-.8-2.43,0-.69.14-1.29.41-1.79.27-.5.67-.89,1.17-1.15.5-.26,1.09-.39,1.75-.39.41,0,.77.05,1.08.14.31.09.58.22.8.38.22.16.41.36.56.59.17.27.3.58.39.93.09.35.14.78.14,1.28v.08s-4.2,0-4.2,0c.01.69.15,1.21.41,1.54ZM72.95,118.4h-2.57v-.81c-.35.32-.52.43-.86.58-.35.15-.91.23-1.3.23s-.73-.07-1.03-.21c-.29-.14-.52-.33-.67-.58-.15-.25-.23-.53-.23-.85,0-.64.34-1.16,1-1.52.63-.35,1.6-.58,2.86-.67v-.52c0-.38-.04-.67-.13-.87-.09-.19-.19-.33-.32-.41-.13-.08-.29-.12-.48-.12s-.36.03-.49.09c-.13.06-.26.18-.37.35-.11.18-.2.43-.25.75v.07h-1.41v-1.28l.05-.02c.41-.17.75-.31,1.02-.4.27-.09.54-.17.81-.23.27-.06.51-.11.71-.13.21-.03.42-.04.63-.04.54,0,.98.07,1.31.21.34.14.59.37.76.69.16.31.25.74.25,1.29v2.45c0,.27,0,.49.02.63.01.14.03.25.06.31l.09.15.13.12c.06.04.26.16.42.18v.56ZM76.99,118.4h-3.41v-.56h.06c.12-.04.22-.07.29-.11l.15-.12.1-.18c.03-.07.05-.18.05-.32,0-.14.01-.35.01-.61v-4.9c0-.36,0-.62-.01-.79,0-.16-.02-.3-.04-.42l-.09-.24-.16-.16c-.08-.07-.28-.17-.45-.19v-.56h2.83v7.26c0,.39.01.66.04.81.02.13.07.24.14.32.07.08.21.14.42.19l.06.02v.56ZM120.32,62.73c-.02,5.18-.72,10.2-2.01,14.98-.42,1.55-.9,3.07-1.44,4.57-.52,1.42-1.09,2.82-1.71,4.19-.7,1.53-1.46,3.02-2.28,4.47-.77,1.37-1.6,2.7-2.48,4-1.02,1.5-2.1,2.95-3.26,4.35-1.83,2.22-3.82,4.3-5.96,6.22-3.01,2.71-6.3,5.1-9.83,7.14-1.09.63-2.2,1.22-3.33,1.78l-.13.06v-.87l.06-.03c18.73-9.34,31.59-28.68,31.59-51.03,0-31.48-25.52-56.99-56.99-56.99S5.55,31.07,5.55,62.54c0,22.36,12.88,41.71,31.63,51.05v.87c-1.17-.57-2.32-1.18-3.44-1.82-3.54-2.04-6.84-4.45-9.86-7.16-2.13-1.92-4.11-3.99-5.93-6.2-1.15-1.4-2.24-2.85-3.26-4.36-.88-1.29-1.7-2.63-2.48-4-.82-1.45-1.58-2.94-2.27-4.46-.62-1.37-1.2-2.77-1.72-4.2-.54-1.49-1.02-3.01-1.44-4.56-1.3-4.78-2-9.8-2.01-14.98v-.18c0-.44,0-.88.01-1.31.05-2.47.27-4.91.62-7.3C9.56,26.11,33.56,4.76,62.54,4.76s53.02,21.38,57.15,49.24c.35,2.36.56,4.77.61,7.22.01.44.02.87.02,1.31v.18Z"/>
    </g>
  </g>
</svg>