<?xml version="1.0" encoding="UTF-8"?>
<svg id="Layer_2" data-name="Layer 2" xmlns="http://www.w3.org/2000/svg" viewBox="0 0 134.22 178.3">
  <defs>
    <style>
      .cls-1 {
        fill: #231f20;
      }

      .cls-2 {
        fill: #fff;
      }
    </style>
  </defs>
  <g id="Layer_1-2" data-name="Layer 1">
    <rect class="cls-2" width="134.22" height="178.3"/>
    <g>
      <g>
        <path class="cls-1" d="M38.15,92.67h-.5c0,5.39-5.86,11.24-11.24,11.24v.5c5.39,0,11.24,5.86,11.24,11.24h.5c0-5.39,5.86-11.24,11.24-11.24v-.5c-5.39,0-11.24-5.86-11.24-11.24Z"/>
        <rect class="cls-1" x="8.97" y="103.91" width="57.85" height=".5" transform="translate(142.06 66.27) rotate(90)"/>
        <rect class="cls-1" x="8.97" y="103.91" width="57.85" height=".5" transform="translate(75.79 208.33) rotate(180)"/>
        <rect class="cls-1" x="66.82" y="103.91" width="28.92" height=".5" transform="translate(162.56 208.33) rotate(180)"/>
      </g>
      <g>
        <g>
          <rect class="cls-1" x="88.61" y="154.12" width="3.36" height="6.66"/>
          <path class="cls-1" d="M94.61,148.84v1.53l.11.02c.56.11.95.24,1.17.38.21.14.37.32.47.54.11.23.18.54.2.93.03.4.04,1.03.04,1.87v7.04c0,1.07-.04,1.82-.12,2.22-.07.38-.21.69-.42.91-.2.22-.58.4-1.13.54l-.11.03v1.38h8.94v-1.38l-.11-.02c-.51-.12-.87-.29-1.07-.51-.2-.22-.33-.54-.39-.94-.06-.42-.1-1.17-.1-2.23v-6.63c0-.5.16-.98.47-1.43.32-.45.71-.8,1.18-1.05.47-.25.91-.38,1.33-.38.32,0,.59.04.79.11.2.07.38.18.53.31.15.14.29.32.4.54.12.23.22.5.29.81.07.31.12.73.15,1.24.03.52.04,1.16.04,1.9v4.59c0,1.08-.04,1.84-.11,2.25-.07.39-.2.7-.39.92-.19.22-.55.39-1.07.5l-.11.03v1.38h8.89v-1.38l-.11-.03c-.42-.11-.74-.24-.93-.39-.19-.15-.33-.34-.42-.57-.09-.24-.15-.56-.18-.95-.03-.41-.04-1-.04-1.77v-5.59c0-.67.02-1.15.06-1.44.04-.28.11-.54.22-.76.11-.22.25-.43.43-.61.19-.19.41-.37.68-.56.26-.18.52-.31.77-.4.25-.09.53-.13.82-.13.43,0,.78.07,1.04.22.26.15.49.39.68.73.19.35.33.84.4,1.46.07.63.11,1.47.11,2.49v4.59c0,1.07-.04,1.82-.12,2.24-.07.4-.21.71-.39.93-.18.22-.54.38-1.05.5l-.11.03v1.38h8.99v-1.38l-.11-.03c-.31-.08-.58-.17-.8-.28-.21-.1-.37-.23-.48-.38-.12-.15-.21-.35-.27-.59-.07-.25-.11-.6-.13-1.02-.02-.44-.03-.91-.03-1.41v-6.25c0-1.06-.1-1.98-.28-2.74-.19-.77-.5-1.42-.92-1.94-.42-.52-.97-.91-1.62-1.16-.65-.24-1.47-.37-2.45-.37s-1.96.22-2.87.67c-.87.42-1.9,1.14-3.05,2.15-.25-.61-.57-1.11-.95-1.5-.42-.43-.94-.76-1.55-.98-.6-.22-1.37-.33-2.27-.33s-1.86.21-2.75.61c-.87.4-1.44,1.04-2.52,2h-.19s.01-2.45.01-2.45"/>
        </g>
        <path class="cls-1" d="M28.62,141.89v1.48l.18.03c.69.13,1,.27,1.14.35.19.12.33.29.42.51.1.24.17.6.2,1.07.03.49.05,1.33.05,2.51v1.24c-.58-.14-1.09-.24-1.53-.3-.51-.06-1.03-.09-1.55-.09-1.82,0-3.41.35-4.71,1.03-1.31.69-2.31,1.71-2.97,3.04-.66,1.32-.99,2.96-.99,4.88,0,2.83.55,4.98,1.64,6.41,1.1,1.44,2.77,2.17,4.97,2.17.88,0,2.4-.32,3.36-.77.91-.43,1.21-.61,2.03-1.38l.03,2.15h7.17v-1.49h0c-.52-.11-1.05-.48-1.27-.64-.19-.14-.35-.33-.44-.52-.09-.21-.16-.5-.18-.86-.03-.38-.04-1-.04-1.84v-18.98M24.65,156.86c0-1.25.13-2.35.39-3.26.25-.89.63-1.58,1.12-2.05.49-.46,1.05-.68,1.73-.68.93,0,1.6.29,2.04.9.45.62.68,1.59.68,2.89v5.56c0,.6-.16,1.13-.47,1.59-.32.46-.71.81-1.17,1.03-.47.22-.94.34-1.41.34-.99,0-1.69-.49-2.16-1.49-.49-1.04-.74-2.66-.74-4.81Z"/>
        <path class="cls-1" d="M47.23,166.23c1.55,0,2.94-.26,4.14-.77,1.2-.51,2.42-1.39,3.63-2.6l.15-.15-1.73-1.78-.16.15c-.81.78-1.57,1.33-2.26,1.64-.69.3-1.47.46-2.33.46-1.45,0-2.54-.45-3.24-1.34-.69-.87-1.05-2.25-1.09-4.1h11.16v-.22c-.01-1.33-.14-2.47-.38-3.41-.23-.92-.58-1.75-1.03-2.47-.39-.61-.89-1.14-1.48-1.57-.59-.43-1.31-.77-2.14-1.01-.82-.24-1.79-.36-2.87-.36-1.75,0-3.31.35-4.64,1.03-1.34.69-2.38,1.72-3.11,3.06-.72,1.33-1.09,2.94-1.09,4.77,0,2.84.72,5.01,2.13,6.47,1.42,1.46,3.55,2.19,6.33,2.19ZM44.45,155.5c.12-1.48.42-2.63.91-3.42.5-.81,1.14-1.2,1.97-1.2s1.46.37,1.85,1.13c.39.76.61,1.94.67,3.49h-5.41Z"/>
        <path class="cls-1" d="M59.63,165.68c.77.36,1.69.55,2.73.55s2.52-.2,3.45-.61c.89-.39,1.35-.69,2.28-1.54v2.15s6.84,0,6.84,0v-1.49h0c-.43-.06-.96-.38-1.12-.49-.13-.09-.24-.22-.34-.32-.1-.1-.18-.23-.24-.39-.07-.17-.12-.45-.15-.83-.03-.39-.05-.96-.05-1.68v-6.51c0-1.44-.22-2.59-.66-3.42-.44-.84-1.12-1.46-2.02-1.83-.88-.37-2.05-.55-3.49-.55-.56,0-1.12.03-1.68.1-.55.07-1.19.18-1.9.35-.7.16-1.42.37-2.14.61-.72.25-1.63.6-2.71,1.06l-.13.06v3.4h3.73l.03-.18c.15-.85.37-1.51.67-1.98.29-.46.62-.77.97-.93.36-.16.8-.25,1.31-.25s.93.11,1.28.31c.35.2.64.57.86,1.08.23.53.35,1.31.35,2.31v1.38c-3.37.25-5.93.86-7.61,1.79-1.76.98-2.66,2.34-2.66,4.05,0,.85.2,1.61.6,2.27.4.66,1,1.18,1.78,1.54ZM63.83,159.01c.8-.55,2.04-.86,3.7-.92v2.55c0,.47-.13.92-.39,1.34-.26.42-.62.76-1.07,1.02-.45.25-.93.38-1.42.38-.65,0-1.15-.16-1.51-.49-.35-.32-.53-.78-.53-1.42,0-1.09.4-1.9,1.22-2.46Z"/>
        <path class="cls-1" d="M76.42,141.89v1.49h0c.47.06.99.33,1.21.5.17.13.32.27.42.43.11.16.18.38.23.65.05.3.09.67.1,1.11.02.45.03,1.15.03,2.1v13.02c0,.7-.01,1.25-.03,1.63-.02.36-.07.64-.14.84-.07.2-.16.36-.26.47-.09.12-.23.22-.4.31-.18.1-.44.18-.77.26l-.17.04v1.49h9.06v-1.49l-.17-.04c-.55-.13-.93-.31-1.11-.51-.19-.21-.31-.49-.38-.85-.07-.39-.1-1.11-.1-2.15v-19.29"/>
        <g>
          <rect class="cls-1" x="11.08" y="141.89" width="5.31" height="3.33"/>
          <path d="M18.02,164.69c-.31-.07-.56-.16-.75-.25-.17-.09-.31-.18-.4-.28h0c-.09-.11-.17-.23-.22-.35-.06-.13-.1-.28-.14-.45-.03-.17-.06-.43-.08-.76-.02-.34-.03-.83-.03-1.45l-.02-10.85v-4.26h-7.55v1.68l.18.03c.39.08.71.17.95.27.22.09.39.22.51.39.13.17.22.41.26.72.05.3.07.7.07,1.17l.02,10.87c0,1.05-.04,1.78-.11,2.17-.07.36-.2.65-.39.85-.19.2-.56.38-1.1.51l-.16.04v1.5h9.12v-1.5l-.17-.04Z"/>
        </g>
      </g>
    </g>
  </g>
</svg>