<?xml version="1.0" encoding="UTF-8"?>
<svg id="Layer_2" data-name="Layer 2" xmlns="http://www.w3.org/2000/svg" viewBox="0 0 249.89 112.85">
  <defs>
    <style>
      .cls-1 {
        fill: #231f20;
      }
    </style>
  </defs>
  <g id="Layer_1-2" data-name="Layer 1">
    <g>
      <g>
        <path class="cls-1" d="M23.67,36.63v1.77l.21.04c.83.16,1.2.32,1.36.42.22.15.39.35.5.61.12.29.2.72.24,1.28.04.58.06,1.59.06,3.01v1.48c-.69-.17-1.3-.29-1.83-.35-.61-.08-1.24-.11-1.86-.11-2.18,0-4.08.41-5.64,1.23-1.57.82-2.77,2.05-3.56,3.64-.79,1.58-1.19,3.55-1.19,5.84,0,3.39.66,5.97,1.96,7.67,1.32,1.73,3.32,2.6,5.95,2.6,1.06,0,2.87-.38,4.02-.92,1.09-.51,1.45-.73,2.43-1.66l.04,2.58h8.59v-1.79h0c-.62-.13-1.26-.57-1.52-.77-.23-.17-.42-.39-.52-.63-.11-.25-.19-.6-.22-1.03-.04-.45-.05-1.19-.05-2.2v-22.72M18.92,54.56c0-1.5.16-2.81.47-3.91.3-1.07.75-1.89,1.34-2.45.58-.55,1.26-.82,2.07-.82,1.12,0,1.92.35,2.45,1.07.54.74.81,1.9.81,3.46v6.66c0,.72-.19,1.35-.57,1.9-.38.55-.85.97-1.41,1.23-.56.27-1.13.4-1.69.4-1.18,0-2.03-.58-2.59-1.79-.59-1.25-.88-3.19-.88-5.77Z"/>
        <path class="cls-1" d="M45.96,65.77c1.85,0,3.52-.31,4.95-.92,1.43-.61,2.89-1.66,4.34-3.11l.18-.18-2.07-2.13-.19.18c-.97.94-1.88,1.6-2.71,1.96-.82.36-1.76.55-2.78.55-1.73,0-3.04-.54-3.88-1.61-.82-1.05-1.26-2.7-1.3-4.91h13.37v-.26c-.02-1.59-.17-2.96-.45-4.08-.27-1.1-.69-2.1-1.24-2.95-.47-.73-1.06-1.36-1.77-1.88-.71-.52-1.57-.92-2.56-1.21-.98-.29-2.14-.43-3.44-.43-2.1,0-3.97.42-5.56,1.24-1.6.83-2.85,2.06-3.73,3.66-.87,1.6-1.31,3.52-1.31,5.71,0,3.4.86,6.01,2.55,7.75,1.7,1.74,4.25,2.63,7.58,2.63ZM42.63,52.92c.14-1.77.51-3.15,1.09-4.1.59-.97,1.37-1.44,2.36-1.44s1.75.44,2.21,1.36c.46.92.74,2.32.81,4.18h-6.48Z"/>
        <path class="cls-1" d="M60.81,65.11c.92.43,2.02.65,3.26.65s3.02-.24,4.14-.73c1.07-.47,1.61-.83,2.74-1.85v2.58s8.19,0,8.19,0v-1.79h0c-.51-.07-1.15-.45-1.34-.58-.15-.11-.29-.27-.4-.38-.11-.11-.21-.27-.29-.47-.08-.21-.14-.54-.18-1-.04-.47-.06-1.15-.06-2.01v-7.8c0-1.73-.27-3.11-.79-4.1-.53-1.01-1.35-1.75-2.42-2.2-1.05-.44-2.46-.66-4.18-.66-.67,0-1.34.04-2.01.12-.66.08-1.43.22-2.27.41-.84.19-1.7.44-2.57.74-.86.29-1.95.72-3.24,1.27l-.16.07v4.07h4.46l.04-.22c.18-1.01.45-1.81.81-2.37.35-.55.74-.92,1.16-1.11.43-.2.96-.3,1.57-.3s1.11.13,1.53.37c.41.24.76.68,1.03,1.3.28.64.42,1.57.42,2.76v1.66c-4.03.3-7.1,1.03-9.11,2.14-2.11,1.17-3.18,2.8-3.18,4.85,0,1.02.24,1.93.72,2.71.48.79,1.2,1.41,2.14,1.85ZM65.84,57.13c.96-.66,2.45-1.03,4.43-1.11v3.05c0,.56-.16,1.1-.47,1.6-.31.51-.74.92-1.28,1.22-.53.3-1.11.46-1.71.46-.77,0-1.38-.2-1.81-.58-.42-.38-.63-.94-.63-1.7,0-1.31.48-2.27,1.46-2.94Z"/>
        <path class="cls-1" d="M80.91,36.63v1.78h0c.56.07,1.18.4,1.44.6.2.16.39.33.51.51.13.19.22.45.28.78.06.36.1.8.12,1.33.02.53.03,1.38.03,2.52v15.59c0,.84-.01,1.5-.04,1.95-.03.43-.09.77-.17,1-.09.23-.19.43-.31.57-.11.14-.27.26-.48.37-.22.11-.53.22-.93.31l-.2.04v1.79h10.85v-1.78l-.2-.05c-.66-.16-1.11-.37-1.33-.61-.22-.25-.38-.59-.45-1.02-.08-.46-.12-1.33-.12-2.57v-23.1"/>
        <g>
          <path class="cls-1" d="M0,45.05v2.01l.21.04c.47.09.85.2,1.13.32.26.11.47.26.62.47.15.21.26.5.32.86.06.39.09.91.09,1.56v9.39c0,1.26-.04,2.13-.13,2.6-.08.43-.24.78-.47,1.02-.23.24-.67.45-1.31.61l-.2.05v1.8h10.92v-1.8l-.2-.05c-.37-.09-.68-.19-.9-.3-.21-.1-.37-.22-.47-.34h0c-.11-.13-.2-.27-.27-.42-.07-.16-.12-.34-.16-.54-.04-.21-.07-.51-.09-.91-.02-.41-.03-.99-.03-1.73v-14.62"/>
          <rect class="cls-1" x="2.66" y="40.1" width="6.36" height="3.99"/>
        </g>
      </g>
      <g>
        <path class="cls-1" d="M182.94,20.26h-.58c0,6.26-6.81,13.07-13.07,13.07v.58c6.26,0,13.07,6.81,13.07,13.07h.58c0-6.26,6.81-13.07,13.07-13.07v-.58c-6.26,0-13.07-6.81-13.07-13.07Z"/>
        <rect class="cls-1" x="149.03" y="33.33" width="67.24" height=".58" transform="translate(216.27 -149.03) rotate(90)"/>
        <rect class="cls-1" x="149.03" y="33.33" width="67.24" height=".58" transform="translate(365.3 67.24) rotate(180)"/>
        <rect class="cls-1" x="216.27" y="33.33" width="33.62" height=".58" transform="translate(466.16 67.24) rotate(180)"/>
      </g>
      <g>
        <path class="cls-1" d="M0,80.03v2.63l.21.04c1.03.21,1.76.45,2.17.72.39.26.69.6.88,1.02.2.43.33,1.02.38,1.75.06.75.08,1.93.08,3.51v13.25c0,2.02-.07,3.42-.21,4.17-.14.72-.39,1.29-.77,1.71-.38.41-1.08.75-2.1,1.02l-.2.05v2.6h16.56v-2.6l-.2-.05c-.95-.22-1.61-.55-1.97-.97-.37-.42-.61-1.02-.73-1.77-.12-.79-.18-2.2-.18-4.2v-12.47c0-.95.29-1.85.87-2.68.59-.84,1.32-1.51,2.19-1.98.86-.47,1.69-.71,2.47-.71.59,0,1.09.07,1.47.21.38.14.71.34.98.59.28.26.53.6.75,1.02.22.43.4.94.53,1.51.13.59.22,1.37.28,2.33.06.98.08,2.18.08,3.58v8.64c0,2.04-.07,3.46-.2,4.23-.13.73-.37,1.31-.73,1.73-.35.41-1.02.72-1.99.95l-.2.05v2.6h16.46v-2.6l-.2-.05c-.79-.2-1.37-.45-1.73-.74-.35-.28-.61-.64-.77-1.06-.17-.45-.28-1.05-.34-1.79-.06-.76-.08-1.89-.08-3.33v-10.51c0-1.25.04-2.16.11-2.7.07-.53.21-1.01.41-1.44.2-.42.47-.81.8-1.15.34-.35.77-.7,1.25-1.05.48-.34.96-.59,1.43-.76.46-.16.98-.24,1.52-.24.8,0,1.45.14,1.93.42.48.28.9.74,1.26,1.38.36.65.61,1.58.74,2.75.13,1.19.2,2.77.2,4.69v8.64c0,2.01-.07,3.43-.21,4.21-.14.75-.38,1.33-.73,1.75-.34.41-.99.72-1.94.95l-.2.05v2.6h16.66v-2.6l-.2-.05c-.58-.14-1.08-.32-1.49-.53-.38-.19-.69-.44-.9-.71-.21-.28-.38-.66-.51-1.12-.13-.47-.21-1.12-.24-1.92-.03-.82-.05-1.71-.05-2.65v-11.77c0-1.99-.18-3.72-.53-5.16-.35-1.45-.93-2.68-1.71-3.65-.79-.98-1.8-1.71-3.01-2.17-1.2-.46-2.72-.7-4.53-.7s-3.63.42-5.32,1.25c-1.61.79-3.51,2.15-5.66,4.05-.46-1.14-1.05-2.09-1.76-2.82-.78-.81-1.75-1.43-2.88-1.85-1.12-.42-2.54-.63-4.21-.63s-3.44.39-5.1,1.15c-1.62.75-2.66,1.02-4.67,2.81h-.35l.02-3.41"/>
        <path class="cls-1" d="M89.08,96.26c-.02-2.53-.26-4.72-.71-6.51-.43-1.75-1.08-3.33-1.94-4.7-.73-1.16-1.67-2.16-2.78-2.97-1.11-.82-2.46-1.46-4.02-1.92-1.55-.45-3.37-.68-5.41-.68-3.31,0-6.26.66-8.76,1.97-2.51,1.31-4.48,3.27-5.85,5.82-1.37,2.54-2.06,5.6-2.06,9.09,0,5.41,1.35,9.56,4.01,12.32,2.66,2.77,6.67,4.17,11.93,4.17,2.93,0,5.55-.49,7.81-1.46,2.25-.97,4.56-2.64,6.85-4.96l.18-.18-3.07-3.2-.19.18c-1.56,1.51-3.02,2.58-4.35,3.17-1.32.59-2.83.89-4.48.89-2.81,0-4.92-.89-6.28-2.64-1.34-1.73-2.05-4.46-2.1-8.12h21.24v-.26ZM69.8,85.84c.97-1.59,2.24-2.37,3.88-2.37s2.89.74,3.65,2.25c.76,1.51,1.2,3.83,1.3,6.9h-10.61c.22-2.94.81-5.22,1.77-6.79Z"/>
        <g>
          <path class="cls-1" d="M149.29,79.99v3.14l.21.04c.74.14,1.35.32,1.81.51.43.18.78.45,1.03.79.25.35.43.82.52,1.41.1.62.15,1.45.15,2.47v14.76c0,1.99-.07,3.37-.21,4.11-.14.71-.4,1.28-.77,1.68-.38.4-1.09.74-2.13,1l-.2.05v2.56h16.86v-2.56l-.2-.05c-.6-.14-1.09-.3-1.45-.49-.35-.17-.61-.37-.79-.57h0c-.18-.21-.33-.45-.45-.7-.11-.25-.2-.55-.27-.88-.06-.33-.11-.82-.15-1.46-.03-.64-.05-1.56-.05-2.73v-23.08"/>
          <rect class="cls-1" x="153.49" y="72.56" width="9.7" height="5.97"/>
        </g>
        <path class="cls-1" d="M192.33,103.67c-1.54,1.37-2.88,2.32-4.01,2.84-1.11.52-2.31.78-3.56.78-1.71,0-3.11-.45-4.15-1.33-1.05-.89-1.82-2.19-2.3-3.85-.48-1.69-.73-3.8-.73-6.26s.17-4.54.5-6.15c.33-1.6.77-2.89,1.33-3.83.54-.92,1.17-1.58,1.87-1.95.71-.37,1.46-.56,2.24-.56,1.17,0,2.05.42,2.67,1.27.64.88,1.13,2.32,1.46,4.28l.04.22h7.11v-8.19l-.19-.05c-1.48-.43-3.14-.77-4.94-1.02-1.81-.25-3.64-.37-5.44-.37-3.39,0-6.45.67-9.09,2-2.65,1.33-4.71,3.32-6.12,5.91-1.41,2.58-2.13,5.69-2.13,9.22,0,5.24,1.31,9.3,3.89,12.07,2.58,2.77,6.38,4.17,11.28,4.17,2.44,0,4.72-.45,6.78-1.35,2.06-.89,4.22-2.4,6.42-4.46l.18-.17-2.92-3.37-.2.17Z"/>
        <path class="cls-1" d="M223.42,98.33c-.71-1.21-1.75-2.3-3.09-3.23-1.33-.92-3.07-1.81-5.18-2.64-2.27-.91-3.82-1.64-4.61-2.17-.77-.52-1.3-1.05-1.59-1.59-.29-.53-.44-1.19-.44-1.96,0-1.08.39-1.89,1.2-2.48.82-.61,1.95-.91,3.36-.91.99,0,1.85.14,2.55.42.69.27,1.34.77,1.92,1.48.59.72,1.15,1.77,1.65,3.1l.06.17h4.86v-7.96l-.22-.04c-2.47-.43-4.52-.71-6.09-.84-1.57-.13-3.19-.19-4.81-.19-2.78,0-5.3.38-7.47,1.14-2.19.76-3.9,1.88-5.09,3.32-1.2,1.45-1.8,3.19-1.8,5.17,0,1.21.25,2.33.73,3.32.48.99,1.14,1.89,1.96,2.69.82.79,1.79,1.51,2.88,2.14,1.09.62,2.26,1.2,3.5,1.71,2.17.91,3.72,1.66,4.6,2.21.87.54,1.49,1.11,1.86,1.7.36.57.55,1.28.55,2.1,0,1.32-.39,2.29-1.2,2.97-.81.68-2.03,1.03-3.64,1.03-1.87,0-3.38-.47-4.49-1.4-1.11-.93-1.94-2.36-2.46-4.25l-.05-.19h-4.95v8.14l.2.05c4.51,1,8.66,1.51,12.35,1.51,2.04,0,3.94-.2,5.64-.6,1.71-.4,3.2-1.02,4.42-1.85,1.24-.83,2.21-1.91,2.9-3.19.69-1.28,1.04-2.83,1.04-4.6,0-1.62-.36-3.07-1.07-4.29Z"/>
        <path d="M131.28,83.85v-3.86h-26.95s0-7.43,0-7.43h-8.54c-.11,1.7-.26,2.86-.46,3.99-.21,1.11-.49,2.02-.83,2.71-.34.67-.81,1.2-1.42,1.6-.61.4-1.59.71-2.91.91l-.22.03v2.67h4.19v17.48c0,3.5.85,6.16,2.53,7.91,1.68,1.75,4.25,2.63,7.64,2.63,1.81,0,3.56-.33,5.19-.99,1.62-.65,3.45-1.79,5.43-3.39l.2-.16-2.44-3.08-.21.17c-.58.49-1.15.88-1.67,1.14-.52.26-1.03.45-1.5.55-.47.1-1.02.15-1.62.15-.76,0-1.38-.24-1.9-.74-.52-.5-.89-1.3-1.11-2.39-.23-1.12-.35-2.89-.35-5.25v-11c0-1.62,1.21-3.15,2.7-3.15h10.06s.85,0,.85,0c1.16,0,1.63.45,1.88.71.32.34.55.75.74,1.16.12.27.2.64.26,1.05.03.7.04,1.62.04,2.75v13.04c0,1.99-.07,3.37-.21,4.11-.14.71-.39,1.28-.77,1.68-.38.41-1.08.74-2.1,1l-.2.05v2.56h17.03v-2.57l-.22-.04c-1.06-.18-1.81-.48-2.24-.9s-.72-1.01-.86-1.75c-.15-.78-.23-2.19-.23-4.17v-10.13c0-1.08.03-1.91.1-2.44.06-.53.2-1.05.4-1.57.2-.5.54-1.01,1.02-1.5.48-.49,1-.88,1.57-1.15.55-.27,1.06-.4,1.51-.4.96,0,1.7.3,2.27.9.58.62,1.07,1.54,1.43,2.72l.06.18h6.51v-9.24l-.21-.04c-1.51-.28-2.97-.42-4.33-.42-2.04,0-3.97.42-5.77,1.11-1.42.55-2.05,1.03-3.22,1.83"/>
      </g>
    </g>
  </g>
</svg>