<?xml version="1.0" encoding="UTF-8"?>
<svg id="Layer_2" data-name="Layer 2" xmlns="http://www.w3.org/2000/svg" viewBox="0 0 473.91 290.17">
  <g id="Layer_1-2" data-name="Layer 1">
    <g>
      <path d="M299.81,219.23v18.24h-.28c-11.58-2.03-23.86,4.05-23.86,18.78v32.15h-22.59v-69.16h22.59v9.61l.59-.02c3.53-7.7,7.82-10.73,15.73-10.73,1.98,0,5.28.61,7.82,1.15Z"/>
      <path d="M6.47,139.52c-3.64,0-6.47,1.93-6.47,5.49s2.83,5.49,6.47,5.49,6.47-1.86,6.47-5.49-2.83-5.49-6.47-5.49Z"/>
      <rect y="155.23" width="12.94" height="39.62"/>
      <path d="M46.57,159.17h-.16c-1.62-2.09-5.99-5.19-11.97-5.19-11,0-18.04,8.05-18.04,21.05s7.04,21.05,18.04,21.05c5.99,0,10.35-3.1,11.97-5.19h.16v3.95h12.94v-55.33h-12.94v19.66ZM37.84,186.8c-5.26,0-8.49-4.02-8.49-11.76s3.24-11.76,8.49-11.76,8.49,4.02,8.49,11.76-3.24,11.76-8.49,11.76Z"/>
      <path d="M84.33,153.99c-13.18,0-21.35,8.98-21.35,21.05s8.33,21.05,22.08,21.05c11.24,0,17.71-5.26,19.98-13.23h-12.86c-.81,1.93-2.91,3.95-7.36,3.95s-8.9-2.94-8.9-8.51h29.77c0-14.39-7.2-24.3-21.35-24.3ZM75.92,170.78c0-5.49,3.48-8.28,8.41-8.28s8.41,2.79,8.41,8.28h-16.82Z"/>
      <path d="M147.57,188.97v-18.19c0-12.46-6.47-16.79-18.12-16.79-13.51,0-19.17,6.42-19.57,14.01h12.13c.4-3.79,2.67-5.49,7.36-5.49,3.56,0,5.26,1.39,5.26,3.71,0,3.33-5.26,4.1-10.6,5.11-9.71,1.86-15.77,5.49-15.77,13.39,0,6.66,4.85,11.38,13.59,11.38,5.5,0,10.35-2.48,13.02-5.42h.16c0,2.79,1.62,5.42,7.44,5.42,2.59,0,4.93-.31,7.52-1.24v-2.94c-1.62,0-2.43-.85-2.43-2.94ZM134.62,180.38c0,3.79-2.67,7.2-8.25,7.2-3.15,0-5.18-1.39-5.18-4.64,0-2.48,1.7-4.49,6.79-5.57,2.99-.62,5.02-1.16,6.63-1.78v4.8Z"/>
      <rect x="153.32" y="139.52" width="12.94" height="55.33"/>
      <path d="M112.1,241.27v46.74h-22.87v-39.85c0-10.4-2.26-13.91-10.31-13.91-7.2,0-11.72,4.19-11.72,13.78v39.98h-22.59v-39.85c0-10.4-2.26-13.91-10.31-13.91-7.06,0-11.72,4.19-11.72,13.78v39.98H0v-69.16h22.59v10h.28c3.81-6.35,11.72-12.16,22.59-12.16,9.46,0,16.1,5,18.92,12.16h.28c6.21-6.89,12.57-12.16,24.28-12.16,14.54,0,23.15,8.78,23.15,24.59Z"/>
      <path d="M169.28,267.07h22.45c-3.95,13.91-15.25,23.1-34.87,23.1-24,0-38.54-15.13-38.54-36.74s14.26-36.74,37.27-36.74c24.71,0,37.27,17.29,37.27,42.42h-51.96c0,9.73,7.48,14.86,15.53,14.86s11.44-3.51,12.85-6.89ZM140.9,246h29.37c0-9.59-6.07-14.45-14.68-14.45s-14.68,4.86-14.68,14.45Z"/>
      <path d="M304.4,201.01c0-6.21,4.94-9.59,11.29-9.59s11.29,3.38,11.29,9.59-4.94,9.59-11.29,9.59-11.29-3.24-11.29-9.59ZM326.99,218.85v69.16h-22.59v-69.16h22.59Z"/>
      <path d="M367.28,273.78c-9.46,0-14.54-7.56-14.54-20.53s5.22-20.53,14.54-20.53c7.31,0,10.74,4.06,12.15,8.55h22.34c-3.06-14.42-15.3-24.76-34.91-24.76-22.31,0-36.71,15.26-36.71,36.74s14.4,36.74,37.27,36.74c19.25,0,31.81-10.23,34.44-24.76h-22.42c-1.42,4.74-4.84,8.55-12.16,8.55Z"/>
      <path d="M473.91,267.61c0,14.59-11.58,22.56-31.63,22.56-25.84,0-35.72-11.08-36.43-25.13h21.18c.71,6.89,5.51,10.27,14.4,10.27,6.35,0,9.88-2.03,9.88-5.94,0-5.94-6.78-6.75-18.21-9.19-12.28-2.57-25.84-6.89-25.84-21.34,0-12.56,11.3-22.15,31.63-22.15,23.15,0,32.19,11.21,32.9,23.37h-21.18c-.71-5.54-3.81-8.51-11.15-8.51-6.35,0-9.6,2.16-9.6,5.54,0,4.86,4.52,5,15.67,7.29,14.26,2.97,28.38,7.56,28.38,23.23Z"/>
      <path d="M236.15,271.4c-1.8.64-3.5.95-5.1.95-3.59,0-5.39-1.59-5.39-4.77v-32.88l22.83-.03v-15.77h-35.87v-1.23l3.54-.27c3.02-.18,5.48-1.11,7.37-2.8,1.89-1.68,2.88-4.07,2.98-7.16l.1-6.43h-19.69l-.12,13.25c0,1.64-.52,2.82-1.56,3.55-1.04.73-2.22,1.09-3.54,1.09h-8.93v15.77h14.13l-.38,34.13c0,5.91,1.96,10.82,5.88,14.73,3.92,3.91,9.52,5.86,16.8,5.86,3.69,0,7.35-.59,10.99-1.77,3.64-1.18,6.4-2.59,8.29-4.23l-7.37-15.14c-1.51,1.45-3.17,2.5-4.96,3.14Z"/>
    </g>
    <g>
      <path d="M286.59,51.16h-1.47c7.37,15.8-1.8,32.99-17.61,32.99l.34.74.34.74c15.8,0,41,17.18,48.37,32.99h1.47c-7.37-15.8,1.8-32.99,17.61-32.99l-.34-.74-.34-.74c-15.8,0-41-17.18-48.37-32.99Z"/>
      <polygon points="336.71 158.64 262.74 0 261.27 0 335.24 158.64 336.71 158.64"/>
      <polygon points="216.36 84.14 386.12 84.14 386.8 85.62 217.04 85.62 216.36 84.14"/>
      <path d="M473.08,84.14h-86.96l.86,1.47h86.93c-.28-.49-.55-.98-.84-1.47Z"/>
    </g>
  </g>
</svg>