<?xml version="1.0" encoding="UTF-8"?>
<svg id="Layer_2" data-name="Layer 2" xmlns="http://www.w3.org/2000/svg" viewBox="0 0 510.64 202.07">
  <g id="Layer_1-2" data-name="Layer 1">
    <path d="M66.98,106.15s.08-.08.12-.12l.12-.13h-.01s-.08.07-.08.07c-.05.06-.09.11-.14.17Z" fill="#14304c"/>
    <g>
      <path d="M29.97,101.2c-.67-.35-1.18-.71-1.52-1.11-.35-.42-.64-.87-.85-1.36s-.38-1.07-.51-1.72-.21-1.6-.28-2.83c-.07-1.26-.1-3.05-.1-5.33v-45.07H0v6.13l.4.07c1.42.27,2.58.62,3.46,1,.82.36,1.49.87,1.97,1.53.48.68.82,1.6,1.01,2.75.18,1.21.28,2.83.28,4.81v28.82c0,3.87-.14,6.59-.41,8.04-.26,1.39-.75,2.49-1.48,3.28-.72.79-2.1,1.45-4.09,1.97l-.38.1v4.99h32.36v-5l-.38-.09c-1.15-.27-2.09-.59-2.78-.95Z" fill="#14304c"/>
      <rect x="8.05" y="29.17" width="18.6" height="11.87" fill="#14304c"/>
    </g>
    <path d="M59.56,107.22c3.05,0,8.28-1.15,11.59-2.79,3.13-1.54,4.17-2.22,7.02-5.01l.12,7.81h24.76v-5.41c-1.8-.37-3.63-1.73-4.39-2.33-.64-.52-1.21-1.19-1.51-1.9-.33-.76-.53-1.81-.63-3.12-.1-1.37-.15-3.61-.15-6.66V18.99h-25.95v5.37l.6.12c2.39.47,3.46.96,3.92,1.28.64.45,1.12,1.05,1.45,1.86.34.86.59,2.16.7,3.86.12,1.76.18,4.82.18,9.12v4.49c-1.99-.52-3.74-.88-5.27-1.06-1.76-.23-3.55-.35-5.35-.35-6.3,0-11.75,1.25-16.24,3.71-4.51,2.49-7.97,6.2-10.26,11.04-2.26,4.78-3.42,10.75-3.42,17.68,0,10.26,1.91,18.07,5.65,23.24,3.8,5.22,9.57,7.89,17.16,7.89ZM56.7,73.3c0-4.53.45-8.53,1.34-11.83.86-3.24,2.17-5.73,3.87-7.42,1.67-1.67,3.62-2.47,5.95-2.47,3.21,0,5.51,1.06,7.06,3.25,1.55,2.23,2.35,5.76,2.35,10.49v20.16c0,2.16-.55,4.1-1.63,5.76-1.1,1.67-2.46,2.92-4.05,3.73-1.62.81-3.25,1.22-4.87,1.22-3.4,0-5.84-1.77-7.48-5.41-1.69-3.78-2.54-9.66-2.54-17.45h-.01Z" fill="#14304c"/>
    <path d="M246.83,27.76c.37.56.63,1.37.8,2.36.18,1.08.3,2.42.36,4.02.05,1.61.1,4.17.1,7.63v47.22c0,2.55-.04,4.53-.12,5.9-.08,1.31-.25,2.33-.49,3.04-.26.71-.55,1.28-.88,1.73-.32.42-.78.81-1.37,1.14-.62.35-1.52.66-2.66.92l-.59.13v5.41h31.29v-5.4l-.58-.14c-1.91-.49-3.2-1.11-3.84-1.86-.64-.75-1.08-1.78-1.3-3.08-.23-1.4-.36-4.02-.36-7.8V18.99h-25.97v5.38c1.6.22,3.4,1.19,4.16,1.83.58.47,1.11.99,1.47,1.55Z" fill="#14304c"/>
    <path d="M183.8,76.64c-6.08,3.55-9.18,8.51-9.18,14.72,0,3.09.7,5.85,2.08,8.25,1.39,2.38,3.46,4.27,6.14,5.61l.03.03h.03c2.66,1.3,5.82,1.96,9.41,1.96s8.7-.72,11.92-2.21c3.07-1.43,4.65-2.52,7.89-5.61v7.84h23.61v-5.42c-1.48-.22-3.31-1.37-3.85-1.77-.44-.32-.82-.81-1.17-1.17s-.62-.82-.84-1.43c-.23-.63-.41-1.64-.52-3.03-.12-1.43-.18-3.47-.18-6.11v-23.66c0-5.23-.77-9.43-2.28-12.44-1.54-3.06-3.87-5.31-6.97-6.68-3.02-1.33-7.08-2-12.04-2-1.92,0-3.87.13-5.8.37-1.91.25-4.1.66-6.56,1.25-2.4.58-4.9,1.33-7.41,2.23-2.47.89-5.61,2.18-9.35,3.84l-.45.2v14.3h12.95l.02-2.59c.51-3.07,1.29-5.49,2.32-7.21,1.02-1.66,2.14-2.8,3.35-3.37,1.25-.59,2.77-.89,4.51-.89s3.2.37,4.42,1.14c1.19.74,2.19,2.06,2.98,3.94.81,1.93,1.21,4.74,1.21,8.39v5.02c-11.62.92-20.46,3.11-26.27,6.5ZM210.17,77.65v9.26c0,1.7-.45,3.33-1.34,4.86-.91,1.53-2.14,2.78-3.68,3.69-1.54.92-3.2,1.38-4.91,1.38-2.22,0-3.98-.59-5.21-1.77-1.22-1.17-1.81-2.84-1.81-5.13,0-3.97,1.37-6.89,4.2-8.94h-.01c2.76-1.99,7.06-3.11,12.77-3.35Z" fill="#14304c"/>
    <path d="M167.16,76.37v-.79c-.06-4.79-.5-8.93-1.37-12.3-.82-3.33-2.09-6.32-3.74-8.91-1.41-2.19-3.22-4.1-5.37-5.66-2.15-1.55-4.76-2.78-7.76-3.64h-.01s-.02,0-.02,0c-2.96-.86-6.47-1.29-10.38-1.29h0c-.1,0-.19,0-.29,0-.69,0-1.38.02-2.06.05-.67.03-1.32.09-1.97.15-.1,0-.2.01-.3.02-4.51.47-8.61,1.64-12.23,3.49-4.85,2.49-8.66,6.21-11.3,11.05-2.63,4.82-3.95,10.61-3.95,17.21,0,8.37,1.73,15.13,5.16,20.2.8,1.21,1.69,2.33,2.68,3.35,5.09,5.25,12.79,7.94,22.86,7.94,3.58,0,6.93-.38,10.01-1.14,2.18-.43,4.22-1.01,5.98-1.75,2.04-.87,3.98-2.1,6.05-3.54,2.18-1.51,3.8-3.24,5.7-5.46.14-.16.27-.31.41-.48l.24-.24.21-.21v-7.16l-.08-.08h-13.7l-.06,3.07c-.1,2.23-2.03,4.24-4.19,4.87-1.92.56-5.09,1.16-7.32,1.16-.86,0-1.64-.03-2.36-.08-3.25-.7-5.84-2.21-7.67-4.58-.96-1.23-1.75-2.73-2.37-4.49-.83-3.02-1.24-6.73-1.32-10.67l.08-.08h40.44ZM137.49,51.34c3.15,0,5.53,1.39,7.01,4.28,1.24,2.43,2.02,5.99,2.36,10.58h-19.94c.54-4.37,1.58-7.85,3.13-10.35,1.87-3.03,4.3-4.5,7.45-4.5Z" fill="#14304c"/>
    <path d="M174.22,171.2v-.79c-.06-4.79-.5-8.93-1.37-12.3-.82-3.33-2.09-6.32-3.74-8.91-1.41-2.19-3.22-4.1-5.37-5.66-2.15-1.55-4.76-2.78-7.76-3.64h-.01s-.02,0-.02,0c-2.96-.86-6.47-1.29-10.38-1.29h0c-.1,0-.19,0-.29,0-.69,0-1.38.02-2.06.05-.67.03-1.32.09-1.97.15-.1,0-.2.01-.3.02-4.51.47-8.61,1.64-12.23,3.49-4.85,2.49-8.66,6.21-11.3,11.05-2.63,4.82-3.95,10.61-3.95,17.21,0,8.37,1.73,15.13,5.16,20.2.8,1.21,1.69,2.33,2.68,3.35,5.09,5.25,12.79,7.94,22.86,7.94,3.58,0,6.93-.38,10.01-1.14,2.18-.43,4.22-1.01,5.98-1.75,2.04-.87,3.98-2.1,6.05-3.54,2.18-1.51,3.8-3.24,5.7-5.46.14-.16.27-.31.41-.48l.24-.24.21-.21v-7.16l-.08-.08h-13.7l-.06,3.07c-.1,2.23-2.03,4.24-4.19,4.87-1.92.56-5.09,1.16-7.32,1.16-.86,0-1.64-.03-2.36-.08-3.25-.7-5.84-2.21-7.67-4.58-.96-1.23-1.75-2.73-2.37-4.49-.83-3.02-1.24-6.73-1.32-10.67l.08-.08h40.44ZM144.55,146.17c3.15,0,5.53,1.39,7.01,4.28,1.24,2.43,2.02,5.99,2.36,10.58h-19.94c.54-4.37,1.58-7.85,3.13-10.35,1.87-3.03,4.3-4.5,7.45-4.5Z" fill="#14304c"/>
    <path d="M0,138.79v5.13l.4.09c2,.4,3.39.88,4.18,1.4.76.5,1.33,1.17,1.7,1.99.38.84.63,1.99.73,3.4.1,1.47.16,3.76.16,6.85v25.81c0,3.92-.14,6.67-.41,8.13-.26,1.4-.76,2.52-1.48,3.33-.73.81-2.08,1.47-4.05,1.99l-.37.1v5.06h31.9v-5.06l-.38-.09c-1.82-.43-3.09-1.07-3.79-1.87-.71-.82-1.18-1.98-1.4-3.45-.23-1.54-.34-4.28-.34-8.19v-24.31c0-1.85.57-3.6,1.68-5.22,1.13-1.64,2.55-2.94,4.2-3.86,1.65-.91,3.26-1.38,4.76-1.38,1.14,0,2.1.14,2.82.4.73.27,1.37.65,1.9,1.15.53.5,1.01,1.17,1.44,1.99.43.84.77,1.83,1.01,2.96.26,1.14.43,2.67.54,4.53.1,1.9.16,4.25.16,6.98v16.82c0,3.96-.13,6.75-.38,8.23-.24,1.43-.71,2.55-1.4,3.36-.68.79-1.97,1.41-3.83,1.85l-.38.09v5.06h31.7v-5.06l-.37-.1c-1.51-.4-2.64-.88-3.32-1.44-.67-.55-1.18-1.24-1.48-2.08-.33-.87-.54-2.05-.64-3.49-.1-1.48-.16-3.66-.16-6.5v-20.49c0-2.44.07-4.21.21-5.26.14-1.04.41-1.98.8-2.8s.9-1.57,1.55-2.25,1.47-1.37,2.41-2.05c.91-.65,1.84-1.15,2.75-1.47.9-.32,1.88-.48,2.94-.48,1.54,0,2.79.27,3.72.81.93.53,1.74,1.44,2.42,2.7.7,1.27,1.17,3.07,1.43,5.36.26,2.32.38,5.39.38,9.15v16.82c0,3.92-.14,6.69-.41,8.2-.26,1.46-.74,2.59-1.4,3.4-.66.79-1.91,1.41-3.73,1.85l-.38.09v5.06h32.1v-5.06l-.38-.1c-1.11-.27-2.08-.62-2.87-1.02-.74-.37-1.33-.85-1.72-1.38-.41-.55-.74-1.28-.98-2.18-.24-.92-.4-2.18-.47-3.75-.07-1.6-.1-3.33-.1-5.15v-22.92c0-3.86-.34-7.27-1.01-10.05-.68-2.83-1.78-5.22-3.29-7.12-1.51-1.9-3.46-3.33-5.79-4.24-2.31-.89-5.23-1.36-8.74-1.36s-7,.82-10.25,2.44c-3.09,1.54-6.77,4.2-10.9,7.89-.88-2.22-2.02-4.05-3.39-5.49-1.51-1.57-3.36-2.78-5.53-3.6-2.15-.81-4.87-1.23-8.11-1.23s-6.64.75-9.82,2.25c-3.11,1.46-5.12,1.99-8.99,5.48h-.67l.04-6.66" fill="#14304c"/>
    <path d="M369.27,189.49v.04c-.78,2.05-2.54,3.52-4.64,3.9-.94.17-1.9.25-2.88.25-3.46,0-6.26-.95-8.37-2.79-2.12-1.86-3.67-4.58-4.62-8.09-.97-3.54-1.46-7.98-1.46-13.13s.34-9.55,1-12.92c.57-2.91,1.33-5.34,2.25-7.23l1.41-1.87c1.99-1.69,4.49-2.35,7.48-2.35,2.44,0,4.24.5,5.63,1.48,2.29,1.62,3.45,4.56,4.41,8.73h11.2v-12.5s-.07-.03-.1-.05v-1.6l-.35-.1c-2.8-.82-5.97-1.46-9.41-1.94-3.44-.46-6.93-.7-10.37-.7-.13,0-.25,0-.38,0-.15,0-.29,0-.43,0-13.63,0-24.17,5.13-28.95,16.65-1.82,4.39-2.81,9.69-2.81,16,0,19.45,10.62,30.31,29.41,30.78.42.01.85.02,1.28.02,5.97,0,11.64-.84,16.06-2.15,2.73-.81,4.98-1.79,6.52-2.86v-11.87h-10.77c-.29,1.63-.65,3.07-1.11,4.31Z" fill="#14304c"/>
    <path d="M420.67,162.71l-7.12-1.41c-7.22-1.4-9.42-4.39-9.42-8.7,0-4.92,2.93-8.08,9.53-8.08,8.17,0,10.79,4.39,11.62,11.07h11.62v-12.74c-3.46-1.49-10.47-4.22-21.99-4.22-15.5,0-25.65,6.33-25.65,19.33,0,10.89,6.49,15.55,17.59,18.01l7.54,1.67c8.06,1.76,10.58,4.57,10.58,9.57,0,6.68-4.5,9.4-11.62,9.4s-11.62-3.25-12.67-11.42h-11.73v11.86c4.82,2.37,11.31,5.01,23.66,5.01,18.01,0,28.06-7.03,28.06-19.94,0-11.16-7.96-17.04-20-19.42Z" fill="#14304c"/>
    <g>
      <path d="M320.95,196.03c-.67-.35-1.18-.71-1.52-1.11-.35-.42-.64-.87-.85-1.36s-.38-1.07-.51-1.72-.21-1.6-.28-2.83c-.07-1.26-.1-3.05-.1-5.33v-45.07h-26.7v6.13l.4.07c1.42.27,2.58.62,3.46,1,.82.36,1.49.87,1.97,1.53.48.68.82,1.6,1.01,2.75.18,1.21.28,2.83.28,4.81v28.82c0,3.87-.14,6.59-.41,8.04-.26,1.39-.75,2.49-1.48,3.28-.72.79-2.1,1.45-4.09,1.97l-.38.1v4.99h32.36v-5l-.38-.09c-1.15-.27-2.09-.59-2.78-.95Z" fill="#14304c"/>
      <rect x="299.04" y="124" width="18.6" height="11.87" fill="#14304c"/>
    </g>
    <path d="M278.5,138.43c-3.79,0-10.71.36-14.16,1.86l-3.73,1.73v-3.42h-56.07v-14.78h-16.28c-.21,3.32-.48,5.59-.89,7.83-.4,2.17-.93,3.96-1.58,5.3-.64,1.3-1.55,2.35-2.7,3.13-1.17.78-3.03,1.39-5.54,1.78l-.42.07v5.23h7.99v34.25c0,6.87,1.62,12.07,4.83,15.49,3.2,3.42,8.11,5.16,14.56,5.16,3.44,0,6.79-.65,9.89-1.93,3.09-1.28,6.59-3.51,10.34-6.64l.38-.32-4.64-6.03-.4.33c-1.11.96-2.19,1.71-3.19,2.23-1,.52-1.96.87-2.85,1.07-.9.2-1.93.3-3.09.3-1.45,0-2.64-.46-3.61-1.43-.99-.99-1.71-2.55-2.13-4.67-.44-2.19-.66-5.65-.66-10.29v-21.55c0-3.16,2.31-6.17,5.14-6.17l19.27-.09,6.85.11c2.15,0,3.03.88,3.48,1.39.59.65,1.03,1.46,1.38,2.28.22.54.37,1.26.48,2.06.06,1.38.08,3.17.08,5.38v25.55c0,3.88-.14,6.61-.4,8.06-.25,1.39-.73,2.49-1.43,3.29-.7.8-2.01,1.45-3.91,1.97l-.36.1v5h31.68v-5.03l-.4-.07c-1.97-.36-3.37-.94-4.17-1.75-.8-.81-1.34-1.97-1.61-3.42-.29-1.54-.43-4.28-.43-8.17v-19.84c0-2.12.06-3.72.18-4.78.12-1.03.37-2.06.74-3.07.37-.99,1-1.97,1.89-2.94.88-.97,1.87-1.72,2.9-2.26,1.03-.52,1.98-.78,2.81-.78,1.79,0,3.17.58,4.23,1.77.89.99,1.64,2.37,2.26,4.1h9.63v-16.97c-2.2-.27-4.52-.41-6.32-.41Z" fill="#14304c"/>
    <g>
      <path d="M419.5,52.85l-4.02,5.29-8.46,11.43,10.26-13.04,2.89-3.52c-.22-.06-.44-.11-.66-.16Z" fill="#14304c"/>
      <path d="M421.54,53.45c-.11-.04-.22-.09-.33-.13l-3.26,3.73-10.66,12.57,10.41-11.58,4.12-4.48c-.09-.04-.18-.07-.28-.11Z" fill="#14304c"/>
      <path d="M422.77,53.98c-.12-.06-.24-.12-.36-.18l-4.41,4.63-10.34,11.05,12.83-12.94,2.5-2.44c-.08-.04-.15-.08-.23-.12Z" fill="#14304c"/>
      <path d="M418.16,52.66l-2.98,4.31-8.43,12.7,8.29-11.77,3.76-5.15c-.25-.04-.41-.06-.64-.09Z" fill="#14304c"/>
      <polygon points="400.81 102.21 401.45 102.31 403.27 85.73 404.06 78.77 404.01 78.48 403.97 78.12 402.98 85.68 400.81 102.21" fill="#14304c"/>
      <polyline points="403.77 76.61 401.55 85.76 397.48 102.83 398.1 103.03 401.87 85.83 403.83 76.92" fill="#14304c"/>
      <polygon points="393.77 103.31 394.44 103.62 400.35 85.92 403.75 75.76 403.75 75.42 400.05 85.77 393.77 103.31" fill="#14304c"/>
      <polygon points="389.58 103.89 390.22 104.34 398.62 86.08 403.73 74.99 403.73 74.81 403.78 74.64 398.31 85.89 389.58 103.89" fill="#14304c"/>
      <polygon points="396.23 86.11 384.42 104.77 385.1 105.37 396.52 86.41 403.86 74.26 403.94 73.95 403.9 74.04 396.23 86.11" fill="#14304c"/>
      <polygon points="393.58 86.46 377.86 105.88 378.56 106.68 393.9 86.84 403.86 73.95 403.97 73.8 404.02 73.63 403.65 74.04 393.58 86.46" fill="#14304c"/>
      <polygon points="391.48 85.58 372.81 103.68 373.45 104.62 391.76 86 403.48 74.11 404.09 73.44 404.14 73.37 403.4 74 391.48 85.58" fill="#14304c"/>
      <polygon points="389.99 83.83 369.62 99.18 370.13 100.24 390.26 84.31 403.47 73.84 404.09 73.32 403.86 73.44 402.95 74.08 389.99 83.83" fill="#14304c"/>
      <polygon points="399.94 75.34 388.27 81.8 365.97 94.13 366.82 96.32 388.68 82.82 401 75.21 403.94 73.28 399.94 75.34" fill="#14304c"/>
      <polygon points="404.2 73.21 403.86 73.44 404.09 73.32 404.2 73.21" fill="#14304c"/>
      <polygon points="399.28 74.81 386.51 79.81 362.36 89.24 363.02 91.59 386.84 80.92 399.6 75.21 403.65 73.27 399.28 74.81" fill="#14304c"/>
      <polygon points="398.99 74.08 384.51 77.55 358.3 83.83 358.76 86.42 384.74 78.79 399.13 74.57 403.53 73.12 398.99 74.08" fill="#14304c"/>
      <polygon points="398.66 73.3 382.61 74.85 355.06 77.53 355.32 80.29 382.72 76.21 398.61 73.84 403.51 72.95 398.66 73.3" fill="#14304c"/>
      <polygon points="399.41 72.49 385.55 71.9 363.14 70.94 363.13 73.25 385.52 73.07 399.02 72.95 403.64 72.79 399.41 72.49" fill="#14304c"/>
      <polygon points="399.97 71.87 388.62 69.79 370.74 66.5 370.49 68.4 388.51 70.75 399.84 72.27 403.75 72.67 399.97 71.87" fill="#14304c"/>
      <polygon points="403.19 72.32 400.72 71.44 390.88 68.18 375.98 63.26 375.64 64.86 390.67 69.01 400.29 71.69 403.41 72.46 403.19 72.32" fill="#14304c"/>
      <polygon points="400.37 70.64 392.63 66.87 379.97 60.7 379.5 62.07 392.38 67.59 401.1 71.33 402.49 71.9 400.37 70.64" fill="#14304c"/>
      <polygon points="399.99 70.49 400.37 70.69 401.2 71.04 399.99 70.49" fill="#14304c"/>
      <polygon points="403.18 72.33 403.41 72.46 403.88 72.57 403.18 72.33" fill="#14304c"/>
      <polygon points="403.72 72.38 403.58 72.29 401.19 71.09 400.36 70.71 402.49 71.92 403.72 72.38" fill="#14304c"/>
      <polygon points="402.31 70.84 393.2 62.59 363.32 36.84 321.82 1.1 318.96 5.79 361.73 39.4 391.95 63.14 402.16 70.74 402.31 70.84" fill="#14304c"/>
      <polygon points="402.14 70.79 402.38 70.91 402.3 70.86 402.14 70.79" fill="#14304c"/>
      <polygon points="403.86 72.42 403.57 72.29 403.71 72.39 403.93 72.47 403.86 72.42" fill="#14304c"/>
      <polygon points="403.03 71.04 396.51 63.49 373.58 38.27 342.34 3.9 339.57 7.43 372.05 40.22 394.74 63.08 403.01 71.03 403.03 71.04" fill="#14304c"/>
      <polygon points="403.01 71.06 402.99 71.07 403.05 71.05 403.01 71.06" fill="#14304c"/>
      <polyline points="365.63 18.26 363.61 20.29 384.16 46.7 398.39 64.97 403.13 70.78 403.53 71.2 399.74 65.62 385.39 45.48" fill="#14304c"/>
      <polygon points="403.52 71.22 403.1 70.83 403.73 71.51 403.52 71.22" fill="#14304c"/>
      <polygon points="392.27 52.57 400.87 66.76 403.79 71.27 404.06 71.69 402.14 67.97 393.2 51.84 381.57 30.79 381.47 30.72 379.81 32.04 392.27 52.57" fill="#14304c"/>
      <polygon points="404.06 71.7 403.77 71.31 404.2 71.93 404.06 71.7" fill="#14304c"/>
      <polygon points="404.43 72.19 404.34 71.99 403.92 71.27 404.36 72.09 404.43 72.19" fill="#14304c"/>
      <polygon points="404.45 72.21 404.43 72.19 404.35 72.1 404.39 72.15 404.45 72.21" fill="#14304c"/>
      <polygon points="404.44 72.22 404.39 72.16 404.45 72.25 404.46 72.25 404.44 72.22" fill="#14304c"/>
      <polygon points="404.46 72.27 404.45 72.26 404.44 72.25 404.46 72.27" fill="#14304c"/>
      <polygon points="404.51 72.39 404.45 72.28 404.44 72.26 404.51 72.39" fill="#14304c"/>
      <polygon points="404.53 72.32 404.54 72.35 404.54 72.33 404.53 72.31 404.53 72.32" fill="#14304c"/>
      <polygon points="404.54 72.36 404.54 72.35 404.53 72.33 404.54 72.36" fill="#14304c"/>
      <polygon points="404.53 72.33 404.53 72.33 404.54 72.35 404.55 72.37 404.54 72.36 404.53 72.33" fill="#14304c"/>
      <rect x="404.54" y="72.35" width="0" height=".02" transform="translate(20.47 218.57) rotate(-30.98)" fill="#14304c"/>
      <polygon points="404.57 72.43 404.55 72.37 404.54 72.36 404.57 72.43" fill="#14304c"/>
      <path d="M404.62,72.46l-.02-.07.02.07Z" fill="#14304c"/>
      <polygon points="404.67 72.38 404.62 71.91 404.63 72.24 404.64 72.38 404.67 72.38" fill="#14304c"/>
      <polygon points="404.66 72.39 404.64 72.38 404.66 72.43 404.66 72.39" fill="#14304c"/>
      <polygon points="409.4 41.15 409.32 42.2 410.41 42.33 410.53 41.33 409.4 41.15" fill="#14304c"/>
      <polyline points="412.25 42.69 412.52 41.39 411.41 41.08 411.17 42.47" fill="#14304c"/>
      <polyline points="415.36 44.12 416.14 41.47 415.03 40.98 414.39 43.5" fill="#14304c"/>
      <polyline points="418.16 46.04 420.08 41.43 418.95 40.75 417.26 45.31" fill="#14304c"/>
      <path d="M420.29,47.86c.17.17.33.34.49.51l3.74-6.87-1.13-.9-3.45,6.9c.12.12.24.23.35.35Z" fill="#14304c"/>
      <path d="M423.01,51.11l6.58-9-1.12-1.13-6.12,9.08c.25.4.44.67.65,1.05Z" fill="#14304c"/>
      <path d="M420.17,53.01l-2.79,3.42-10.19,13.02-1.66,2.26.17-.11,1.76-2.08,10.5-12.44,3.25-3.73c-.21-.08-.91-.28-1.05-.32Z" fill="#14304c"/>
      <path d="M423.34,54.29c-.13-.07-.26-.14-.38-.21l-2.52,2.47-12.63,12.82-1.58,1.81.86-.62.04-.04.98-.86,13.03-12.34,2.8-2.7" fill="#14304c"/>
      <polygon points="434.61 41.38 423.84 53.14 424.2 54.38 435.69 42.8 434.61 41.38" fill="#14304c"/>
      <polygon points="443.42 43.68 442.39 41.88 423.48 57.35 408.38 69.71 407.84 70.17 409.61 69.2 409.84 69.07 424.07 58.33 443.42 43.68" fill="#14304c"/>
      <polygon points="454.58 45.2 453.09 41.81 428.83 57.27 414.83 66.18 411.97 68.08 414.73 66.78 416.78 65.6 417.95 64.7 419.48 64.79 429.67 59.1 454.58 45.2" fill="#14304c"/>
      <polygon points="468.14 48.05 466.75 43.72 435.62 58.17 421.04 64.95 421.3 65.12 422.88 65.19 423.03 65.31 424.18 65.36 436.4 60.56 468.14 48.05" fill="#14304c"/>
      <polygon points="479.3 54.86 478.25 49.78 441.4 61.18 426.77 65.72 427.66 65.75 427.82 65.88 429.25 65.95 429.38 66.1 430.8 66.16 430.99 66.28 432.4 66.33 432.41 66.34 442 63.98 479.3 54.86" fill="#14304c"/>
      <polygon points="493.73 57.9 449.18 65.2 438.02 67.03 438.37 67.04 438.54 67.18 439.82 67.23 439.96 67.39 441.28 67.41 441.42 67.56 442.73 67.61 442.87 67.75 444.17 67.81 444.32 67.94 445.63 67.99 445.79 68.13 449.8 68.58 494.32 64.04 493.73 57.9" fill="#14304c"/>
      <polygon points="399.65 100.56 400.02 100.66 402.63 85.09 403.93 77.53 403.9 77.18 402.46 85.05 399.65 100.56" fill="#14304c"/>
      <polygon points="396.45 100.87 396.83 101.02 401.26 85.1 403.77 76.26 403.75 75.99 401.09 85.03 396.45 100.87" fill="#14304c"/>
      <polygon points="392.98 101.03 393.36 101.25 399.82 85.03 403.75 75.28 403.75 75.1 399.65 84.95 392.98 101.03" fill="#14304c"/>
      <polygon points="389.01 101.25 389.37 101.56 398.21 84.98 403.79 74.54 403.86 74.29 398.02 84.85 389.01 101.25" fill="#14304c"/>
      <polygon points="396.03 84.95 384.14 101.68 384.53 102.09 396.24 85.14 403.9 74.04 403.94 73.95 403.97 73.81 403.86 73.95 396.03 84.95" fill="#14304c"/>
      <polygon points="403.94 73.95 403.94 73.95 403.9 74.04 403.94 73.95" fill="#14304c"/>
      <polygon points="403.97 73.81 403.97 73.8 403.86 73.95 403.97 73.81" fill="#14304c"/>
      <polygon points="393.54 85.1 378.01 102.23 378.39 102.76 393.71 85.34 403.65 74.04 404.02 73.58 404.05 73.57 403.48 74.11 393.54 85.1" fill="#14304c"/>
      <polygon points="404.02 73.63 404.02 73.58 403.65 74.04 404.02 73.63" fill="#14304c"/>
      <polygon points="404.05 73.57 404.05 73.55 404.09 73.44 403.48 74.11 404.05 73.57" fill="#14304c"/>
      <polygon points="373.44 99.77 373.79 100.38 391.74 84.39 403.4 74 404.06 73.38 403.47 73.84 391.59 84.12 373.44 99.77" fill="#14304c"/>
      <polygon points="403.4 74 404.14 73.37 404.17 73.3 404.06 73.38 403.4 74" fill="#14304c"/>
      <polygon points="403.47 73.84 404.06 73.38 404.2 73.23 404.09 73.32 403.47 73.84" fill="#14304c"/>
      <polygon points="404.17 73.3 404.2 73.23 404.06 73.38 404.17 73.3" fill="#14304c"/>
      <polygon points="404.09 73.32 404.2 73.23 404.21 73.2 404.2 73.21 404.09 73.32" fill="#14304c"/>
      <polygon points="390.21 82.31 370.61 95.24 371.02 96.16 390.43 82.73 402.95 74.08 403.45 73.7 401 75.21 390.21 82.31" fill="#14304c"/>
      <polygon points="403.86 73.44 403.45 73.7 402.95 74.08 403.86 73.44" fill="#14304c"/>
      <polygon points="401 75.21 403.45 73.7 404.15 73.17 403.94 73.28 401 75.21" fill="#14304c"/>
      <polygon points="403.45 73.7 403.86 73.44 404.2 73.21 404.21 73.19 404.25 73.12 404.15 73.17 403.45 73.7" fill="#14304c"/>
      <polygon points="404.2 73.14 403.94 73.28 404.15 73.17 404.2 73.14" fill="#14304c"/>
      <polygon points="404.15 73.18 404.25 73.12 404.26 73.1 404.2 73.14 404.15 73.18" fill="#14304c"/>
      <polygon points="404.21 73.2 404.21 73.19 404.2 73.21 404.21 73.2" fill="#14304c"/>
      <polygon points="399.6 75.21 388.75 80.41 367.64 90.56 368.06 91.86 388.96 81.03 399.94 75.34 402.61 73.86 399.6 75.21" fill="#14304c"/>
      <polygon points="399.94 75.34 403.94 73.28 402.61 73.86 399.94 75.34" fill="#14304c"/>
      <polygon points="403.8 73.2 403.65 73.27 399.6 75.21 402.61 73.86 403.8 73.2" fill="#14304c"/>
      <polygon points="402.61 73.86 403.94 73.28 404.29 73.03 404.08 73.1 403.8 73.2 402.61 73.86" fill="#14304c"/>
      <polygon points="404.29 73.03 404.3 73.03 404.3 73.02 404.08 73.1 404.29 73.03" fill="#14304c"/>
      <polygon points="403.94 73.28 403.94 73.28 404.2 73.14 404.29 73.06 404.3 73.03 404.29 73.03 403.94 73.28" fill="#14304c"/>
      <polygon points="404.26 73.1 404.29 73.06 404.2 73.14 404.26 73.1" fill="#14304c"/>
      <polygon points="399.13 74.57 387.17 78.45 364.51 85.78 364.87 87.16 387.31 79.12 399.28 74.81 402.46 73.58 399.13 74.57" fill="#14304c"/>
      <polygon points="403.79 73.19 402.46 73.58 399.28 74.81 403.65 73.27 403.79 73.19" fill="#14304c"/>
      <polygon points="403.73 73.09 403.53 73.12 399.13 74.57 402.46 73.58 403.73 73.09" fill="#14304c"/>
      <polygon points="403.88 73.05 403.73 73.09 402.46 73.58 403.79 73.19 404.06 73.05 404.15 73 403.88 73.05" fill="#14304c"/>
      <polygon points="404.06 73.05 404.16 73 404.15 73 404.06 73.05" fill="#14304c"/>
      <polygon points="404.15 73 404.2 72.99 403.88 73.05 404.15 73" fill="#14304c"/>
      <polygon points="404.2 72.99 404.15 73 404.16 73 404.22 72.96 404.2 72.99" fill="#14304c"/>
      <polygon points="403.65 73.27 403.8 73.2 403.88 73.17 403.79 73.19 403.65 73.27" fill="#14304c"/>
      <polygon points="404.08 73.1 403.88 73.17 403.8 73.2 404.08 73.1" fill="#14304c"/>
      <polygon points="403.88 73.17 404.06 73.05 403.79 73.19 403.88 73.17" fill="#14304c"/>
      <polygon points="404.16 73 404.06 73.05 403.88 73.18 404.08 73.1 404.3 73.02 404.31 72.99 404.16 73" fill="#14304c"/>
      <polygon points="404.16 73 404.31 72.99 404.29 72.96 404.22 72.96 404.16 73" fill="#14304c"/>
      <polygon points="404.31 72.99 404.31 72.99 404.32 72.95 404.29 72.96 404.31 72.99" fill="#14304c"/>
      <polygon points="398.61 73.84 385.36 76.21 361 80.54 361.19 82.04 385.43 76.92 398.99 74.08 402.29 73.3 398.61 73.84" fill="#14304c"/>
      <polygon points="403.65 73.09 402.29 73.3 398.99 74.08 403.53 73.12 403.65 73.09" fill="#14304c"/>
      <polygon points="403.72 72.94 403.51 72.95 398.61 73.84 402.29 73.3 403.72 72.94" fill="#14304c"/>
      <polygon points="404.15 72.91 404.06 72.91 403.72 72.94 402.29 73.3 403.65 73.09 404.05 72.95 404.15 72.91" fill="#14304c"/>
      <polygon points="404.05 72.95 404.16 72.91 404.15 72.91 404.05 72.95" fill="#14304c"/>
      <polygon points="403.65 73.09 403.53 73.13 403.73 73.09 403.77 73.06 403.65 73.09" fill="#14304c"/>
      <polygon points="403.73 73.09 403.88 73.05 403.77 73.06 403.73 73.09" fill="#14304c"/>
      <polygon points="404.05 72.95 403.65 73.09 403.77 73.07 404.05 72.95" fill="#14304c"/>
      <polygon points="404.05 72.95 403.77 73.07 403.88 73.05 404.2 72.99 404.26 72.95 404.21 72.91 404.16 72.91 404.05 72.95" fill="#14304c"/>
      <polygon points="404.2 72.99 404.22 72.96 404.26 72.95 404.2 72.99" fill="#14304c"/>
      <polygon points="404.26 72.95 404.31 72.91 404.21 72.91 404.26 72.95" fill="#14304c"/>
      <polygon points="404.26 72.95 404.35 72.91 404.31 72.91 404.26 72.95" fill="#14304c"/>
      <polygon points="404.21 72.91 404.31 72.91 404.35 72.9 404.2 72.91 404.21 72.91" fill="#14304c"/>
      <polygon points="404.31 72.91 404.34 72.91 404.36 72.9 404.35 72.9 404.31 72.91" fill="#14304c"/>
      <polygon points="404.29 72.96 404.26 72.95 404.22 72.96 404.29 72.96" fill="#14304c"/>
      <polygon points="404.26 72.95 404.28 72.96 404.32 72.95 404.35 72.91 404.26 72.95" fill="#14304c"/>
      <polygon points="399.02 72.95 386.27 73.44 364.19 74.24 364.25 75.65 386.3 74.13 398.66 73.3 402.29 72.94 399.02 72.95" fill="#14304c"/>
      <polygon points="403.72 72.91 402.29 72.94 398.66 73.3 403.51 72.95 403.72 72.91" fill="#14304c"/>
      <polygon points="403.72 72.8 403.64 72.79 399.02 72.95 402.29 72.94 403.72 72.8" fill="#14304c"/>
      <polygon points="404.09 72.85 404.05 72.81 403.72 72.8 402.28 72.94 403.72 72.91 404.02 72.87 404.09 72.85" fill="#14304c"/>
      <path d="M404.02,72.88l.07-.03-.07.03Z" fill="#14304c"/>
      <polygon points="404.05 72.82 404.05 72.82 404.09 72.85 404.16 72.84 404.05 72.82" fill="#14304c"/>
      <polygon points="404.09 72.85 404.09 72.85 404.2 72.84 404.16 72.84 404.09 72.85" fill="#14304c"/>
      <polygon points="404.16 72.84 404.2 72.84 404.05 72.82 404.16 72.84" fill="#14304c"/>
      <polygon points="403.72 72.91 403.5 72.95 403.72 72.94 403.79 72.91 403.72 72.91" fill="#14304c"/>
      <polygon points="403.79 72.91 403.71 72.94 404.06 72.91 403.79 72.91" fill="#14304c"/>
      <polygon points="404.02 72.87 403.71 72.91 403.79 72.91 404.02 72.87" fill="#14304c"/>
      <polygon points="404.02 72.87 403.79 72.91 404.06 72.91 404.16 72.91 404.17 72.9 404.09 72.85 404.02 72.87" fill="#14304c"/>
      <polygon points="404.17 72.91 404.2 72.9 404.17 72.9 404.16 72.91 404.17 72.91" fill="#14304c"/>
      <polygon points="404.09 72.85 404.17 72.9 404.31 72.85 404.2 72.84 404.09 72.85" fill="#14304c"/>
      <polygon points="404.31 72.85 404.17 72.9 404.2 72.9 404.32 72.87 404.31 72.85" fill="#14304c"/>
      <polygon points="404.2 72.84 404.31 72.85 404.3 72.84 404.22 72.84 404.2 72.84" fill="#14304c"/>
      <polygon points="404.32 72.88 404.35 72.85 404.31 72.85 404.32 72.88" fill="#14304c"/>
      <polygon points="404.35 72.84 404.3 72.84 404.31 72.85 404.35 72.84" fill="#14304c"/>
      <polygon points="404.31 72.85 404.31 72.85 404.34 72.85 404.39 72.84 404.35 72.84 404.31 72.85" fill="#14304c"/>
      <polygon points="404.2 72.91 404.2 72.9 404.17 72.91 404.2 72.91" fill="#14304c"/>
      <polygon points="404.2 72.91 404.35 72.9 404.36 72.89 404.32 72.87 404.2 72.9 404.2 72.91" fill="#14304c"/>
      <polygon points="404.34 72.9 404.36 72.9 404.36 72.89 404.34 72.9" fill="#14304c"/>
      <polygon points="404.32 72.88 404.36 72.89 404.38 72.89 404.39 72.88 404.35 72.85 404.32 72.88" fill="#14304c"/>
      <polygon points="404.36 72.9 404.38 72.89 404.36 72.89 404.36 72.9" fill="#14304c"/>
      <polygon points="404.4 72.84 404.35 72.85 404.39 72.88 404.41 72.85 404.4 72.84" fill="#14304c"/>
      <polygon points="399.84 72.27 389.16 71.16 371.61 69.35 371.55 70.51 389.12 71.77 399.41 72.49 402.57 72.62 399.84 72.27" fill="#14304c"/>
      <polygon points="403.79 72.79 402.57 72.62 399.41 72.5 403.64 72.79 403.79 72.79" fill="#14304c"/>
      <polygon points="403.79 72.67 403.75 72.67 399.84 72.29 402.57 72.62 403.79 72.67" fill="#14304c"/>
      <polygon points="403.96 72.76 403.79 72.67 402.57 72.62 403.79 72.79 403.84 72.79 403.96 72.76" fill="#14304c"/>
      <polygon points="403.96 72.76 403.84 72.79 403.97 72.79 403.96 72.76" fill="#14304c"/>
      <polygon points="403.79 72.67 403.96 72.77 404.16 72.75 403.79 72.67" fill="#14304c"/>
      <polygon points="404.21 72.76 404.2 72.76 404.16 72.75 403.96 72.77 403.97 72.79 404.21 72.76" fill="#14304c"/>
      <polygon points="403.79 72.79 403.64 72.79 403.71 72.8 403.8 72.79 403.79 72.79" fill="#14304c"/>
      <polygon points="404.05 72.81 403.8 72.79 403.71 72.8 404.05 72.81" fill="#14304c"/>
      <polygon points="403.84 72.79 403.8 72.79 404.05 72.81 403.97 72.79 403.84 72.79" fill="#14304c"/>
      <polygon points="403.97 72.79 404.05 72.82 404.2 72.84 404.26 72.81 404.21 72.76 403.97 72.79" fill="#14304c"/>
      <polygon points="404.2 72.84 404.22 72.84 404.29 72.81 404.26 72.81 404.2 72.84" fill="#14304c"/>
      <polygon points="404.21 72.76 404.26 72.82 404.32 72.8 404.22 72.76 404.21 72.76" fill="#14304c"/>
      <polygon points="404.32 72.8 404.26 72.82 404.28 72.82 404.36 72.8 404.32 72.8" fill="#14304c"/>
      <polygon points="404.34 72.79 404.22 72.76 404.32 72.8 404.34 72.79" fill="#14304c"/>
      <polygon points="404.32 72.8 404.36 72.8 404.35 72.79 404.32 72.8" fill="#14304c"/>
      <polygon points="404.29 72.84 404.29 72.81 404.22 72.84 404.29 72.84" fill="#14304c"/>
      <polygon points="404.29 72.81 404.29 72.84 404.34 72.84 404.38 72.82 404.36 72.8 404.29 72.81" fill="#14304c"/>
      <polygon points="404.39 72.84 404.39 72.84 404.38 72.81 404.35 72.84 404.39 72.84" fill="#14304c"/>
      <polygon points="404.36 72.8 404.38 72.82 404.41 72.82 404.36 72.8" fill="#14304c"/>
      <polygon points="404.38 72.81 404.39 72.84 404.41 72.84 404.43 72.82 404.41 72.81 404.38 72.81" fill="#14304c"/>
      <polygon points="404.36 72.8 404.41 72.82 404.41 72.8 404.4 72.8 404.36 72.8" fill="#14304c"/>
      <path d="M404.41,72.85v-.02s0,.02,0,.02Z" fill="#14304c"/>
      <polygon points="400.29 71.69 391.21 69.45 376.56 65.87 376.39 66.82 391.12 69.98 399.97 71.87 402.83 72.38 400.29 71.69" fill="#14304c"/>
      <polygon points="403.79 72.67 403.72 72.64 402.83 72.39 399.96 71.89 403.75 72.67 403.79 72.67" fill="#14304c"/>
      <polygon points="403.51 72.51 403.41 72.46 400.28 71.72 402.83 72.39 403.51 72.51" fill="#14304c"/>
      <polygon points="402.82 72.39 403.72 72.64 403.51 72.51 402.82 72.39" fill="#14304c"/>
      <polygon points="403.91 72.68 403.71 72.65 403.79 72.67 403.88 72.68 403.91 72.68" fill="#14304c"/>
      <polygon points="403.88 72.57 403.4 72.47 403.5 72.51 403.94 72.59 403.88 72.57" fill="#14304c"/>
      <polygon points="404.09 72.68 404 72.6 403.94 72.59 403.5 72.51 403.71 72.65 403.91 72.68 404.09 72.68" fill="#14304c"/>
      <polygon points="404.14 72.7 404.09 72.68 403.91 72.68 403.92 72.68 404.14 72.7" fill="#14304c"/>
      <polygon points="404.25 72.68 404 72.61 404.09 72.68 404.25 72.7 404.25 72.68" fill="#14304c"/>
      <polygon points="404.29 72.71 404.29 72.71 404.25 72.7 404.09 72.68 404.13 72.71 404.29 72.71" fill="#14304c"/>
      <path d="M403.88,72.68h-.09s.09,0,.09,0Z" fill="#14304c"/>
      <polygon points="404.16 72.75 403.92 72.68 403.87 72.68 403.79 72.67 404.16 72.75" fill="#14304c"/>
      <polygon points="404.16 72.75 404.2 72.77 404.2 72.75 404.16 72.75" fill="#14304c"/>
      <polygon points="403.92 72.68 404.16 72.75 404.17 72.75 404.14 72.7 403.92 72.68" fill="#14304c"/>
      <polygon points="404.13 72.71 404.17 72.75 404.3 72.74 404.29 72.71 404.13 72.71" fill="#14304c"/>
      <polygon points="404.17 72.75 404.2 72.75 404.22 72.77 404.32 72.77 404.3 72.74 404.17 72.75" fill="#14304c"/>
      <polygon points="404.3 72.74 404.32 72.77 404.34 72.77 404.31 72.74 404.3 72.74" fill="#14304c"/>
      <polygon points="404.22 72.76 404.34 72.79 404.32 72.76 404.22 72.76" fill="#14304c"/>
      <path d="M404.36,72.8v-.02s0,.02,0,.02Z" fill="#14304c"/>
      <polygon points="404.32 72.76 404.34 72.79 404.38 72.79 404.35 72.76 404.32 72.76" fill="#14304c"/>
      <polygon points="404.36 72.8 404.39 72.8 404.38 72.79 404.35 72.79 404.36 72.8" fill="#14304c"/>
      <polygon points="402.77 72.07 401.1 71.33 392.81 68.07 380.25 63.07 380.03 63.96 392.68 68.52 400.72 71.44 402.89 72.15 402.77 72.07" fill="#14304c"/>
      <polygon points="402.89 72.15 400.71 71.48 403.19 72.32 402.89 72.15" fill="#14304c"/>
      <polygon points="402.49 71.91 401.09 71.37 402.77 72.07 402.49 71.91" fill="#14304c"/>
      <polygon points="402.76 72.09 402.89 72.16 403.11 72.22 402.76 72.09" fill="#14304c"/>
      <polygon points="403.96 72.59 403.94 72.57 403.11 72.23 402.89 72.16 403.18 72.33 403.88 72.57 403.96 72.59" fill="#14304c"/>
      <polygon points="403.78 72.43 403.72 72.38 402.49 71.92 402.76 72.09 403.11 72.23 403.78 72.43" fill="#14304c"/>
      <polygon points="403.11 72.23 403.94 72.57 403.78 72.43 403.11 72.23" fill="#14304c"/>
      <polygon points="403.93 72.57 403.96 72.6 404.01 72.59 403.93 72.57" fill="#14304c"/>
      <polygon points="403.94 72.49 403.93 72.47 403.71 72.39 403.77 72.44 403.94 72.49" fill="#14304c"/>
      <polygon points="404.09 72.62 404.15 72.62 403.93 72.5 403.77 72.44 403.93 72.57 404.01 72.59 404.09 72.62" fill="#14304c"/>
      <polygon points="404.09 72.62 404.15 72.64 404.15 72.62 404.09 72.62" fill="#14304c"/>
      <polygon points="403.96 72.59 403.87 72.57 403.93 72.59 403.97 72.6 403.96 72.59" fill="#14304c"/>
      <polygon points="403.93 72.6 404 72.6 403.97 72.61 403.93 72.6" fill="#14304c"/>
      <polygon points="404.02 72.6 404.01 72.59 403.96 72.6 403.97 72.61 404.02 72.6" fill="#14304c"/>
      <polygon points="404.02 72.61 403.97 72.61 404 72.61 404.25 72.68 404.02 72.61" fill="#14304c"/>
      <polygon points="404.01 72.6 404.02 72.61 404.09 72.62 404.01 72.6" fill="#14304c"/>
      <polygon points="404.02 72.61 404.25 72.68 404.25 72.7 404.15 72.64 404.09 72.62 404.02 72.61" fill="#14304c"/>
      <polygon points="381.61 59.84 381.28 60.66 393.2 66.91 399.99 70.49 392.68 66.1 381.61 59.84" fill="#14304c"/>
      <polygon points="403.3 72.07 402.97 71.8 393.37 66.27 392.68 65.86 400 70.36 401.2 71 403.3 72.07" fill="#14304c"/>
      <polygon points="401.18 71.08 403.58 72.28 403.29 72.08 401.18 71.08" fill="#14304c"/>
      <polygon points="403.43 72.14 402.95 71.85 402.95 71.83 403.29 72.08 403.43 72.14" fill="#14304c"/>
      <polygon points="403.43 72.15 403.29 72.09 403.58 72.29 403.86 72.42 403.43 72.15" fill="#14304c"/>
      <polygon points="391.94 63.2 362.76 41.47 320.74 10.18 319.17 13.09 361.88 43.07 389.43 62.38 398.72 68.52 391.94 63.2" fill="#14304c"/>
      <polygon points="389.44 62.23 402.97 71.8 398.73 68.43 389.44 62.23" fill="#14304c"/>
      <polygon points="402.16 70.74 391.92 62.62 398.72 68.29 402.16 70.74" fill="#14304c"/>
      <polygon points="403.88 72.31 403.33 71.8 402.38 70.93 402.16 70.76 398.72 68.52 402.97 71.81 402.97 71.84 403.88 72.31" fill="#14304c"/>
      <polygon points="403.86 72.43 403.92 72.47 404.01 72.51 403.86 72.43" fill="#14304c"/>
      <polygon points="403.32 71.81 403.87 72.31 404.02 72.38 403.32 71.81" fill="#14304c"/>
      <polygon points="404.43 72.8 404.41 72.8 404.41 72.82 404.43 72.8" fill="#14304c"/>
      <polygon points="404.26 72.7 404.25 72.7 404.28 72.72 404.26 72.7" fill="#14304c"/>
      <polygon points="404.28 72.72 404.31 72.72 404.26 72.7 404.28 72.72" fill="#14304c"/>
      <polygon points="404.31 72.72 404.32 72.72 404.26 72.7 404.31 72.72" fill="#14304c"/>
      <polygon points="404.29 72.71 404.31 72.74 404.32 72.75 404.31 72.71 404.29 72.71" fill="#14304c"/>
      <polygon points="404.31 72.74 404.34 72.77 404.39 72.77 404.32 72.74 404.31 72.74" fill="#14304c"/>
      <polygon points="404.32 72.74 404.34 72.75 404.32 72.71 404.31 72.71 404.32 72.74" fill="#14304c"/>
      <polygon points="404.32 72.74 404.39 72.77 404.43 72.77 404.35 72.74 404.32 72.74" fill="#14304c"/>
      <polygon points="404.35 72.76 404.38 72.79 404.43 72.77 404.4 72.77 404.35 72.76" fill="#14304c"/>
      <polygon points="404.38 72.79 404.39 72.8 404.44 72.79 404.45 72.79 404.43 72.76 404.38 72.79" fill="#14304c"/>
      <polygon points="404.43 72.76 404.45 72.79 404.45 72.76 404.43 72.76" fill="#14304c"/>
      <polygon points="404.41 72.8 404.43 72.8 404.44 72.8 404.45 72.79 404.4 72.8 404.41 72.8" fill="#14304c"/>
      <polygon points="404.43 72.82 404.45 72.8 404.43 72.8 404.43 72.82" fill="#14304c"/>
      <polygon points="404.01 72.51 403.92 72.48 403.93 72.5 404.02 72.52 404.01 72.51" fill="#14304c"/>
      <polygon points="404.2 72.64 404.14 72.57 404.02 72.52 403.93 72.5 404.15 72.62 404.2 72.64" fill="#14304c"/>
      <path d="M404.15,72.66l.03-.04-.03.04Z" fill="#14304c"/>
      <polygon points="404.13 72.57 404.2 72.65 404.3 72.65 404.13 72.57" fill="#14304c"/>
      <polygon points="404.2 72.65 404.21 72.64 404.32 72.67 404.3 72.65 404.2 72.65" fill="#14304c"/>
      <polygon points="404.15 72.64 404.25 72.71 404.26 72.71 404.21 72.64 404.15 72.64" fill="#14304c"/>
      <polygon points="404.21 72.64 404.26 72.71 404.36 72.71 404.32 72.67 404.21 72.64" fill="#14304c"/>
      <polygon points="404.26 72.7 404.26 72.7 404.32 72.71 404.38 72.74 404.39 72.75 404.36 72.7 404.26 72.7" fill="#14304c"/>
      <polygon points="404.38 72.75 404.32 72.71 404.34 72.74 404.38 72.75" fill="#14304c"/>
      <polygon points="404.35 72.74 404.43 72.77 404.4 72.74 404.38 72.74 404.35 72.74" fill="#14304c"/>
      <polygon points="403.88 72.31 402.95 71.85 403.43 72.15 403.94 72.37 403.88 72.31" fill="#14304c"/>
      <polygon points="404.01 72.51 404.08 72.53 404.09 72.53 403.93 72.37 403.42 72.15 403.86 72.42 404.01 72.51" fill="#14304c"/>
      <polygon points="404.08 72.46 404.02 72.39 403.87 72.32 403.93 72.38 404.08 72.46" fill="#14304c"/>
      <polygon points="404.07 72.46 403.93 72.38 404.09 72.53 404.22 72.59 404.07 72.46" fill="#14304c"/>
      <polygon points="404.25 72.6 404.22 72.59 404.09 72.54 404.25 72.6" fill="#14304c"/>
      <polygon points="404.08 72.53 404.01 72.51 404.02 72.52 404.08 72.53" fill="#14304c"/>
      <polygon points="404.14 72.57 404.09 72.53 404.07 72.53 404.02 72.52 404.14 72.57" fill="#14304c"/>
      <polygon points="404.13 72.57 404.29 72.66 404.31 72.66 404.25 72.6 404.09 72.54 404.13 72.57" fill="#14304c"/>
      <polygon points="404.32 72.67 404.31 72.65 404.3 72.65 404.32 72.67" fill="#14304c"/>
      <polygon points="394.72 63.14 372.77 42.07 340.78 11.37 339.24 13.6 371.92 43.29 393.19 62.65 400.16 68.65 394.72 63.14" fill="#14304c"/>
      <polygon points="402.61 71.04 400.17 68.35 393.16 61.73 402.31 70.82 402.61 71.04" fill="#14304c"/>
      <polygon points="402.6 71.06 402.29 70.89 402.37 70.95 402.74 71.17 402.6 71.06" fill="#14304c"/>
      <polygon points="403.01 71.03 394.7 62.02 400.17 68.24 403.01 71.03" fill="#14304c"/>
      <polygon points="403.05 71.06 403.01 71.04 400.16 68.65 402.6 71.06 403.59 71.7 403.05 71.06" fill="#14304c"/>
      <polygon points="403.86 72 403.79 71.93 403.59 71.71 402.58 71.08 402.73 71.21 403.86 72" fill="#14304c"/>
      <polygon points="403.88 72.01 403.78 71.95 403.86 72 403.88 72.01" fill="#14304c"/>
      <polygon points="402.36 70.96 403.33 71.79 402.73 71.2 402.36 70.96" fill="#14304c"/>
      <polygon points="404.29 72.53 403.86 72.01 402.73 71.21 403.32 71.81 404.02 72.39 404.29 72.53" fill="#14304c"/>
      <polygon points="404.29 72.53 404.36 72.59 404.38 72.59 403.87 72.03 403.85 72.02 404.29 72.53" fill="#14304c"/>
      <polygon points="404.45 72.76 404.45 72.76 404.45 72.79 404.46 72.76 404.45 72.76" fill="#14304c"/>
      <polygon points="404.36 72.71 404.39 72.71 404.35 72.67 404.32 72.67 404.36 72.71" fill="#14304c"/>
      <polygon points="404.36 72.7 404.39 72.75 404.43 72.72 404.41 72.72 404.4 72.7 404.36 72.7" fill="#14304c"/>
      <path d="M404.39,72.75l.02-.02-.02.02Z" fill="#14304c"/>
      <polygon points="404.43 72.74 404.45 72.74 404.43 72.71 404.43 72.74" fill="#14304c"/>
      <polygon points="404.43 72.77 404.44 72.75 404.43 72.74 404.4 72.74 404.43 72.77" fill="#14304c"/>
      <polygon points="404.43 72.74 404.44 72.75 404.47 72.75 404.46 72.74 404.43 72.74" fill="#14304c"/>
      <polygon points="404.43 72.76 404.44 72.77 404.45 72.77 404.45 72.75 404.43 72.76" fill="#14304c"/>
      <polygon points="404.47 72.75 404.45 72.75 404.45 72.77 404.47 72.75" fill="#14304c"/>
      <polygon points="404.45 72.77 404.45 72.77 404.47 72.75 404.45 72.77" fill="#14304c"/>
      <polygon points="404.02 72.39 404.07 72.46 404.29 72.53 404.02 72.39" fill="#14304c"/>
      <polygon points="404.22 72.59 404.34 72.62 404.29 72.53 404.07 72.47 404.22 72.59" fill="#14304c"/>
      <polygon points="404.25 72.6 404.36 72.65 404.35 72.62 404.22 72.59 404.25 72.6" fill="#14304c"/>
      <path d="M404.29,72.53l.07.07-.07-.07Z" fill="#14304c"/>
      <polygon points="404.29 72.53 404.34 72.62 404.43 72.65 404.38 72.59 404.36 72.59 404.29 72.53" fill="#14304c"/>
      <polygon points="404.36 72.64 404.44 72.68 404.43 72.64 404.35 72.62 404.36 72.64" fill="#14304c"/>
      <polygon points="404.31 72.66 404.38 72.67 404.36 72.64 404.25 72.6 404.31 72.66" fill="#14304c"/>
      <polygon points="404.32 72.67 404.35 72.67 404.39 72.68 404.38 72.67 404.31 72.65 404.32 72.67" fill="#14304c"/>
      <polygon points="404.38 72.67 404.45 72.68 404.44 72.68 404.36 72.64 404.38 72.67" fill="#14304c"/>
      <polygon points="404.4 72.68 404.45 72.71 404.47 72.71 404.45 72.68 404.38 72.67 404.4 72.68" fill="#14304c"/>
      <polygon points="404.35 72.67 404.39 72.71 404.41 72.71 404.39 72.68 404.35 72.67" fill="#14304c"/>
      <polygon points="404.41 72.72 404.41 72.71 404.4 72.7 404.41 72.72" fill="#14304c"/>
      <polygon points="404.41 72.71 404.45 72.71 404.4 72.68 404.41 72.71" fill="#14304c"/>
      <polygon points="404.46 72.71 404.41 72.7 404.41 72.71 404.43 72.72 404.49 72.72 404.47 72.71 404.46 72.71" fill="#14304c"/>
      <polygon points="404.43 72.71 404.45 72.74 404.49 72.74 404.49 72.72 404.43 72.71" fill="#14304c"/>
      <polygon points="404.47 72.75 404.49 72.74 404.46 72.74 404.47 72.75" fill="#14304c"/>
      <polygon points="398.36 65.04 384.58 48.16 364.21 23.24 362.97 24.66 383.89 48.92 396.49 63.55 401.49 69.08 398.36 65.04" fill="#14304c"/>
      <polygon points="403.26 71.23 401.52 68.68 396.51 62.32 403.03 71 403.26 71.23" fill="#14304c"/>
      <polygon points="403.33 71.33 403.25 71.25 403.01 71.08 403.03 71.09 403.33 71.33" fill="#14304c"/>
      <polygon points="403.13 70.78 398.45 64.24 401.54 68.77 403.13 70.78" fill="#14304c"/>
      <polygon points="403.25 71.25 403.96 71.84 403.73 71.51 403.12 70.81 401.49 69.08 403.25 71.25" fill="#14304c"/>
      <polygon points="403.96 71.94 404.08 72 403.96 71.85 403.24 71.27 403.32 71.36 403.96 71.94" fill="#14304c"/>
      <polygon points="404.07 72.01 403.95 71.95 404.14 72.09 404.07 72.02 404.07 72.01" fill="#14304c"/>
      <polygon points="404.14 72.09 404.14 72.1 404.07 72.03 404.14 72.09" fill="#14304c"/>
      <polygon points="403.03 71.09 403.59 71.71 403.64 71.72 403.32 71.35 403.03 71.09" fill="#14304c"/>
      <polygon points="403.79 71.93 403.63 71.74 403.58 71.72 403.79 71.93" fill="#14304c"/>
      <polygon points="403.63 71.73 403.96 71.94 403.32 71.36 403.63 71.73" fill="#14304c"/>
      <polygon points="403.63 71.74 403.78 71.94 403.87 72.03 404.25 72.28 404.13 72.09 403.96 71.95 403.63 71.74" fill="#14304c"/>
      <polygon points="404.13 72.1 404.25 72.29 404.29 72.32 404.13 72.11 404.13 72.1" fill="#14304c"/>
      <polygon points="404.38 72.59 404.45 72.62 404.25 72.29 403.87 72.03 404.38 72.59" fill="#14304c"/>
      <polygon points="404.45 72.62 404.5 72.66 404.29 72.32 404.25 72.29 404.45 72.62" fill="#14304c"/>
      <polygon points="404.46 72.64 404.53 72.67 404.5 72.66 404.45 72.62 404.46 72.64" fill="#14304c"/>
      <polygon points="404.38 72.59 404.43 72.64 404.47 72.66 404.45 72.64 404.38 72.59" fill="#14304c"/>
      <polygon points="404.44 72.68 404.45 72.68 404.49 72.68 404.47 72.66 404.43 72.64 404.44 72.68" fill="#14304c"/>
      <polygon points="404.47 72.65 404.53 72.68 404.53 72.67 404.46 72.64 404.47 72.65" fill="#14304c"/>
      <polygon points="404.47 72.65 404.49 72.68 404.53 72.71 404.54 72.68 404.53 72.68 404.47 72.65" fill="#14304c"/>
      <path d="M404.49,72.68l.03.03-.03-.03Z" fill="#14304c"/>
      <polygon points="404.46 72.68 404.47 72.71 404.49 72.71 404.49 72.68 404.46 72.68" fill="#14304c"/>
      <polygon points="404.49 72.71 404.53 72.71 404.49 72.68 404.49 72.71" fill="#14304c"/>
      <polygon points="404.5 72.72 404.5 72.72 404.53 72.71 404.49 72.7 404.5 72.72" fill="#14304c"/>
      <polygon points="404.49 72.71 404.49 72.74 404.51 72.72 404.49 72.71" fill="#14304c"/>
      <polygon points="400.87 66.76 392.45 53.63 380.04 34.21 379.06 35.09 391.92 54.09 399.74 65.62 402.74 69.84 400.87 66.76" fill="#14304c"/>
      <polygon points="402.77 69.71 399.84 65.13 403.53 71.18 403.72 71.39 402.77 69.71" fill="#14304c"/>
      <polygon points="403.88 71.68 403.7 71.41 403.51 71.23 403.72 71.52 403.88 71.68" fill="#14304c"/>
      <polygon points="403.79 71.27 400.92 66.59 402.76 69.79 403.79 71.27" fill="#14304c"/>
      <polygon points="403.71 71.42 404.21 71.98 404.2 71.93 403.78 71.29 402.71 69.91 403.71 71.42" fill="#14304c"/>
      <polygon points="404.31 72.14 404.21 71.98 403.7 71.43 403.86 71.7 404.13 71.99 404.31 72.14" fill="#14304c"/>
      <polygon points="404.31 72.14 404.13 72 404.22 72.11 404.32 72.17 404.31 72.14" fill="#14304c"/>
      <polygon points="404.21 72.11 404.41 72.32 404.32 72.18 404.21 72.11" fill="#14304c"/>
      <polygon points="403.87 71.69 403.71 71.53 403.96 71.84 403.97 71.87 403.87 71.69" fill="#14304c"/>
      <polygon points="404.08 72 403.97 71.88 403.95 71.86 404.08 72" fill="#14304c"/>
      <polygon points="404.14 71.99 403.86 71.7 403.97 71.87 404.14 71.99" fill="#14304c"/>
      <polygon points="403.96 71.88 404.07 72.01 404.22 72.1 404.13 71.99 403.96 71.88" fill="#14304c"/>
      <polygon points="404.22 72.11 404.07 72.02 404.07 72.03 404.13 72.11 404.45 72.38 404.41 72.32 404.22 72.11" fill="#14304c"/>
      <polygon points="404.13 72.11 404.29 72.32 404.47 72.47 404.45 72.38 404.13 72.11" fill="#14304c"/>
      <polygon points="404.47 72.47 404.29 72.32 404.5 72.66 404.54 72.67 404.58 72.66 404.53 72.57 404.47 72.47" fill="#14304c"/>
      <polygon points="404.53 72.67 404.54 72.68 404.54 72.67 404.51 72.65 404.53 72.67" fill="#14304c"/>
      <polygon points="404.58 72.66 404.58 72.66 404.53 72.57 404.58 72.66" fill="#14304c"/>
      <polygon points="403.82 71.04 402.13 67.98 404.06 71.69 404.22 71.9 403.82 71.04" fill="#14304c"/>
      <polygon points="404.25 71.99 404.3 72.06 404.22 71.91 404.05 71.71 404.19 71.93 404.25 71.99" fill="#14304c"/>
      <polygon points="404.29 72.07 404.24 72 404.32 72.14 404.29 72.07" fill="#14304c"/>
      <polygon points="403.94 71.23 403.62 70.72 403.82 71.06 403.94 71.23" fill="#14304c"/>
      <polygon points="404.22 71.91 404.36 72.09 403.92 71.27 403.8 71.08 404.22 71.91" fill="#14304c"/>
      <polygon points="404.36 72.09 404.21 71.92 404.29 72.07 404.4 72.15 404.36 72.09" fill="#14304c"/>
      <polygon points="404.36 72.19 404.41 72.23 404.45 72.25 404.39 72.15 404.29 72.08 404.32 72.14 404.36 72.19" fill="#14304c"/>
      <path d="M404.44,72.26l-.03-.02.03.02Z" fill="#14304c"/>
      <polygon points="404.35 72.2 404.38 72.22 404.41 72.23 404.35 72.2" fill="#14304c"/>
      <polygon points="404.44 72.26 404.4 72.24 404.38 72.22 404.53 72.43 404.51 72.39 404.44 72.26" fill="#14304c"/>
      <polygon points="404.19 71.94 404.21 71.98 404.25 71.99 404.19 71.94" fill="#14304c"/>
      <polygon points="404.36 72.19 404.32 72.14 404.24 72 404.2 71.99 404.31 72.14 404.36 72.19" fill="#14304c"/>
      <polygon points="404.3 72.15 404.32 72.18 404.36 72.21 404.36 72.19 404.3 72.15" fill="#14304c"/>
      <polygon points="404.41 72.32 404.45 72.37 404.35 72.22 404.31 72.19 404.41 72.32" fill="#14304c"/>
      <path d="M404.31,72.15l.05.04-.05-.04Z" fill="#14304c"/>
      <polygon points="404.35 72.2 404.36 72.21 404.38 72.21 404.35 72.2" fill="#14304c"/>
      <polygon points="404.53 72.44 404.38 72.22 404.35 72.22 404.45 72.37 404.53 72.47 404.54 72.51 404.53 72.44" fill="#14304c"/>
      <polygon points="404.53 72.47 404.55 72.51 404.54 72.51 404.53 72.47" fill="#14304c"/>
      <polygon points="404.4 72.33 404.45 72.38 404.46 72.4 404.44 72.37 404.4 72.33" fill="#14304c"/>
      <polygon points="404.46 72.39 404.53 72.47 404.45 72.37 404.46 72.39" fill="#14304c"/>
      <polygon points="404.44 72.39 404.47 72.47 404.49 72.47 404.45 72.4 404.44 72.39" fill="#14304c"/>
      <polygon points="404.53 72.47 404.46 72.39 404.49 72.47 404.55 72.52 404.55 72.51 404.53 72.47" fill="#14304c"/>
      <polygon points="404.53 72.57 404.49 72.47 404.47 72.47 404.53 72.57" fill="#14304c"/>
      <polygon points="404.49 72.47 404.53 72.57 404.58 72.66 404.59 72.62 404.55 72.52 404.49 72.47" fill="#14304c"/>
      <polygon points="404.39 72.02 403.93 70.99 404.34 71.99 404.45 72.14 404.39 72.02" fill="#14304c"/>
      <polygon points="404.47 72.23 404.47 72.25 404.44 72.14 404.34 72 404.43 72.19 404.47 72.23" fill="#14304c"/>
      <polygon points="404.47 72.23 404.42 72.2 404.44 72.21 404.47 72.23" fill="#14304c"/>
      <polygon points="404.45 72.25 404.47 72.27 404.47 72.25 404.46 72.24 404.44 72.22 404.45 72.25" fill="#14304c"/>
      <polygon points="404.45 72.26 404.46 72.27 404.49 72.31 404.47 72.28 404.45 72.26" fill="#14304c"/>
      <polygon points="404.51 72.39 404.54 72.47 404.49 72.32 404.45 72.28 404.51 72.39" fill="#14304c"/>
      <polygon points="404.47 72.22 404.53 72.31 404.09 71.16 404.39 72.02 404.47 72.22" fill="#14304c"/>
      <polygon points="404.53 72.31 404.53 72.31 404.46 72.23 404.51 72.28 404.53 72.31" fill="#14304c"/>
      <polygon points="404.5 72.29 404.51 72.31 404.53 72.32 404.5 72.29" fill="#14304c"/>
      <polygon points="404.51 72.31 404.53 72.33 404.54 72.35 404.53 72.33 404.53 72.32 404.51 72.31" fill="#14304c"/>
      <polygon points="404.53 72.35 404.54 72.35 404.53 72.33 404.53 72.35" fill="#14304c"/>
      <polygon points="404.54 72.35 404.53 72.35 404.58 72.46 404.57 72.43 404.54 72.36 404.54 72.35" fill="#14304c"/>
      <polygon points="404.39 72.03 404.44 72.14 404.47 72.22 404.39 72.03" fill="#14304c"/>
      <polygon points="404.47 72.23 404.44 72.15 404.47 72.25 404.51 72.28 404.47 72.23" fill="#14304c"/>
      <polygon points="404.5 72.29 404.51 72.31 404.5 72.29 404.46 72.26 404.5 72.29" fill="#14304c"/>
      <polygon points="404.51 72.31 404.5 72.29 404.53 72.33 404.51 72.31" fill="#14304c"/>
      <polygon points="404.46 72.26 404.47 72.27 404.5 72.29 404.46 72.26" fill="#14304c"/>
      <polygon points="404.5 72.29 404.47 72.27 404.49 72.31 404.53 72.35 404.53 72.33 404.5 72.29" fill="#14304c"/>
      <polygon points="404.49 72.31 404.54 72.47 404.58 72.53 404.6 72.56 404.58 72.46 404.53 72.35 404.49 72.31" fill="#14304c"/>
      <polygon points="404.58 72.53 404.59 72.56 404.6 72.56 404.58 72.53" fill="#14304c"/>
      <polygon points="404.6 72.57 404.6 72.56 404.59 72.55 404.6 72.57" fill="#14304c"/>
      <polygon points="404.54 72.47 404.54 72.47 404.56 72.52 404.57 72.54 404.54 72.47" fill="#14304c"/>
      <polygon points="404.56 72.52 404.58 72.53 404.59 72.56 404.58 72.53 404.56 72.52" fill="#14304c"/>
      <polygon points="404.59 72.56 404.58 72.53 404.6 72.6 404.6 72.57 404.59 72.56" fill="#14304c"/>
      <polygon points="404.58 72.53 404.6 72.61 404.6 72.6 404.58 72.53" fill="#14304c"/>
      <polygon points="404.53 72.44 404.54 72.47 404.51 72.39 404.53 72.44" fill="#14304c"/>
      <polygon points="404.54 72.47 404.53 72.43 404.54 72.51 404.55 72.51 404.54 72.47" fill="#14304c"/>
      <polygon points="404.55 72.51 404.55 72.52 404.54 72.47 404.55 72.51" fill="#14304c"/>
      <polygon points="404.55 72.51 404.55 72.52 404.55 72.51 404.54 72.51 404.55 72.51" fill="#14304c"/>
      <polygon points="404.56 72.52 404.56 72.51 404.56 72.52 404.57 72.54 404.56 72.52" fill="#14304c"/>
      <polygon points="404.56 72.53 404.57 72.54 404.56 72.52 404.56 72.53" fill="#14304c"/>
      <polygon points="404.58 72.53 404.56 72.53 404.59 72.62 404.6 72.61 404.58 72.53" fill="#14304c"/>
      <polygon points="404.56 72.32 404.49 72.07 404.2 71.18 404.54 72.32 404.56 72.32" fill="#14304c"/>
      <polygon points="404.56 72.36 404.55 72.33 404.54 72.33 404.54 72.35 404.56 72.36" fill="#14304c"/>
      <polygon points="404.54 72.35 404.54 72.36 404.55 72.37 404.55 72.37 404.55 72.37 404.54 72.35" fill="#14304c"/>
      <polygon points="404.57 72.39 404.56 72.37 404.55 72.36 404.57 72.39" fill="#14304c"/>
      <polygon points="404.55 72.36 404.55 72.36 404.56 72.37 404.57 72.39 404.55 72.36" fill="#14304c"/>
      <polygon points="404.58 72.42 404.59 72.47 404.57 72.39 404.56 72.37 404.58 72.42" fill="#14304c"/>
      <polygon points="404.58 72.36 404.59 72.36 404.29 71.26 404.49 72.07 404.58 72.36" fill="#14304c"/>
      <polygon points="404.6 72.39 404.59 72.36 404.58 72.36 404.59 72.38 404.6 72.39" fill="#14304c"/>
      <polygon points="404.62 72.46 404.6 72.4 404.59 72.39 404.61 72.46 404.62 72.46" fill="#14304c"/>
      <polygon points="404.61 72.46 404.62 72.5 404.62 72.46 404.61 72.46" fill="#14304c"/>
      <polygon points="404.49 72.07 404.56 72.32 404.58 72.36 404.49 72.07" fill="#14304c"/>
      <polygon points="404.59 72.39 404.57 72.37 404.55 72.33 404.56 72.36 404.59 72.39" fill="#14304c"/>
      <polygon points="404.56 72.36 404.56 72.37 404.59 72.39 404.56 72.36" fill="#14304c"/>
      <polygon points="404.59 72.39 404.56 72.37 404.58 72.39 404.58 72.4 404.6 72.46 404.59 72.39" fill="#14304c"/>
      <polygon points="404.6 72.46 404.58 72.39 404.62 72.5 404.6 72.46" fill="#14304c"/>
      <polygon points="404.63 72.5 404.58 72.39 404.58 72.38 404.59 72.47 404.61 72.51 404.63 72.57 404.63 72.54 404.63 72.5" fill="#14304c"/>
      <path d="M404.63,72.57l-.02-.07.02.07Z" fill="#14304c"/>
      <polygon points="404.63 72.57 404.64 72.57 404.63 72.53 404.63 72.57" fill="#14304c"/>
      <polygon points="404.58 72.46 404.59 72.5 404.59 72.47 404.58 72.43 404.58 72.46" fill="#14304c"/>
      <polygon points="404.6 72.56 404.59 72.5 404.58 72.46 404.6 72.56" fill="#14304c"/>
      <polygon points="404.6 72.51 404.59 72.47 404.59 72.49 404.6 72.51" fill="#14304c"/>
      <polygon points="404.6 72.56 404.63 72.57 404.61 72.51 404.59 72.49 404.6 72.56" fill="#14304c"/>
      <polygon points="404.61 72.55 404.61 72.57 404.63 72.57 404.61 72.55" fill="#14304c"/>
      <polygon points="404.61 72.57 404.61 72.57 404.63 72.6 404.63 72.57 404.61 72.57" fill="#14304c"/>
      <path d="M404.03,65.53l-.65-7.22c-.1-.02-.21-.04-.31-.06l.79,7.32.57,5.53.14.97-.08-.96-.47-5.58Z" fill="#14304c"/>
      <polygon points="404.61 72.37 404.58 72.07 404.38 71.19 404.61 72.36 404.61 72.37" fill="#14304c"/>
      <polygon points="404.62 72.4 404.62 72.4 404.6 72.37 404.6 72.36 404.61 72.39 404.62 72.4" fill="#14304c"/>
      <polygon points="404.61 72.39 404.63 72.46 404.63 72.47 404.62 72.4 404.61 72.39" fill="#14304c"/>
      <path d="M404.61,72.47h.03s-.03,0-.03,0Z" fill="#14304c"/>
      <polygon points="404.63 72.32 404.63 72.24 404.45 71.21 404.58 72.07 404.63 72.32" fill="#14304c"/>
      <polygon points="404.63 72.32 404.57 72.07 404.61 72.37 404.63 72.37 404.63 72.32" fill="#14304c"/>
      <polygon points="404.63 72.42 404.62 72.38 404.61 72.37 404.63 72.4 404.63 72.42" fill="#14304c"/>
      <path d="M404.61,72.47h.02s-.02,0-.02,0Z" fill="#14304c"/>
      <polygon points="404.64 72.38 404.62 72.24 404.63 72.32 404.64 72.38" fill="#14304c"/>
      <polygon points="404.64 72.38 404.64 72.38 404.66 72.44 404.64 72.38" fill="#14304c"/>
      <polygon points="404.64 72.39 404.62 72.33 404.63 72.37 404.64 72.39" fill="#14304c"/>
      <polygon points="404.63 72.37 404.63 72.42 404.66 72.44 404.64 72.39 404.63 72.37" fill="#14304c"/>
      <polygon points="404.66 72.46 404.63 72.42 404.63 72.47 404.66 72.52 404.66 72.47 404.66 72.46" fill="#14304c"/>
      <polygon points="404.66 72.52 404.63 72.47 404.63 72.49 404.66 72.54 404.66 72.52" fill="#14304c"/>
      <polygon points="404.63 72.51 404.64 72.53 404.64 72.56 404.66 72.54 404.63 72.49 404.63 72.51" fill="#14304c"/>
      <polygon points="404.63 72.53 404.64 72.57 404.63 72.51 404.63 72.53" fill="#14304c"/>
      <path d="M404.64,72.54v-.03s0,.03,0,.03Z" fill="#14304c"/>
      <polygon points="404.63 72.51 404.63 72.51 404.64 72.57 404.64 72.56 404.64 72.53 404.63 72.51" fill="#14304c"/>
      <path d="M404.58,58.32l.02,7.2.02,6.03.02.21.06-1.82.06-4.42.12-7.25c-.1.02-.2.04-.3.05Z" fill="#14304c"/>
      <polygon points="404.62 71.78 404.59 71.59 404.63 71.89 404.62 71.78" fill="#14304c"/>
      <polygon points="404.68 72.38 404.68 72.32 404.69 72.19 404.56 70.12 404.62 71.78 404.68 72.38" fill="#14304c"/>
      <polygon points="404.68 72.39 404.68 72.38 404.62 71.79 404.62 71.91 404.67 72.38 404.68 72.39" fill="#14304c"/>
      <polygon points="404.67 72.43 404.67 72.43 404.67 72.46 404.67 72.4 404.66 72.39 404.67 72.43" fill="#14304c"/>
      <path d="M404.67,72.47v-.04s0,.04,0,.04Z" fill="#14304c"/>
      <polygon points="404.67 72.47 404.67 72.49 404.67 72.52 404.67 72.52 404.67 72.47 404.67 72.47" fill="#14304c"/>
      <polygon points="404.67 72.52 404.67 72.52 404.67 72.53 404.67 72.54 404.68 72.52 404.67 72.52" fill="#14304c"/>
      <polygon points="404.76 71.33 404.78 69.6 404.69 72.19 404.69 72.23 404.76 71.33" fill="#14304c"/>
      <polygon points="404.77 72.04 404.92 69.56 404.77 71.33 404.75 72.14 404.77 72.04" fill="#14304c"/>
      <polygon points="404.76 71.34 404.69 72.24 404.69 72.42 404.7 72.43 404.73 72.36 404.75 72.14 404.76 71.34" fill="#14304c"/>
      <polygon points="404.7 72.46 404.7 72.44 404.69 72.42 404.69 72.46 404.7 72.46" fill="#14304c"/>
      <path d="M404.7,72.43l.02-.06-.02.06Z" fill="#14304c"/>
      <path d="M404.69,72.49l.03-.03-.03.03Z" fill="#14304c"/>
      <polygon points="404.69 72.49 404.69 72.49 404.69 72.51 404.7 72.5 404.69 72.49" fill="#14304c"/>
      <polygon points="404.69 72.24 404.68 72.2 404.68 72.32 404.69 72.24" fill="#14304c"/>
      <polygon points="404.68 72.39 404.68 72.39 404.69 72.42 404.69 72.24 404.68 72.32 404.68 72.39" fill="#14304c"/>
      <polygon points="404.68 72.47 404.69 72.47 404.69 72.46 404.69 72.43 404.68 72.4 404.68 72.47" fill="#14304c"/>
      <polygon points="404.68 72.47 404.68 72.49 404.69 72.5 404.69 72.47 404.68 72.47" fill="#14304c"/>
      <polygon points="404.68 72.49 404.69 72.51 404.69 72.5 404.68 72.49" fill="#14304c"/>
      <polygon points="404.68 72.52 404.69 72.51 404.68 72.49 404.68 72.47 404.68 72.52" fill="#14304c"/>
      <polygon points="404.68 72.52 404.68 72.52 404.69 72.51 404.68 72.52" fill="#14304c"/>
      <path d="M404.68,72.47h0s0,0,0,0Z" fill="#14304c"/>
      <polygon points="404.94 71.33 405.13 69.5 404.77 72.04 404.75 72.15 404.94 71.33" fill="#14304c"/>
      <polygon points="404.85 72.04 405.26 69.52 404.94 71.33 404.83 72.15 404.85 72.04" fill="#14304c"/>
      <polygon points="404.93 71.34 404.75 72.15 404.75 72.36 404.75 72.42 404.79 72.31 404.82 72.15 404.93 71.34" fill="#14304c"/>
      <polygon points="404.74 72.43 404.75 72.42 404.75 72.37 404.74 72.43" fill="#14304c"/>
      <polygon points="404.75 72.42 404.74 72.43 404.75 72.42 404.78 72.32 404.75 72.42" fill="#14304c"/>
      <polygon points="404.77 72.05 404.75 72.14 404.75 72.21 404.75 72.15 404.77 72.05" fill="#14304c"/>
      <polygon points="404.73 72.36 404.75 72.22 404.74 72.15 404.73 72.36" fill="#14304c"/>
      <polygon points="404.75 72.36 404.74 72.22 404.73 72.36 404.7 72.43 404.74 72.46 404.74 72.43 404.75 72.36" fill="#14304c"/>
      <polygon points="404.7 72.46 404.73 72.46 404.7 72.43 404.7 72.46" fill="#14304c"/>
      <polygon points="404.7 72.49 404.7 72.49 404.73 72.46 404.7 72.46 404.7 72.49" fill="#14304c"/>
      <polygon points="413.05 42.55 412.97 42.94 413.65 43.18 413.73 42.76 413.05 42.55" fill="#14304c"/>
      <polygon points="404.85 72.04 404.84 72.14 405.1 71.33 405.47 69.63 404.85 72.04" fill="#14304c"/>
      <polygon points="405.62 69.59 405.1 71.33 404.89 72.17 404.95 72.08 405.62 69.59" fill="#14304c"/>
      <polygon points="404.89 72.18 405.09 71.34 404.84 72.14 404.79 72.37 404.83 72.35 404.87 72.23 404.89 72.18" fill="#14304c"/>
      <polygon points="404.83 72.35 404.84 72.32 404.87 72.23 404.83 72.35" fill="#14304c"/>
      <polygon points="404.82 72.15 404.83 72.19 404.84 72.14 404.84 72.05 404.82 72.15" fill="#14304c"/>
      <polygon points="404.79 72.31 404.82 72.19 404.82 72.16 404.79 72.31" fill="#14304c"/>
      <polygon points="404.82 72.19 404.79 72.37 404.83 72.15 404.82 72.19" fill="#14304c"/>
      <polygon points="404.79 72.31 404.75 72.42 404.79 72.37 404.82 72.2 404.79 72.31" fill="#14304c"/>
      <polygon points="416.54 42.84 415.99 44.5 416.55 44.93 417.2 43.17 416.54 42.84" fill="#14304c"/>
      <polygon points="404.95 72.07 404.93 72.12 405.27 71.31 405.86 69.64 404.95 72.07" fill="#14304c"/>
      <polygon points="406.04 69.57 405.27 71.31 404.99 72.15 405.04 72.07 406.04 69.57" fill="#14304c"/>
      <polygon points="404.92 72.13 404.88 72.28 404.98 72.15 405.26 71.32 404.92 72.13" fill="#14304c"/>
      <polygon points="404.89 72.17 404.89 72.19 404.92 72.13 404.94 72.09 404.89 72.17" fill="#14304c"/>
      <polygon points="404.88 72.22 404.88 72.19 404.88 72.19 404.88 72.22" fill="#14304c"/>
      <polygon points="404.89 72.19 404.88 72.28 404.92 72.14 404.89 72.19" fill="#14304c"/>
      <polygon points="404.87 72.23 404.84 72.32 404.87 72.29 404.88 72.2 404.87 72.23" fill="#14304c"/>
      <path d="M419.33,46.95l1.59-3.43-.65-.44-1.48,3.37c.17.17.36.33.53.5Z" fill="#14304c"/>
      <polygon points="405.04 72.06 405 72.12 405.5 71.28 406.29 69.59 405.04 72.06" fill="#14304c"/>
      <polygon points="405.51 71.27 405.17 71.95 405.22 71.93 406.57 69.42 405.51 71.27" fill="#14304c"/>
      <polygon points="405 72.12 405 72.12 405.1 72.02 405.17 71.96 405.5 71.29 405 72.12" fill="#14304c"/>
      <polygon points="405.03 72.07 404.99 72.15 405 72.13 405.03 72.07" fill="#14304c"/>
      <path d="M424.52,43.46l-3.16,5.46c.06.06.38.43.49.54l3.29-5.42-.62-.58Z" fill="#14304c"/>
      <path d="M418.83,52.76l-3.7,5.08-8.25,11.75-1.09,1.65,1.38-1.76,8.33-11.32,4-5.3c-.18-.03-.63-.09-.66-.1Z" fill="#14304c"/>
      <polygon points="406.75 69.68 405.26 71.9 405.28 71.87 405.77 71.25 406.75 69.68" fill="#14304c"/>
      <polygon points="405.77 71.25 405.45 71.77 405.53 71.71 407.02 69.57 405.77 71.25" fill="#14304c"/>
      <polygon points="405.28 71.87 405.44 71.77 405.76 71.27 405.28 71.87" fill="#14304c"/>
      <path d="M421.81,53.56l-4.06,4.44-10.31,11.52-1.39,1.75,1.78-1.89,10.24-10.96,4.37-4.6c-.21-.09-.42-.18-.63-.26Z" fill="#14304c"/>
      <polygon points="429.29 44.13 423.33 51.77 423.67 52.45 429.9 44.84 429.29 44.13" fill="#14304c"/>
      <polygon points="407.38 69.63 405.69 71.59 405.87 71.46 406.04 71.27 407.38 69.63" fill="#14304c"/>
      <polygon points="406.05 71.26 405.94 71.39 406.22 71.19 407.76 69.49 406.05 71.26" fill="#14304c"/>
      <polygon points="405.88 71.46 405.93 71.4 406.03 71.29 405.88 71.46" fill="#14304c"/>
      <polygon points="420.22 59.37 435.69 45.84 435.1 44.97 419.86 58.89 408 69.73 407.22 70.5 407.75 70.2 408.42 69.66 420.22 59.37" fill="#14304c"/>
      <polygon points="407.07 70.56 407.22 70.5 407.96 69.79 407.07 70.56" fill="#14304c"/>
      <polygon points="407.72 70.25 407.84 70.17 408.38 69.71 407.72 70.25" fill="#14304c"/>
      <polygon points="423.92 60.11 443.17 47.28 442.47 45.91 423.53 59.37 409.92 69.05 411.46 68.34 414.81 66.2 423.92 60.11" fill="#14304c"/>
      <polygon points="411.47 68.32 411.96 68.07 414.83 66.04 411.47 68.32" fill="#14304c"/>
      <polygon points="453.66 49.05 452.86 46.97 428.7 59.83 419.45 64.75 419.54 64.86 421.03 64.9 429.13 60.98 453.66 49.05" fill="#14304c"/>
      <polygon points="466.55 52.49 465.85 49.88 435.21 61.31 424.28 65.39 424.48 65.42 424.62 65.53 426.05 65.59 426.2 65.72 426.58 65.74 435.59 62.75 466.55 52.49" fill="#14304c"/>
      <polygon points="477.01 59.66 476.56 56.57 440.58 64.63 432.56 66.43 432.57 66.45 433.87 66.51 434.03 66.65 435.47 66.68 435.61 66.82 436.9 66.87 437.06 67 437.1 67 440.83 66.34 477.01 59.66" fill="#14304c"/>
      <polygon points="490.97 65.61 451.64 68.82 452.64 69.04 453.93 69.09 454.08 69.23 457.96 69.66 458.11 69.79 459.26 69.82 459.42 69.95 460.57 70.01 462.01 70.32 463.31 70.39 463.42 70.48 491.13 69.29 490.97 65.61" fill="#14304c"/>
      <polyline points="379.66 58.29 392.69 66.05 393.38 66.45 402.97 71.8 389.42 62.31 347.78 34.77 295.21 0 292.1 6.06" fill="#14304c"/>
      <polyline points="510.64 76.82 510.64 69.98 467.51 70.99" fill="#14304c"/>
      <g>
        <path d="M408.74,48.41c1.04,0,1.91-.85,1.91-1.95s-.83-1.95-1.91-1.95-1.91.85-1.91,1.95.85,1.95,1.91,1.95ZM408.74,44.69c.96,0,1.75.8,1.75,1.79s-.78,1.79-1.75,1.79-1.75-.8-1.75-1.79.78-1.79,1.75-1.79Z" fill="#14304c"/>
        <path d="M408.74,47.73c.7,0,1.27-.57,1.27-1.27s-.57-1.27-1.27-1.27-1.27.57-1.27,1.27.57,1.27,1.27,1.27Z" fill="#14304c"/>
      </g>
      <path d="M406.12,58.02l-1.19,11.48,1.51-11.58c-.11.04-.21.07-.32.1Z" fill="#14304c"/>
      <path d="M406.93,57.74l-1.78,11.7,2.1-11.84c-.11.05-.22.1-.33.14Z" fill="#14304c"/>
      <path d="M409.64,56.07l-.56,1.71-3.42,11.77,4.13-12.84.4-1.05c-.18.14-.36.27-.55.41Z" fill="#14304c"/>
      <path d="M416.79,52.48c-.12,0-.24-.02-.36-.02l-3.3,5.52-6.55,11.47,7.91-12.95,2.54-3.99c-.08,0-.16-.02-.24-.02Z" fill="#14304c"/>
      <path d="M407.94,57.24l-2.67,12.23c.88-4.07,1.8-8.14,2.67-12.23h0Z" fill="#14304c"/>
      <path d="M413.05,53.25l-2.01,4.59-4.97,11.68,5.92-12.94,1.79-3.78c-.08.03-.61.36-.73.45Z" fill="#14304c"/>
      <path d="M411.58,54.55c-.06.06-.13.11-.19.16l-.9,2.25-4.6,12.64,4.68-11.85,1.58-3.7c-.18.17-.37.33-.56.49Z" fill="#14304c"/>
      <path d="M415.03,52.53l-2.33,4.36-6.37,12.67,6.35-11.79,2.99-5.3c-.21.01-.43.03-.64.06Z" fill="#14304c"/>
      <path d="M408.59,56.83l-3.11,12.74,3.28-12.12.3-.96c-.16.11-.31.23-.47.33Z" fill="#14304c"/>
      <path d="M405.6,58.15s-.03.01-.05.02h-.02s-.74,11.41-.74,11.41l1.02-11.48c-.07.02-.14.03-.21.05Z" fill="#14304c"/>
      <path d="M400.41,62.2l-1.98-4.94s-.14-.16-.18-.24h-.02c-.32-.22-.6-.45-.89-.66l2.69,6.09,3.62,8.22.28.6.4.77-.4-1.08-3.52-8.75v.02h0Z" fill="#14304c"/>
      <path d="M402.43,64.22l-1.68-6.42c-.2-.08-.42-.15-.62-.25l1.98,6.8,1.97,6.71.42,1.27-.3-1.26-1.78-6.85h.02s0-.02,0-.02h0s0,.01,0,.01Z" fill="#14304c"/>
      <path d="M404.42,71.08l-.9-6.28h0s-.97-6.71-.97-6.71c-.17-.01-.34-.03-.51-.05l1.19,6.85,1.08,6.27.26,1.22-.15-1.29Z" fill="#14304c"/>
      <path d="M404.61,71.55h0s-.2-6.36-.2-6.36l-.22-6.83c-.16,0-.31,0-.47,0l.42,6.9.36,5.91.11,1.14.02-.73h-.02v-.02Z" fill="#14304c"/>
      <path d="M405.55,58.16c-.16.03-.32.06-.48.08l-.41,11.7-.02,2.24.25-2.79.72-11.26h-.01s-.03.01-.05.02Z" fill="#14304c"/>
      <path d="M406.43,57.92l-1.44,11.47-.26,2.64.48-2.71,1.82-11.62c-.2.08-.4.16-.6.22Z" fill="#14304c"/>
      <path d="M407.96,57.23l-2.63,12.23-.48,2.6.69-2.5,3.22-12.84c-.26.18-.52.36-.8.51Z" fill="#14304c"/>
      <path d="M410.14,55.71l-.34,1.07-4.22,12.81-.74,2.5.98-2.46,4.6-12.59.83-2.2c-.36.3-.73.59-1.11.88Z" fill="#14304c"/>
      <path d="M414.71,52.57c-.31.05-.61.13-.9.22l-1.75,3.77-6.03,12.97-1.11,2.55,1.38-2.54,6.37-12.62,2.21-4.38c-.05,0-.11.02-.16.03Z" fill="#14304c"/>
      <path d="M417.08,52.51l-2.48,3.91-7.88,12.92-1.51,2.59.03-.03,1.63-2.32,8.31-12.69,2.92-4.24c-.83-.13-.78-.11-1.03-.15Z" fill="#14304c"/>
      <path d="M399.97,63.29l-3.6-7.3c-.52-.61-.99-1.31-1.34-2.04.03.08.07.18.1.27-.03-.1-.1-.18-.15-.29l-.17.12,4.91,9.4,2.34,4.49,1.72,3.13-.17-.37-3.65-7.41h.02v-.02h0Z" fill="#14304c"/>
      <path d="M402.01,64.86l-2.44-7.39c-.15-.08-.3-.17-.45-.26l2.72,7.73,2.1,5.96.43,1.14-.29-.93-2.07-6.23h.02s-.02-.03-.02-.03h0s0,0,0,0Z" fill="#14304c"/>
      <path d="M403.1,65.28l-1.49-7.36c-.12-.02-.23-.06-.33-.08l1.65,7.49,1.29,5.76.25.98-.16-.9-1.21-5.89h0Z" fill="#14304c"/>
      <path d="M405.78,58.11l-1,11.33-.13,1.87.26-1.92,1.22-11.38c-.12.03-.24.07-.35.1Z" fill="#14304c"/>
      <path d="M407.6,57.43c-.11.05-.21.11-.32.15l-2.09,11.78-.3,1.94.43-1.91,2.36-12.01s-.06.03-.09.05Z" fill="#14304c"/>
      <path d="M409.6,56.11c-.15.11-.3.22-.46.34l-.3,1.14-3.31,12.01-.43,1.75.58-1.79,3.51-11.84.49-1.67s-.06.04-.09.07Z" fill="#14304c"/>
      <path d="M412.47,53.75c-.14.13-.28.26-.42.39l-1.44,3.54-4.8,11.91-.63,1.72.81-1.78,4.99-11.64,1.92-4.51c-.15.12-.29.24-.43.38Z" fill="#14304c"/>
      <path d="M415.72,52.46l-2.96,5.24-6.36,11.81-.89,1.75,1.18-1.92,6.44-11.39,3.26-5.5c-.22,0-.45,0-.67,0Z" fill="#14304c"/>
    </g>
  </g>
</svg>