<?xml version="1.0" encoding="UTF-8"?>
<svg id="Layer_2" data-name="Layer 2" xmlns="http://www.w3.org/2000/svg" viewBox="0 0 164.72 221.8">
  <defs>
    <style>
      .cls-1 {
        fill: #ef4545;
      }
    </style>
  </defs>
  <g id="Layer_1-2" data-name="Layer 1">
    <g>
      <path class="cls-1" d="M87.63,141.4c-.85-1.05-2.07-1.58-3.64-1.58-2.27,0-3.77.89-5.01,2.97-1.23,2.06-2.21,5.39-3.3,9.76-.42,1.69-.88,3.66-1.42,6-1.73,7.65-2.4,11.61-2.4,14.15,0,1.12.13,1.99.4,2.72.18.69.47,1.28.88,1.79.85,1.05,2.05,1.59,3.56,1.59h0s0,0,0,0c.93,0,1.75-.17,2.5-.51,1.7-.78,2.81-2.25,3.85-5.09,1-2.73,1.89-6.62,3.25-12.51v-.05c1.88-8.41,2.57-12.46,2.57-14.93,0-1.05-.12-1.85-.38-2.53-.18-.69-.46-1.25-.88-1.77Z"/>
      <path class="cls-1" d="M0,0v221.8h164.72V0H0ZM144.71,140.87h-5.86c-1.39,0-2.57.95-2.87,2.3l-5.42,24.73c-.73,2.95-1.64,6.62-1.64,9.96,0,2.48.49,4.43,1.51,5.94l-.75,4.62h-20.59c-.06,0-.1-.01-.14-.02-.05-.12-.08-.31-.08-.53,0-.11,0-.23.02-.36.09-.78.46-3.21.62-4.06l1.33-5.88.06-.47,7.57-33.06.03-.14c.03-.13.08-.36.08-.64,0-.6-.23-1.13-.69-1.59-.75-.74-1.38-.8-2.07-.81h-4.24c-1.42.02-2.63.99-2.95,2.37l-11.18,48.57-.79,2.82-.14.52q-.16.62-.45,1.06s-.23.25-.92.34h-16.07l.36-2.72.3-.46c.9-1.36,1.38-3.29,1.72-4.99.16-.78.17-1.25.17-1.38v-.15s0-.11,0-.11h-.11s-.15-.03-.15-.03c-.02,0-.11-.01-.26-.01-.49,0-1.5.1-2.79.74-2.02,1.01-5.13,1.14-7.62,1.14-.37,0-.74,0-1.09-.01-.26,0-.51,0-.75,0-.3,0-.59,0-.87-.01h-.46c-2.44-.02-5.79-.05-7.91-1.13-1.06-.54-1.92-1.22-2.46-1.7-.61-.54-.99-1-1.03-1.07l-.78-1.49-.08-.15-.12.11-.71.67c-1.38,1.31-3.8,2.5-6.81,3.35-3.03.86-6.53,1.33-9.86,1.33-.49,0-.97-.01-1.44-.03-7.98-.35-12.21-1.87-15.12-5.43-1.94-2.37-3.17-6.1-3.57-10.78-.09-1.09-.14-2.24-.14-3.43,0-4.03.53-8.41,1.56-13.02,1.11-4.85,2.41-8.79,3.96-12.04,1.58-3.32,3.43-5.92,5.64-7.94,2.2-2.02,4.77-3.46,7.83-4.41,3.01-.93,6.49-1.38,10.66-1.38,7.99,0,14.57,2.26,17.19,5.89l.55.76.09.13.1-.12.61-.71c.09-.11.17-.21.22-.3,2.97-3.58,7.83-5.63,13.36-5.63h.45c5.69,0,9.96.89,11.13,1.32.59.22,1.1.49,1.42.68.18.1.32.2.41.26.07.05.12.08.16.11l.36.18.13.07.04-.14.75-2.51h19.61s.26-.01.26-.01c3.22-.39,5.48-1.23,7.1-2.66,1.38-1.21,2.33-2.83,3.17-5.39h16.48l-.96,4.28c-.05.22-.07.43-.07.65,0,.36.07.71.2,1.04.32.8.86,1.4,1.57,1.75h0s.06.04.06.04h.02c.38.18.85.27,1.55.31h4.03s-2.49,10.85-2.49,10.85Z"/>
      <path class="cls-1" d="M56.73,149.44h-3.26s-2.89,0-2.89,0l.82-4c.09-.2.25-.6.33-.98.03-.13.08-.48.08-.98,0-.26-.01-.53-.04-.79-.06-.64-.3-1.16-.48-1.41-.13-.24-.31-.42-.82-.8-.89-.65-2.19-.97-4.01-.97-2.27,0-3.77.89-5.01,2.97-1.23,2.06-2.21,5.39-3.3,9.76-.42,1.7-.89,3.67-1.42,6-1.72,7.63-2.4,11.6-2.4,14.14v.27s0,.18,0,.18v.12h0c0,.18.02.3.03.39.06.69.18,1.27.36,1.77.18.7.47,1.28.88,1.79.85,1.05,2.05,1.59,3.57,1.59.93,0,1.75-.17,2.51-.51.52-.24.99-.55,1.42-.95,1.05-.97,1.74-2.14,2.44-4.17.19-.55.22-1.12.22-1.42v-.06s.02-.07.03-.12q.22-.84.35-1.27c.11-.37.34-1.14.97-3.31h8.14v-.12s.02-.72.02-.72c0-.17.02-.32.04-.47,0-.06.01-.13.01-.19,0-.11-.01-.21-.04-.32,0-.06.02-.12.03-.2v-.07c.27-3.28,1.8-10.62,2.44-13.64.02-.05.05-.13.08-.24.03-.12.15-.59.2-.82l.02-.09.05-.21.04-.15h-.16s-1.29,0-1.29,0Z"/>
    </g>
  </g>
</svg>