<?xml version="1.0" encoding="UTF-8"?>
<svg id="Layer_2" data-name="Layer 2" xmlns="http://www.w3.org/2000/svg" viewBox="0 0 108.43 34.88">
  <defs>
    <style>
      .cls-1 {
        fill: #ed1c24;
      }

      .cls-2 {
        fill: #293b95;
      }
    </style>
  </defs>
  <g id="Layer_1-2" data-name="Layer 1">
    <path class="cls-2" d="M51.46,21.57l-1.2,5.99c-.53,2.43-2,4.05-5,4.05-3.44,0-4.35-2.13-3.6-5.12,1.07-4.24,4.55-5.51,9.8-4.91M56.88,13.01l-3.66.23-1.16,5.86c-1.4-.05-1.84-.1-3.49-.1-5.15,0-9.64,2.15-10.83,7.22-1.07,4.56,1.53,8.1,7.2,8.1s8.34-3.01,9.24-7.27l2.69-14.05ZM17.93,19.74c-9.2-1.35-14.82.67-14.98,4.41-.21,5.03,8.79,2.24,8.65,5.34-.12,2.92-5.73,2.85-11.05,2.01l-.56,2.19c3.09.94,15.54,2.63,15.79-4.73.17-5.02-8.78-2.64-8.67-5.36.08-1.81,4.69-2.26,10.06-1.77l.75-2.08ZM31.65,26.83c-.77,3.08-3.22,5.01-6.14,5.01s-4.42-1.76-3.6-5.01c.78-3.07,3.26-5.14,6.17-5.14s4.35,2.06,3.57,5.14M28.54,19.18c-5.34,0-9.63,3.08-10.68,7.66-1.06,4.59,1.81,7.66,7.15,7.66s9.63-3.07,10.68-7.66c1.05-4.58-1.82-7.66-7.15-7.66M90.19,34.42s-9.63-9.93-13.39-15.09h-3.4c3.96,6.41,9.34,12.46,12.15,15.09h4.64M97.19,0l-2.13,4.43-3.8-1.73,1.7,4.01-4.13,2.34,4.24.58-1.35,4.66,3.6-3.3,2.45,3.46.24-4.68,4.4-.34-3.3-2.55,3.04-3.89-4.35,1.52-.61-4.51ZM104.1,26.88c-.79,3.13-3.27,5.09-6.23,5.09s-4.49-1.79-3.66-5.09c.78-3.12,3.3-5.22,6.26-5.22s4.42,2.1,3.63,5.22M100.95,19.1c-5.42,0-9.78,3.12-10.85,7.77-1.07,4.66,1.85,7.79,7.27,7.79s9.78-3.13,10.85-7.79c1.07-4.65-1.85-7.77-7.27-7.77M66.42,21.42c1.68,0,2.59.61,2.59,1.77,0,3.08-6.02,2.88-8.68,2.34.93-2.31,3.04-4.1,6.09-4.1M72.62,23.02c0-2.23-1.78-3.87-5.83-3.87-6.57,0-10.84,4.24-10.84,9.5,0,3.4,2.83,6.22,8,6.22,3.56,0,5.94-1.75,5.94-1.75-4.53.48-10.1,0-10.1-4.83,0-.19.01-.39.03-.58,6.18,1.28,12.8-.27,12.8-4.7"/>
    <path class="cls-1" d="M69.89,33.13c8.76-4.84,16.37-12.29,21.76-18.74-3.87,12.1-13.22,18.61-21.76,18.74"/>
  </g>
</svg>
