<?xml version="1.0" encoding="UTF-8"?>
<svg id="Layer_2" data-name="Layer 2" xmlns="http://www.w3.org/2000/svg" viewBox="0 0 63.13 63.13">
  <defs>
    <style>
      .cls-1 {
        fill: #188755;
        fill-rule: evenodd;
      }
    </style>
  </defs>
  <g id="Layer_1-2" data-name="Layer 1">
    <path class="cls-1" d="M63.13,30.75c0,16.98-13.88,30.75-30.99,30.75-5.44,0-10.54-1.39-14.98-3.83L0,63.13l5.59-16.5c-2.82-4.63-4.45-10.07-4.45-15.88C1.15,13.77,15.02,0,32.14,0s30.99,13.77,30.99,30.75h0ZM32.14,4.9c-14.37,0-26.06,11.6-26.06,25.86,0,5.65,1.84,10.9,4.96,15.16l-3.25,9.6,10.01-3.18c4.11,2.7,9.04,4.27,14.34,4.27,14.37,0,26.06-11.6,26.06-25.85S46.51,4.9,32.14,4.9h0ZM47.79,37.84c-.19-.31-.7-.5-1.46-.88-.76-.38-4.5-2.2-5.19-2.45-.7-.25-1.21-.38-1.71.38-.51.75-1.96,2.45-2.41,2.96-.44.5-.88.57-1.64.19-.76-.38-3.21-1.17-6.11-3.74-2.26-2-3.78-4.47-4.23-5.22-.44-.75-.04-1.16.33-1.54.34-.34.76-.88,1.14-1.32.38-.44.51-.76.76-1.26.25-.5.13-.94-.06-1.32-.19-.38-1.71-4.09-2.34-5.6-.63-1.51-1.26-1.45-1.71-1.45s-1.26.13-1.26.13c0,0-1.52.19-2.22.94-.7.75-2.66,2.58-2.66,6.29s2.72,7.3,3.1,7.8c.38.5,5.25,8.36,12.98,11.38,7.72,3.02,7.72,2.01,9.12,1.88,1.39-.12,4.49-1.82,5.13-3.58.63-1.76.63-3.27.45-3.58h0Z"/>
  </g>
</svg>